<svg xmlns="http://www.w3.org/2000/svg" viewBox="0 0 300 300"><path d="M170.23,90.06V109h-1.87V90.06Z"/><path d="M173.08,103.63a5.71,5.71,0,1,1,5.71,5.66A5.53,5.53,0,0,1,173.08,103.63Zm1.92,0a3.8,3.8,0,1,0,3.79-4A3.74,3.74,0,0,0,175,103.63Z"/><path d="M187.36,98.21h1.87v1.24a3.77,3.77,0,0,1,3.08-1.5,3.64,3.64,0,0,1,3.09,1.47,4.8,4.8,0,0,1,.63,2.89V109h-1.87v-6.62a3.11,3.11,0,0,0-.5-2,2.09,2.09,0,0,0-1.76-.78,2.37,2.37,0,0,0-1.9.83,4.55,4.55,0,0,0-.77,2.9V109h-1.87Z"/><path d="M207.81,98.21h1.87v10.51a6.77,6.77,0,0,1-1,4.23,5.23,5.23,0,0,1-4.31,2,5.33,5.33,0,0,1-3.84-1.46,4.82,4.82,0,0,1-1.4-3.48h1.84a3.45,3.45,0,0,0,.83,2.24,3.37,3.37,0,0,0,2.6,1,3,3,0,0,0,2.85-1.51,5,5,0,0,0,.6-2.75v-1.56a4.53,4.53,0,0,1-3.69,1.82,5.11,5.11,0,0,1-3.68-1.46,5.79,5.79,0,0,1-1.56-4.25,5.65,5.65,0,0,1,1.56-4.18A5.31,5.31,0,0,1,204.12,98a4.47,4.47,0,0,1,3.69,1.79Zm-5.92,2.41a4.09,4.09,0,0,0-1.09,3,4.14,4.14,0,0,0,1.22,3.16,3.26,3.26,0,0,0,2.31.89,3.16,3.16,0,0,0,2.36-.91,4.35,4.35,0,0,0,1.22-3.12,4.22,4.22,0,0,0-1.14-3,3.43,3.43,0,0,0-2.44-1A3.34,3.34,0,0,0,201.89,100.62Z"/><path d="M169.29,122.84a1.33,1.33,0,1,1-1.32,1.32A1.33,1.33,0,0,1,169.29,122.84Zm.94,5.4V139h-1.87V128.24Z"/><path d="M173.76,128.24h1.87v1.24a3.77,3.77,0,0,1,3.08-1.5,3.65,3.65,0,0,1,3.09,1.48,4.75,4.75,0,0,1,.63,2.88V139h-1.87v-6.62a3.11,3.11,0,0,0-.5-2,2.09,2.09,0,0,0-1.76-.78,2.37,2.37,0,0,0-1.9.83,4.58,4.58,0,0,0-.77,2.91V139h-1.87Z"/><path d="M190.39,130.73a1.65,1.65,0,0,0-1.5-1.09,1.19,1.19,0,0,0-1.3,1.22c0,.78.52,1,1.74,1.53a6.57,6.57,0,0,1,2.7,1.66,2.53,2.53,0,0,1,.57,1.74,3.42,3.42,0,0,1-3.71,3.53,3.84,3.84,0,0,1-3.76-2.75l1.6-.68a2.44,2.44,0,0,0,2.18,1.77,1.68,1.68,0,0,0,1.77-1.71c0-1-.73-1.35-1.74-1.8a6.92,6.92,0,0,1-2.62-1.58,2.31,2.31,0,0,1-.49-1.58,2.89,2.89,0,0,1,3.14-3,3.11,3.11,0,0,1,3,1.94Z"/><path d="M197,130V139h-1.87V130H194v-1.71h1.14v-3.9H197v3.9h1.87V130Z"/><path d="M208.9,128.24h1.87V139H208.9V137.5a4.53,4.53,0,0,1-3.69,1.82c-2.72,0-5.24-1.92-5.24-5.71s2.49-5.63,5.24-5.63a4.45,4.45,0,0,1,3.69,1.79Zm-7,5.37c0,2.31,1.3,4,3.53,4s3.58-1.9,3.58-4a3.65,3.65,0,0,0-3.58-4C203.58,129.64,201.89,131,201.89,133.61Z"/><path d="M216.17,120.09V139H214.3V120.09Z"/><path d="M221.56,120.09V139H219.7V120.09Z"/><path d="M233.35,128.24h1.87V139h-1.87V137.5a4.53,4.53,0,0,1-3.69,1.82c-2.72,0-5.24-1.92-5.24-5.71s2.49-5.63,5.24-5.63a4.45,4.45,0,0,1,3.69,1.79Zm-7,5.37c0,2.31,1.3,4,3.53,4s3.58-1.9,3.58-4a3.65,3.65,0,0,0-3.58-4C228,129.64,226.34,131,226.34,133.61Z"/><path d="M240.67,130V139H238.8V130h-1.14v-1.71h1.14v-3.9h1.87v3.9h1.87V130Z"/><path d="M245.24,122.84a1.33,1.33,0,1,1-1.33,1.32A1.33,1.33,0,0,1,245.24,122.84Zm.93,5.4V139H244.3V128.24Z"/><path d="M249,133.66a5.72,5.72,0,1,1,5.71,5.66A5.53,5.53,0,0,1,249,133.66Zm1.93,0a3.79,3.79,0,1,0,3.78-4A3.73,3.73,0,0,0,251,133.66Z"/><path d="M263.3,128.24h1.87v1.24a3.81,3.81,0,0,1,3.09-1.5,3.66,3.66,0,0,1,3.09,1.48,4.82,4.82,0,0,1,.62,2.88V139H270.1v-6.62a3.16,3.16,0,0,0-.49-2,2.13,2.13,0,0,0-1.77-.78,2.33,2.33,0,0,0-1.89.83,4.53,4.53,0,0,0-.78,2.91V139H263.3Z"/><path d="M64.08,84.31H74.5v8.63H64.08v16H54.69v-16H11.25l52.83-73.4Zm-9.39,0V46.84L27.89,84.31Z" style="fill:#28509c"/><path d="M128.09,27.54,108.66,54.59a24.39,24.39,0,0,1,7.49-1.14c16.26,0,27.44,12.19,27.44,27.94,0,16.89-12.2,29.08-29.09,29.08-19.94,0-29.33-15.49-29.33-28.83,0-3.17.63-10.54,7-19.43l28.83-40Zm6.1,54.1c0-11.3-8.38-19.56-19.94-19.56S94.56,70.59,94.56,81.64c0,11.3,8,20.19,19.82,20.19S134.19,93.07,134.19,81.64Z" style="fill:#28509c"/><path d="M158.42,40.82V66.65h-5.33V40.82h-3V35.93h3V22.53c0-2.81.22-6.37,3-8.66a9.54,9.54,0,0,1,6.14-2,10.38,10.38,0,0,1,3.78.66v5.19a9.55,9.55,0,0,0-3.48-.67,3.75,3.75,0,0,0-3.41,1.63c-.66,1.11-.66,2.81-.66,4.44V35.93H166v4.89Z" style="fill:#28509c"/><path d="M179.15,40.82V66.65h-5.33V40.82h-3.26V35.93h3.26V24.82h5.33V35.93h5.33v4.89Z" style="fill:#28509c"/><path d="M191.44,60a3.7,3.7,0,1,1-3.71,3.7A3.76,3.76,0,0,1,191.44,60Z" style="fill:#28509c"/><path d="M57.1,226.83,28.29,198H273.74l-28.81,28.8A4.3,4.3,0,0,0,251,232.9l36.12-36.12a4.29,4.29,0,0,0,0-6.07h0L251,154.56a4.3,4.3,0,1,0-6.08,6.08l28.83,28.8H28.29l28.81-28.8A4.3,4.3,0,1,0,51,154.56L14.9,190.69a4.29,4.29,0,0,0,0,6.07h0L51,232.88a4.3,4.3,0,1,0,6.08-6.07Z" style="fill:#f26531"/><path d="M248,234.66a4.8,4.8,0,0,1-3.39-8.19l27.95-27.94H29.5l27.1,27.09v0l.85.85a4.79,4.79,0,0,1-6.78,6.78L14.48,197a4.7,4.7,0,0,1-1.34-3.32,4.76,4.76,0,0,1,1.41-3.39l36.12-36.12a4.8,4.8,0,0,1,8.19,3.39A4.74,4.74,0,0,1,57.45,161L29.5,188.94h243l-28-27.95a4.8,4.8,0,0,1,0-6.78,4.8,4.8,0,0,1,6.78,0l36.21,36.22a4.78,4.78,0,0,1,1.34,3.32,4.72,4.72,0,0,1-1.41,3.38l-36.12,36.13A4.77,4.77,0,0,1,248,234.66ZM27.09,197.53H274.94l-29.65,29.65a3.8,3.8,0,0,0,0,5.37,3.88,3.88,0,0,0,5.36,0l36.13-36.12a3.8,3.8,0,0,0,0-5.37l-36.15-36.14a3.79,3.79,0,0,0-5.36,0,3.8,3.8,0,0,0,0,5.37l29.67,29.65H27.09l29.65-29.65a3.79,3.79,0,0,0-5.36-5.37L15.25,191a3.79,3.79,0,0,0,0,5.36l36.13,36.13A3.8,3.8,0,0,0,57,227.38l-.21-.2Z" style="fill:#f26531"/><path d="M279.79,288.17V270.29a4.29,4.29,0,0,1,8.58,0v17.88a4.29,4.29,0,0,1-8.58,0Z" style="fill:#28509c"/><path d="M173.34,288.17V270.29a4.29,4.29,0,1,1,8.58,0v17.88a4.29,4.29,0,0,1-8.58,0Z" style="fill:#28509c"/><path d="M226.56,288.17V270.29a4.3,4.3,0,0,1,8.59,0v17.88a4.3,4.3,0,0,1-8.59,0Z" style="fill:#28509c"/><path d="M120.11,288.17V270.29a4.29,4.29,0,1,1,8.58,0v17.88a4.29,4.29,0,1,1-8.58,0Z" style="fill:#28509c"/><path d="M13.66,288.17V270.29a4.29,4.29,0,1,1,8.58,0v17.88a4.29,4.29,0,0,1-8.58,0Z" style="fill:#28509c"/><path d="M66.88,288.17V270.29a4.3,4.3,0,0,1,8.59,0v17.88a4.3,4.3,0,0,1-8.59,0Z" style="fill:#28509c"/></svg>