<svg xmlns="http://www.w3.org/2000/svg" viewBox="0 0 300 300"><path d="M31.5,96.42,51,69.27a24.25,24.25,0,0,1-7.52,1.15C27.17,70.42,16,58.19,16,42.39c0-16.95,12.23-29.18,29.18-29.18,20,0,29.43,15.54,29.43,28.92,0,3.19-.63,10.71-7,19.5l-28.92,40ZM25.39,42.13c0,11.34,8.41,19.63,20,19.63s19.75-8.54,19.75-19.63c0-11.34-8-20.26-19.87-20.26S25.39,30.67,25.39,42.13Z" style="fill:#28509c"/><path d="M102.88,24.75a8.9,8.9,0,0,0-2.26-1.61,7.46,7.46,0,0,0-3-.67,7,7,0,0,0-6.95,7.21,6.92,6.92,0,0,0,7,7.06,7.16,7.16,0,0,0,3.22-.8,8,8,0,0,0,2-1.45v2.38a9,9,0,0,1-5.22,1.69,8.75,8.75,0,0,1-9-8.9,8.8,8.8,0,0,1,9.06-9,8.19,8.19,0,0,1,5.12,1.71Z"/><path d="M105.26,32.9A5.72,5.72,0,1,1,111,38.56,5.53,5.53,0,0,1,105.26,32.9Zm1.93,0a3.79,3.79,0,1,0,7.57,0,3.79,3.79,0,1,0-7.57,0Z"/><path d="M119.54,27.48h1.87v1.17a3,3,0,0,1,2.44-1.43,4,4,0,0,1,1.66.44l-.88,1.69a1.93,1.93,0,0,0-1.09-.37,1.81,1.81,0,0,0-1.51.68,4.64,4.64,0,0,0-.62,2.9v5.69h-1.87Z"/><path d="M129.66,29.19v9.06h-1.87V29.19h-1.14V27.48h1.14v-3.9h1.87v3.9h1.87v1.71Z"/><path d="M142.85,35.5a6.56,6.56,0,0,1-1.33,1.74,5.21,5.21,0,0,1-3.58,1.32c-2.59,0-5.32-1.63-5.32-5.63,0-3.22,2-5.71,5.22-5.71a4.82,4.82,0,0,1,4.07,2,7.2,7.2,0,0,1,1,4.05h-8.39A3.46,3.46,0,0,0,138,36.9a3.25,3.25,0,0,0,2.2-.78,4.13,4.13,0,0,0,1.12-1.48ZM141,31.68a3.22,3.22,0,0,0-3.16-2.8,3.27,3.27,0,0,0-3.17,2.8Z"/><path d="M145.78,27.48h1.87v1.24a3.81,3.81,0,0,1,3.09-1.5,3.66,3.66,0,0,1,3.09,1.48,4.82,4.82,0,0,1,.62,2.88v6.67h-1.87V31.63a3.16,3.16,0,0,0-.49-2,2.13,2.13,0,0,0-1.77-.78,2.33,2.33,0,0,0-1.89.83,4.53,4.53,0,0,0-.78,2.91v5.63h-1.87Z"/><path d="M165.87,30a1.66,1.66,0,0,0-1.51-1.09,1.19,1.19,0,0,0-1.29,1.22c0,.78.51,1,1.73,1.53a6.5,6.5,0,0,1,2.7,1.66,2.54,2.54,0,0,1,.58,1.74,3.43,3.43,0,0,1-3.72,3.53,3.85,3.85,0,0,1-3.76-2.75l1.61-.68a2.43,2.43,0,0,0,2.18,1.77,1.68,1.68,0,0,0,1.77-1.71c0-1-.73-1.35-1.74-1.79a7.19,7.19,0,0,1-2.63-1.59,2.36,2.36,0,0,1-.49-1.58,2.89,2.89,0,0,1,3.14-3,3.11,3.11,0,0,1,3,1.94Z"/><path d="M172.49,29.19v9.06h-1.87V29.19h-1.14V27.48h1.14v-3.9h1.87v3.9h1.87v1.71Z"/><path d="M185.67,35.5a6.73,6.73,0,0,1-1.32,1.74,5.25,5.25,0,0,1-3.58,1.32c-2.6,0-5.32-1.63-5.32-5.63,0-3.22,2-5.71,5.21-5.71a4.84,4.84,0,0,1,4.08,2,7.28,7.28,0,0,1,1,4.05h-8.38a3.44,3.44,0,0,0,3.42,3.66,3.28,3.28,0,0,0,2.21-.78,4.21,4.21,0,0,0,1.11-1.48Zm-1.84-3.82a3.22,3.22,0,0,0-3.17-2.8,3.26,3.26,0,0,0-3.16,2.8Z"/><path d="M198.16,35.5a6.78,6.78,0,0,1-1.33,1.74,5.21,5.21,0,0,1-3.58,1.32c-2.59,0-5.32-1.63-5.32-5.63,0-3.22,2-5.71,5.22-5.71a4.82,4.82,0,0,1,4.07,2,7.12,7.12,0,0,1,1,4.05h-8.38a3.46,3.46,0,0,0,3.43,3.66,3.25,3.25,0,0,0,2.2-.78,4.13,4.13,0,0,0,1.12-1.48Zm-1.85-3.82a3.22,3.22,0,0,0-3.16-2.8,3.27,3.27,0,0,0-3.17,2.8Z"/><path d="M203,19.33V38.25h-1.87V19.33Z"/><path d="M210.46,27.48l3.19,7.32L217,26.65l3.35,8.15,3.22-7.32h2.08L220.32,39,217,31l-3.32,8-5.3-11.52Z"/><path d="M235.89,27.48h1.87V38.25h-1.87V36.74a4.52,4.52,0,0,1-3.68,1.82c-2.73,0-5.25-1.92-5.25-5.71s2.5-5.63,5.25-5.63A4.45,4.45,0,0,1,235.89,29Zm-7,5.37c0,2.31,1.29,4,3.53,4s3.58-1.9,3.58-4a3.65,3.65,0,0,0-3.58-4C230.57,28.88,228.89,30.23,228.89,32.85Z"/><path d="M243.21,29.19v9.06h-1.87V29.19H240.2V27.48h1.14v-3.9h1.87v3.9h1.87v1.71Z"/><path d="M256.4,35.5a6.73,6.73,0,0,1-1.32,1.74,5.26,5.26,0,0,1-3.59,1.32c-2.59,0-5.32-1.63-5.32-5.63,0-3.22,2-5.71,5.22-5.71a4.81,4.81,0,0,1,4.07,2,7.2,7.2,0,0,1,1,4.05h-8.39a3.46,3.46,0,0,0,3.43,3.66,3.3,3.3,0,0,0,2.21-.78,4.21,4.21,0,0,0,1.11-1.48Zm-1.84-3.82a3.24,3.24,0,0,0-3.17-2.8,3.28,3.28,0,0,0-3.17,2.8Z"/><path d="M259.33,27.48h1.87v1.17a3,3,0,0,1,2.44-1.43,4,4,0,0,1,1.66.44l-.88,1.69a1.93,1.93,0,0,0-1.09-.37,1.81,1.81,0,0,0-1.51.68,4.64,4.64,0,0,0-.62,2.9v5.69h-1.87Z"/><path d="M274,22.08a1.33,1.33,0,1,1-1.32,1.32A1.33,1.33,0,0,1,274,22.08Zm.94,5.4V44.22h-1.87V27.48Z"/><path d="M288,35.5a6.73,6.73,0,0,1-1.32,1.74,5.25,5.25,0,0,1-3.58,1.32c-2.6,0-5.33-1.63-5.33-5.63,0-3.22,2-5.71,5.22-5.71a4.84,4.84,0,0,1,4.08,2,7.28,7.28,0,0,1,1,4.05H279.7a3.46,3.46,0,0,0,3.43,3.66,3.3,3.3,0,0,0,2.21-.78,4.21,4.21,0,0,0,1.11-1.48Zm-1.84-3.82a3.23,3.23,0,0,0-3.17-2.8,3.28,3.28,0,0,0-3.17,2.8Z"/><path d="M292.86,29.19v9.06H291V29.19h-1.14V27.48H291v-3.9h1.87v3.9h1.87v1.71Z"/><path d="M97.61,58.52a4.35,4.35,0,0,0-3.38-1.61,4,4,0,0,0,0,8,4.59,4.59,0,0,0,3.48-1.69v2.24a5.81,5.81,0,0,1-3.43,1.11,5.67,5.67,0,1,1,0-11.34,5.67,5.67,0,0,1,3.35,1Z"/><path d="M102.41,61.79a3.66,3.66,0,0,0,.52,2.31,2.58,2.58,0,0,0,3.79,0,3.66,3.66,0,0,0,.52-2.31V55.51h1.87V62a4.26,4.26,0,0,1-1,3.24,4.7,4.7,0,0,1-6.59,0,4.26,4.26,0,0,1-1-3.24V55.51h1.87Z"/><path d="M114.56,57.22v9.06h-1.87V57.22h-1.15V55.51h1.15V51.62h1.87v3.89h1.86v1.71Z"/><path d="M123.07,55l-1.69-.62L124,48.48l1.22.49Zm3.84,0-1.74-.62,2.62-5.86L129,49Z"/><path d="M134.2,57.22v9.06h-1.87V57.22h-1.14V55.51h1.14V51.62h1.87v3.89h1.87v1.71Z"/><path d="M137.84,55.51h1.86v1.17a3,3,0,0,1,2.44-1.43,4,4,0,0,1,1.67.44l-.89,1.69a1.88,1.88,0,0,0-1.09-.37,1.81,1.81,0,0,0-1.5.68,4.63,4.63,0,0,0-.63,2.91v5.68h-1.86Z"/><path d="M154.45,63.53a6.26,6.26,0,0,1-1.33,1.74,5.21,5.21,0,0,1-3.58,1.32c-2.59,0-5.32-1.63-5.32-5.63,0-3.22,2-5.71,5.22-5.71a4.82,4.82,0,0,1,4.07,2,7.2,7.2,0,0,1,1,4.05h-8.39a3.46,3.46,0,0,0,3.43,3.66,3.25,3.25,0,0,0,2.2-.78,4.13,4.13,0,0,0,1.12-1.48Zm-1.85-3.82a3.22,3.22,0,0,0-3.16-2.8,3.27,3.27,0,0,0-3.17,2.8Z"/><path d="M166.93,63.53a6.41,6.41,0,0,1-1.32,1.74A5.25,5.25,0,0,1,162,66.59c-2.6,0-5.33-1.63-5.33-5.63,0-3.22,2-5.71,5.22-5.71a4.84,4.84,0,0,1,4.08,2,7.28,7.28,0,0,1,1,4.05h-8.38a3.44,3.44,0,0,0,3.42,3.66,3.28,3.28,0,0,0,2.21-.78,4.21,4.21,0,0,0,1.11-1.48Zm-1.84-3.82a3.22,3.22,0,0,0-3.17-2.8,3.26,3.26,0,0,0-3.16,2.8Z"/><path d="M174.3,58a1.65,1.65,0,0,0-1.5-1.09,1.19,1.19,0,0,0-1.3,1.22c0,.78.52,1,1.74,1.53a6.57,6.57,0,0,1,2.7,1.66,2.55,2.55,0,0,1,.57,1.74,3.43,3.43,0,0,1-3.71,3.53A3.86,3.86,0,0,1,169,63.84l1.61-.67a2.44,2.44,0,0,0,2.18,1.76,1.68,1.68,0,0,0,1.77-1.71c0-1-.73-1.35-1.74-1.79a6.92,6.92,0,0,1-2.62-1.59,2.31,2.31,0,0,1-.5-1.58,2.9,2.9,0,0,1,3.14-3,3.09,3.09,0,0,1,3,2Z"/><path d="M180.84,48.35l1.74.62L180,54.83l-1.22-.49Zm3.84,0,1.69.62-2.62,5.86-1.22-.49Z"/><path d="M240.37,107.94a1.05,1.05,0,0,0-1.51.54A34.17,34.17,0,0,1,232,120c-13.61,13.31-35.71,17.84-47.32,36.75-.33.6-1.45.75-1-1.21,2.12-3.78,6.92-13.61,8.93-18.6,2.9-7.11,6.47-13,10.26-19.21,5-8.48,9.05-15.47,12.13-23.12.6-1.47-1.21-2.64-1.94-1.24-3.56,6.79-8,12.84-13.53,20.12a150.36,150.36,0,0,0-11.24,16.59l-.06.09c-.33.45-2.1,2.94-2.21,1.77a212.46,212.46,0,0,1-.55-33.72c.16-2,.38-3.9.65-5.71.24-1.61-1.74-2.15-2.16-.59-.46,1.75-.89,3.58-1.28,5.54-.56,3.48-.9,6.66-1.12,9.68,0,.91-2.9-2.11-4.24-3.93a44.12,44.12,0,0,0-3.68-4.14c-1-1-2.45.64-1.56,1.85a49.35,49.35,0,0,1,3.12,4.86c6.47,12.1,3.46,29.34,1.67,46.88-.11.91-.22,2.12-.33,3.18-2.68,22.68-8.37,45.37-13.39,66.84-.34,1.52-11.61-23.44-8.6-36.44,1.33-6.75,7.6-13.35,10-19.95l.16-.31c1.19-1.61,2.48-3.35,3.66-4.81l.06-.07a25.78,25.78,0,0,0,4.44-8.89c0-.91,2.34-4.39,2.9-5.75-1.12,1.52-3.24,3.78-4,5.3a19.15,19.15,0,0,1-4.1,5.45,1,1,0,0,1-1.75-.5c-1.06-3-2.86-9.83-2.86-14.78a60.58,60.58,0,0,0-.6-7,1.11,1.11,0,0,0-2.21.21,59.28,59.28,0,0,1-.31,6.61c-1,7.72,3.91,14.52,1.23,21.33-1.56,3.93-8.93,12.1-10.49,16-.23.76-1.23.15-1.45-1.21-4.8-27.22-3.8-62-1.57-79.85a120.21,120.21,0,0,1,4.88-20.3c.53-1.53-1.33-2.57-2-1.12a115.64,115.64,0,0,0-6.89,20.06c-1,4.84-1.9,9.37-2.46,13.76-.11,1.06-2.45-1.66-3.23-3a103.28,103.28,0,0,0-15.2-20.31c-1.06-1.1-2.51.65-1.55,1.87a98.74,98.74,0,0,1,13,21.77c5.92,14.07,4.24,32.52,5.92,52.93.11.91-1.12.91-1.57-.15-9-9.53-12.83-21-19.41-34.33-1.85-4.14-3.69-8.42-5.24-12.86-.53-1.51-2.45-.74-2.1.84a148.38,148.38,0,0,0,4.1,14.44c1,3.18,2.53,8.91,3.45,12.46.29,1.13-.75,2.11-1.61,1.52A209.2,209.2,0,0,1,97.92,130a91.51,91.51,0,0,1-6.73-6.83c-1-1.13-2.5.5-1.63,1.76a102,102,0,0,0,6.47,8.4c6.92,7.56,13.61,13.15,21.09,19.5,6.36,5.45,13,11.5,18.3,18.61,5.78,8.36,12.94,44.26,14.07,52.67a1.21,1.21,0,0,1-1.24,1.49c-6.38-1-14.86,1-18.3-3.2-11.4-14-9.5-39.28-23.13-55.53-1-1.18-2.51.49-1.63,1.77,11.52,16.61,10,38.91,19.18,60.11.56.61-8.81.15-14.06-1.21-9.15-2.42-20.09-30.39-24.1-41.43-3.58-10.74-6.14-21.18-10.49-31.46a77.71,77.71,0,0,0-3.83-7.6c-.79-1.37-2.57-.11-1.9,1.34,1.1,2.41,2.13,5.07,3.16,8.07,2.64,8.26,4.76,19,7.81,28.63.41,1.3-.9,2.35-1.79,1.44a1.24,1.24,0,0,0-.33-.27,37,37,0,0,0-6.43-3.46l-.09,0A31.78,31.78,0,0,0,60,180.66H59.8c-1.39.16-1.28,2.58.12,2.61,26.29.68,30.31,39.4,40.35,49.09,1,.91-45,6.2-70.31-22.23,11.27,12.55,22.43,21.78,35.27,26.47.44.15-15,7.71-16.3,23A25.22,25.22,0,0,1,62.1,241.76c10.94-5.29,31.69-.76,31,.15C87,248.94,82,255,75.43,257.62c-1.25.51-.82,2.73.49,2.54,6.82-1,12.66-5.31,18.66-9.63,9.37-6.8,43.85-12.4,57.24-3.48,1.45.91,4.34,1.36,5,8.84v11.57c0,9.79-4.75,15.82-10.94,19.76-1,.66-.65,2.47.51,2.47h38c1.14,0,1.53-1.76.55-2.44-5.67-3.91-10-9.38-10-19V256c0-18.91,19.64-19.82,29-12.86,5.25,2.72,8.59,6.35,12.95,11,4.68,5,8,8.62,13.83,11.19a16.87,16.87,0,0,0,9,.91A34.78,34.78,0,0,0,250.81,262a28.46,28.46,0,0,1-11.11,2h-.1a16.48,16.48,0,0,1-7.76-2.57c-4.91-3.18-7.7-7.41-11.27-12.7-4.46-6.51-7.59-11-13.39-15.43a32.45,32.45,0,0,0-3.8-2.27c-.44-.3,3.35-3.63,6-4.38a14.89,14.89,0,0,1,9.6.3,54.34,54.34,0,0,1,10,5.75c19.49,12.74,37,7.45,49.73,19.43,1,.95,2.36-.59,1.58-1.8-2.1-3.25-5.13-6.19-10.24-9.32-.45-.3,18-11.64,23.88-23.29-22.88,32.52-58.48,12.71-72.87-1.51,0,0-.9-1.51-.23-2.27,12.45-16,19.74-34.78,36.08-35a1.32,1.32,0,0,0,.16-2.62,23.91,23.91,0,0,0-6.27,0l-.12,0c-6.77,1.37-11,4.69-16.23,10.27C219.23,203,213.87,212.27,210,214.23c-.67.31-.67-2.26,0-3.93a44.1,44.1,0,0,0,1.7-6.65c.29-1.54-1.56-2.24-2.1-.8A35.61,35.61,0,0,1,193,222.4c-7.92,4.69-13.95,3.48-16.29,5-.67.45.66-22,7-30.48l.1-.13c5.27-6.16,17.16-9.17,23.39-12.94,6-3.78,11.71-7,17.07-12.56a30.81,30.81,0,0,0,5.78-8.86l.05-.12c1.54-4.21.76-4.63-1.25-1.15a22.66,22.66,0,0,1-6.25,7c-11.83,8.47-26.12,12.4-40,17.54,0,0-1.23-.3-1.12-.75,5.12-23.55,25.82-46.05,47.2-48.84h.23a77.44,77.44,0,0,1,14.34,2.9c1.36.39,1.95-2,.63-2.51a68.9,68.9,0,0,0-10.73-3.58c-1.9-.45-3.68-.75-5.47-1.06-1,0,3.68-5.74,6.7-9.52a39.44,39.44,0,0,0,6.44-13.07,1.11,1.11,0,0,0-.48-1.28Z" style="fill:#f26531"/></svg>