<?xml version="1.0" encoding="utf-8"?>
<!-- Generator: Adobe Illustrator 26.3.1, SVG Export Plug-In . SVG Version: 6.00 Build 0)  -->
<svg version="1.1" id="Layer_1" xmlns="http://www.w3.org/2000/svg" xmlns:xlink="http://www.w3.org/1999/xlink" x="0px" y="0px"
	 viewBox="0 0 300 300" style="enable-background:new 0 0 300 300;" xml:space="preserve">
<style type="text/css">
	.st0{fill:#28509C;}
	.st1{fill:#F26531;}
</style>
<g>
	<path class="st0" d="M77,165.5l4.9-8h15.8V228h-8.4v-62.5H77z"/>
	<path class="st0" d="M110.8,192.7c0-14.5,6.4-36.8,24.6-36.8c18.2,0,24.6,22.3,24.6,36.8c0,14.4-6.5,36.8-24.6,36.8
		C117.2,229.5,110.8,207.1,110.8,192.7z M119.2,192.6c0,9.7,3.6,29,16.2,29c12.6,0,16.2-19.3,16.2-29c0-9.7-3.6-29.2-16.2-29.2
		C122.7,163.5,119.2,182.9,119.2,192.6z"/>
	<path class="st0" d="M214.3,210v7.7h-8V228h-8.4v-10.3H163l43.2-63.2V210H214.3z M197.8,180.9h-0.2L177.8,210h20V180.9z"/>
</g>
<path class="st1" d="M147.6,15.9c-39.4,0-71.4,32-71.5,71.4v44.9H56.7c-6.3,0-11.3,5.1-11.3,11.3v128.9c0,6.3,5.1,11.3,11.3,11.3
	h181.8c6.3,0,11.3-5.1,11.3-11.3V143.6c0-6.3-5.1-11.3-11.3-11.3H219v-45C219,47.9,187,16,147.6,15.9z M84.2,87.3
	c0.4-35,29.2-63,64.1-62.5c34.4,0.4,62.1,28.2,62.5,62.5v44.9H84.2V87.3z M241.7,143.6v128.9c0,1.8-1.4,3.2-3.2,3.2l0,0H56.7
	c-1.8,0-3.2-1.4-3.2-3.2l0,0V143.6c0-1.8,1.4-3.2,3.2-3.2l0,0h181.8C240.3,140.3,241.7,141.8,241.7,143.6L241.7,143.6L241.7,143.6z"
	/>
<path class="st1" d="M238.5,286.3H56.7c-7.6,0-13.8-6.2-13.8-13.8V143.6c0-7.6,6.2-13.8,13.8-13.8h17V87.3
	c1.4-40.8,35.7-72.8,76.5-71.4c38.8,1.4,70,32.5,71.4,71.4v42.4h17c7.6,0,13.8,6.2,13.8,13.8v128.9
	C252.4,280.1,246.2,286.3,238.5,286.3L238.5,286.3z M56.7,134.7c-4.9,0-8.8,4-8.8,8.8v128.9c0,4.9,4,8.8,8.8,8.8h181.8
	c4.9,0,8.8-4,8.8-8.8V143.6c0-4.9-4-8.8-8.8-8.8h-22V87.3c-1.4-38.1-33.4-67.8-71.4-66.5c-36.2,1.3-65.2,30.3-66.5,66.5v47.4
	L56.7,134.7z M238.5,278.2H56.7c-3.2,0-5.7-2.6-5.7-5.7V143.6c0-3.2,2.6-5.7,5.7-5.7h181.8c3.2,0,5.7,2.6,5.7,5.7l0,0v128.9
	C244.2,275.6,241.6,278.2,238.5,278.2z M56.7,142.8c-0.4,0-0.7,0.3-0.7,0.7l0,0v128.9c0,0.4,0.3,0.7,0.7,0.7l0,0h181.8
	c0.4,0,0.7-0.3,0.7-0.7l0,0V143.6c0-0.4-0.3-0.7-0.7-0.7l0,0H56.7V142.8z M213.4,134.7H81.7V87.3c0.4-36.4,30.3-65.5,66.6-65
	c35.7,0.4,64.6,29.3,65,65v47.4H213.4z M86.7,129.7h121.7V87.3c-0.4-33.6-28-60.5-61.6-60.1c-33,0.4-59.6,27.1-60.1,60.1
	C86.7,87.3,86.7,129.7,86.7,129.7z"/>
<path d="M88.3,239.4v18.9h-1.9v-18.9H88.3z"/>
<path d="M91.1,253c0-3.2,2.5-5.7,5.6-5.8c3.2,0,5.7,2.5,5.8,5.6c0,3.2-2.5,5.7-5.6,5.8c0,0,0,0-0.1,0c-3.1,0.1-5.6-2.3-5.7-5.3
	C91.1,253.2,91.1,253.1,91.1,253z M93,253c0.1,2.1,1.9,3.7,4,3.6s3.7-1.9,3.6-4c-0.1-2-1.8-3.6-3.8-3.6c-2.1,0-3.8,1.6-3.8,3.7
	C93,252.8,93,252.9,93,253z"/>
<path d="M113.8,250.6c-0.8-1-2.1-1.6-3.4-1.6c-2.2,0-4,1.8-4,4s1.8,4,4,4c1.4,0,2.6-0.6,3.5-1.7v2.2c-1,0.7-2.2,1.1-3.4,1.1
	c-3.1,0-5.7-2.5-5.7-5.7c0-3.1,2.5-5.7,5.7-5.7l0,0c1.2,0,2.4,0.3,3.3,1V250.6z"/>
<path d="M118.7,239.4v12.1l3.9-4h2.4l-4.6,4.6l5.4,6.2h-2.4l-4.3-4.9l-0.5,0.5v4.4h-1.9v-18.9L118.7,239.4L118.7,239.4z"/>
<path d="M132.2,250.1c-0.2-0.6-0.8-1.1-1.5-1.1c-0.7-0.1-1.2,0.4-1.3,1.1v0.1c0,0.8,0.5,1,1.7,1.5c1,0.3,1.9,0.9,2.7,1.7
	c0.4,0.5,0.6,1.1,0.6,1.7c0.1,1.9-1.4,3.5-3.3,3.5c-0.1,0-0.3,0-0.4,0c-1.7,0-3.3-1.1-3.8-2.8l1.6-0.7c0.3,1,1.2,1.7,2.2,1.8
	c0.9,0,1.7-0.7,1.8-1.6v-0.1c0-1-0.7-1.4-1.7-1.8c-1-0.3-1.9-0.9-2.6-1.6c-0.4-0.4-0.5-1-0.5-1.6c-0.1-1.6,1.2-2.9,2.8-3
	c0.1,0,0.2,0,0.4,0c1.3-0.1,2.5,0.7,3,1.9L132.2,250.1z"/>
<path d="M144.8,264.3h-1.9v-16.7h1.9v1.5c0.9-1.1,2.3-1.8,3.7-1.8c3.4,0,5.2,2.8,5.2,5.7s-1.9,5.6-5.2,5.6c-1.5,0-2.9-0.6-3.8-1.8
	L144.8,264.3z M151.8,253c0-2.6-1.8-4.1-3.5-4.1c-2.1,0.1-3.7,1.8-3.6,3.9v0.1c0,2.2,1.4,4,3.6,4S151.8,255.2,151.8,253L151.8,253z"
	/>
<path d="M158.4,239.4v18.9h-1.9v-18.9H158.4z"/>
<path d="M170.2,247.6h1.9v10.8h-1.9v-1.5c-0.9,1.2-2.2,1.8-3.7,1.8c-2.7,0-5.2-1.9-5.2-5.7s2.5-5.6,5.2-5.6c1.4,0,2.8,0.6,3.7,1.8
	V247.6z M163.2,252.9c0,2.3,1.3,4,3.5,4s3.6-1.9,3.6-4c0.2-2-1.3-3.8-3.3-4c-0.1,0-0.2,0-0.3,0C164.9,249,163.2,250.3,163.2,252.9
	L163.2,252.9z"/>
<path d="M184.1,250.6c-0.8-1-2.1-1.6-3.4-1.6c-2.2,0-4,1.8-4,4s1.8,4,4,4c1.4,0,2.6-0.6,3.5-1.7v2.2c-1,0.7-2.2,1.1-3.4,1.1
	c-3.1,0-5.7-2.5-5.7-5.7s2.5-5.7,5.7-5.7l0,0c1.2,0,2.4,0.3,3.4,1L184.1,250.6z"/>
<path d="M196.5,255.6c-0.3,0.7-0.8,1.2-1.3,1.7c-1,0.9-2.3,1.3-3.6,1.3c-2.6,0-5.3-1.6-5.3-5.6c0-3.2,2-5.7,5.2-5.7
	c1.6-0.1,3.1,0.7,4.1,2c0.7,1.2,1.1,2.6,1,4.1h-8.4c-0.1,1.9,1.3,3.5,3.2,3.7c0.1,0,0.1,0,0.2,0c0.8,0,1.6-0.3,2.2-0.8
	c0.5-0.4,0.9-0.9,1.1-1.5L196.5,255.6z M194.7,251.8c-0.2-1.6-1.6-2.8-3.2-2.8c-1.6,0-2.9,1.2-3.2,2.8H194.7z"/>
<path d="M207.7,239.4h1.9v18.9h-1.9v-1.5c-0.9,1.2-2.2,1.8-3.7,1.8c-2.7,0-5.2-1.9-5.2-5.7s2.5-5.6,5.2-5.6c1.4,0,2.8,0.6,3.7,1.8
	V239.4z M200.7,252.9c0,2.3,1.3,4,3.5,4s3.6-1.9,3.6-4c0.2-2-1.3-3.8-3.3-4c-0.1,0-0.2,0-0.3,0C202.4,249,200.7,250.3,200.7,252.9
	L200.7,252.9z"/>
</svg>
