<svg xmlns="http://www.w3.org/2000/svg" viewBox="0 0 0.891 0.891">
  <defs>
    <style>
      .a {
        fill: #fff;
      }

      .b {
        fill: #74abde;
      }

      .c {
        fill: #f5b31a;
      }

      .d {
        fill: #83330b;
      }
    </style>
  </defs>
  <g>
    <path d="M475.74427,282.49508a.33341.33341,0,1,1-.4966-.0281A.35318.35318,0,0,1,475.74427,282.49508Z" transform="translate(-475.06557 -282.28018)"/>
    <g>
      <g>
        <path class="a" d="M475.95657,282.72568a.44243.44243,0,0,1-.0255.1485h-.8401a.4468.4468,0,0,1,0-.297h.8401A.44243.44243,0,0,1,475.95657,282.72568Z" transform="translate(-475.06557 -282.28018)"/>
        <path class="b" d="M475.93107,282.57718h-.8401a.44564.44564,0,0,1,.8401,0Z" transform="translate(-475.06557 -282.28018)"/>
        <path class="b" d="M475.93107,282.87418a.44574.44574,0,0,1-.8401,0Z" transform="translate(-475.06557 -282.28018)"/>
      </g>
      <g>
        <polygon class="c" points="0.479 0.363 0.463 0.398 0.461 0.397 0.491 0.332 0.493 0.332 0.493 0.333 0.469 0.4 0.466 0.399 0.479 0.363"/>
        <path class="c" d="M475.51907,282.67558a.083.083,0,0,1,.0042-.0277l.0021-.0042.002-.0042.0028-.0105.0002-.0059v-.0046l.002-.0067.00411-.0046h-.00011l-.0014.0026-.0021.0046.0005.0083.0008.007-.00469.0173-.00351.0149-.0004.0077-.00109.0071-.00171-.0004.0004-.0036.0004-.0057.0001-.0065.0009-.0064.0015-.0055.00141-.0037.00049-.0014-.0006.0013-.0016.0037-.0019.0054-.0013.0065-.0005.0065-.00059.0056-.00061.0034Z" transform="translate(-475.06557 -282.28018)"/>
        <polygon class="c" points="0.441 0.395 0.445 0.323 0.445 0.322 0.446 0.323 0.45 0.395 0.447 0.395 0.445 0.357 0.444 0.395 0.441 0.395"/>
        <path class="c" d="M475.48967,282.62348l-.0018-.0042-.0007-.007.002-.0058h0l-.0004.0029-.0002.0051.0037.0075.0034.0062.0023.0177.0024.0151.0026.0073.0018.007h0l-.0018.0003-.0009-.0035-.0019-.0054-.0024-.0061-.0016-.0062-.00069-.0057-.00021-.004v0l-.0001.0041.00031.0057.00129.0064.002.0063.0015.0054.0008.0033-.0018.0004a.0799.0799,0,0,1-.0066-.0272l.0002-.0046.0003-.0047-.0014-.0107Z" transform="translate(-475.06557 -282.28018)"/>
        <polygon class="c" points="0.411 0.363 0.425 0.399 0.422 0.4 0.398 0.333 0.398 0.332 0.399 0.332 0.43 0.397 0.427 0.398 0.411 0.363"/>
        <path class="c" d="M475.47307,282.67128l.0042.005.0035.0044.002.0028-.0015.0011a.08117.08117,0,0,1-.0165-.0226l-.0016-.0044-.0015-.0044-.0054-.0094-.0041-.0043-.0032-.0033-.0033-.0061-.0004-.0061.0008.0028.0017.0048.0063.0054.00541.0045.009.0155.008.013.00519.0058.0043.0057v.0001l-.00149.0009-.00231-.0029-.0038-.0043-.0045-.0047-.0039-.0051-.0027-.0049-.0017-.0037-.0006-.0014.00051.0014.00149.0038.0024.0051Z" transform="translate(-475.06557 -282.28018)"/>
        <polygon class="c" points="0.383 0.383 0.409 0.411 0.407 0.413 0.358 0.36 0.358 0.358 0.36 0.358 0.413 0.407 0.411 0.409 0.383 0.383"/>
        <path class="c" d="M475.44077,282.68108l-.0031-.0035-.0086-.0066-.0054-.0024-.00419-.0018-.00541-.0044-.0027-.0055.0018.0023.0034.0038.00791.0026.00669.002.01431.0109.01239.009.007.0033.0061.0037h.0001l-.0011.0014-.0032-.0017-.0052-.0025-.0059-.0026-.0056-.0033-.0044-.0035-.003-.0028-.0009-.0008.0009.0009.00281.0029.00419.0038.0055.0037.0058.003.0049.0027.0029.0019-.0009.0015a.0819.0819,0,0,1-.024-.0145Z" transform="translate(-475.06557 -282.28018)"/>
        <polygon class="c" points="0.397 0.43 0.332 0.399 0.332 0.398 0.333 0.398 0.4 0.422 0.399 0.425 0.363 0.411 0.398 0.427 0.397 0.43"/>
        <path class="c" d="M475.39717,282.70428l-.0046-.004h.0001l.0025.0014.0046.0022.0083-.0006.007-.0007.0173.0046.0149.0036.0077.0003.0071.0011h0l-.0004.0017-.0036-.0004-.0057-.0003-.0065-.0001-.00639-.001-.00541-.0015-.0038-.0014-.0013-.0004-.0001-.0001.0001.0001.0012.0005.0037.0016.0054.0019.0065.0013.0065.0005.0056.0007.0034.0006-.0003.0017a.08052.08052,0,0,1-.0277-.0042l-.0042-.002-.0042-.0021-.01039-.0028-.006-.0002h-.00461Z" transform="translate(-475.06557 -282.28018)"/>
        <polygon class="c" points="0.323 0.445 0.395 0.441 0.395 0.444 0.357 0.445 0.395 0.447 0.395 0.45 0.323 0.446 0.322 0.445 0.323 0.445"/>
        <path class="c" d="M475.392,282.74748l.0028.0004.0052.0002.0074-.0037.0062-.0033.0177-.0024.01521-.0024.00729-.0026.0069-.0018h0l.0003.0018-.00349.001-.00541.0019-.0061.0024-.0062.0016-.0056.0006-.0041.0002h-.0015l.0015.0001.0041.0001.0057-.0004.0064-.0012.0063-.0021.0054-.0015.0033-.0007.0004.0017a.07995.07995,0,0,1-.0271.0067l-.0047-.0003-.0047-.0003-.01069.0014-.00561.0022-.0042.0017-.007.0007-.0058-.002Z" transform="translate(-475.06557 -282.28018)"/>
        <polygon class="c" points="0.333 0.493 0.332 0.493 0.332 0.492 0.397 0.461 0.398 0.463 0.363 0.479 0.399 0.466 0.4 0.469 0.333 0.493"/>
        <path class="c" d="M475.42687,282.77718l.0155-.0089.013-.0081.0058-.0052.0057-.0042.0001-.0001.0009.0016-.0029.0022-.0043.0038-.0046.0045-.0052.0039-.0049.0028-.0037.0017-.0013.0005.0014-.0004.0037-.0015.0052-.0025.0054-.0036.005-.0043.0044-.0035.0029-.0019.001.0014a.08325.08325,0,0,1-.0226.0166l-.0044.0015-.0044.0015-.0094.0054-.0043.0042-.0032.0032-.00619.0033-.00621.0004h.0001l.0028-.0008.0048-.0018.00551-.0062Z" transform="translate(-475.06557 -282.28018)"/>
        <polygon class="c" points="0.383 0.508 0.411 0.482 0.413 0.484 0.36 0.533 0.358 0.532 0.358 0.531 0.407 0.478 0.409 0.48 0.383 0.508"/>
        <path class="c" d="M475.48448,282.76888a.08044.08044,0,0,1-.01451.0239l-.00349.0031-.00351.0031-.0066.0086-.0024.0055-.0018.0042-.0044.0054-.0055.0027h0l.0023-.0018.0038-.0035.0026-.0079.002-.0067.0109-.0142.009-.0124.0033-.007.0037-.0062h0l.0014.0011-.0017.0031-.0025.0052-.00259.006-.00331.0055-.0035.0045-.0027.0029-.001.0011.001-.001.0029-.0028.0038-.0043.0037-.0054.003-.0059.0028-.0049.0018-.0029Z" transform="translate(-475.06557 -282.28018)"/>
        <polygon class="c" points="0.411 0.528 0.427 0.493 0.43 0.494 0.399 0.559 0.398 0.559 0.398 0.558 0.422 0.491 0.425 0.492 0.411 0.528"/>
        <path class="c" d="M475.48567,282.84408l.0014-.0025.0022-.0047-.0006-.0083-.0007-.007.0046-.0173.0036-.0149.0004-.0077.001-.0071h0l.0017.0004-.0004.0036-.0003.0058-.00009.0065-.00091.0063-.0016.0055-.0014.0038-.0005.0013.0006-.0013.0016-.0037.0019-.0054.00131-.0064.00049-.0066.0007-.0056.0006-.0033.0017.0003a.078.078,0,0,1-.0042.0276l-.002.0042-.002.0042-.0029.0105-.0001.006v.0045l-.0021.0067-.004.0047Z" transform="translate(-475.06557 -282.28018)"/>
        <polygon class="c" points="0.445 0.568 0.441 0.496 0.444 0.496 0.445 0.534 0.447 0.496 0.45 0.496 0.446 0.568 0.445 0.569 0.445 0.568"/>
        <path class="c" d="M475.51907,282.783l-.0017-.007h0l.0017-.0002.001.0034.0019.0055.0024.006.0016.0063.0006.0056.0002.004.0001.0015v-.0015l.0001-.004-.0003-.0057-.0013-.0065-.002-.0062-.0016-.0054-.0007-.0034.0017-.0004a.07847.07847,0,0,1,.00671.0272l-.00031.0047-.0003.0046.0014.0108.00221.0055.00169.0042.0007.007-.0019.0059v-.0001l.0003-.0029.00021-.0051-.00371-.0074-.00329-.0062-.00241-.0178-.0024-.0151Z" transform="translate(-475.06557 -282.28018)"/>
        <polygon class="c" points="0.491 0.559 0.461 0.494 0.463 0.493 0.479 0.528 0.466 0.492 0.469 0.491 0.493 0.558 0.493 0.559 0.491 0.559"/>
        <path class="c" d="M475.54037,282.77548l-.0042-.0057h-.0001l.0016-.0009.0022.0028.0038.0043.0046.0047.0038.0051.0028.005.0017.0036.0005.0012.0001.0002-.0001-.0002-.0004-.0012-.0015-.0038-.0025-.0051-.0036-.0055-.0043-.005-.0035-.0044-.0019-.0028.0014-.001a.0786.0786,0,0,1,.0166.0225l.0015.0044.0015.0044.0054.0094.0042.0044.0032.0032.00331.0062.00039.006-.0008-.0028-.0017-.0048-.0063-.0054-.0055-.0044-.0089-.0156-.0081-.013Z" transform="translate(-475.06557 -282.28018)"/>
        <polygon class="c" points="0.508 0.508 0.482 0.48 0.484 0.478 0.533 0.531 0.532 0.532 0.531 0.533 0.478 0.484 0.48 0.482 0.508 0.508"/>
        <path class="c" d="M475.55727,282.76048l-.0062-.0037h0l.0011-.0014.0031.0018.00521.0025.006.0026.00549.0032.00451.0036.00289.0027.001.0009-.00089-.001-.00281-.0029-.0043-.0038-.0054-.0037-.0059-.003-.0049-.0027-.0029-.0019.001-.0014a.07982.07982,0,0,1,.0239.0144l.0031.0035.0031.0035.0086.0066.00551.0025.00419.0017.0054.0044.0027.0055-.0018-.0023-.00349-.0037-.00781-.0027-.0068-.002-.0142-.0109-.0124-.009Z" transform="translate(-475.06557 -282.28018)"/>
        <polygon class="c" points="0.559 0.492 0.559 0.493 0.558 0.493 0.491 0.469 0.492 0.466 0.527 0.479 0.493 0.463 0.494 0.461 0.559 0.492"/>
        <path class="c" d="M475.62487,282.747l.0047.0041-.00009-.0001-.00251-.0014-.0047-.0022-.0082.0006-.007.0008-.0174-.0047-.0148-.0035-.0078-.0004-.007-.0011H475.56l.00051-.0017.00349.0004.0058.0004.0065.0001.0064.0009.0054.0015.0038.0014.0013.0005-.0013-.0006-.0037-.0016-.0054-.0019-.0064-.0013-.0066-.0005-.0056-.0007-.0033-.0006.0003-.0017a.08028.08028,0,0,1,.0276.0042l.0042.0021.0042.002.0105.0028.006.0002h.0045Z" transform="translate(-475.06557 -282.28018)"/>
        <polygon class="c" points="0.568 0.445 0.569 0.445 0.568 0.446 0.496 0.45 0.496 0.447 0.534 0.445 0.496 0.444 0.496 0.441 0.568 0.445"/>
        <path class="c" d="M475.63017,282.70378l-.0029-.0004-.0051-.0002-.0074.0037-.0062.0034-.0178.0023-.0151.0024-.0073.0026-.00689.0018h-.00011l-.0002-.0018.0035-.001.0054-.0019.006-.0023.0063-.0016.0056-.0007.004-.0002h.00151l-.00151-.0001h-.004l-.0057.0003-.0065.0012-.0062.0021-.0054.0015-.0034.0007-.00029-.0017a.08161.08161,0,0,1,.02709-.0067l.0047.0003.0046.0003.0108-.0014.0056-.0022.00421-.0017.00689-.0007.0059.002Z" transform="translate(-475.06557 -282.28018)"/>
        <polygon class="c" points="0.558 0.398 0.559 0.398 0.559 0.399 0.494 0.43 0.493 0.427 0.527 0.411 0.492 0.425 0.491 0.422 0.558 0.398"/>
        <path class="c" d="M475.55517,282.70058h0l-.0009-.0015.0028-.0023.0043-.0038.0047-.0045.0051-.0039.005-.0027.0036-.0017.0013-.0006-.0013.0005-.0037.0015-.0052.0024-.0055.0037-.005.0042-.0044.0035-.0028.002-.001-.0015a.08044.08044,0,0,1,.0225-.0165l.0045-.0016.00431-.0015.00949-.0054.0043-.0041.00321-.0032.00619-.0033.0061-.0005v.0001l-.0028.0007-.0049.0018-.0054.0063-.0044.0054-.0156.009-.013.008-.0057.0052Z" transform="translate(-475.06557 -282.28018)"/>
        <polygon class="c" points="0.508 0.383 0.48 0.409 0.478 0.407 0.531 0.358 0.532 0.358 0.533 0.36 0.484 0.413 0.482 0.411 0.508 0.383"/>
        <path class="c" d="M475.541,282.68048l-.0018.0029-.0015-.0009a.08084.08084,0,0,1,.0145-.024l.0035-.0031.0034-.0031.0067-.0086.0024-.0054.0017-.0042.0045-.0054.0055-.0028-.0001.0001-.00229.0018-.00371.0034-.0027.0079-.0019.0067-.011.0142-.0089.0124-.0034.007-.0036.0062h-.0001l-.0014-.001.0018-.0032.0025-.0052.0026-.0059.0033-.0056.00351-.0044.00269-.003.001-.001-.0011.0009-.0029.0028-.0038.0043-.0037.0055-.0029.0058Z" transform="translate(-475.06557 -282.28018)"/>
        <path class="d" d="M475.55707,282.79558l.0001.0002Z" transform="translate(-475.06557 -282.28018)"/>
        <polygon class="c" points="0.464 0.436 0.469 0.439 0.463 0.442 0.466 0.439 0.464 0.436"/>
        <polygon class="c" points="0.456 0.439 0.461 0.436 0.459 0.439 0.46 0.442 0.456 0.439"/>
        <path class="d" d="M475.52377,282.74788h0Z" transform="translate(-475.06557 -282.28018)"/>
        <path class="d" d="M475.52777,282.71458a.01163.01163,0,0,0-.0086.0047.01284.01284,0,0,0,.0182.0006A.01435.01435,0,0,0,475.52777,282.71458Zm-.0017.0074-.0042-.0027.0047-.0036-.0022.0033Zm.0026.0003.0026-.0033-.0017-.003.0052.0036Z" transform="translate(-475.06557 -282.28018)"/>
        <path class="d" d="M475.51727,282.72138l.0017-.0007.001.0007.001.0008a.01333.01333,0,0,0,.0158-.0005.00931.00931,0,0,1-.0094.0037l-.0087-.0025Z" transform="translate(-475.06557 -282.28018)"/>
        <polygon class="d" points="0.453 0.438 0.451 0.438 0.45 0.438 0.453 0.437 0.455 0.434 0.465 0.432 0.472 0.436 0.474 0.438 0.474 0.439 0.473 0.439 0.472 0.437 0.47 0.436 0.463 0.433 0.459 0.434 0.455 0.436 0.454 0.438 0.453 0.438"/>
        <path class="d" d="M475.51327,282.72028l.0005.0052.0014.0033.001.0012.0008.001-.0003.0004-.0024-.0007a.02265.02265,0,0,1-.00179-.0134l.00159-.0062.0031-.0029.0089-.0024.0112.0042.0048.0045-.0017-.0011-.0018-.001-.00309-.0016a.01806.01806,0,0,0-.01991.0021l-.0018.0025Z" transform="translate(-475.06557 -282.28018)"/>
        <polygon class="d" points="0.445 0.476 0.439 0.482 0.439 0.481 0.445 0.474 0.452 0.481 0.452 0.482 0.445 0.476"/>
        <path class="c" d="M475.505,282.74958l-.0037-.0015v-.0002a.01844.01844,0,0,1,.0083.0005h.00291a.01889.01889,0,0,1,.00839-.0005v.0002l-.0037.0015-.0018.0016-.0043.0015-.0044-.0015Z" transform="translate(-475.06557 -282.28018)"/>
        <polygon class="d" points="0.437 0.459 0.437 0.452 0.437 0.457 0.44 0.455 0.445 0.457 0.45 0.455 0.454 0.457 0.454 0.452 0.454 0.459 0.45 0.457 0.45 0.457 0.45 0.457 0.449 0.458 0.448 0.459 0.445 0.459 0.445 0.459 0.443 0.458 0.441 0.457 0.437 0.459"/>
        <path class="d" d="M475.50127,282.74788a.01448.01448,0,0,1,.0086-.0007h.0023a.0147.0147,0,0,1,.0087.0007.01889.01889,0,0,0-.00839.0005h-.00291A.01844.01844,0,0,0,475.50127,282.74788Z" transform="translate(-475.06557 -282.28018)"/>
        <path class="c" d="M475.50127,282.74808l-.0024-.0002.0045-.0024.0028-.0013.0049.001.0048-.001.0028.0013.0046.0024-.0024.0002v-.0002a.0147.0147,0,0,0-.0087-.0007h-.0023a.01448.01448,0,0,0-.0086.0007Z" transform="translate(-475.06557 -282.28018)"/>
        <polygon class="d" points="0.433 0.468 0.433 0.468 0.433 0.468 0.436 0.468 0.439 0.469 0.441 0.471 0.445 0.472 0.45 0.471 0.452 0.469 0.455 0.468 0.458 0.468 0.458 0.468 0.458 0.468 0.452 0.471 0.445 0.474 0.439 0.471 0.433 0.468"/>
        <polygon class="d" points="0.433 0.468 0.436 0.465 0.442 0.462 0.444 0.463 0.445 0.463 0.449 0.462 0.455 0.465 0.458 0.468 0.458 0.468 0.458 0.468 0.453 0.465 0.45 0.464 0.445 0.465 0.441 0.464 0.438 0.465 0.433 0.468 0.433 0.468 0.433 0.468"/>
        <path class="d" d="M475.49877,282.74788h0Z" transform="translate(-475.06557 -282.28018)"/>
        <polygon class="c" points="0.432 0.439 0.43 0.436 0.435 0.439 0.43 0.442 0.432 0.439"/>
        <path class="d" d="M475.49477,282.72538c-.00729.0005-.0094-.0037-.0094-.0037a.01317.01317,0,0,0,.0157.0005l.0011-.0008.001-.0007.0017.0007-.00139.0015Z" transform="translate(-475.06557 -282.28018)"/>
        <polygon class="c" points="0.422 0.439 0.427 0.436 0.425 0.439 0.428 0.442 0.422 0.439"/>
        <path class="d" d="M475.49427,282.71458a.01466.01466,0,0,0-.0096.0053.01294.01294,0,0,0,.0183-.0006A.01167.01167,0,0,0,475.49427,282.71458Zm-.0069.005.0052-.0036-.0017.003.0025.0033Zm.0087.0024.0017-.003-.0022-.0033.0047.0036Z" transform="translate(-475.06557 -282.28018)"/>
        <path class="d" d="M475.48007,282.71448l.0048-.0045.0111-.0042.009.0024.0031.0029.0015.0062a.022.022,0,0,1-.0018.0134l-.00229.0007-.00041-.0004.0009-.001.001-.0012.0014-.0033.0005-.0052-.0006-.0049-.0017-.0025a.018.018,0,0,0-.0199-.0021l-.0031.0016-.0018.001Z" transform="translate(-475.06557 -282.28018)"/>
        <path class="c" d="M475.51107,282.67768a.048.048,0,1,0,.0479.048A.048.048,0,0,0,475.51107,282.67768Zm.005.0572.0031.002.0008-.0043-.0001.0068-.0042-.0027-.00019.0004-.00031.0003-.00069.0006-.00131.0008-.0021.0004h-.0004l-.0023-.0007-.00189-.0018-.00421.0027-.0002-.0068.0009.0043.0031-.002.005.0027Zm-.036-.0204.0048-.0045.0111-.0042.009.0024.0031.0029.0015.0062a.02136.02136,0,0,1-.0018.0134l-.0024.0007-.0003-.0004.0009-.001.001-.0012.0014-.0033.0005-.0052-.0006-.0049-.0017-.0025a.01789.01789,0,0,0-.0199-.0021l-.0031.0016-.0018.001Zm.0023.0042.0006-.0007.0017-.0017.0063-.0036.0107.002.0023.0021.0023.0012-.0009.0007-.0015-.0001-.001-.0008-.0015-.0011-.0036-.0025-.0039-.0005-.0073.0026-.0017.0011-.0017.0013Zm.0119-.0041a.01167.01167,0,0,1,.0087.0047.01294.01294,0,0,1-.0183.0006A.01466.01466,0,0,1,475.49427,282.71458Zm-.0089.0072a.01344.01344,0,0,0,.0157.0004l.0011-.0008.001-.0007.0017.0007-.00139.0015-.00871.0025A.00955.00955,0,0,1,475.48537,282.72178Zm.0324.0403-.0067-.006-.0067.006-.0001-.0008.0068-.0068.0068.0068Zm-.0006-.0106-.0061.0028-.0061-.0028-.0066-.0036.0032-.0024.0056-.0035.0026.0007.0013.0009.0039-.0016.0056.0035.0032.0024Zm.0102-.0261-.0087-.0025-.0014-.0015.0017-.0007.001.0007.001.0008a.01344.01344,0,0,0,.0157-.0004A.00917.00917,0,0,1,475.52737,282.72538Zm-.0082-.0061a.01163.01163,0,0,1,.0086-.0047.01435.01435,0,0,1,.0096.0053A.01284.01284,0,0,1,475.51917,282.71928Zm.0197-.0006-.0017-.0013-.0016-.0011-.0074-.0026-.0038.0005-.0036.0025-.0015.0011-.001.0008-.0015.0001-.0009-.0007.0023-.0012.0022-.0021.0108-.002.0062.0036.0018.0017.0006.0007Zm.0015-.0053-.0018-.001-.00309-.0016a.01786.01786,0,0,0-.01991.0021l-.0018.0025-.0005.0049.0004.0052.0015.0033.001.0012.0008.001-.0003.0004-.0024-.0007a.02275.02275,0,0,1-.00179-.0134l.00159-.0062.0031-.0029.0089-.0024.0112.0042.0048.0045Z" transform="translate(-475.06557 -282.28018)"/>
        <polygon class="d" points="0.419 0.437 0.418 0.439 0.417 0.439 0.417 0.438 0.419 0.436 0.425 0.432 0.436 0.434 0.438 0.437 0.441 0.438 0.44 0.438 0.438 0.438 0.437 0.438 0.436 0.436 0.432 0.434 0.428 0.433 0.421 0.436 0.419 0.437"/>
        <path class="d" d="M475.42887,282.70868l.0001.0001Z" transform="translate(-475.06557 -282.28018)"/>
        <path class="d" d="M475.63348,282.72258l-.06461-.0029.0003-.0001.0071-.0025.0145-.0024a.06174.06174,0,0,0,.0186-.0024l.0065-.0035.0067-.0035.0043.0002.0033.0004.0022-.0015-.0004-.0018-.0073-.0029-.0079.0008-.0044.0018-.0052.002-.0103.0014-.00439-.0003-.00491-.0003a.07417.07417,0,0,0-.0229.0049l.0607-.0284.0014-.0039-.0037-.0017-.0609.022.00031-.0002.00559-.0051.0125-.0076.0161-.0094.0047-.0058.0049-.0057.0041-.0015.0032-.0008.0015-.0023-.0011-.0015-.0079.0001-.007.0038-.0034.0033-.004.0039-.009.0051-.0041.0015-.0048.0016a.07386.07386,0,0,0-.01929.0134l.04529-.0496-.0002-.0041-.00409-.0001-.04771.0435.0001-.0003.0033-.0067.0085-.0119.0114-.0149.0021-.0071.0024-.0072.0032-.0029.0025-.002.0006-.0027-.0016-.001-.0073.0031-.005.0062-.0018.0044-.0022.0051-.0064.0082-.0033.0029-.0037.0033a.077.077,0,0,0-.0128.0198l.0229-.0631-.0017-.0038-.0039.0015-.0274.0586v-.0004l.0004-.0075.00341-.0143a.06208.06208,0,0,0,.00479-.0181l-.00079-.0073-.00061-.0076.002-.0039.0015-.0028-.0005-.0027-.0018-.0003-.0055.0057-.0023.0075v.0048l-.0001.0056-.0028.01-.00189.004-.00211.0045a.0753.0753,0,0,0-.0043.023l-.003-.067-.003-.0028-.002.0007-.0011.0021-.0029.0647-.0001-.0004-.00249-.0071-.00231-.0145a.06045.06045,0,0,0-.0025-.0185l-.0035-.0066-.0035-.0067.0003-.0043.0003-.0032-.0014-.0023-.0019.0004-.0029.0073.0008.008.0018.0044.0021.0052.0013.0102-.0003.0045-.00029.0049a.07387.07387,0,0,0,.00489.0228l-.0284-.0606-.0039-.0015-.00159.0038.022.0608-.00031-.0002-.0051-.0057-.00759-.0124-.00941-.0162-.0057-.0047-.0058-.0049-.0014-.0041-.0009-.0031-.0022-.0016-.00159.0012.00009.0078.0038.007.0033.0034.0039.004.0052.009.0014.0042.0016.0047a.07627.07627,0,0,0,.0133.0192l-.0495-.0451-.00409.0001-.00011.0041.0436.0478-.0003-.0001-.0068-.0033-.0119-.0086a.06369.06369,0,0,0-.0149-.0114l-.0071-.0021-.0072-.0023-.0029-.0032-.002-.0026-.0026-.0006-.001.0016.0031.0073.00611.005.00439.0019.0051.0022.0083.0063.0029.0034.00331.0036a.0739.0739,0,0,0,.01969.0128l-.0631-.0229-.0038.0017.0015.0039.0586.0274h-.0003l-.00759-.0004-.01421-.0034a.0632.0632,0,0,0-.0182-.0048l-.0073.0008-.0076.0006-.0039-.0019-.00279-.0016-.00271.0005-.00029.0019.00569.0055.0076.0023h.0048l.0055.0001.01.0027.004.0019.0045.0022a.07162.07162,0,0,0,.02291.0042l-.06681.003-.0029.0031.0029.003.0646.0029-.0003.0001-.0072.0025-.0145.0024a.06045.06045,0,0,0-.0185.0025l-.0065.0034-.00679.0035-.00431-.0002-.0032-.0004-.0023.0015.0005.0018.00731.0029.00209.0002.0058-.0009.0044-.0019.0052-.002.0102-.0013.0045.0002.0049.0003a.0743.0743,0,0,0,.02291-.0049l-.06071.0284-.0015.0039.0027.0019.0011-.0002.0608-.022-.0002.0002-.0056.0051-.0125.0077-.0162.0094-.0047.0057-.0049.0057-.0041.0015-.0031.0009-.0016.0022.0012.0015.0031.0007.0047-.0008.0071-.0037.0033-.0034.00411-.0039.00889-.0051.0042-.0015.0047-.0016a.072.072,0,0,0,.0193-.0133l-.0452.0495.00011.0041.00209.001.002-.0009.0478-.0435-.0001.0003-.0033.0068-.0086.0119a.05868.05868,0,0,0-.0113.0149l-.0022.007-.0023.0073-.0032.0028-.0026.002-.0006.0027.0017.001h.0004l.0068-.0031.0051-.0062.0018-.0044.0022-.0051.00631-.0082.00339-.0029.0037-.0033a.07317.07317,0,0,0,.0126-.0197l-.0228.063.0017.0038.0012.0002.0027-.0017.0274-.0586v.0004l-.0004.0075-.0033.0143a.05681.05681,0,0,0-.0048.0181l.0007.0073.0006.0076-.0019.0039-.0015.0028.0004.0027.0012.0004.0007-.0001.0055-.0056.0023-.0076v-.0048l.0001-.0056.0027-.01.002-.004.0021-.0044a.0722.0722,0,0,0,.0042-.023l.003.0669.0031.0028.002-.0007.001-.0021.0029-.0646.0001.0003.0025.0071.0024.0145a.06125.06125,0,0,0,.00251.0186l.00349.0065.0034.0067-.0002.0043-.0004.0032.0015.0023.0005.0001.0013-.0005.003-.0073-.0008-.0079-.0019-.0045-.002-.0051-.0013-.0103.0003-.0044.0002-.005a.07354.07354,0,0,0-.0049-.0228l.0284.0606.0027.0017.0012-.0002.0017-.0038-.022-.0608.0002.0003.0051.0056.0077.0125.0094.0161.0057.0047.0058.0049.0014.0041.0009.0031.002.0016h.0002l.0016-.0011-.0001-.0079-.0038-.007-.0034-.0034-.0038-.004-.0052-.009-.0014-.0042-.0017-.0047a.07275.07275,0,0,0-.0132-.0192l.04941.0451.002.0009.00209-.001.0002-.0041-.0436-.0477.00031.0001.00679.0032.0119.0086a.0619.0619,0,0,0,.0149.0114l.007.0021.0073.0023.0028.0032.002.0026.0018.0008.0009-.0002.001-.0016-.0031-.0073-.0062-.005-.0044-.0018-.0051-.0023-.0082-.0063-.0029-.0033-.0033-.0037a.07356.07356,0,0,0-.0197-.0127l.0631.0228.001.0002.0027-.0019-.0015-.0039-.0585-.0274h.0003l.0076.0004.0142.0034a.06345.06345,0,0,0,.0181.0048l.0074-.0008.0075-.0006.004.0019.0028.0016.001.0002.0016-.0007.0003-.0018-.0056-.0055-.0076-.0024h-.0048l-.0056-.0001-.01-.0027-.004-.0019-.0044-.0021a.07238.07238,0,0,0-.023-.0043l.06691-.003.00279-.003Zm-.04591-.0154.0047.0003.0046.0003.0108-.0014.0056-.0022.0041-.0017.007-.0007.0059.002h-.0001l-.0029-.0004-.0051-.0002-.0074.0037-.0062.0033-.0178.0024-.0151.0024-.0073.0026-.007.0018-.0002-.0018.0034-.001.0055-.0019.006-.0023.0063-.0016.0056-.0007.004-.0002h.0016l-.0016-.0001h-.004l-.0057.0003-.0065.0012-.0062.0021-.0054.0015-.0033.0007-.00039-.0017A.08223.08223,0,0,1,475.58757,282.70718Zm.0361-.0292.0011.0005-.0004.0012-.065.0304-.00089-.0025.03459-.0159-.0357.0132-.0012-.0024Zm-.049.0014.0044-.0016.0045-.0015.0094-.0054.0043-.0041.00321-.0032.00619-.0034.0061-.0004-.0028.0008-.0048.0018-.0055.0062-.0044.0055-.0156.009-.013.008-.0057.0052-.0058.0043-.0009-.0015.0028-.0023.0043-.0038.0047-.0045.0051-.0039.005-.0027.0036-.0018.0011-.0004-.0011.0004-.0038.0015-.0051.0024-.0055.0037-.00489.0042-.00451.0035-.0028.002-.001-.0015A.08044.08044,0,0,1,475.57467,282.67938Zm.0222-.0408h.0012l.0001.0012-.0485.053-.0017-.0019.0258-.028-.0279.0259-.002-.0018Zm-.0448.0199.0035-.0031.0035-.0031.0067-.0086.0024-.0054.0017-.0042.0045-.0054.0055-.0028-.0001.0001-.0022.0017-.0038.0035-.0027.0079-.0019.0067-.011.0142-.009.0124-.0033.0071-.0036.0061h-.0001l-.0014-.001.0018-.0032.0025-.0052.0026-.0059.0033-.0056.00351-.0044.00269-.003.001-.001-.0011.0009-.0029.0028-.0038.0043-.0037.0055-.003.0058-.0027.0049-.0018.0029-.0015-.0009A.08046.08046,0,0,1,475.55207,282.65848Zm.005-.0462.0011-.0004.0005.0011-.0244.0675-.0025-.0011.0133-.0358-.016.0346-.0025-.0009Zm-.0338.0356.0021-.0042.002-.0042.0029-.0105.0001-.0059v-.0046l.002-.0067.00411-.0047v.0001l-.00151.0026-.0021.0046.00061.0083.00069.007-.00469.0173-.00351.0149-.0004.0077-.001.0072-.0018-.0005.0004-.0036.0004-.0057.0001-.0065.0009-.0064.0015-.0055.00141-.0038.00029-.0008-.0004.0008-.0016.0037-.0019.0054-.0013.0065-.0005.0065-.00059.0056-.00061.0034-.0018-.0004A.08032.08032,0,0,1,475.52327,282.64788Zm-.0131-.0446.0009-.0008.0008.0008.0033.0718-.0026-.0002-.0015-.038-.0015.038-.0026.0002Zm-.0175.0458.0002-.0046.0003-.0047-.0014-.0107-.0021-.0056-.0018-.0042-.0007-.007.002-.0059v.0001l-.0003.0029-.0003.0052.0037.0074.0034.0062.0023.0177.0024.0151.0026.0073.0018.0069v.0001l-.0018.0002-.001-.0034-.0018-.0054-.0024-.0061-.0016-.0062-.00069-.0057-.00011-.004-.0001-.0015v.0015l-.0001.004.00031.0057.00129.0065.002.0063.0015.0054.0008.0033-.0018.0004A.08048.08048,0,0,1,475.49267,282.64908Zm-.02919-.0361.00039-.0011.0012.0004.0305.065-.0026.0009-.0159-.0346.0132.0358-.0024.0011Zm.00129.049-.0016-.0044-.0015-.0044-.0054-.0094-.0041-.0044-.0032-.0032-.0034-.0061-.0003-.0061.0007.0028.0018.0048.0063.0054.0055.0045.00891.0155.008.013.00519.0058.0043.0057v.0001l-.00149.0009-.00231-.0029-.0038-.0043-.0045-.0046-.0039-.0052-.0027-.0049-.0017-.0037-.0006-.0012.00051.0012.00149.0038.0024.0051.0037.0055.0042.005.0035.0044.002.0028-.0015.0011A.08117.08117,0,0,1,475.46477,282.662Zm-.0408-.0222v-.0012h.0012l.053.0484-.0019.0018-.028-.0259.0259.028-.0018.0019Zm.0199.0448-.0031-.0035-.0031-.0035-.0086-.0066-.0054-.0025-.00419-.0017-.00541-.0044-.0027-.0055.0017.0023.0035.0038.00791.0026.00669.002.0142.0109.0124.009.0071.0033.0061.0037h.0001l-.0011.0014-.0032-.0017-.0052-.0025-.0059-.0027-.0056-.0032-.0044-.0035-.003-.0027-.0005-.0006.0004.0006.0028.0029.0043.0038.0055.0037.0058.003.0049.0027.0029.0019-.0009.0015A.0819.0819,0,0,1,475.44387,282.68458Zm-.0461-.0049-.0005-.0012.0011-.0005.0676.0245-.0012.0024-.0357-.0132.0345.0159-.0008.0025Zm.0356.0337-.0043-.002-.0042-.0021-.01039-.0028-.006-.0001h-.00461l-.0067-.0021-.0046-.004.0026.0014.0046.0022.0083-.0006.007-.0007.0173.0046.0149.0036.0077.0003.0071.0011h.0001l-.0005.0017-.0036-.0004-.0057-.0004-.0065-.0001-.00639-.0008-.00551-.0016-.0037-.0014-.0013-.0004.0013.0005.0036.0016.0055.0019.0064.0013.0065.0005.0056.0007.0034.0006-.0003.0017A.08.08,0,0,1,475.43337,282.71338Zm-.0446.0131-.0008-.0008.0008-.0009.07171-.0033-.00021.0027-.038.0015.038.0015.00021.0026Zm.0458.0176-.0047-.0003-.0047-.0003-.01069.0015-.00561.0021-.0042.0017-.0069.0007-.0058-.0019.0029.0003.0051.0002.0074-.0037.0062-.0033.0177-.0024.0151-.0024.0074-.0026.0069-.0018h0l.0003.0018-.00349.001-.00541.0019-.0061.0024-.0062.0016-.0056.0006-.004.0002h-.0016l.0016.0001.004.0001.0057-.0004.0064-.0012.0063-.0021.0054-.0015.0033-.0007.0004.0017A.07995.07995,0,0,1,475.43457,282.74408Zm-.0362.0292-.0011-.0005.0004-.0011.0651-.0305.0008.0025-.0345.0159.0357-.0132.0012.0024Zm.049-.0013-.0044.0015-.0044.0015-.0094.0054-.0043.0041-.0033.0032-.00609.0034-.00611.0004.0028-.0008.0048-.0017.0054-.0063.0045-.0055.0155-.0089.013-.0081.0058-.0052.0057-.0042h.0001l.0009.0015-.0029.0022-.0043.0038-.0046.0046-.0052.0038-.0049.0027-.0037.0018-.00079.0004.00089-.0003.0037-.0015.0052-.0025.0055-.0037.0049-.0042.0044-.0035.0029-.0019.001.0014A.08122.08122,0,0,1,475.44737,282.772Zm-.0222.0408-.0012-.0001v-.0012l.0484-.053.0018.002-.0259.0279.028-.0258.0019.0017Zm.0448-.02-.00349.0031-.00351.0031-.0066.0086-.0024.0055-.0018.0041-.0044.0054-.0055.0028h0l.0023-.0018.0038-.0035.0026-.0079.002-.0067.0109-.0142.009-.0124.0033-.007.0037-.0062.0014.001-.0017.0032-.0025.0052-.00259.0059-.00331.0056-.0035.0044-.0027.003-.001.0011.001-.001.0029-.0028.0039-.0043.0036-.0055.003-.0058.0027-.0049.0019-.0029.00151.001A.08044.08044,0,0,1,475.47,282.79278Zm-.0049.0462-.0012.0004-.00039-.0011.02439-.0675.0024.0012-.0132.0357.0159-.0346.0026.0009Zm.0337-.0356-.002.0042-.002.0042-.0029.0105-.0001.006v.0045l-.002.0067-.0041.0047v-.0001l.0014-.0025.0022-.0047-.0006-.0083-.0007-.0069.0047-.0174.0035-.0148.0004-.0078.001-.0071.0017.0004-.0004.0036-.0003.0057-.00009.0065-.00091.0064-.0016.0055-.0014.0038-.0004.0011.0005-.0011.0016-.0037.0019-.0054.00131-.0065.00049-.0065.0007-.0056.0006-.0033.0017.0003A.078.078,0,0,1,475.49877,282.80338Zm.0131.0446-.0008.0008-.0009-.0008-.0032-.0718.0026.0002.0015.038.0015-.038.0026-.0002Zm-.0008-.0744a.048.048,0,1,1,.0479-.0479A.048.048,0,0,1,475.51107,282.77358Zm.01841.0286-.00031.0047-.0003.0046.0015.0108.00211.0056.00179.0041.0006.007-.0019.0059v-.0001l.0003-.0029.0003-.0051-.0038-.0075-.00329-.0061-.00241-.0178-.0024-.0151-.0026-.0073-.0018-.007.0018-.0002.001.0034.0019.0055.0024.006.0016.0062.0006.0057.0002.004.0001.0015v-.0015l.0001-.004-.0003-.0057-.0013-.0065-.002-.0063-.0015-.0053-.0008-.0034.0017-.0004A.08076.08076,0,0,1,475.52948,282.80218Zm.02919.0361-.0005.0011-.0011-.0004-.0305-.065.0025-.0009.016.0346-.0133-.0357.0025-.0012Zm-.0013-.049.0015.0044.00161.0045.00529.0094.0042.0043.0032.0032.00331.0062.00039.006-.0008-.0028-.0017-.0048-.0063-.0054-.0055-.0044-.0089-.0156-.008-.013-.0053-.0058-.0042-.0057.0015-.0009.0022.0028.0038.0043.0046.0047.0038.0051.0028.005.0017.0036.0005.0013-.0004-.0013-.0015-.0038-.0025-.0051-.0036-.0055-.0043-.005-.0035-.0044-.0019-.0028.0014-.001A.0786.0786,0,0,1,475.55737,282.78928Zm.0408.0222-.0001.0012-.0012.0001-.053-.0485.002-.0017.0279.0258-.0258-.0279.0017-.002Zm-.02-.0448.0032.0035.003.0035.0086.0067.00551.0024.00409.0017.0055.0045.0027.0054-.0018-.0023-.00349-.0037-.00781-.0027-.0068-.002-.0142-.0109-.0124-.009-.007-.0033-.0062-.0036v-.0001l.0011-.0014.0031.0018.00521.0025.006.0026.00549.0032.00451.0036.00289.0027.0006.0005-.00049-.0006-.00281-.0029-.00419-.0038-.00551-.0037-.0059-.003-.0049-.0027-.0029-.0019.001-.0014A.07982.07982,0,0,1,475.57817,282.76668Zm.0462.005.0004.0011-.0011.0005-.0675-.0245.0012-.0024.0357.0132-.03459-.0159.00089-.0025Zm-.0356-.0338.0043.002.0041.0021.0105.0029.006.0001h.0045l.0067.002.0047.0041h-.00009l-.00251-.0015-.0047-.0022-.0082.0006-.007.0007-.0173-.0046-.0149-.0035-.0078-.0004-.007-.001-.0001-.0001.00051-.0017.00349.0004.0058.0004.0064.0001.0064.0009.0055.0015.0038.0014.0013.0005-.0013-.0006-.0037-.0016-.0054-.0019-.0065-.0013-.0064-.0005-.0057-.0006-.0033-.0007.0003-.0017A.08.08,0,0,1,475.58877,282.73788Zm.0446-.0114-.0718.0033.0002-.0026.038-.0015-.038-.0015-.0002-.0027.0718.0033.0008.0009Z" transform="translate(-475.06557 -282.28018)"/>
      </g>
    </g>
  </g>
</svg>
