<svg xmlns="http://www.w3.org/2000/svg" viewBox="0 0 0.891 0.891">
  <defs>
    <style>
      .a {
        fill: #032774;
      }

      .b {
        fill: #fff;
      }

      .c {
        fill: #df0333;
      }
    </style>
  </defs>
  <g>
    <path d="M480.13557,271.82838a.33344.33344,0,1,1-.4967-.0281A.35336.35336,0,0,1,480.13557,271.82838Z" transform="translate(-479.45677 -271.61348)"/>
    <g>
      <path class="a" d="M480.25567,271.788a.445.445,0,0,0-.7067,0l-.0161.0222-.0145.023-.00889.0159-.00421.0079-.0102.0214-.00759.018a.42612.42612,0,0,0-.01731.0542l-.0042.018a.43184.43184,0,0,0-.0068.0444l-.0021.0312-.0003.0148a.4455.4455,0,1,0,.7989-.271Z" transform="translate(-479.45677 -271.61348)"/>
      <g>
        <path class="a" d="M479.548,271.96858l-.0888.0444a.43184.43184,0,0,1,.0068-.0444Z" transform="translate(-479.45677 -271.61348)"/>
        <path class="a" d="M479.65348,271.788v.0826l-.12061-.0604.0161-.0222Z" transform="translate(-479.45677 -271.61348)"/>
        <path class="a" d="M479.548,271.87838h-.0529l.0102-.0214Z" transform="translate(-479.45677 -271.61348)"/>
        <polygon class="a" points="0.513 0.265 0.513 0.205 0.392 0.265 0.513 0.265"/>
        <polygon class="a" points="0.452 0.174 0.287 0.174 0.287 0.257 0.452 0.174"/>
        <polygon class="a" points="0.513 0.415 0.513 0.355 0.392 0.355 0.513 0.415"/>
        <polygon class="a" points="0.032 0.445 0.197 0.445 0.197 0.363 0.032 0.445"/>
        <polygon class="a" points="0.287 0.445 0.452 0.445 0.287 0.363 0.287 0.445"/>
        <path class="b" d="M479.96967,271.81808l-.1204.0603h.1204v.0902h-.1204l.1204.0602v.0102l-.1408-.0704h-.04039l.18059.0904h-.0603l-.1651-.0827v.0827h-.09019v-.0827l-.16511.0827h-.0203l.1807-.0904h-.0405l-.1512.0756.0021-.0312.0888-.0444h-.082l.0042-.018a.42612.42612,0,0,1,.01731-.0542l.00759-.018h.0529l-.0427-.0214.00421-.0079.05849.0293h.04051l-.09011-.0452.0145-.023.12061.0604v-.0826h.09019v.0826l.1651-.0826h.0201l-.1807.0904h.0405l.1807-.0904h.0003Z" transform="translate(-479.45677 -271.61348)"/>
        <path class="c" d="M479.60848,271.87838H479.568l-.05849-.0293.00889-.0159Z" transform="translate(-479.45677 -271.61348)"/>
        <polygon class="c" points="0.332 0.355 0.512 0.445 0.513 0.445 0.513 0.426 0.372 0.355 0.332 0.355"/>
        <polygon class="c" points="0.291 0.265 0.332 0.265 0.513 0.174 0.472 0.174 0.291 0.265"/>
        <path class="c" d="M479.64877,271.96858l-.1807.0904h-.0113l.0003-.0148.1512-.0756Z" transform="translate(-479.45677 -271.61348)"/>
        <path class="c" d="M479.96967,271.89638v.0542h-.244v.1084h-.05419v-.1084h-.20131a.42612.42612,0,0,1,.01731-.0542h.184v-.1084h.05419v.1084Z" transform="translate(-479.45677 -271.61348)"/>
      </g>
      <polygon class="b" points="0.242 0.618 0.206 0.654 0.213 0.604 0.163 0.599 0.206 0.573 0.178 0.53 0.226 0.548 0.242 0.5 0.258 0.548 0.305 0.53 0.278 0.573 0.321 0.599 0.271 0.604 0.277 0.654 0.242 0.618"/>
      <polygon class="b" points="0.686 0.644 0.669 0.661 0.672 0.637 0.648 0.635 0.669 0.622 0.655 0.602 0.678 0.61 0.686 0.587 0.693 0.61 0.716 0.602 0.703 0.622 0.724 0.635 0.7 0.637 0.703 0.661 0.686 0.644"/>
      <polygon class="b" points="0.59 0.429 0.573 0.447 0.576 0.423 0.552 0.42 0.572 0.408 0.559 0.387 0.582 0.396 0.59 0.373 0.597 0.396 0.62 0.387 0.607 0.408 0.627 0.42 0.603 0.423 0.606 0.447 0.59 0.429"/>
      <polygon class="b" points="0.686 0.283 0.669 0.3 0.672 0.276 0.648 0.274 0.668 0.261 0.655 0.241 0.678 0.249 0.686 0.226 0.693 0.249 0.716 0.241 0.703 0.261 0.724 0.274 0.7 0.276 0.703 0.3 0.686 0.283"/>
      <polygon class="b" points="0.806 0.393 0.789 0.411 0.792 0.386 0.768 0.384 0.789 0.372 0.776 0.351 0.798 0.36 0.806 0.337 0.814 0.36 0.836 0.351 0.823 0.372 0.844 0.384 0.82 0.386 0.823 0.411 0.806 0.393"/>
      <polygon class="b" points="0.74 0.478 0.726 0.487 0.731 0.471 0.718 0.461 0.734 0.46 0.74 0.445 0.746 0.46 0.762 0.461 0.749 0.471 0.754 0.487 0.74 0.478"/>
    </g>
  </g>
</svg>
