<svg xmlns="http://www.w3.org/2000/svg" viewBox="0 0 0.8914 0.8914">
  <defs>
    <style>
      .a {
        fill: #009b3a;
      }

      .b {
        fill: #fedf00;
      }

      .c {
        fill: #002776;
      }

      .d {
        fill: #fff;
      }
    </style>
  </defs>
  <g>
    <path d="M486.05148,280.97038a.33345.33345,0,1,1-.49671-.0281A.35337.35337,0,0,1,486.05148,280.97038Z" transform="translate(-485.37227 -280.75548)"/>
    <g>
      <g>
        <circle class="a" cx="0.4457" cy="0.4457" r="0.4457"/>
        <polygon class="b" points="0.446 0.717 0.021 0.446 0.446 0.175 0.871 0.446 0.446 0.717"/>
        <g>
          <g>
            <circle class="c" cx="0.4457" cy="0.4457" r="0.1788"/>
            <path class="d" d="M485.65427,281.129a.19385.19385,0,0,0-.0095.0274.40882.40882,0,0,1,.3438.0985.17392.17392,0,0,0,.0064-.0282A.43253.43253,0,0,0,485.65427,281.129Z" transform="translate(-485.37227 -280.75548)"/>
          </g>
          <path class="a" d="M485.67207,281.137l-.00159-.0027-.00241-.0017-.0033-.0007-.00329.0007-.00251.0017-.0017.0027-.0005.0035.0005.0035.0017.0027.00251.0018.00329.0006.0033-.0006.0025-.0018.0015-.0027.0006-.0035Zm-.003.0059-.0009.0018-.0015.0013-.0019.0004-.002-.0004-.0015-.0013-.0009-.0018-.0004-.0024.0004-.0024.0009-.0019.0015-.0011.002-.0005.002.0005.0014.0012.0009.0018.0003.0024Z" transform="translate(-485.37227 -280.75548)"/>
          <path class="a" d="M485.69217,281.14228l-.0012-.002-.0016-.001v-.0001l.0025-.0015.0008-.0029-.0009-.0028-.001-.0009-.0012-.0006-.0015-.0002h-.0017l-.0074.0004.0008.0166.0032-.0002-.0003-.0065.0031-.0002.001.0001.0009.0005.00081.0007.00049.001.0016.0041.0034-.0002Zm-.0034-.0052-.001.0005-.0014.0002-.0038.0002-.0003-.005.00421-.0002.00219.0005.00081.0018-.00011.0012Z" transform="translate(-485.37227 -280.75548)"/>
          <path class="a" d="M485.713,281.13128l-.00649-.002H485.701v.0166h.00551a.00756.00756,0,0,0,.00869-.0084Zm-.0023.0104-.0016.0011-.00259.0004h-.00231v-.0112h.00231l.00259.0004.0016.0011.0012.004Z" transform="translate(-485.37227 -280.75548)"/>
          <path class="a" d="M485.72657,281.14318v-.0045l.0085.0001.0001-.0027-.0086-.0001.0001-.004.0091.0001.0001-.0027-.01239-.0001-.00011.0166.0126.0001.0001-.0027Z" transform="translate(-485.37227 -280.75548)"/>
          <path class="a" d="M485.75687,281.13078l-.0046.0127-.0033-.0131-.00449-.0002-.00091.0166.003.0001.0004-.0068.0002-.0066.0036.0136.0029.0002.0047-.0132-.0004.0065-.0003.0069.003.0001.00081-.0166Z" transform="translate(-485.37227 -280.75548)"/>
          <path class="a" d="M485.79307,281.13978l.0003-.0025-.0111-.0016-.0021.015.0114.0017.0004-.0024-.0086-.0013.0006-.004.0076.0011.0004-.0024-.0077-.0011.0005-.0037Z" transform="translate(-485.37227 -280.75548)"/>
          <path class="a" d="M485.82767,281.14648l-.0006-.0014-.0011-.0009-.0013-.0008-.0018-.0006-.0061-.0018-.0048.0159.0031.0009.0018-.0059.003.0009.0027.0004.0023-.0004.00161-.0012.00109-.0021.0003-.0016Zm-.00319.0021-.00051.0011-.0007.0006-.001.0002-.0014-.0002-.0006-.0001-.0006-.0002-.0021-.0006.0015-.005.002.0006.0016.0005.0011.0005.0005.0005.00021.0006.00009.0007Z" transform="translate(-485.37227 -280.75548)"/>
          <path class="a" d="M485.84948,281.15258l-.00061-.0012-.001-.0009-.0012-.0007-.0017-.0007-.007-.0023-.0053.0157.0031.001.002-.0062.003.001.0009.0005.0007.0007.0004.001.0002.0011.0001.0044.0032.0011-.0002-.0047-.0004-.0023-.00119-.0015.00009-.0001.00291-.0006.00179-.0023Zm-.00331.0021-.0005.0011-.0008.0005-.0011.0001-.0014-.0003-.0037-.0013.0016-.0046.0039.0013.0019.0012Z" transform="translate(-485.37227 -280.75548)"/>
          <path class="a" d="M485.87057,281.16008l-.0017-.0024-.0029-.0017-.0033-.0005-.003.0008-.0024.002-.0017.0032-.0006.0035.0006.0031.0018.0024.0029.0017.0033.0005.003-.0008.0024-.0021.0016-.0031.0007-.0035Zm-.00309.0055-.001.0022-.00151.0014-.0018.0007-.002-.0003-.00169-.001-.001-.0016-.00031-.0021.0005-.0024.0011-.0021.0015-.0014.0018-.0007.002.0003.0017.001.001.0017.0002.002Z" transform="translate(-485.37227 -280.75548)"/>
          <path class="a" d="M485.89167,281.17238l.0002-.0024-.0006-.0022-.0016-.002-.0024-.0014-.0033-.0008-.0031.0006-.0025.0018-.00189.003-.00091.0035.0004.0032.0016.0025.0028.0019.0028.0007.0025-.0003-.00019.0015.00189.0009.0035-.008-.0063-.0028-.001.0023.0034.0015-.0008.0019-.0022.0005-.0024-.0007-.0017-.0011-.0009-.0017-.0002-.002.00071-.0025.00129-.0021.0016-.0013.0019-.0005.0019.0004.0014.0009.00091.001.00039.0012-.0001.0012Z" transform="translate(-485.37227 -280.75548)"/>
          <path class="a" d="M485.91127,281.17758l-.0007-.0011-.0012-.0009-.0014-.001-.00649-.0035-.008.0146.00279.0015.00321-.0057.00269.0015.0008.0006.00051.0009.00029.001-.0001.0011-.0007.0043.003.0016.0007-.0046v-.0023l-.0009-.0018h.0031l.0021-.0021.0007-.0028Zm-.0032.0027-.0007.001-.00089.0004-.00111-.0001-.0013-.0006-.0034-.0018.0024-.0044.0036.002.0016.0016Z" transform="translate(-485.37227 -280.75548)"/>
          <path class="a" d="M485.93087,281.18978l.0014-.0024-.0107-.0061-.0082.0145.011.0062.0013-.0023-.00819-.0047.00219-.0038.0074.0042.0013-.0024-.0074-.0042.002-.0035Z" transform="translate(-485.37227 -280.75548)"/>
          <path class="a" d="M485.94987,281.19978l-.0012-.002-.002-.0018-.0023-.0011-.0021-.0003-.00179.0004-.00151.0011-.0003.0005-.00019.0005-.00051.0018.00051.0017.00109.0017.0018.0019.00111.0013.00069.0011.0002.0009-.0003.0008-.0008.0007-.001.0002-.0012-.0002-.0013-.0007-.0012-.0011-.0007-.0012-.0002-.0013.0004-.0014-.0025-.0017-.0008.0047.0036.0042.0024.0012.0023.0003.0021-.0005.0016-.0016.00071-.0014.00009-.0014-.0004-.0013-.0008-.0013-.0011-.0013-.0012-.0013-.0011-.0012-.0006-.001-.0002-.0008.0002-.0008.0007-.0005.0009-.0002.0011.0002.0012.0006.0015.0041.0026.0017.0007-.0021Z" transform="translate(-485.37227 -280.75548)"/>
          <path class="a" d="M485.96827,281.21188l-.0012-.002-.002-.0018-.0023-.0011-.0021-.0003-.0018.0004-.0015.0012-.0003.0005-.0003.0005-.00029.0017.00039.0017.0012.0018.0017.0019.0011.0013.0007.001.0002.0009-.00029.0009-.00071.0007-.0011.0002-.0011-.0003-.0014-.0007-.0012-.001-.0007-.0012-.0002-.0013.00041-.0014-.00251-.0017-.0007.0047.0036.0041.0024.0012.0023.0004.002-.0006.0016-.0015.0007-.0015.0001-.0014-.0004-.0013-.0008-.0013-.0011-.0012-.00119-.0013-.00111-.0013-.0006-.001-.0002-.0008.0002-.0007.00071-.0006.00089-.0002.00111.0002.00119.0006.0015.0041.0026.0017.00071-.0021Z" transform="translate(-485.37227 -280.75548)"/>
          <path class="a" d="M485.98607,281.22648l-.0012-.0028-.00239-.0022-.00311-.0012-.0031.0001-.00279.0014-.00231.0028-.0014.0032-.0001.0032.0013.0028.00251.0023.00309.0012.003-.0002.0028-.0015.0023-.0026.0014-.0033Zm-.0031.0025-.0011.0022-.0015.0019-.0017.0011-.0019.0002-.002-.0007-.0014-.0013-.0006-.0018.0002-.0021.001-.0022.00151-.0019.00169-.0011.002-.0002.0019.0007.00141.0014.00059.0018Z" transform="translate(-485.37227 -280.75548)"/>
        </g>
      </g>
      <g>
        <polygon class="d" points="0.501 0.382 0.503 0.388 0.508 0.388 0.504 0.391 0.506 0.396 0.501 0.393 0.497 0.396 0.499 0.391 0.494 0.388 0.5 0.388 0.501 0.382"/>
        <polygon class="d" points="0.494 0.431 0.496 0.435 0.5 0.435 0.496 0.437 0.498 0.441 0.494 0.439 0.491 0.441 0.492 0.437 0.489 0.435 0.493 0.435 0.494 0.431"/>
        <polygon class="d" points="0.446 0.468 0.447 0.472 0.452 0.472 0.448 0.475 0.449 0.48 0.446 0.477 0.442 0.48 0.443 0.475 0.439 0.472 0.444 0.472 0.446 0.468"/>
        <polygon class="d" points="0.378 0.446 0.379 0.451 0.384 0.451 0.38 0.454 0.382 0.458 0.378 0.455 0.374 0.458 0.375 0.454 0.371 0.451 0.376 0.451 0.378 0.446"/>
        <polygon class="d" points="0.315 0.481 0.317 0.486 0.323 0.486 0.318 0.489 0.32 0.495 0.315 0.491 0.311 0.495 0.313 0.489 0.308 0.486 0.314 0.486 0.315 0.481"/>
        <polygon class="d" points="0.293 0.498 0.295 0.503 0.3 0.503 0.296 0.505 0.297 0.51 0.293 0.507 0.289 0.51 0.291 0.505 0.287 0.503 0.292 0.503 0.293 0.498"/>
        <polygon class="d" points="0.374 0.533 0.376 0.539 0.381 0.539 0.377 0.542 0.378 0.547 0.374 0.544 0.37 0.547 0.371 0.542 0.367 0.539 0.372 0.539 0.374 0.533"/>
        <polygon class="d" points="0.347 0.519 0.349 0.523 0.353 0.523 0.349 0.525 0.351 0.529 0.347 0.527 0.344 0.529 0.345 0.525 0.342 0.523 0.346 0.523 0.347 0.519"/>
        <polygon class="d" points="0.353 0.5 0.354 0.505 0.359 0.505 0.355 0.507 0.356 0.512 0.353 0.509 0.349 0.512 0.35 0.507 0.347 0.505 0.351 0.505 0.353 0.5"/>
        <polygon class="d" points="0.333 0.473 0.334 0.476 0.337 0.476 0.335 0.478 0.336 0.481 0.333 0.479 0.33 0.481 0.331 0.478 0.329 0.476 0.332 0.476 0.333 0.473"/>
        <polygon class="d" points="0.299 0.405 0.301 0.411 0.307 0.411 0.303 0.414 0.304 0.42 0.299 0.416 0.294 0.42 0.296 0.414 0.291 0.411 0.298 0.411 0.299 0.405"/>
        <polygon class="d" points="0.466 0.484 0.468 0.489 0.473 0.489 0.469 0.492 0.47 0.496 0.466 0.493 0.463 0.496 0.464 0.492 0.46 0.489 0.465 0.489 0.466 0.484"/>
        <polygon class="d" points="0.446 0.519 0.448 0.524 0.453 0.524 0.449 0.527 0.45 0.533 0.446 0.529 0.441 0.533 0.443 0.527 0.439 0.524 0.444 0.524 0.446 0.519"/>
        <polygon class="d" points="0.5 0.559 0.501 0.564 0.506 0.564 0.502 0.567 0.504 0.572 0.5 0.569 0.495 0.572 0.497 0.567 0.493 0.564 0.498 0.564 0.5 0.559"/>
        <polygon class="d" points="0.571 0.502 0.573 0.506 0.578 0.506 0.574 0.51 0.575 0.515 0.571 0.511 0.567 0.515 0.568 0.51 0.564 0.506 0.569 0.506 0.571 0.502"/>
        <polygon class="d" points="0.579 0.518 0.58 0.522 0.585 0.522 0.581 0.525 0.582 0.529 0.579 0.527 0.575 0.529 0.576 0.525 0.573 0.522 0.577 0.522 0.579 0.518"/>
        <polygon class="d" points="0.596 0.504 0.598 0.508 0.602 0.508 0.598 0.511 0.6 0.515 0.596 0.512 0.593 0.515 0.594 0.511 0.591 0.508 0.595 0.508 0.596 0.504"/>
        <polygon class="d" points="0.568 0.533 0.569 0.537 0.574 0.537 0.57 0.54 0.571 0.544 0.568 0.541 0.564 0.544 0.565 0.54 0.562 0.537 0.566 0.537 0.568 0.533"/>
        <polygon class="d" points="0.536 0.555 0.537 0.56 0.542 0.56 0.538 0.563 0.54 0.568 0.536 0.565 0.532 0.568 0.533 0.563 0.529 0.56 0.534 0.56 0.536 0.555"/>
        <polygon class="d" points="0.515 0.545 0.516 0.549 0.52 0.549 0.517 0.551 0.518 0.555 0.515 0.553 0.511 0.555 0.512 0.551 0.509 0.549 0.513 0.549 0.515 0.545"/>
        <polygon class="d" points="0.535 0.539 0.536 0.542 0.539 0.542 0.536 0.545 0.538 0.548 0.535 0.546 0.532 0.548 0.533 0.545 0.53 0.542 0.533 0.542 0.535 0.539"/>
        <polygon class="d" points="0.553 0.542 0.554 0.546 0.558 0.546 0.555 0.548 0.556 0.552 0.553 0.55 0.55 0.552 0.551 0.548 0.548 0.546 0.552 0.546 0.553 0.542"/>
        <polygon class="d" points="0.535 0.575 0.536 0.578 0.54 0.578 0.537 0.581 0.538 0.584 0.535 0.582 0.532 0.584 0.533 0.581 0.53 0.578 0.534 0.578 0.535 0.575"/>
        <polygon class="d" points="0.485 0.54 0.486 0.544 0.49 0.544 0.487 0.547 0.488 0.551 0.485 0.548 0.482 0.551 0.483 0.547 0.48 0.544 0.484 0.544 0.485 0.54"/>
        <polygon class="d" points="0.446 0.583 0.446 0.585 0.449 0.585 0.447 0.586 0.448 0.588 0.446 0.587 0.444 0.588 0.445 0.586 0.443 0.585 0.445 0.585 0.446 0.583"/>
        <polygon class="d" points="0.427 0.485 0.429 0.489 0.433 0.489 0.429 0.491 0.431 0.495 0.427 0.493 0.424 0.495 0.425 0.491 0.422 0.489 0.426 0.489 0.427 0.485"/>
        <polygon class="d" points="0.437 0.499 0.438 0.502 0.441 0.502 0.438 0.504 0.439 0.507 0.437 0.505 0.434 0.507 0.435 0.504 0.433 0.502 0.436 0.502 0.437 0.499"/>
      </g>
    </g>
  </g>
</svg>
