<svg xmlns="http://www.w3.org/2000/svg" viewBox="0 0 0.891 0.891">
  <defs>
    <style>
      .a {
        fill: #cd1225;
      }

      .b {
        fill: #fbd023;
      }

      .c {
        fill: #053891;
      }
    </style>
  </defs>
  <g>
    <path d="M477.18417,287.069a.33344.33344,0,1,1-.4966-.0281A.35329.35329,0,0,1,477.18417,287.069Z" transform="translate(-476.50548 -286.85408)"/>
    <g>
      <path class="a" d="M477.33577,287.52388h-.7696a.44583.44583,0,0,0,.3848.2212h0A.44583.44583,0,0,0,477.33577,287.52388Z" transform="translate(-476.50548 -286.85408)"/>
      <path class="b" d="M476.50548,287.29958v.0008h.891v-.0008a.4455.4455,0,1,0-.891,0Z" transform="translate(-476.50548 -286.85408)"/>
      <path class="c" d="M476.56617,287.52388h.7696a.444.444,0,0,0,.06071-.2235h-.891A.44274.44274,0,0,0,476.56617,287.52388Z" transform="translate(-476.50548 -286.85408)"/>
    </g>
  </g>
</svg>
