<svg xmlns="http://www.w3.org/2000/svg" viewBox="0 0 0.8914 0.8915">
  <defs>
    <style>
      .a {
        fill: #de2910;
      }

      .b {
        fill: #fff;
      }
    </style>
  </defs>
  <g>
    <path d="M494.89437,274.87768a.33344.33344,0,1,1-.4966-.0281A.35331.35331,0,0,1,494.89437,274.87768Z" transform="translate(-494.21527 -274.66278)"/>
    <g>
      <path class="a" d="M494.661,275.55428a.44575.44575,0,1,1,.4457-.4457A.44622.44622,0,0,1,494.661,275.55428Z" transform="translate(-494.21527 -274.66278)"/>
      <g>
        <path class="b" d="M494.59437,275.13008a.09665.09665,0,0,1-.0363-.0072.12094.12094,0,0,1-.0432-.0303l.0033-.003a.09975.09975,0,0,0,.1234.024.06083.06083,0,0,1-.0736-.0592.07107.07107,0,0,0-.07749-.0502.04711.04711,0,0,1-.06121-.0386.13379.13379,0,0,0,.2158.1512A.11.11,0,0,1,494.59437,275.13008Zm-.0948-.0383-.00309-.0158-.01561-.0041.0141-.0079-.001-.016.0119.0109.015-.0059-.0068.0147.0102.0124-.016-.0019Z" transform="translate(-494.21527 -274.66278)"/>
        <path class="b" d="M494.66417,275.12a.10869.10869,0,0,1-.003.0524.09843.09843,0,0,1-.018.0323.12107.12107,0,0,1-.0422.0317l-.0019-.004a.09981.09981,0,0,0,.061-.11.0608.0608,0,0,1-.079.0517.071.071,0,0,0-.0717.0582.04709.04709,0,0,1-.0556.0463A.13378.13378,0,0,0,494.66417,275.12Zm-.08469.1288-.00871.0135-.0031-.0158-.0156-.004.0141-.0079-.001-.0161.0118.011.015-.0059-.0067.0146.01021.0125Z" transform="translate(-494.21527 -274.66278)"/>
        <path class="b" d="M494.67317,275.10288a.11034.11034,0,0,1,.0489.019.09626.09626,0,0,1,.0251.0272.12105.12105,0,0,1,.0172.0499l-.0045.0005a.09963.09963,0,0,0-.0857-.092.06075.06075,0,0,1,.0247.0911.07111.07111,0,0,0,.0332.0862.04709.04709,0,0,1,.0269.0672A.13377.13377,0,0,0,494.67317,275.10288Zm.0905.1309-.0087.0136-.0031-.0158-.0156-.0041.0141-.0079-.001-.016.0118.0109.015-.0059-.00669.0147.01019.0124Z" transform="translate(-494.21527 -274.66278)"/>
        <path class="b" d="M494.65967,275.089a.10959.10959,0,0,1,.0332-.0406.0957.0957,0,0,1,.03361-.0155.12169.12169,0,0,1,.05279-.0009l-.0009.0044a.09974.09974,0,0,0-.114.0531.06086.06086,0,0,1,.0943.0046.071.071,0,0,0,.0922-.0048.04716.04716,0,0,1,.0723-.0049A.13382.13382,0,0,0,494.65967,275.089Zm.1467-.035-.0087.0135-.0031-.0158-.0156-.004.014-.0079-.0009-.0161.0118.011.015-.0059-.0068.0146.0103.0125Z" transform="translate(-494.21527 -274.66278)"/>
        <path class="b" d="M494.71937,274.84558a.13382.13382,0,0,0-.0771.252.1087.1087,0,0,1-.0283-.0441.09609.09609,0,0,1-.0044-.0368.121.121,0,0,1,.0155-.0504l.0039.0022a.09975.09975,0,0,0,.0153.1248.06083.06083,0,0,1,.0335-.0883.07112.07112,0,0,0,.0239-.0892A.04706.04706,0,0,1,494.71937,274.84558Zm-.0708.1122-.0087.0136-.0032-.0158-.0155-.0041.014-.0078-.0009-.0161.0118.0109.015-.0059-.0068.0147.0103.0124Z" transform="translate(-494.21527 -274.66278)"/>
      </g>
    </g>
  </g>
</svg>
