<svg xmlns="http://www.w3.org/2000/svg" viewBox="0 0 0.891 0.891">
  <defs>
    <style>
      .a {
        fill: #ff883e;
      }

      .b {
        fill: #fff;
      }

      .c {
        fill: #169b62;
      }
    </style>
  </defs>
  <g>
    <path d="M496.35817,280.97038a.33341.33341,0,1,1-.4966-.0281A.35317.35317,0,0,1,496.35817,280.97038Z" transform="translate(-495.67948 -280.75548)"/>
    <g>
      <path class="a" d="M496.57048,281.201a.44632.44632,0,0,0-.297-.42v.84A.44632.44632,0,0,0,496.57048,281.201Z" transform="translate(-495.67948 -280.75548)"/>
      <path class="b" d="M496.125,281.64648a.44341.44341,0,0,0,.14851-.0255v-.84a.44515.44515,0,0,0-.297,0v.84A.44233.44233,0,0,0,496.125,281.64648Z" transform="translate(-495.67948 -280.75548)"/>
      <path class="c" d="M495.97648,280.781a.44547.44547,0,0,0,0,.84Z" transform="translate(-495.67948 -280.75548)"/>
    </g>
  </g>
</svg>
