<svg xmlns="http://www.w3.org/2000/svg" viewBox="0 0 0.89149 0.8915">
  <defs>
    <style>
      .a {
        fill: #cb0202;
      }

      .b {
        fill: #fff;
      }

      .c {
        fill: #040264;
      }

      .d {
        fill: #fecb17;
      }
    </style>
  </defs>
  <g>
    <path d="M484.58767,285.54438a.33344.33344,0,1,1-.4966-.0281A.3533.3533,0,0,1,484.58767,285.54438Z" transform="translate(-483.90848 -285.32948)"/>
    <g>
      <g>
        <path class="a" d="M484.71977,285.52058h-.7311a.44476.44476,0,0,1,.054-.0637h.6231A.44476.44476,0,0,1,484.71977,285.52058Z" transform="translate(-483.90848 -285.32948)"/>
        <path class="b" d="M484.8,285.77528a.44635.44635,0,0,1-.0046.0637h-.8823a.44636.44636,0,0,1-.00459-.0637Z" transform="translate(-483.90848 -285.32948)"/>
        <path class="a" d="M484.79537,285.839a.43371.43371,0,0,1-.014.0636h-.8543a.43371.43371,0,0,1-.014-.0636Z" transform="translate(-483.90848 -285.32948)"/>
        <path class="b" d="M484.78137,285.90258a.44838.44838,0,0,1-.0245.0637h-.8053a.43667.43667,0,0,1-.0245-.0637Z" transform="translate(-483.90848 -285.32948)"/>
        <path class="b" d="M484.58357,286.15728a.44473.44473,0,0,1-.4587,0Z" transform="translate(-483.90848 -285.32948)"/>
        <path class="a" d="M484.66577,286.09358a.446.446,0,0,1-.0822.0637h-.4587a.44669.44669,0,0,1-.0822-.0637Z" transform="translate(-483.90848 -285.32948)"/>
        <path class="b" d="M484.71977,286.02988a.44476.44476,0,0,1-.054.0637h-.6231a.44476.44476,0,0,1-.054-.0637Z" transform="translate(-483.90848 -285.32948)"/>
        <path class="a" d="M484.75687,285.96628a.43289.43289,0,0,1-.0371.0636h-.7311a.43289.43289,0,0,1-.0371-.0636Z" transform="translate(-483.90848 -285.32948)"/>
        <path class="a" d="M484.58357,285.39318h-.4587a.4445.4445,0,0,1,.4587,0Z" transform="translate(-483.90848 -285.32948)"/>
        <path class="b" d="M484.66577,285.45688h-.6231a.44669.44669,0,0,1,.0822-.0637h.4587A.446.446,0,0,1,484.66577,285.45688Z" transform="translate(-483.90848 -285.32948)"/>
        <path class="b" d="M484.75687,285.58418h-.8053a.43289.43289,0,0,1,.0371-.0636h.7311A.43289.43289,0,0,1,484.75687,285.58418Z" transform="translate(-483.90848 -285.32948)"/>
        <path class="a" d="M484.78137,285.64788h-.8543a.4411.4411,0,0,1,.0245-.0637h.8053A.45306.45306,0,0,1,484.78137,285.64788Z" transform="translate(-483.90848 -285.32948)"/>
        <path class="b" d="M484.79537,285.71158h-.8823a.435.435,0,0,1,.014-.0637h.8543A.435.435,0,0,1,484.79537,285.71158Z" transform="translate(-483.90848 -285.32948)"/>
        <path class="a" d="M484.8,285.77528h-.89149a.4453.4453,0,0,1,.00459-.0637h.8823A.4453.4453,0,0,1,484.8,285.77528Z" transform="translate(-483.90848 -285.32948)"/>
      </g>
      <g>
        <path class="c" d="M484.51967,285.36138v.4776h-.6066a.44431.44431,0,0,1,0-.1274.435.435,0,0,1,.014-.0637.4411.4411,0,0,1,.0245-.0637.43289.43289,0,0,1,.0371-.0636.44513.44513,0,0,1,.531-.1592Z" transform="translate(-483.90848 -285.32948)"/>
        <g>
          <path class="d" d="M484.23587,285.72388a.13965.13965,0,0,1,0-.2793.1381.1381,0,0,1,.0495.0091.15785.15785,0,1,0,0,.2611A.1381.1381,0,0,1,484.23587,285.72388Z" transform="translate(-483.90848 -285.32948)"/>
          <polygon class="d" points="0.446 0.123 0.46 0.194 0.503 0.136 0.485 0.206 0.548 0.173 0.502 0.228 0.574 0.226 0.508 0.255 0.574 0.284 0.502 0.282 0.548 0.337 0.485 0.304 0.503 0.373 0.46 0.316 0.446 0.386 0.432 0.316 0.389 0.373 0.407 0.304 0.343 0.337 0.389 0.282 0.318 0.284 0.383 0.255 0.318 0.226 0.389 0.228 0.343 0.173 0.407 0.206 0.389 0.136 0.432 0.194 0.446 0.123"/>
        </g>
      </g>
    </g>
  </g>
</svg>
