<svg xmlns="http://www.w3.org/2000/svg" viewBox="0 0 0.891 0.891">
  <defs>
    <style>
      .a {
        fill: #fff;
      }

      .b {
        fill: #05539d;
      }

      .c {
        fill: #df3a3d;
      }
    </style>
  </defs>
  <g>
    <path d="M478.67177,282.49508a.33341.33341,0,1,1-.4966-.0281A.35317.35317,0,0,1,478.67177,282.49508Z" transform="translate(-477.99307 -282.28018)"/>
    <g>
      <path class="a" d="M478.43857,282.28018a.44617.44617,0,0,0-.42.297h.84A.44617.44617,0,0,0,478.43857,282.28018Z" transform="translate(-477.99307 -282.28018)"/>
      <path class="b" d="M478.88407,282.72568a.44287.44287,0,0,0-.0255-.1485h-.84a.44515.44515,0,0,0,0,.297h.84A.4433.4433,0,0,0,478.88407,282.72568Z" transform="translate(-477.99307 -282.28018)"/>
      <path class="c" d="M478.01857,282.87418a.44547.44547,0,0,0,.84,0Z" transform="translate(-477.99307 -282.28018)"/>
    </g>
  </g>
</svg>
