<svg xmlns="http://www.w3.org/2000/svg" viewBox="0 0 0.8914 0.8914">
  <defs>
    <style>
      .a {
        fill: #fd0302;
      }

      .b {
        fill: #060593;
      }

      .c {
        fill: #fff;
      }
    </style>
  </defs>
  <g>
    <path d="M497.822,271.82838a.33344.33344,0,1,1-.4967-.0281A.35336.35336,0,0,1,497.822,271.82838Z" transform="translate(-497.14277 -271.61348)"/>
    <g>
      <path class="a" d="M498.03417,272.05918a.4457.4457,0,1,1-.44569-.4457h.05169v.003A.44631.44631,0,0,1,498.03417,272.05918Z" transform="translate(-497.14277 -271.61348)"/>
      <g>
        <path class="b" d="M497.64017,271.61348v.4457h-.4974a.44622.44622,0,0,1,.44571-.4457Z" transform="translate(-497.14277 -271.61348)"/>
        <g>
          <g>
            <path class="c" d="M497.44287,271.77138l-.0187-.002-.01869.002.01869-.0675Z" transform="translate(-497.14277 -271.61348)"/>
            <path class="c" d="M497.398,271.77338a.08647.08647,0,0,0-.0323.0187l-.0176-.0678Z" transform="translate(-497.14277 -271.61348)"/>
            <path class="c" d="M497.36017,271.79758a.08688.08688,0,0,0-.01869.0323l-.049-.0499Z" transform="translate(-497.14277 -271.61348)"/>
            <path class="c" d="M497.33748,271.856l.002.0187-.06741-.0187.06741-.0186Z" transform="translate(-497.14277 -271.61348)"/>
            <path class="c" d="M497.36017,271.91448l-.06769.0176.049-.0499A.08767.08767,0,0,0,497.36017,271.91448Z" transform="translate(-497.14277 -271.61348)"/>
            <path class="c" d="M497.398,271.93868l-.0499.0491.0176-.0678A.08783.08783,0,0,0,497.398,271.93868Z" transform="translate(-497.14277 -271.61348)"/>
            <path class="c" d="M497.44277,271.94068l-.0186.0674-.01869-.0674.01869.002Z" transform="translate(-497.14277 -271.61348)"/>
            <path class="c" d="M497.50017,271.98778l-.0499-.0491a.08728.08728,0,0,0,.0324-.0187Z" transform="translate(-497.14277 -271.61348)"/>
            <path class="c" d="M497.55587,271.93208l-.0678-.0176a.08633.08633,0,0,0,.0187-.0323Z" transform="translate(-497.14277 -271.61348)"/>
            <path class="c" d="M497.50877,271.87468l.002-.0187-.002-.0186.0675.0186Z" transform="translate(-497.14277 -271.61348)"/>
            <path class="c" d="M497.55587,271.78l-.0491.0499a.086.086,0,0,0-.0187-.0324Z" transform="translate(-497.14277 -271.61348)"/>
            <path class="c" d="M497.50017,271.72428l-.0175.0678a.08594.08594,0,0,0-.0324-.0187Z" transform="translate(-497.14277 -271.61348)"/>
          </g>
          <circle class="c" cx="0.2814" cy="0.2425" r="0.0769"/>
        </g>
      </g>
    </g>
  </g>
</svg>
