<svg xmlns="http://www.w3.org/2000/svg" viewBox="0 0 0.89139 0.8914">
  <defs>
    <style>
      .a {
        fill: #e20c17;
      }

      .b {
        fill: #fff;
      }
    </style>
  </defs>
  <g>
    <path d="M493.43067,280.97038a.33344.33344,0,1,1-.4967-.0281A.35318.35318,0,0,1,493.43067,280.97038Z" transform="translate(-492.75148 -280.75548)"/>
    <g>
      <path class="a" d="M493.19717,281.64688a.4457.4457,0,1,1,.4457-.4457A.44622.44622,0,0,1,493.19717,281.64688Z" transform="translate(-492.75148 -280.75548)"/>
      <g>
        <path class="b" d="M493.12517,281.37018a.169.169,0,1,1,.1209-.2871.2109.2109,0,1,0,0,.2362A.16853.16853,0,0,1,493.12517,281.37018Z" transform="translate(-492.75148 -280.75548)"/>
        <polygon class="b" points="0.678 0.507 0.605 0.484 0.561 0.545 0.56 0.469 0.488 0.446 0.56 0.422 0.56 0.346 0.605 0.408 0.678 0.384 0.633 0.446 0.678 0.507"/>
      </g>
    </g>
  </g>
</svg>
