<svg xmlns="http://www.w3.org/2000/svg" viewBox="0 0 0.8914 0.8915">
  <defs>
    <style>
      .a {
        fill: #04247b;
      }

      .b {
        fill: #fff;
      }

      .c {
        fill: #ce152a;
      }
    </style>
  </defs>
  <g>
    <path d="M477.20807,274.87768a.33348.33348,0,1,1-.4967-.0281A.35348.35348,0,0,1,477.20807,274.87768Z" transform="translate(-476.52887 -274.66278)"/>
    <g>
      <path class="a" d="M476.82627,274.68828v.2464l-.2022-.1012A.447.447,0,0,1,476.82627,274.68828Z" transform="translate(-476.52887 -274.66278)"/>
      <path class="a" d="M477.32507,274.83348l-.2022.1012v-.2464A.44647.44647,0,0,1,477.32507,274.83348Z" transform="translate(-476.52887 -274.66278)"/>
      <path class="a" d="M476.82627,275.28248v.2463a.44647.44647,0,0,1-.2022-.1452Z" transform="translate(-476.52887 -274.66278)"/>
      <path class="a" d="M477.32507,275.38358a.44647.44647,0,0,1-.2022.1452v-.2463Z" transform="translate(-476.52887 -274.66278)"/>
      <path class="b" d="M477.42027,275.10858a.43889.43889,0,0,1-.0254.1483h-.1247l.1028.0515a.44451.44451,0,0,1-.0479.0752l-.2022-.1011v.2463a.41992.41992,0,0,1-.0591.0165.446.446,0,0,1-.17829,0,.42139.42139,0,0,1-.05921-.0165v-.2463l-.2022.1011-.0179-.0245.2044-.1022h-.1332l-.1015.0508a.44567.44567,0,0,1-.0216-.3475h.124l-.1022-.0511a.452.452,0,0,1,.048-.0756l.2022.1012v-.2464a.42139.42139,0,0,1,.05921-.0165.446.446,0,0,1,.17829,0,.41992.41992,0,0,1,.0591.0165v.2464l.2022-.1012.0177.0241-.205.1026h.1332l.1021-.0511a.43873.43873,0,0,1,.0383.1103A.45125.45125,0,0,1,477.42027,275.10858Z" transform="translate(-476.52887 -274.66278)"/>
      <path class="c" d="M476.67827,274.96018h-.124a.43749.43749,0,0,1,.0218-.0511Z" transform="translate(-476.52887 -274.66278)"/>
      <path class="c" d="M477.39487,275.25688a.44223.44223,0,0,1-.0219.0515l-.1028-.0515Z" transform="translate(-476.52887 -274.66278)"/>
      <path class="c" d="M477.37307,274.90908l-.1021.0511h-.1332l.205-.1026A.43439.43439,0,0,1,477.37307,274.90908Z" transform="translate(-476.52887 -274.66278)"/>
      <path class="c" d="M476.81057,275.25688l-.2044.1022a.43876.43876,0,0,1-.0303-.0514l.1015-.0508Z" transform="translate(-476.52887 -274.66278)"/>
      <path class="c" d="M477.42027,275.10858a.451.451,0,0,1-.0089.0891h-.3476v.3476a.446.446,0,0,1-.17829,0v-.3476h-.34761a.446.446,0,0,1,0-.1783h.34761v-.3476a.446.446,0,0,1,.17829,0v.3476h.3476A.45125.45125,0,0,1,477.42027,275.10858Z" transform="translate(-476.52887 -274.66278)"/>
    </g>
  </g>
</svg>
