<svg xmlns="http://www.w3.org/2000/svg" viewBox="0 0 0.8914 0.8915">
  <defs>
    <style>
      .a {
        fill: #fff;
      }

      .b {
        fill: #b12233;
      }

      .c {
        fill: #3c3b6d;
      }
    </style>
  </defs>
  <g>
    <g>
      <path class="a" d="M474.45848,275.28a.43859.43859,0,0,1-.036.0685h-.75081a.43775.43775,0,0,1-.036-.0685Z" transform="translate(-473.60137 -274.66278)"/>
      <path class="b" d="M474.48077,275.21138a.43058.43058,0,0,1-.02229.0686h-.82281a.441.441,0,0,1-.0223-.0686Z" transform="translate(-473.60137 -274.66278)"/>
      <path class="a" d="M474.49148,275.14278a.44481.44481,0,0,1-.01071.0686h-.8674a.4448.4448,0,0,1-.0107-.0686Z" transform="translate(-473.60137 -274.66278)"/>
      <path class="b" d="M474.42248,275.34848a.43855.43855,0,0,1-.05411.0686h-.6426a.44446.44446,0,0,1-.0541-.0686Z" transform="translate(-473.60137 -274.66278)"/>
      <path class="b" d="M474.28437,275.48568a.44473.44473,0,0,1-.4746,0Z" transform="translate(-473.60137 -274.66278)"/>
      <path class="a" d="M474.36837,275.41708a.44427.44427,0,0,1-.084.0686h-.4746a.45066.45066,0,0,1-.084-.0686Z" transform="translate(-473.60137 -274.66278)"/>
      <path class="a" d="M474.36837,274.8h-.6426a.44808.44808,0,0,1,.0841-.0686h.4744A.44808.44808,0,0,1,474.36837,274.8Z" transform="translate(-473.60137 -274.66278)"/>
      <path class="b" d="M474.28427,274.73138h-.4744a.43771.43771,0,0,1,.044-.0245l.0043-.002.0156-.007.007-.0028a.4421.4421,0,0,1,.1662-.0323h.0001A.44262.44262,0,0,1,474.28427,274.73138Z" transform="translate(-473.60137 -274.66278)"/>
      <path class="b" d="M474.42248,274.86848h-.75081l.0123-.0181.0011-.0015a.454.454,0,0,1,.0407-.0489h.6426A.44245.44245,0,0,1,474.42248,274.86848Z" transform="translate(-473.60137 -274.66278)"/>
      <path class="b" d="M474.48077,275.00568h-.8674a.448.448,0,0,1,.0223-.0686h.82281A.43726.43726,0,0,1,474.48077,275.00568Z" transform="translate(-473.60137 -274.66278)"/>
      <path class="a" d="M474.45848,274.93708h-.82281l.00581-.0132.01559-.0309.0146-.0245h.75081A.44413.44413,0,0,1,474.45848,274.93708Z" transform="translate(-473.60137 -274.66278)"/>
      <path class="a" d="M474.49148,275.07428h-.88881l.00081-.0085.003-.025.00689-.0351h.8674A.44292.44292,0,0,1,474.49148,275.07428Z" transform="translate(-473.60137 -274.66278)"/>
      <path class="b" d="M474.49277,275.10848l-.00129.0343h-.88881l-.0013-.0343.0013-.0342h.88881Z" transform="translate(-473.60137 -274.66278)"/>
    </g>
    <g>
      <path class="c" d="M474.047,274.66278v.48h-.4443l-.0013-.0343.0013-.0342.00081-.0085.003-.025.00689-.0351a.448.448,0,0,1,.0223-.0686l.00581-.0132.01559-.0309.0146-.0245.0123-.0181.0011-.0015a.454.454,0,0,1,.0407-.0489.44808.44808,0,0,1,.0841-.0686.43771.43771,0,0,1,.044-.0245l.0043-.002.0156-.007.007-.0028A.4421.4421,0,0,1,474.047,274.66278Z" transform="translate(-473.60137 -274.66278)"/>
      <g>
        <g>
          <polygon class="a" points="0.389 0.023 0.395 0.042 0.416 0.042 0.399 0.054 0.406 0.073 0.389 0.061 0.373 0.073 0.379 0.054 0.363 0.042 0.383 0.042 0.389 0.023"/>
          <polygon class="a" points="0.291 0.069 0.293 0.073 0.286 0.069 0.276 0.061 0.266 0.069 0.26 0.073 0.261 0.069 0.266 0.054 0.252 0.044 0.257 0.042 0.27 0.042 0.272 0.035 0.279 0.032 0.283 0.042 0.303 0.042 0.287 0.054 0.291 0.069"/>
        </g>
        <g>
          <polygon class="a" points="0.389 0.119 0.395 0.138 0.416 0.138 0.399 0.15 0.406 0.169 0.389 0.157 0.373 0.169 0.379 0.15 0.363 0.138 0.383 0.138 0.389 0.119"/>
          <polygon class="a" points="0.276 0.119 0.283 0.138 0.303 0.138 0.286 0.15 0.293 0.169 0.276 0.157 0.26 0.169 0.266 0.15 0.25 0.138 0.27 0.138 0.276 0.119"/>
          <polygon class="a" points="0.164 0.119 0.17 0.138 0.19 0.138 0.174 0.15 0.18 0.169 0.164 0.157 0.147 0.169 0.153 0.15 0.137 0.138 0.157 0.138 0.164 0.119"/>
        </g>
        <g>
          <polygon class="a" points="0.389 0.215 0.395 0.234 0.416 0.234 0.399 0.246 0.406 0.265 0.389 0.253 0.373 0.265 0.379 0.246 0.363 0.234 0.383 0.234 0.389 0.215"/>
          <polygon class="a" points="0.276 0.215 0.283 0.234 0.303 0.234 0.286 0.246 0.293 0.265 0.276 0.253 0.26 0.265 0.266 0.246 0.25 0.234 0.27 0.234 0.276 0.215"/>
          <polygon class="a" points="0.164 0.215 0.17 0.234 0.19 0.234 0.174 0.246 0.18 0.265 0.164 0.253 0.147 0.265 0.153 0.246 0.137 0.234 0.157 0.234 0.164 0.215"/>
          <path class="a" d="M473.66227,274.90878l.00621.0193-.01641-.0119-.01059.0077.01559-.0309.0013.0039h.0202Z" transform="translate(-473.60137 -274.66278)"/>
        </g>
        <g>
          <polygon class="a" points="0.389 0.311 0.395 0.33 0.416 0.33 0.399 0.342 0.406 0.361 0.389 0.349 0.373 0.361 0.379 0.342 0.363 0.33 0.383 0.33 0.389 0.311"/>
          <polygon class="a" points="0.276 0.311 0.283 0.33 0.303 0.33 0.286 0.342 0.293 0.361 0.276 0.349 0.26 0.361 0.266 0.342 0.25 0.33 0.27 0.33 0.276 0.311"/>
          <polygon class="a" points="0.164 0.311 0.17 0.33 0.19 0.33 0.174 0.342 0.18 0.361 0.164 0.349 0.147 0.361 0.153 0.342 0.137 0.33 0.157 0.33 0.164 0.311"/>
          <polygon class="a" points="0.051 0.311 0.057 0.33 0.077 0.33 0.061 0.342 0.067 0.361 0.051 0.349 0.034 0.361 0.041 0.342 0.024 0.33 0.044 0.33 0.051 0.311"/>
        </g>
        <g>
          <polygon class="a" points="0.389 0.407 0.395 0.426 0.416 0.426 0.399 0.438 0.406 0.457 0.389 0.445 0.373 0.457 0.379 0.438 0.363 0.426 0.383 0.426 0.389 0.407"/>
          <polygon class="a" points="0.276 0.407 0.283 0.426 0.303 0.426 0.286 0.438 0.293 0.457 0.276 0.445 0.26 0.457 0.266 0.438 0.25 0.426 0.27 0.426 0.276 0.407"/>
          <polygon class="a" points="0.164 0.407 0.17 0.426 0.19 0.426 0.174 0.438 0.18 0.457 0.164 0.445 0.147 0.457 0.153 0.438 0.137 0.426 0.157 0.426 0.164 0.407"/>
          <polygon class="a" points="0.051 0.407 0.057 0.426 0.077 0.426 0.061 0.438 0.067 0.457 0.051 0.445 0.034 0.457 0.041 0.438 0.024 0.426 0.044 0.426 0.051 0.407"/>
        </g>
        <g>
          <polygon class="a" points="0.333 0.359 0.339 0.378 0.359 0.378 0.343 0.39 0.349 0.409 0.333 0.397 0.316 0.409 0.323 0.39 0.306 0.378 0.327 0.378 0.333 0.359"/>
          <polygon class="a" points="0.22 0.359 0.226 0.378 0.246 0.378 0.23 0.39 0.236 0.409 0.22 0.397 0.204 0.409 0.21 0.39 0.193 0.378 0.214 0.378 0.22 0.359"/>
          <polygon class="a" points="0.107 0.359 0.113 0.378 0.134 0.378 0.117 0.39 0.123 0.409 0.107 0.397 0.091 0.409 0.097 0.39 0.081 0.378 0.101 0.378 0.107 0.359"/>
          <path class="a" d="M473.60577,275.05268l.0063.0193-.00859-.0062.003-.025h.01569Z" transform="translate(-473.60137 -274.66278)"/>
        </g>
        <g>
          <polygon class="a" points="0.333 0.263 0.339 0.282 0.359 0.282 0.343 0.294 0.349 0.313 0.333 0.301 0.316 0.313 0.323 0.294 0.306 0.282 0.327 0.282 0.333 0.263"/>
          <polygon class="a" points="0.22 0.263 0.226 0.282 0.246 0.282 0.23 0.294 0.236 0.313 0.22 0.301 0.204 0.313 0.21 0.294 0.193 0.282 0.214 0.282 0.22 0.263"/>
          <polygon class="a" points="0.107 0.263 0.113 0.282 0.134 0.282 0.117 0.294 0.123 0.313 0.107 0.301 0.091 0.313 0.097 0.294 0.081 0.282 0.101 0.282 0.107 0.263"/>
        </g>
        <g>
          <polygon class="a" points="0.333 0.167 0.339 0.186 0.359 0.186 0.343 0.198 0.349 0.217 0.333 0.205 0.316 0.217 0.323 0.198 0.306 0.186 0.327 0.186 0.333 0.167"/>
          <polygon class="a" points="0.22 0.167 0.226 0.186 0.246 0.186 0.23 0.198 0.236 0.217 0.22 0.205 0.204 0.217 0.21 0.198 0.193 0.186 0.214 0.186 0.22 0.167"/>
          <polygon class="a" points="0.12 0.206 0.124 0.217 0.108 0.206 0.107 0.205 0.107 0.206 0.091 0.217 0.094 0.206 0.097 0.198 0.083 0.188 0.084 0.186 0.101 0.186 0.107 0.167 0.113 0.186 0.134 0.186 0.117 0.198 0.12 0.206"/>
        </g>
        <g>
          <polygon class="a" points="0.333 0.071 0.339 0.09 0.359 0.09 0.343 0.102 0.349 0.121 0.333 0.109 0.316 0.121 0.323 0.102 0.306 0.09 0.327 0.09 0.333 0.071"/>
          <polygon class="a" points="0.22 0.071 0.226 0.09 0.246 0.09 0.23 0.102 0.236 0.121 0.22 0.109 0.204 0.121 0.21 0.102 0.193 0.09 0.214 0.09 0.22 0.071"/>
        </g>
      </g>
    </g>
  </g>
</svg>
