<?xml version="1.0" encoding="utf-8"?>
<!-- Generator: Adobe Illustrator 24.0.3, SVG Export Plug-In . SVG Version: 6.00 Build 0)  -->
<svg version="1.1" id="Layer_1" xmlns="http://www.w3.org/2000/svg" xmlns:xlink="http://www.w3.org/1999/xlink" x="0px" y="0px"
	 viewBox="0 0 22 22" width="22" height="22" style="enable-background:new 0 0 22 22;" xml:space="preserve">
<style type="text/css">
	.st0{fill:#013582;}
</style>
<g>
	<path class="st0" d="M11.7,11.1c0.2,0,0.4-0.1,0.6-0.2l8-8V7c0,0.5,0.4,0.8,0.8,0.8s0.8-0.4,0.8-0.8V0.8c0-0.5-0.4-0.8-0.8-0.8
		h-6.2c-0.5,0-0.8,0.4-0.8,0.8s0.4,0.8,0.8,0.8l0,0h4.1l-8,8c-0.3,0.3-0.3,0.9,0,1.2C11.2,11,11.4,11.1,11.7,11.1L11.7,11.1z"/>
	<path class="st0" d="M21.2,11.9c-0.5,0-0.8,0.4-0.8,0.8v7c0,0.3-0.2,0.6-0.6,0.6H2.3c-0.3,0-0.6-0.2-0.6-0.6V2.2
		c0-0.3,0.2-0.6,0.6-0.6h6.6c0.5,0,0.8-0.4,0.8-0.8S9.4,0,8.9,0H2.3C1,0,0,1,0,2.3l0,0v17.5C0,21,1,22,2.3,22h17.5
		c1.2,0,2.3-1,2.3-2.3v-7C22,12.3,21.7,11.9,21.2,11.9C21.2,11.9,21.2,11.9,21.2,11.9z"/>
</g>
</svg>
