<?xml version="1.0" encoding="utf-8"?>
<!-- Generator: Adobe Illustrator 24.0.3, SVG Export Plug-In . SVG Version: 6.00 Build 0)  -->
<svg version="1.1" id="Layer_1" xmlns="http://www.w3.org/2000/svg" xmlns:xlink="http://www.w3.org/1999/xlink" x="0px" y="0px"
	 viewBox="0 0 27.1 39.4" width="27.1" height="39.4" style="enable-background:new 0 0 27.1 39.4;" xml:space="preserve">
<style type="text/css">
	.st0{fill:#FFFFFF;}
</style>
<g transform="translate(0,-952.36218)">
	<path class="st0" d="M13.5,952.4c-0.7,0-1.2,0.6-1.2,1.2v29.2l-8.4-7.9c-0.5-0.4-1.3-0.4-1.8,0c-0.5,0.5-0.4,1.3,0.1,1.8l10.5,9.8
		c0.2,0.2,0.6,0.3,0.8,0.3c0.3,0,0.6-0.1,0.8-0.3l10.5-9.8c0.5-0.5,0.5-1.3,0.1-1.8c-0.5-0.5-1.3-0.5-1.8,0l-8.4,7.9v-29.2
		C14.8,952.9,14.2,952.4,13.5,952.4z M1.2,989.3c-0.7,0-1.2,0.6-1.2,1.2s0.6,1.2,1.2,1.2h24.6c0.7,0,1.2-0.6,1.2-1.2
		s-0.6-1.2-1.2-1.2H1.2z"/>
</g>
</svg>
