<?xml version="1.0" encoding="utf-8"?>
<!-- Generator: Adobe Illustrator 24.0.3, SVG Export Plug-In . SVG Version: 6.00 Build 0)  -->
<svg version="1.1" id="Layer_1" xmlns="http://www.w3.org/2000/svg" xmlns:xlink="http://www.w3.org/1999/xlink" x="0px" y="0px"
	 viewBox="0 0 20.9 20.9" width="20.9" height="20.9" style="enable-background:new 0 0 20.9 20.9;" xml:space="preserve">
<style type="text/css">
	.st0{fill:#FFFFFF;}
</style>
<g>
	<g>
		<path class="st0" d="M20.6,19.3l-6.5-6.5c1.1-1.4,1.7-3.2,1.7-4.9c0-2-0.8-4-2.3-5.6C12,0.8,9.9,0,7.9,0c-2,0-4.1,0.8-5.6,2.3
			C0.8,3.9,0,5.9,0,7.9c0,2,0.8,4.1,2.3,5.6c1.5,1.5,3.6,2.3,5.6,2.3c1.7,0,3.4-0.6,4.8-1.7l0.1,0l0.2,0.2l6.2,6.2
			c0.2,0.2,0.4,0.3,0.6,0.3c0.2,0,0.4-0.1,0.6-0.3l0.1-0.1c0.2-0.2,0.3-0.4,0.3-0.6C20.9,19.7,20.8,19.5,20.6,19.3z M12.5,12.5
			c-1.3,1.3-2.9,1.9-4.6,1.9c-1.6,0-3.3-0.6-4.6-1.9c-1.3-1.3-1.9-2.9-1.9-4.6s0.6-3.3,1.9-4.6s2.9-1.9,4.6-1.9
			c1.6,0,3.3,0.6,4.6,1.9s1.9,2.9,1.9,4.6C14.4,9.6,13.7,11.2,12.5,12.5z"/>
	</g>
</g>
</svg>
