<?xml version="1.0" encoding="utf-8"?>
<!-- Generator: Adobe Illustrator 24.0.3, SVG Export Plug-In . SVG Version: 6.00 Build 0)  -->
<svg version="1.1" xmlns="http://www.w3.org/2000/svg" xmlns:xlink="http://www.w3.org/1999/xlink" x="0px" y="0px"
	 viewBox="0 0 300.4 43.8" width="300.4" height="43.8" style="enable-background:new 0 0 300.4 43.8;" xml:space="preserve">
<style type="text/css">
	.st0{fill:#003595;}
	.st1{clip-path:url(#SVGID_2_);fill:#003595;}
	.st2{fill:#FF4438;}
	.st3{fill:#EB0045;}
	.st4{fill:#D50057;}
	.st5{fill:#C017A2;}
	.st6{fill:#60269E;}
	.st7{fill:#051C2C;}
</style>
<g>
	<path class="st0" d="M171.5,9.1l6.5,14.8h-13L171.5,9.1z M171.5,0L153,42.4h4l6.5-14.8h16.2l6.5,14.8h3.9L171.5,0z"/>
	<rect x="239.1" y="0.9" class="st0" width="3.6" height="41.5"/>
	<polygon class="st0" points="126.3,19.2 107.4,0.1 107.4,42.3 111,42.3 111,8.9 126.3,24.3 141.8,8.8 141.8,42.3 145.4,42.3 
		145.4,0.1 	"/>
	<polygon class="st0" points="257.4,5.9 257.4,42.3 261,42.3 261,10.2 288.7,43.2 288.7,0.9 285.1,0.9 285.1,33.2 257.4,0.2 	"/>
	<g>
		<defs>
			<rect id="SVGID_1_" y="0" width="300.4" height="43.8"/>
		</defs>
		<clipPath id="SVGID_2_">
			<use xlink:href="#SVGID_1_"  style="overflow:visible;"/>
		</clipPath>
		<path class="st1" d="M201.6,4.5h13.8v0c4,0,7.3,3.2,7.4,7.2v0.7c-0.1,4-3.4,7.2-7.4,7.2v0h-13.8V4.5z M224,42.4l4.1,0l-9.9-19.4
			c4.5-1.2,7.8-5,8.2-9.8h0V13c0-0.2,0-0.4,0-0.7h0v-0.4h0c0-0.2,0-0.4,0-0.7v0c-0.4-5.8-5.1-10.3-11-10.3H198v41.5h3.6V23.3h12.7
			L224,42.4z"/>
		<path class="st1" d="M25.7,31.1L25.7,31.1c0,4.2-3.5,7.6-7.7,7.6v0H3.6V23.3l14.9,0.1v0c2.6,0,4.9,1.3,6.2,3.3
			c0.6,1.2,1,2.3,1,3.7l0,0V31.1z M17.4,4.5L17.4,4.5c4,0,7.3,3.2,7.4,7.3v0.6c-0.1,4-3.3,7.3-7.4,7.3H3.6V4.5H17.4z M29.2,30.1
			c-0.1-2-0.6-3.8-1.5-5.4c-0.9-1.5-2.2-2.7-3.7-3.6c2.5-1.8,4.1-4.7,4.4-7.9h0V13c0-0.2,0-0.4,0-0.7h0v-0.4h0c0-0.2,0-0.4,0-0.7v0
			h0C28,5.5,23.3,0.9,17.4,0.9v0L0,0.9v41.5h18.1v0c6.1,0,11.1-4.9,11.2-11h0L29.2,30.1L29.2,30.1z"/>
		<path class="st1" d="M77,39.4c-8.9,0-16.3-6.5-17.6-15.1h0c-0.1-0.9-0.2-1.7-0.2-2.6c0-0.8,0-1.5,0.1-2.3h0
			C60.4,10.6,67.9,3.8,77,3.8c9.1,0,16.6,6.8,17.6,15.6c0.1,0.8,0.1,1.5,0.1,2.3c0,0.9-0.1,1.8-0.2,2.7C93.3,32.9,85.9,39.4,77,39.4
			 M55.7,24.3C57.1,34.9,66.1,43,77,43c10.9,0,19.9-8.2,21.3-18.7c0.1-0.9,0.2-1.7,0.2-2.6c0-0.8,0-1.5-0.1-2.3
			C97.2,8.5,88.1,0.2,77,0.2c-11.1,0-20.2,8.4-21.3,19.2h0c-0.1,0.8-0.1,1.5-0.1,2.3C55.5,22.6,55.6,23.4,55.7,24.3"/>
		<path class="st1" d="M297.4,2.8c0.5,0,1.1,0.1,1.1-0.6c0-0.5-0.4-0.6-0.8-0.6h-0.9v1.2H297.4z M298.9,4.6h-0.5l-0.9-1.5h-0.7v1.5
			h-0.4V1.4h1.4c0.9,0,1.1,0.3,1.1,0.9c0,0.6-0.4,0.9-1,0.9L298.9,4.6z M299.9,3c0-1.4-1-2.5-2.4-2.5c-1.4,0-2.5,1.1-2.5,2.5
			c0,1.4,1,2.5,2.5,2.5C298.9,5.5,299.9,4.4,299.9,3 M294.6,3c0-1.6,1.3-2.9,2.9-2.9c1.6,0,2.9,1.3,2.9,2.9c0,1.6-1.3,2.9-2.9,2.9
			C295.9,5.9,294.6,4.6,294.6,3"/>
	</g>
	<polygon class="st2" points="41.9,0.6 41.2,0.7 40.7,0.8 39.9,1.1 39.1,1.5 38.4,2 38.2,2.5 37.9,2.9 37.8,3.1 37.8,3.2 37.8,3.4 
		38.1,4.1 38.6,4.4 39.1,5 39.5,5.4 40.1,5.7 40.6,5.8 41.4,5.8 41.9,5.9 42.5,6 43.2,6 43.9,6.1 44.8,6 45.5,5.8 46.4,5.5 
		46.7,5.1 47.1,4.7 47.5,4.1 47.4,3.6 47.3,2.8 46.4,1.5 45.6,0.9 45.3,0.7 45,0.6 44.7,0.6 43.8,0.7 42.9,0.5 42.5,0.4 	"/>
	<polygon class="st3" points="38.8,14.3 43.1,14.4 43.7,14.3 44.6,14.3 45.4,14.4 46,14.6 46.5,14.9 46.7,15.1 46.8,15.3 46.8,15.6 
		46.8,15.9 46.6,16.1 46.2,16.4 45.7,16.5 44.9,16.5 42.5,16.3 38.9,15.9 38.7,15.8 38.6,15.7 38.6,15.2 	"/>
	<polygon class="st4" points="40,18.3 40.4,18.6 40.6,18.7 40.9,18.8 41.1,18.7 41.3,18.6 41.5,18.5 41.7,18.5 42.1,18.6 42.5,18.7 
		42.8,18.6 43.2,18.5 43.6,18.7 43.8,18.8 44,18.8 45.2,18.6 46.2,18.8 46.3,18.8 46.3,18.8 46.3,19 46.2,19.1 46.2,19.2 46.5,19.4 
		46.8,19.5 46.9,19.5 46.9,19.7 47,19.8 46.9,20.1 46.8,20.2 46.7,20.3 46.1,20.4 44.4,20.5 41.9,20.2 39.8,19.8 39.5,19.6 
		39.2,19.4 39.1,19 39,18.7 	"/>
	<polygon class="st4" points="39.4,20.7 40.1,20.9 40.4,21 40.7,21 43.7,20.9 44.8,21 45.8,21.2 46.2,21.3 46.4,21.4 46.6,21.6 
		46.8,21.9 46.8,22.3 46.8,22.6 46.6,22.8 46.6,23 43.7,23 42.8,23 41.8,22.9 40.9,22.7 40,22.6 39.4,22.5 39.1,22.4 39,22.3 
		38.7,21.8 38.6,21.2 	"/>
	<polygon class="st5" points="39.6,24.1 40.9,24.3 41.4,24.3 41.7,24.2 42.2,24.2 43,24.3 44.2,24.3 45.3,24.2 45.7,24.2 46.1,24.3 
		46.7,24.8 46.8,25.1 47,25.4 47,25.7 46.9,26 46.6,27 46.4,27.4 46.1,27.7 45.9,27.8 45.7,27.8 45.2,27.7 44.7,27.6 44.3,27.6 
		44,27.6 43.7,27.8 43.4,27.9 43.1,27.9 42.2,27.7 41.6,27.6 41,27.7 40.9,27.7 40.7,27.7 40.6,27.6 40.4,27.5 40,27.5 39.9,27.5 
		39.8,27.4 39.4,26.7 38.9,26.2 38.7,25.9 38.6,25.6 38.7,25.2 39,24.9 	"/>
	<polygon class="st6" points="41.1,30.8 41.6,30.7 42.1,30.8 44.9,31.1 45.6,31.2 46.4,31.4 46.7,31.6 47,31.9 47.3,32.3 47.5,32.9 
		47.6,33.9 47.6,34.4 47.4,34.9 47.1,35.2 46.8,35.5 45.9,35.9 43.5,36.2 42.8,36.1 42,35.9 41.3,35.7 40.6,35.6 39.6,35.5 
		38.9,35.1 38.4,34.6 38.1,34 38.1,33.3 38.2,32.8 38.5,32.3 39,31.9 39.9,31.4 40.5,31.2 40.7,31.1 40.8,31 40.9,30.9 	"/>
	<polygon class="st7" points="42.4,38.8 41.4,39.1 40.5,39.4 39.6,39.9 39.1,40.3 38.9,40.8 38.7,41.4 38.8,42 39,42.6 39.1,42.9 
		39.4,43.1 40.1,43.5 41,43.7 42.1,43.8 43.3,43.8 44.4,43.6 45.3,43.3 46.1,42.8 46.4,42.5 46.6,42.1 46.7,41.6 46.7,40.9 
		46.5,39.8 46.3,39.7 46.1,39.6 45.6,39.5 45.4,39.3 45.1,39 44.1,38.7 43.2,38.6 	"/>
</g>
</svg>
