<?xml version="1.0" encoding="utf-8"?>
<!-- Generator: Adobe Illustrator 24.0.3, SVG Export Plug-In . SVG Version: 6.00 Build 0)  -->
<svg version="1.1" xmlns="http://www.w3.org/2000/svg" xmlns:xlink="http://www.w3.org/1999/xlink" x="0px" y="0px"
	 viewBox="0 0 235.4 34.3" width="235.4" height="34.3" style="enable-background:new 0 0 235.4 34.3;" xml:space="preserve">
<style type="text/css">
	.st0{fill:#FFFFFF;}
</style>
<g>
	<path class="st0" d="M134.4,7.1l5.1,11.6h-10.2L134.4,7.1z M134.4,0l-14.6,33.2h3.1l5.1-11.6h12.7l5.1,11.6h3.1L134.4,0z"/>
	<rect x="187.4" y="0.7" class="st0" width="2.8" height="32.5"/>
	<polygon class="st0" points="99,15 84.2,0.1 84.2,33.2 87,33.2 87,6.9 99,19.1 111.2,6.9 111.2,33.2 114,33.2 114,0.1 	"/>
	<polygon class="st0" points="201.7,4.6 201.7,33.2 204.5,33.2 204.5,8 226.3,33.9 226.3,0.7 223.5,0.7 223.5,26 201.7,0.1 	"/>
	<path class="st0" d="M158,3.5h10.8v0c3.2,0,5.7,2.5,5.8,5.7v0.5c-0.1,3.1-2.6,5.7-5.8,5.7v0H158V3.5z M175.6,33.2l3.2,0L171,18
		c3.5-0.9,6.1-3.9,6.4-7.6h0v-0.2c0-0.2,0-0.3,0-0.5h0V9.3h0c0-0.2,0-0.3,0-0.5v0c-0.3-4.5-4-8.1-8.6-8.1h-13.6v32.5h2.8V18.3h9.9
		L175.6,33.2z"/>
	<path class="st0" d="M20.1,24.4L20.1,24.4c0,3.3-2.7,6-6,6v0H2.8V18.3l11.7,0v0c2,0,3.8,1,4.8,2.6c0.4,0.9,0.8,1.8,0.8,2.9l0,0
		V24.4z M13.6,3.5L13.6,3.5c3.2,0,5.7,2.5,5.8,5.7v0.5c-0.1,3.2-2.6,5.7-5.8,5.7H2.8V3.5H13.6z M22.9,23.6c0-1.6-0.4-3-1.2-4.2
		c-0.7-1.2-1.7-2.1-2.9-2.8c1.9-1.4,3.2-3.7,3.4-6.2h0v-0.2c0-0.2,0-0.3,0-0.5h0V9.3h0c0-0.2,0-0.3,0-0.5v0h0
		c-0.3-4.5-4-8.1-8.6-8.1v0L0,0.7v32.5h14.2v0c4.8,0,8.7-3.9,8.8-8.6h0L22.9,23.6L22.9,23.6z"/>
	<path class="st0" d="M60.3,30.9c-7,0-12.8-5.1-13.8-11.8h0c-0.1-0.7-0.2-1.3-0.2-2.1c0-0.6,0-1.2,0.1-1.8h0C47.4,8.3,53.2,3,60.3,3
		c7.1,0,13,5.3,13.8,12.2c0.1,0.6,0.1,1.2,0.1,1.8c0,0.7-0.1,1.4-0.2,2.1C73.1,25.8,67.3,30.9,60.3,30.9 M43.7,19
		c1,8.3,8.1,14.7,16.7,14.7C68.9,33.7,76,27.3,77,19c0.1-0.7,0.1-1.4,0.1-2c0-0.6,0-1.2-0.1-1.8c-0.9-8.5-8-15-16.7-15
		c-8.7,0-15.8,6.6-16.7,15h0c-0.1,0.6-0.1,1.2-0.1,1.8C43.5,17.7,43.6,18.4,43.7,19"/>
	<path class="st0" d="M233.1,2.2c0.4,0,0.9,0.1,0.9-0.5c0-0.4-0.3-0.4-0.6-0.4h-0.7v0.9H233.1z M234.3,3.6h-0.4l-0.7-1.2h-0.6v1.2
		h-0.3V1.1h1.1c0.7,0,0.9,0.3,0.9,0.7c0,0.5-0.3,0.7-0.8,0.7L234.3,3.6z M235.1,2.3c0-1.1-0.8-2-1.9-2c-1.1,0-1.9,0.9-1.9,2
		c0,1.1,0.8,2,1.9,2C234.3,4.3,235.1,3.5,235.1,2.3 M230.9,2.3c0-1.3,1-2.3,2.3-2.3c1.3,0,2.3,1,2.3,2.3c0,1.3-1,2.3-2.3,2.3
		C231.9,4.6,230.9,3.6,230.9,2.3"/>
	<polygon class="st0" points="32.8,0.4 32.3,0.5 31.9,0.7 31.3,0.8 30.7,1.2 30.1,1.6 29.9,2 29.7,2.3 29.6,2.4 29.6,2.5 29.7,2.7 
		29.9,3.2 30.2,3.5 30.7,3.9 31,4.2 31.4,4.4 31.8,4.6 32.4,4.6 32.8,4.7 33.3,4.7 33.9,4.7 34.4,4.8 35.1,4.7 35.7,4.6 36.3,4.3 
		36.6,4 36.9,3.7 37.2,3.2 37.2,2.8 37.1,2.2 36.4,1.2 35.8,0.7 35.5,0.6 35.3,0.5 35,0.5 34.3,0.5 33.6,0.4 33.3,0.3 	"/>
	<polygon class="st0" points="30.4,11.2 33.8,11.3 34.3,11.2 34.9,11.2 35.6,11.3 36.1,11.4 36.5,11.7 36.6,11.8 36.7,12 36.7,12.2 
		36.7,12.4 36.5,12.6 36.2,12.8 35.8,12.9 35.2,12.9 33.3,12.8 30.5,12.4 30.3,12.4 30.3,12.3 30.3,11.9 	"/>
	<polygon class="st0" points="31.3,14.4 31.6,14.5 31.8,14.7 32,14.7 32.2,14.7 32.3,14.6 32.5,14.5 32.7,14.5 33,14.6 33.3,14.7 
		33.6,14.6 33.8,14.5 34.2,14.6 34.3,14.7 34.5,14.7 35.5,14.6 36.2,14.7 36.3,14.7 36.3,14.8 36.3,14.9 36.2,15 36.2,15.1 
		36.4,15.2 36.6,15.3 36.7,15.3 36.8,15.4 36.8,15.5 36.8,15.7 36.7,15.8 36.6,15.9 36.1,16 34.8,16.1 32.9,15.8 31.2,15.5 
		30.9,15.4 30.7,15.2 30.6,14.9 30.6,14.7 	"/>
	<polygon class="st0" points="30.9,16.2 31.4,16.4 31.7,16.5 31.9,16.5 34.2,16.4 35.1,16.5 35.9,16.6 36.2,16.7 36.4,16.8 
		36.5,16.9 36.7,17.2 36.7,17.5 36.6,17.7 36.5,17.9 36.5,18 34.3,18 33.5,18 32.8,18 32,17.8 31.4,17.7 30.9,17.6 30.7,17.6 
		30.5,17.5 30.4,17.1 30.3,16.6 	"/>
	<polygon class="st0" points="31.1,18.9 32.1,19 32.4,19 32.7,19 33.1,19 33.7,19 34.6,19 35.5,19 35.8,19 36.1,19.1 36.6,19.5 
		36.7,19.7 36.8,19.9 36.8,20.1 36.8,20.4 36.5,21.1 36.3,21.5 36.1,21.7 36,21.8 35.8,21.8 35.5,21.7 35.1,21.6 34.7,21.6 
		34.5,21.7 34.3,21.8 34,21.9 33.8,21.9 33,21.7 32.6,21.6 32.2,21.7 32,21.7 31.9,21.7 31.8,21.6 31.7,21.6 31.4,21.6 31.3,21.5 
		31.2,21.5 30.9,20.9 30.5,20.5 30.3,20.3 30.3,20.1 30.4,19.8 30.6,19.5 	"/>
	<polygon class="st0" points="32.2,24.1 32.6,24.1 33,24.1 35.2,24.3 35.8,24.4 36.4,24.6 36.6,24.8 36.9,25 37.1,25.3 37.2,25.8 
		37.3,26.6 37.3,27 37.1,27.4 36.9,27.6 36.7,27.8 36,28.1 34.1,28.3 33.5,28.3 33,28.1 32.4,27.9 31.8,27.9 31.1,27.8 30.5,27.5 
		30.1,27.1 29.9,26.6 29.8,26.1 30,25.7 30.2,25.3 30.5,25 31.3,24.6 31.8,24.4 31.9,24.4 32,24.3 32.1,24.2 	"/>
	<polygon class="st0" points="33.2,30.4 32.5,30.7 31.8,30.9 31,31.3 30.7,31.6 30.5,32 30.4,32.4 30.4,32.9 30.6,33.4 30.7,33.6 
		30.9,33.8 31.4,34.1 32.2,34.3 33,34.3 33.9,34.3 34.8,34.2 35.5,33.9 36.1,33.6 36.4,33.3 36.5,33 36.6,32.6 36.6,32 36.4,31.2 
		36.3,31.1 36.1,31 35.7,30.9 35.6,30.8 35.3,30.6 34.6,30.3 33.9,30.2 	"/>
</g>
</svg>
