<?xml version="1.0" encoding="UTF-8"?><svg id="a" xmlns="http://www.w3.org/2000/svg" viewBox="0 0 1000 827"><g><rect x="251" y="331.54" width="29" height="60.19" style="fill:#28509c;"/><g><path d="M299.94,365.41c.04,.9,.4,1.84,.97,2.41,.54,.57,1.4,.94,2.45,.94,1.22,0,1.98-.54,2.45-1.04,.54-.61,.72-1.26,.72-1.98,0-1.04-.5-1.76-.94-2.12-.61-.5-1.55-.68-2.3-.68-.4,0-.72,.04-1.04,.14v-4.21c1.26,.18,2.05-.18,2.56-.61,.58-.5,.79-1.15,.79-1.69,0-.65-.29-1.37-.65-1.73-.4-.39-1.08-.65-1.76-.65-.76,0-1.37,.25-1.73,.61-.54,.5-.83,1.37-.83,2.12h-5.8c.14-2.52,1.26-4.43,2.34-5.51,1.76-1.84,4.03-2.34,6.34-2.34,1.8,0,4.18,.36,5.98,2.12,1.19,1.19,1.94,2.81,1.94,4.64,0,1.04-.18,1.98-.72,2.95-.43,.79-.97,1.4-1.84,1.84,1.48,.54,2.34,1.47,2.84,2.2,.68,1.01,1.01,2.16,1.01,3.53,0,2.55-1.12,4.25-2.12,5.26-1.3,1.29-3.6,2.55-7.16,2.55-2.3,0-4.79-.54-6.88-2.48-1.22-1.12-2.7-3.17-2.99-6.26h6.37Z" style="fill:#28509c;"/><path d="M317,373.18c-.47-.47-1.12-1.33-1.12-2.63s.65-2.16,1.12-2.63c.86-.86,1.84-1.12,2.63-1.12,.9,0,1.87,.36,2.66,1.15,.61,.61,1.04,1.4,1.04,2.59s-.43,1.98-1.08,2.63c-.76,.76-1.69,1.12-2.63,1.12-.79,0-1.76-.25-2.63-1.12Z" style="fill:#28509c;"/><path d="M341.77,349.6l-6.84,8.17c.97-.43,2.16-.76,3.35-.76,1.8,0,3.85,.72,5.44,2.3,1.69,1.69,2.27,3.67,2.27,5.72,0,2.23-.61,4.39-2.48,6.26-2.38,2.38-5.36,2.84-7.67,2.84-4.14,0-6.55-1.55-7.88-2.92-1.15-1.19-2.2-3.02-2.2-5.62,0-3.28,1.66-6.44,3.56-8.96l5.36-7.05h7.09Zm-3.28,18.5c.68-.68,1.12-1.66,1.12-2.74,0-.76-.25-1.69-1.12-2.52-.97-.94-2.05-1.12-2.77-1.12-.94,0-1.98,.4-2.7,1.04-.76,.69-1.19,1.66-1.19,2.48,0,1.01,.36,2.02,1.04,2.74,.94,.97,2.05,1.22,2.84,1.22,1.33,0,2.23-.58,2.77-1.12Z" style="fill:#28509c;"/><path d="M349.37,359.21c-1.04-1.12-1.51-2.41-1.51-3.89s.54-3.06,1.48-4.07c1.51-1.69,3.67-1.91,5.04-1.91,2.59,0,4.14,.9,5.11,1.91,.72,.76,1.51,2.02,1.51,3.96,0,1.84-.72,3.13-1.55,4-1.51,1.58-3.53,1.91-5.08,1.91-1.66,0-3.49-.32-5-1.91Zm3.1-5.87c-.47,.5-.72,1.19-.72,1.87,0,.83,.4,1.58,.94,2.05,.43,.39,1.04,.65,1.76,.65s1.44-.32,1.91-.76c.47-.47,.79-1.19,.79-1.94s-.29-1.47-.86-2.02c-.54-.5-1.15-.68-1.84-.68-.83,0-1.55,.36-1.98,.83Zm15.69-3.74h3.13l-13.93,24.01h-3.1l13.89-24.01Zm-2.09,22.39c-1.04-1.12-1.51-2.41-1.51-3.89s.54-3.06,1.48-4.07c1.51-1.69,3.67-1.91,5.04-1.91,2.59,0,4.14,.9,5.11,1.91,.72,.76,1.51,2.02,1.51,3.96,0,1.84-.72,3.13-1.55,3.99-1.51,1.58-3.53,1.91-5.08,1.91-1.66,0-3.49-.32-5-1.91Zm3.1-5.87c-.47,.5-.72,1.19-.72,1.87,0,.83,.4,1.58,.94,2.05,.43,.4,1.04,.65,1.76,.65s1.44-.32,1.91-.76c.47-.47,.79-1.19,.79-1.94s-.29-1.48-.86-2.02c-.54-.5-1.15-.69-1.84-.69-.83,0-1.55,.36-1.98,.83Z" style="fill:#28509c;"/></g></g><g><rect x="251" y="242.67" width="377" height="60.19" style="fill:#28509c;"/><g><path d="M650.14,276.41c.04,.9,.4,1.84,.97,2.41,.54,.57,1.4,.94,2.45,.94,1.22,0,1.98-.54,2.45-1.04,.54-.61,.72-1.26,.72-1.98,0-1.04-.5-1.76-.94-2.12-.61-.5-1.55-.68-2.3-.68-.4,0-.72,.04-1.04,.14v-4.21c1.26,.18,2.05-.18,2.56-.61,.58-.5,.79-1.15,.79-1.69,0-.65-.29-1.37-.65-1.73-.4-.39-1.08-.65-1.76-.65-.76,0-1.37,.25-1.73,.61-.54,.5-.83,1.37-.83,2.12h-5.79c.14-2.52,1.26-4.43,2.34-5.51,1.76-1.84,4.03-2.34,6.34-2.34,1.8,0,4.17,.36,5.97,2.12,1.19,1.19,1.94,2.81,1.94,4.64,0,1.04-.18,1.98-.72,2.95-.43,.79-.97,1.4-1.83,1.84,1.47,.54,2.34,1.47,2.84,2.2,.68,1.01,1.01,2.16,1.01,3.53,0,2.55-1.12,4.25-2.12,5.26-1.29,1.29-3.6,2.55-7.16,2.55-2.3,0-4.79-.54-6.88-2.48-1.22-1.12-2.7-3.17-2.99-6.26h6.37Z" style="fill:#28509c;"/><path d="M684.55,284.61h-19.26l6.08-6.37c2.16-2.27,3.78-4.25,4.93-6.08,.65-1.01,1.29-2.2,1.29-3.74,0-.25,0-1.51-.72-2.3-.36-.4-.97-.72-1.76-.72-1.01,0-1.69,.47-2.09,.97-.58,.76-.83,2.12-.86,2.95h-6.44c.04-3.13,1.4-5.4,2.66-6.66,1.62-1.62,3.82-2.59,6.8-2.59,3.6,0,5.69,1.4,6.77,2.48,.97,.97,2.34,2.81,2.34,5.9s-1.4,5.11-3.56,7.13l-4.03,3.74h7.85v5.29Z" style="fill:#28509c;"/><path d="M688.8,284.18c-.47-.47-1.12-1.33-1.12-2.63s.65-2.16,1.12-2.63c.86-.86,1.84-1.12,2.63-1.12,.9,0,1.87,.36,2.66,1.15,.61,.61,1.04,1.4,1.04,2.59s-.43,1.98-1.08,2.63c-.76,.76-1.69,1.12-2.63,1.12-.79,0-1.76-.25-2.63-1.12Z" style="fill:#28509c;"/><path d="M717.06,284.61h-19.26l6.08-6.37c2.16-2.27,3.78-4.25,4.93-6.08,.65-1.01,1.3-2.2,1.3-3.74,0-.25,0-1.51-.72-2.3-.36-.4-.97-.72-1.76-.72-1.01,0-1.69,.47-2.09,.97-.58,.76-.83,2.12-.86,2.95h-6.44c.04-3.13,1.4-5.4,2.66-6.66,1.62-1.62,3.82-2.59,6.8-2.59,3.6,0,5.69,1.4,6.77,2.48,.97,.97,2.34,2.81,2.34,5.9s-1.4,5.11-3.56,7.13l-4.03,3.74h7.85v5.29Z" style="fill:#28509c;"/><path d="M721.17,270.21c-1.04-1.12-1.51-2.41-1.51-3.89s.54-3.06,1.48-4.07c1.51-1.69,3.67-1.91,5.04-1.91,2.59,0,4.14,.9,5.11,1.91,.72,.76,1.51,2.02,1.51,3.96,0,1.84-.72,3.13-1.55,4-1.51,1.58-3.53,1.91-5.07,1.91-1.66,0-3.49-.32-5-1.91Zm3.1-5.87c-.47,.5-.72,1.19-.72,1.87,0,.83,.4,1.58,.94,2.05,.43,.39,1.04,.65,1.76,.65s1.44-.32,1.91-.76c.47-.47,.79-1.19,.79-1.94s-.29-1.47-.86-2.02c-.54-.5-1.15-.68-1.84-.68-.83,0-1.55,.36-1.98,.83Zm15.69-3.74h3.13l-13.93,24.01h-3.09l13.89-24.01Zm-2.09,22.39c-1.04-1.12-1.51-2.41-1.51-3.89s.54-3.06,1.48-4.07c1.51-1.69,3.67-1.91,5.04-1.91,2.59,0,4.14,.9,5.11,1.91,.72,.76,1.51,2.02,1.51,3.96,0,1.84-.72,3.13-1.55,3.99-1.51,1.58-3.53,1.91-5.08,1.91-1.66,0-3.49-.32-5-1.91Zm3.1-5.87c-.47,.5-.72,1.19-.72,1.87,0,.83,.4,1.58,.94,2.05,.43,.4,1.04,.65,1.76,.65s1.44-.32,1.91-.76c.47-.47,.79-1.19,.79-1.94s-.29-1.48-.86-2.02c-.54-.5-1.15-.69-1.84-.69-.83,0-1.55,.36-1.98,.83Z" style="fill:#28509c;"/></g></g><g><rect x="251" y="680" width="578" height="60.19" style="fill:#28509c;"/><g><path d="M862.62,712.29h2.92v4.79h-2.92v4.54h-5.76v-4.54h-11.63v-4l9.25-15.48h8.13v14.69Zm-5.76,0v-9.79l-5.65,9.79h5.65Z" style="fill:#28509c;"/><path d="M871.37,721.61l6.8-8.1c-1.01,.54-1.98,.76-3.2,.76-2.05,0-3.89-.61-5.51-2.2-1.94-1.91-2.41-4.14-2.41-5.79,0-2.41,.86-4.57,2.41-6.19,1.4-1.44,3.85-3.02,7.88-3.02,4.43,0,6.77,1.91,7.7,2.84,1.55,1.58,2.38,3.74,2.38,5.94,0,3.63-2.2,6.95-3.64,8.82l-5.36,6.95h-7.05Zm3.28-18.47c-.72,.72-1.19,1.73-1.19,2.74s.5,1.98,1.15,2.59c.72,.68,1.8,1.08,2.81,1.08,.9,0,1.94-.32,2.7-1.01,.72-.65,1.26-1.8,1.26-2.74s-.5-2.02-1.15-2.66c-.65-.61-1.69-1.15-2.81-1.15-.76,0-1.84,.21-2.77,1.15Z" style="fill:#28509c;"/><path d="M890.16,721.18c-.47-.47-1.12-1.33-1.12-2.63s.65-2.16,1.12-2.63c.86-.86,1.83-1.12,2.63-1.12,.9,0,1.87,.36,2.66,1.15,.61,.61,1.04,1.4,1.04,2.59s-.43,1.98-1.08,2.63c-.76,.76-1.69,1.12-2.63,1.12-.79,0-1.76-.25-2.63-1.12Z" style="fill:#28509c;"/><path d="M901.72,721.61l6.8-8.1c-1.01,.54-1.98,.76-3.2,.76-2.05,0-3.89-.61-5.51-2.2-1.94-1.91-2.41-4.14-2.41-5.79,0-2.41,.86-4.57,2.41-6.19,1.4-1.44,3.85-3.02,7.88-3.02,4.43,0,6.77,1.91,7.7,2.84,1.55,1.58,2.38,3.74,2.38,5.94,0,3.63-2.2,6.95-3.64,8.82l-5.36,6.95h-7.05Zm3.28-18.47c-.72,.72-1.19,1.73-1.19,2.74s.5,1.98,1.15,2.59c.72,.68,1.8,1.08,2.81,1.08,.9,0,1.94-.32,2.7-1.01,.72-.65,1.26-1.8,1.26-2.74s-.5-2.02-1.15-2.66c-.65-.61-1.69-1.15-2.81-1.15-.76,0-1.83,.21-2.77,1.15Z" style="fill:#28509c;"/><path d="M921.09,707.21c-1.04-1.12-1.51-2.41-1.51-3.89s.54-3.06,1.48-4.07c1.51-1.69,3.67-1.91,5.04-1.91,2.59,0,4.14,.9,5.11,1.91,.72,.76,1.51,2.02,1.51,3.96,0,1.84-.72,3.13-1.55,4-1.51,1.58-3.53,1.91-5.08,1.91-1.66,0-3.49-.32-5-1.91Zm3.1-5.87c-.47,.5-.72,1.19-.72,1.87,0,.83,.4,1.58,.94,2.05,.43,.39,1.04,.65,1.76,.65s1.44-.32,1.91-.76c.47-.47,.79-1.19,.79-1.94s-.29-1.47-.86-2.02c-.54-.5-1.15-.68-1.84-.68-.83,0-1.55,.36-1.98,.83Zm15.69-3.74h3.13l-13.93,24.01h-3.1l13.89-24.01Zm-2.09,22.39c-1.04-1.12-1.51-2.41-1.51-3.89s.54-3.06,1.48-4.07c1.51-1.69,3.67-1.91,5.04-1.91,2.59,0,4.14,.9,5.11,1.91,.72,.76,1.51,2.02,1.51,3.96,0,1.84-.72,3.13-1.55,3.99-1.51,1.58-3.53,1.91-5.08,1.91-1.66,0-3.49-.32-5-1.91Zm3.1-5.87c-.47,.5-.72,1.19-.72,1.87,0,.83,.4,1.58,.94,2.05,.43,.4,1.04,.65,1.76,.65s1.44-.32,1.91-.76c.47-.47,.79-1.19,.79-1.94s-.29-1.48-.87-2.02c-.54-.5-1.15-.69-1.83-.69-.83,0-1.55,.36-1.98,.83Z" style="fill:#28509c;"/></g></g><g><path d="M53.2,174.55h-7.12l-1.82,4.02h-2.75l8.3-17.65,7.9,17.65h-2.75l-1.75-4.02Zm-1.02-2.4l-2.47-5.65-2.57,5.65h5.05Z" style="fill:#646464;"/><path d="M59.35,168.06h2.45v.97c.82-1,1.8-1.25,2.6-1.25,1.1,0,2.12,.53,2.72,1.55,.88-1.25,2.2-1.55,3.12-1.55,1.27,0,2.4,.6,3,1.65,.2,.35,.55,1.12,.55,2.65v6.5h-2.45v-5.8c0-1.17-.12-1.65-.23-1.87-.15-.4-.52-.92-1.4-.92-.6,0-1.12,.32-1.45,.77-.43,.6-.48,1.5-.48,2.4v5.42h-2.45v-5.8c0-1.17-.12-1.65-.23-1.87-.15-.4-.52-.92-1.4-.92-.6,0-1.12,.32-1.45,.77-.43,.6-.48,1.5-.48,2.4v5.42h-2.45v-10.52Z" style="fill:#646464;"/><path d="M86.32,176.18c-.45,.8-1.1,1.5-1.77,1.92-.85,.55-1.97,.8-3.1,.8-1.4,0-2.55-.35-3.55-1.35-1-1-1.55-2.45-1.55-4.02s.58-3.2,1.67-4.32c.88-.87,2.02-1.42,3.52-1.42,1.67,0,2.75,.73,3.37,1.38,1.35,1.4,1.47,3.35,1.47,4.45v.3h-7.55c.05,.75,.38,1.6,.9,2.12,.57,.58,1.27,.67,1.87,.67,.67,0,1.17-.15,1.67-.52,.42-.33,.75-.75,.97-1.15l2.05,1.15Zm-2.42-4.27c-.1-.57-.38-1.07-.75-1.42-.33-.3-.85-.6-1.65-.6-.85,0-1.4,.35-1.72,.67-.35,.33-.62,.83-.75,1.35h4.87Z" style="fill:#646464;"/><path d="M88.95,168.06h2.45v.95c.27-.33,.67-.67,1.02-.88,.47-.28,.95-.35,1.5-.35,.6,0,1.25,.1,1.92,.5l-1,2.22c-.55-.35-1-.38-1.25-.38-.52,0-1.05,.08-1.52,.58-.67,.72-.67,1.72-.67,2.42v5.45h-2.45v-10.52Z" style="fill:#646464;"/><path d="M98.47,162.13c.9,0,1.57,.67,1.57,1.58s-.67,1.57-1.57,1.57-1.57-.67-1.57-1.57,.67-1.58,1.57-1.58Zm1.22,5.92v10.52h-2.45v-10.52h2.45Z" style="fill:#646464;"/><path d="M110.95,171.28c-1.12-1.1-2.22-1.3-2.97-1.3-1.15,0-1.87,.47-2.32,.92-.45,.45-.9,1.25-.9,2.42s.48,2.05,.95,2.52c.55,.53,1.32,.85,2.22,.85,1,0,2.17-.4,3.02-1.35v2.72c-.6,.38-1.57,.83-3.2,.83-1.75,0-3-.5-4-1.55-.75-.77-1.5-2.02-1.5-3.95s.83-3.3,1.6-4.07c.83-.82,2.15-1.55,4.22-1.55,.8,0,1.75,.12,2.87,.75v2.75Z" style="fill:#646464;"/><path d="M121,168.06h2.45v10.52h-2.45v-1.1c-1.07,1.25-2.4,1.42-3.15,1.42-3.25,0-5.1-2.7-5.1-5.6,0-3.42,2.35-5.52,5.12-5.52,.77,0,2.12,.2,3.12,1.5v-1.22Zm-5.75,5.3c0,1.82,1.15,3.35,2.92,3.35,1.55,0,2.97-1.12,2.97-3.32s-1.42-3.4-2.97-3.4c-1.77,0-2.92,1.5-2.92,3.37Z" style="fill:#646464;"/><path d="M126.52,168.06h2.45v.97c1.05-1.17,2.25-1.25,2.85-1.25,1.95,0,2.77,.98,3.1,1.42,.4,.58,.65,1.3,.65,2.92v6.45h-2.45v-5.85c0-2.67-1-2.75-1.92-2.75-1.1,0-2.22,.15-2.22,3.55v5.05h-2.45v-10.52Z" style="fill:#646464;"/><path d="M147.5,161.91v16.67h-2.55v-16.67h2.55Z" style="fill:#646464;"/><path d="M151.02,168.06h2.45v.97c1.05-1.17,2.25-1.25,2.85-1.25,1.95,0,2.77,.98,3.1,1.42,.4,.58,.65,1.3,.65,2.92v6.45h-2.45v-5.85c0-2.67-1-2.75-1.92-2.75-1.1,0-2.22,.15-2.22,3.55v5.05h-2.45v-10.52Z" style="fill:#646464;"/><path d="M170.87,160.36h2.45v18.22h-2.45v-1.1c-1.07,1.25-2.4,1.42-3.15,1.42-3.25,0-5.1-2.7-5.1-5.6,0-3.42,2.35-5.52,5.12-5.52,.77,0,2.12,.2,3.12,1.5v-8.92Zm-5.75,13c0,1.82,1.15,3.35,2.92,3.35,1.55,0,2.97-1.12,2.97-3.32s-1.42-3.4-2.97-3.4c-1.77,0-2.92,1.5-2.92,3.37Z" style="fill:#646464;"/><path d="M177.65,162.13c.9,0,1.57,.67,1.57,1.58s-.67,1.57-1.57,1.57-1.57-.67-1.57-1.57,.67-1.58,1.57-1.58Zm1.22,5.92v10.52h-2.45v-10.52h2.45Z" style="fill:#646464;"/><path d="M189.67,168.06h2.45v10.52h-2.45v-1.1c-1.07,1.25-2.4,1.42-3.15,1.42-3.25,0-5.1-2.7-5.1-5.6,0-3.42,2.35-5.52,5.12-5.52,.77,0,2.12,.2,3.12,1.5v-1.22Zm-5.75,5.3c0,1.82,1.15,3.35,2.92,3.35,1.55,0,2.97-1.12,2.97-3.32s-1.42-3.4-2.97-3.4c-1.77,0-2.92,1.5-2.92,3.37Z" style="fill:#646464;"/><path d="M195.2,168.06h2.45v.97c1.05-1.17,2.25-1.25,2.85-1.25,1.95,0,2.77,.98,3.1,1.42,.4,.58,.65,1.3,.65,2.92v6.45h-2.45v-5.85c0-2.67-1-2.75-1.92-2.75-1.1,0-2.22,.15-2.22,3.55v5.05h-2.45v-10.52Z" style="fill:#646464;"/><path d="M223.87,173.33c0,3.22-2.45,5.57-5.62,5.57s-5.62-2.35-5.62-5.57,2.45-5.55,5.62-5.55,5.62,2.3,5.62,5.55Zm-2.5,.03c0-2.4-1.57-3.37-3.12-3.37s-3.12,.97-3.12,3.37c0,2.02,1.2,3.35,3.12,3.35s3.12-1.32,3.12-3.35Z" style="fill:#646464;"/><path d="M226.42,168.06h2.45v.95c.27-.33,.67-.67,1.02-.88,.47-.28,.95-.35,1.5-.35,.6,0,1.25,.1,1.92,.5l-1,2.22c-.55-.35-1-.38-1.25-.38-.52,0-1.05,.08-1.52,.58-.67,.72-.67,1.72-.67,2.42v5.45h-2.45v-10.52Z" style="fill:#646464;"/><path d="M104.2,204.55h-7.12l-1.82,4.02h-2.75l8.3-17.65,7.9,17.65h-2.75l-1.75-4.02Zm-1.02-2.4l-2.47-5.65-2.57,5.65h5.05Z" style="fill:#646464;"/><path d="M112.8,190.36v18.22h-2.45v-18.22h2.45Z" style="fill:#646464;"/><path d="M123.6,198.06h2.45v10.52h-2.45v-1.1c-1.07,1.25-2.4,1.42-3.15,1.42-3.25,0-5.1-2.7-5.1-5.6,0-3.42,2.35-5.52,5.12-5.52,.77,0,2.12,.2,3.12,1.5v-1.22Zm-5.75,5.3c0,1.82,1.15,3.35,2.92,3.35,1.55,0,2.97-1.12,2.97-3.32s-1.42-3.4-2.97-3.4c-1.77,0-2.92,1.5-2.92,3.37Z" style="fill:#646464;"/><path d="M133.75,200.83c-.25-.4-.72-.9-1.5-.9-.35,0-.6,.12-.75,.27-.12,.12-.22,.33-.22,.55,0,.28,.12,.45,.35,.6,.15,.1,.3,.15,.82,.43l1.25,.62c.55,.28,1.07,.55,1.47,.98,.57,.57,.77,1.22,.77,1.95,0,.95-.35,1.77-.92,2.4-.82,.9-1.85,1.17-2.95,1.17-.68,0-1.52-.1-2.27-.67-.6-.45-1.1-1.17-1.35-1.92l2-.95c.12,.35,.35,.8,.58,1,.15,.15,.5,.4,1.07,.4,.38,0,.77-.12,1-.35,.2-.2,.35-.52,.35-.82s-.1-.55-.33-.8c-.3-.3-.65-.48-1.05-.65l-.9-.42c-.48-.22-1.05-.5-1.45-.9-.55-.53-.75-1.1-.75-1.77,0-.85,.33-1.67,.88-2.25,.47-.5,1.27-1,2.57-1,.75,0,1.35,.15,1.95,.55,.35,.22,.82,.62,1.2,1.3l-1.82,1.2Z" style="fill:#646464;"/><path d="M140.6,190.36v11.22l3.42-3.52h3.25l-4.52,4.37,4.85,6.15h-3.1l-3.45-4.5-.45,.45v4.05h-2.45v-18.22h2.45Z" style="fill:#646464;"/><path d="M156.89,198.06h2.45v10.52h-2.45v-1.1c-1.07,1.25-2.4,1.42-3.15,1.42-3.25,0-5.1-2.7-5.1-5.6,0-3.42,2.35-5.52,5.12-5.52,.77,0,2.12,.2,3.12,1.5v-1.22Zm-5.75,5.3c0,1.82,1.15,3.35,2.92,3.35,1.55,0,2.97-1.12,2.97-3.32s-1.42-3.4-2.97-3.4c-1.77,0-2.92,1.5-2.92,3.37Z" style="fill:#646464;"/><path d="M168.72,208.58v-17.8l12.1,12.67v-11.55h2.55v17.7l-12.1-12.67v11.65h-2.55Z" style="fill:#646464;"/><path d="M194.62,198.06h2.45v10.52h-2.45v-1.1c-1.07,1.25-2.4,1.42-3.15,1.42-3.25,0-5.1-2.7-5.1-5.6,0-3.42,2.35-5.52,5.12-5.52,.77,0,2.12,.2,3.12,1.5v-1.22Zm-5.75,5.3c0,1.82,1.15,3.35,2.92,3.35,1.55,0,2.97-1.12,2.97-3.32s-1.42-3.4-2.97-3.4c-1.77,0-2.92,1.5-2.92,3.37Z" style="fill:#646464;"/><path d="M202.7,200.31v8.27h-2.45v-8.27h-1.02v-2.25h1.02v-3.85h2.45v3.85h1.87v2.25h-1.87Z" style="fill:#646464;"/><path d="M207.45,192.13c.9,0,1.57,.67,1.57,1.58s-.67,1.57-1.57,1.57-1.57-.67-1.57-1.57,.67-1.58,1.57-1.58Zm1.22,5.92v10.52h-2.45v-10.52h2.45Z" style="fill:#646464;"/><path d="M213.12,198.06l2.7,6,2.7-6h2.75l-5.45,11.27-5.45-11.27h2.75Z" style="fill:#646464;"/><path d="M232.09,206.18c-.45,.8-1.1,1.5-1.77,1.92-.85,.55-1.97,.8-3.1,.8-1.4,0-2.55-.35-3.55-1.35-1-1-1.55-2.45-1.55-4.02s.57-3.2,1.67-4.32c.88-.87,2.02-1.42,3.52-1.42,1.67,0,2.75,.73,3.37,1.38,1.35,1.4,1.47,3.35,1.47,4.45v.3h-7.55c.05,.75,.38,1.6,.9,2.12,.57,.58,1.27,.67,1.87,.67,.67,0,1.17-.15,1.67-.52,.42-.33,.75-.75,.97-1.15l2.05,1.15Zm-2.42-4.27c-.1-.57-.38-1.07-.75-1.42-.32-.3-.85-.6-1.65-.6-.85,0-1.4,.35-1.72,.67-.35,.33-.62,.83-.75,1.35h4.87Z" style="fill:#646464;"/><path d="M188.64,273.55h-7.12l-1.82,4.02h-2.75l8.3-17.65,7.9,17.65h-2.75l-1.75-4.02Zm-1.02-2.4l-2.47-5.65-2.57,5.65h5.05Z" style="fill:#646464;"/><path d="M199.4,269.83c-.25-.4-.72-.9-1.5-.9-.35,0-.6,.12-.75,.27-.12,.12-.22,.33-.22,.55,0,.28,.12,.45,.35,.6,.15,.1,.3,.15,.82,.43l1.25,.62c.55,.28,1.07,.55,1.47,.98,.57,.57,.77,1.22,.77,1.95,0,.95-.35,1.77-.92,2.4-.83,.9-1.85,1.17-2.95,1.17-.67,0-1.52-.1-2.27-.67-.6-.45-1.1-1.17-1.35-1.92l2-.95c.12,.35,.35,.8,.58,1,.15,.15,.5,.4,1.07,.4,.38,0,.77-.12,1-.35,.2-.2,.35-.52,.35-.82s-.1-.55-.33-.8c-.3-.3-.65-.48-1.05-.65l-.9-.42c-.48-.22-1.05-.5-1.45-.9-.55-.53-.75-1.1-.75-1.77,0-.85,.33-1.67,.88-2.25,.47-.5,1.27-1,2.57-1,.75,0,1.35,.15,1.95,.55,.35,.22,.82,.62,1.2,1.3l-1.82,1.2Z" style="fill:#646464;"/><path d="M205.02,261.13c.9,0,1.57,.67,1.57,1.58s-.67,1.57-1.57,1.57-1.57-.67-1.57-1.57,.67-1.58,1.57-1.58Zm1.22,5.92v10.52h-2.45v-10.52h2.45Z" style="fill:#646464;"/><path d="M217.04,267.06h2.45v10.52h-2.45v-1.1c-1.07,1.25-2.4,1.42-3.15,1.42-3.25,0-5.1-2.7-5.1-5.6,0-3.42,2.35-5.52,5.12-5.52,.77,0,2.12,.2,3.12,1.5v-1.22Zm-5.75,5.3c0,1.82,1.15,3.35,2.92,3.35,1.55,0,2.97-1.12,2.97-3.32s-1.42-3.4-2.97-3.4c-1.77,0-2.92,1.5-2.92,3.37Z" style="fill:#646464;"/><path d="M222.57,267.06h2.45v.97c1.05-1.17,2.25-1.25,2.85-1.25,1.95,0,2.77,.98,3.1,1.42,.4,.58,.65,1.3,.65,2.92v6.45h-2.45v-5.85c0-2.67-1-2.75-1.92-2.75-1.1,0-2.22,.15-2.22,3.55v5.05h-2.45v-10.52Z" style="fill:#646464;"/><path d="M78.12,336.91c2.15,0,3.5,.28,4.6,1.3,.9,.85,1.32,1.92,1.32,3.3,0,.65-.1,1.33-.5,1.97-.38,.65-.88,.97-1.25,1.15,.3,.08,1.32,.35,2.15,1.2,.9,.95,1.1,2.1,1.1,3.12,0,1.2-.3,2.15-1.1,3-1.32,1.4-3.4,1.62-4.67,1.62h-4.17v-16.67h2.52Zm.02,7.17h.77c.62,0,1.47-.07,2.07-.65,.58-.55,.65-1.33,.65-1.9,0-.5-.07-1.1-.6-1.6-.57-.55-1.3-.62-2.02-.62h-.88v4.77Zm0,7.1h1.55c.72,0,1.87-.12,2.52-.65,.5-.4,.82-1.1,.82-1.85,0-.67-.25-1.33-.67-1.75-.7-.67-1.72-.75-2.62-.75h-1.6v5Z" style="fill:#646464;"/><path d="M90.75,335.36v18.22h-2.45v-18.22h2.45Z" style="fill:#646464;"/><path d="M101.55,343.06h2.45v10.52h-2.45v-1.1c-1.07,1.25-2.4,1.42-3.15,1.42-3.25,0-5.1-2.7-5.1-5.6,0-3.42,2.35-5.52,5.12-5.52,.77,0,2.12,.2,3.12,1.5v-1.22Zm-5.75,5.3c0,1.82,1.15,3.35,2.92,3.35,1.55,0,2.97-1.12,2.97-3.32s-1.42-3.4-2.97-3.4c-1.77,0-2.92,1.5-2.92,3.37Z" style="fill:#646464;"/><path d="M115.25,346.28c-1.12-1.1-2.22-1.3-2.97-1.3-1.15,0-1.87,.47-2.32,.92-.45,.45-.9,1.25-.9,2.42s.48,2.05,.95,2.52c.55,.53,1.32,.85,2.22,.85,1,0,2.17-.4,3.02-1.35v2.72c-.6,.38-1.57,.83-3.2,.83-1.75,0-3-.5-4-1.55-.75-.77-1.5-2.02-1.5-3.95s.83-3.3,1.6-4.07c.83-.82,2.15-1.55,4.22-1.55,.8,0,1.75,.12,2.87,.75v2.75Z" style="fill:#646464;"/><path d="M120.05,335.36v11.22l3.42-3.52h3.25l-4.52,4.37,4.85,6.15h-3.1l-3.45-4.5-.45,.45v4.05h-2.45v-18.22h2.45Z" style="fill:#646464;"/><path d="M145.17,348.33c0,3.22-2.45,5.57-5.62,5.57s-5.62-2.35-5.62-5.57,2.45-5.55,5.62-5.55,5.62,2.3,5.62,5.55Zm-2.5,.03c0-2.4-1.57-3.37-3.12-3.37s-3.12,.97-3.12,3.37c0,2.02,1.2,3.35,3.12,3.35s3.12-1.32,3.12-3.35Z" style="fill:#646464;"/><path d="M147.72,343.06h2.45v.95c.27-.33,.67-.67,1.02-.88,.47-.28,.95-.35,1.5-.35,.6,0,1.25,.1,1.92,.5l-1,2.22c-.55-.35-1-.38-1.25-.38-.52,0-1.05,.08-1.52,.58-.67,.72-.67,1.72-.67,2.42v5.45h-2.45v-10.52Z" style="fill:#646464;"/><path d="M172.09,349.55h-7.12l-1.82,4.02h-2.75l8.3-17.65,7.9,17.65h-2.75l-1.75-4.02Zm-1.02-2.4l-2.47-5.65-2.57,5.65h5.05Z" style="fill:#646464;"/><path d="M180.95,345.31v8.27h-2.45v-8.27h-1.05v-2.25h1.05v-3.65c0-1.62,.42-2.65,1.02-3.3,.45-.47,1.22-1.02,2.5-1.02,.52,0,1.05,.07,1.57,.3v2.42c-.5-.3-.82-.38-1.17-.38-.3,0-.75,.05-1.07,.4-.12,.12-.4,.5-.4,1.25v3.97h2.65v2.25h-2.65Z" style="fill:#646464;"/><path d="M185,343.06h2.45v.95c.27-.33,.67-.67,1.02-.88,.47-.28,.95-.35,1.5-.35,.6,0,1.25,.1,1.92,.5l-1,2.22c-.55-.35-1-.38-1.25-.38-.52,0-1.05,.08-1.52,.58-.67,.72-.67,1.72-.67,2.42v5.45h-2.45v-10.52Z" style="fill:#646464;"/><path d="M194.52,337.13c.9,0,1.57,.67,1.57,1.58s-.67,1.57-1.57,1.57-1.57-.67-1.57-1.57,.67-1.58,1.57-1.58Zm1.22,5.92v10.52h-2.45v-10.52h2.45Z" style="fill:#646464;"/><path d="M206.99,346.28c-1.12-1.1-2.22-1.3-2.97-1.3-1.15,0-1.87,.47-2.32,.92-.45,.45-.9,1.25-.9,2.42s.48,2.05,.95,2.52c.55,.53,1.32,.85,2.22,.85,1,0,2.17-.4,3.02-1.35v2.72c-.6,.38-1.57,.83-3.2,.83-1.75,0-3-.5-4-1.55-.75-.77-1.5-2.02-1.5-3.95s.83-3.3,1.6-4.07c.83-.82,2.15-1.55,4.22-1.55,.8,0,1.75,.12,2.87,.75v2.75Z" style="fill:#646464;"/><path d="M217.04,343.06h2.45v10.52h-2.45v-1.1c-1.07,1.25-2.4,1.42-3.15,1.42-3.25,0-5.1-2.7-5.1-5.6,0-3.42,2.35-5.52,5.12-5.52,.77,0,2.12,.2,3.12,1.5v-1.22Zm-5.75,5.3c0,1.82,1.15,3.35,2.92,3.35,1.55,0,2.97-1.12,2.97-3.32s-1.42-3.4-2.97-3.4c-1.77,0-2.92,1.5-2.92,3.37Z" style="fill:#646464;"/><path d="M222.57,343.06h2.45v.97c1.05-1.17,2.25-1.25,2.85-1.25,1.95,0,2.77,.98,3.1,1.42,.4,.58,.65,1.3,.65,2.92v6.45h-2.45v-5.85c0-2.67-1-2.75-1.92-2.75-1.1,0-2.22,.15-2.22,3.55v5.05h-2.45v-10.52Z" style="fill:#646464;"/><path d="M149.24,379.55h-7.12l-1.82,4.02h-2.75l8.3-17.65,7.9,17.65h-2.75l-1.75-4.02Zm-1.02-2.4l-2.47-5.65-2.57,5.65h5.05Z" style="fill:#646464;"/><path d="M155.4,373.06h2.45v.97c.82-1,1.8-1.25,2.6-1.25,1.1,0,2.12,.53,2.72,1.55,.88-1.25,2.2-1.55,3.12-1.55,1.27,0,2.4,.6,3,1.65,.2,.35,.55,1.12,.55,2.65v6.5h-2.45v-5.8c0-1.17-.12-1.65-.23-1.87-.15-.4-.52-.92-1.4-.92-.6,0-1.12,.32-1.45,.77-.43,.6-.48,1.5-.48,2.4v5.42h-2.45v-5.8c0-1.17-.12-1.65-.23-1.87-.15-.4-.52-.92-1.4-.92-.6,0-1.12,.32-1.45,.77-.43,.6-.48,1.5-.48,2.4v5.42h-2.45v-10.52Z" style="fill:#646464;"/><path d="M182.37,381.18c-.45,.8-1.1,1.5-1.77,1.92-.85,.55-1.97,.8-3.1,.8-1.4,0-2.55-.35-3.55-1.35-1-1-1.55-2.45-1.55-4.02s.58-3.2,1.67-4.32c.88-.87,2.02-1.42,3.52-1.42,1.67,0,2.75,.73,3.37,1.38,1.35,1.4,1.47,3.35,1.47,4.45v.3h-7.55c.05,.75,.38,1.6,.9,2.12,.57,.58,1.27,.67,1.87,.67,.67,0,1.17-.15,1.67-.52,.42-.33,.75-.75,.97-1.15l2.05,1.15Zm-2.42-4.27c-.1-.57-.38-1.07-.75-1.42-.33-.3-.85-.6-1.65-.6-.85,0-1.4,.35-1.72,.67-.35,.33-.62,.83-.75,1.35h4.87Z" style="fill:#646464;"/><path d="M185,373.06h2.45v.95c.27-.33,.67-.67,1.02-.88,.47-.28,.95-.35,1.5-.35,.6,0,1.25,.1,1.92,.5l-1,2.22c-.55-.35-1-.38-1.25-.38-.52,0-1.05,.08-1.52,.58-.67,.72-.67,1.72-.67,2.42v5.45h-2.45v-10.52Z" style="fill:#646464;"/><path d="M194.52,367.13c.9,0,1.57,.67,1.57,1.58s-.67,1.57-1.57,1.57-1.57-.67-1.57-1.57,.67-1.58,1.57-1.58Zm1.22,5.92v10.52h-2.45v-10.52h2.45Z" style="fill:#646464;"/><path d="M206.99,376.28c-1.12-1.1-2.22-1.3-2.97-1.3-1.15,0-1.87,.47-2.32,.92-.45,.45-.9,1.25-.9,2.42s.48,2.05,.95,2.52c.55,.53,1.32,.85,2.22,.85,1,0,2.17-.4,3.02-1.35v2.72c-.6,.38-1.57,.83-3.2,.83-1.75,0-3-.5-4-1.55-.75-.77-1.5-2.02-1.5-3.95s.83-3.3,1.6-4.07c.83-.82,2.15-1.55,4.22-1.55,.8,0,1.75,.12,2.87,.75v2.75Z" style="fill:#646464;"/><path d="M217.04,373.06h2.45v10.52h-2.45v-1.1c-1.07,1.25-2.4,1.42-3.15,1.42-3.25,0-5.1-2.7-5.1-5.6,0-3.42,2.35-5.52,5.12-5.52,.77,0,2.12,.2,3.12,1.5v-1.22Zm-5.75,5.3c0,1.82,1.15,3.35,2.92,3.35,1.55,0,2.97-1.12,2.97-3.32s-1.42-3.4-2.97-3.4c-1.77,0-2.92,1.5-2.92,3.37Z" style="fill:#646464;"/><path d="M222.57,373.06h2.45v.97c1.05-1.17,2.25-1.25,2.85-1.25,1.95,0,2.77,.98,3.1,1.42,.4,.58,.65,1.3,.65,2.92v6.45h-2.45v-5.85c0-2.67-1-2.75-1.92-2.75-1.1,0-2.22,.15-2.22,3.55v5.05h-2.45v-10.52Z" style="fill:#646464;"/><path d="M74.67,441.51h7.15v-6.6h2.55v16.67h-2.55v-7.67h-7.15v7.67h-2.55v-16.67h2.55v6.6Z" style="fill:#646464;"/><path d="M89.15,435.13c.9,0,1.57,.67,1.57,1.58s-.67,1.57-1.57,1.57-1.57-.67-1.57-1.57,.67-1.58,1.57-1.58Zm1.22,5.92v10.52h-2.45v-10.52h2.45Z" style="fill:#646464;"/><path d="M98.07,443.83c-.25-.4-.72-.9-1.5-.9-.35,0-.6,.12-.75,.27-.12,.12-.22,.33-.22,.55,0,.28,.12,.45,.35,.6,.15,.1,.3,.15,.82,.43l1.25,.62c.55,.28,1.07,.55,1.47,.98,.57,.57,.77,1.22,.77,1.95,0,.95-.35,1.77-.92,2.4-.83,.9-1.85,1.17-2.95,1.17-.67,0-1.52-.1-2.27-.67-.6-.45-1.1-1.17-1.35-1.92l2-.95c.12,.35,.35,.8,.58,1,.15,.15,.5,.4,1.07,.4,.38,0,.77-.12,1-.35,.2-.2,.35-.52,.35-.82s-.1-.55-.33-.8c-.3-.3-.65-.48-1.05-.65l-.9-.42c-.48-.22-1.05-.5-1.45-.9-.55-.53-.75-1.1-.75-1.77,0-.85,.33-1.67,.88-2.25,.47-.5,1.27-1,2.57-1,.75,0,1.35,.15,1.95,.55,.35,.22,.82,.62,1.2,1.3l-1.82,1.2Z" style="fill:#646464;"/><path d="M104.92,457.3h-2.45v-16.25h2.45v1.15c.9-1.07,2.07-1.42,3.12-1.42,2.77,0,5.12,2.12,5.12,5.47,0,3.55-2.6,5.65-5.1,5.65-.58,0-2.05-.2-3.15-1.55v6.95Zm-.15-10.92c0,2.2,1.42,3.32,2.97,3.32,1.77,0,2.92-1.52,2.92-3.35s-1.15-3.37-2.92-3.37c-1.55,0-2.97,1.1-2.97,3.4Z" style="fill:#646464;"/><path d="M123.42,441.06h2.45v10.52h-2.45v-1.1c-1.07,1.25-2.4,1.42-3.15,1.42-3.25,0-5.1-2.7-5.1-5.6,0-3.42,2.35-5.52,5.12-5.52,.77,0,2.12,.2,3.12,1.5v-1.22Zm-5.75,5.3c0,1.82,1.15,3.35,2.92,3.35,1.55,0,2.97-1.12,2.97-3.32s-1.42-3.4-2.97-3.4c-1.77,0-2.92,1.5-2.92,3.37Z" style="fill:#646464;"/><path d="M128.95,441.06h2.45v.97c1.05-1.17,2.25-1.25,2.85-1.25,1.95,0,2.77,.98,3.1,1.42,.4,.58,.65,1.3,.65,2.92v6.45h-2.45v-5.85c0-2.67-1-2.75-1.92-2.75-1.1,0-2.22,.15-2.22,3.55v5.05h-2.45v-10.52Z" style="fill:#646464;"/><path d="M142.32,435.13c.9,0,1.57,.67,1.57,1.58s-.67,1.57-1.57,1.57-1.57-.67-1.57-1.57,.67-1.58,1.57-1.58Zm1.22,5.92v10.52h-2.45v-10.52h2.45Z" style="fill:#646464;"/><path d="M154.79,444.28c-1.12-1.1-2.22-1.3-2.97-1.3-1.15,0-1.87,.47-2.32,.92-.45,.45-.9,1.25-.9,2.42s.48,2.05,.95,2.52c.55,.53,1.32,.85,2.22,.85,1,0,2.17-.4,3.02-1.35v2.72c-.6,.38-1.57,.83-3.2,.83-1.75,0-3-.5-4-1.55-.75-.77-1.5-2.02-1.5-3.95s.83-3.3,1.6-4.07c.83-.82,2.15-1.55,4.22-1.55,.8,0,1.75,.12,2.87,.75v2.75Z" style="fill:#646464;"/><path d="M168.74,432.46l2,.9-13.15,23.54-2-.9,13.15-23.54Z" style="fill:#646464;"/><path d="M177.25,434.91v14.27h4.9v2.4h-7.45v-16.67h2.55Z" style="fill:#646464;"/><path d="M191.79,441.06h2.45v10.52h-2.45v-1.1c-1.07,1.25-2.4,1.42-3.15,1.42-3.25,0-5.1-2.7-5.1-5.6,0-3.42,2.35-5.52,5.12-5.52,.77,0,2.12,.2,3.12,1.5v-1.22Zm-5.75,5.3c0,1.82,1.15,3.35,2.92,3.35,1.55,0,2.97-1.12,2.97-3.32s-1.42-3.4-2.97-3.4c-1.77,0-2.92,1.5-2.92,3.37Z" style="fill:#646464;"/><path d="M199.87,443.31v8.27h-2.45v-8.27h-1.02v-2.25h1.02v-3.85h2.45v3.85h1.87v2.25h-1.87Z" style="fill:#646464;"/><path d="M204.62,435.13c.9,0,1.57,.67,1.57,1.58s-.67,1.57-1.57,1.57-1.57-.67-1.57-1.57,.67-1.58,1.57-1.58Zm1.22,5.92v10.52h-2.45v-10.52h2.45Z" style="fill:#646464;"/><path d="M208.92,441.06h2.45v.97c1.05-1.17,2.25-1.25,2.85-1.25,1.95,0,2.77,.98,3.1,1.42,.4,.58,.65,1.3,.65,2.92v6.45h-2.45v-5.85c0-2.67-1-2.75-1.92-2.75-1.1,0-2.22,.15-2.22,3.55v5.05h-2.45v-10.52Z" style="fill:#646464;"/><path d="M225.02,442.88l-4.6-7.97h2.85l3.25,5.65,3.32-5.65h2.85l-4.8,7.97,5.02,8.7h-2.85l-3.65-6.37-3.8,6.37h-2.85l5.25-8.7Z" style="fill:#646464;"/><path d="M39.65,527.58v-17.8l12.1,12.67v-11.55h2.55v17.7l-12.1-12.67v11.65h-2.55Z" style="fill:#646464;"/><path d="M65.55,517.06h2.45v10.52h-2.45v-1.1c-1.07,1.25-2.4,1.42-3.15,1.42-3.25,0-5.1-2.7-5.1-5.6,0-3.42,2.35-5.52,5.12-5.52,.77,0,2.12,.2,3.12,1.5v-1.22Zm-5.75,5.3c0,1.82,1.15,3.35,2.92,3.35,1.55,0,2.97-1.12,2.97-3.32s-1.42-3.4-2.97-3.4c-1.77,0-2.92,1.5-2.92,3.37Z" style="fill:#646464;"/><path d="M73.62,519.31v8.27h-2.45v-8.27h-1.02v-2.25h1.02v-3.85h2.45v3.85h1.87v2.25h-1.87Z" style="fill:#646464;"/><path d="M78.37,511.13c.9,0,1.57,.67,1.57,1.58s-.67,1.57-1.57,1.57-1.57-.67-1.57-1.57,.67-1.58,1.57-1.58Zm1.22,5.92v10.52h-2.45v-10.52h2.45Z" style="fill:#646464;"/><path d="M84.05,517.06l2.7,6,2.7-6h2.75l-5.45,11.27-5.45-11.27h2.75Z" style="fill:#646464;"/><path d="M103.02,525.18c-.45,.8-1.1,1.5-1.77,1.92-.85,.55-1.97,.8-3.1,.8-1.4,0-2.55-.35-3.55-1.35-1-1-1.55-2.45-1.55-4.02s.57-3.2,1.67-4.32c.88-.87,2.02-1.42,3.52-1.42,1.67,0,2.75,.73,3.37,1.38,1.35,1.4,1.47,3.35,1.47,4.45v.3h-7.55c.05,.75,.38,1.6,.9,2.12,.57,.58,1.27,.67,1.87,.67,.67,0,1.17-.15,1.67-.52,.42-.33,.75-.75,.97-1.15l2.05,1.15Zm-2.42-4.27c-.1-.57-.38-1.07-.75-1.42-.32-.3-.85-.6-1.65-.6-.85,0-1.4,.35-1.72,.67-.35,.33-.62,.83-.75,1.35h4.87Z" style="fill:#646464;"/><path d="M114.47,517.51h7.15v-6.6h2.55v16.67h-2.55v-7.67h-7.15v7.67h-2.55v-16.67h2.55v6.6Z" style="fill:#646464;"/><path d="M135.42,517.06h2.45v10.52h-2.45v-1.1c-1.07,1.25-2.4,1.42-3.15,1.42-3.25,0-5.1-2.7-5.1-5.6,0-3.42,2.35-5.52,5.12-5.52,.77,0,2.12,.2,3.12,1.5v-1.22Zm-5.75,5.3c0,1.82,1.15,3.35,2.92,3.35,1.55,0,2.97-1.12,2.97-3.32s-1.42-3.4-2.97-3.4c-1.77,0-2.92,1.5-2.92,3.37Z" style="fill:#646464;"/><path d="M142.32,517.06l2.72,6.02,2.95-6.92,2.95,6.92,2.72-6.02h2.75l-5.47,11.27-2.95-6.72-2.95,6.72-5.47-11.27h2.75Z" style="fill:#646464;"/><path d="M165.32,517.06h2.45v10.52h-2.45v-1.1c-1.07,1.25-2.4,1.42-3.15,1.42-3.25,0-5.1-2.7-5.1-5.6,0-3.42,2.35-5.52,5.12-5.52,.77,0,2.12,.2,3.12,1.5v-1.22Zm-5.75,5.3c0,1.82,1.15,3.35,2.92,3.35,1.55,0,2.97-1.12,2.97-3.32s-1.42-3.4-2.97-3.4c-1.77,0-2.92,1.5-2.92,3.37Z" style="fill:#646464;"/><path d="M172.1,511.13c.9,0,1.57,.67,1.57,1.58s-.67,1.57-1.57,1.57-1.57-.67-1.57-1.57,.67-1.58,1.57-1.58Zm1.22,5.92v10.52h-2.45v-10.52h2.45Z" style="fill:#646464;"/><path d="M177.65,511.13c.9,0,1.57,.67,1.57,1.58s-.67,1.57-1.57,1.57-1.57-.67-1.57-1.57,.67-1.58,1.57-1.58Zm1.22,5.92v10.52h-2.45v-10.52h2.45Z" style="fill:#646464;"/><path d="M189.67,517.06h2.45v10.52h-2.45v-1.1c-1.07,1.25-2.4,1.42-3.15,1.42-3.25,0-5.1-2.7-5.1-5.6,0-3.42,2.35-5.52,5.12-5.52,.77,0,2.12,.2,3.12,1.5v-1.22Zm-5.75,5.3c0,1.82,1.15,3.35,2.92,3.35,1.55,0,2.97-1.12,2.97-3.32s-1.42-3.4-2.97-3.4c-1.77,0-2.92,1.5-2.92,3.37Z" style="fill:#646464;"/><path d="M195.2,517.06h2.45v.97c1.05-1.17,2.25-1.25,2.85-1.25,1.95,0,2.77,.98,3.1,1.42,.4,.58,.65,1.3,.65,2.92v6.45h-2.45v-5.85c0-2.67-1-2.75-1.92-2.75-1.1,0-2.22,.15-2.22,3.55v5.05h-2.45v-10.52Z" style="fill:#646464;"/><path d="M223.87,522.33c0,3.22-2.45,5.57-5.62,5.57s-5.62-2.35-5.62-5.57,2.45-5.55,5.62-5.55,5.62,2.3,5.62,5.55Zm-2.5,.03c0-2.4-1.57-3.37-3.12-3.37s-3.12,.97-3.12,3.37c0,2.02,1.2,3.35,3.12,3.35s3.12-1.32,3.12-3.35Z" style="fill:#646464;"/><path d="M226.42,517.06h2.45v.95c.27-.33,.67-.67,1.02-.88,.47-.28,.95-.35,1.5-.35,.6,0,1.25,.1,1.92,.5l-1,2.22c-.55-.35-1-.38-1.25-.38-.52,0-1.05,.08-1.52,.58-.67,.72-.67,1.72-.67,2.42v5.45h-2.45v-10.52Z" style="fill:#646464;"/><path d="M39.12,552.33c0,3.22-2.45,5.57-5.62,5.57s-5.62-2.35-5.62-5.57,2.45-5.55,5.62-5.55,5.62,2.3,5.62,5.55Zm-2.5,.03c0-2.4-1.57-3.37-3.12-3.37s-3.12,.97-3.12,3.37c0,2.02,1.2,3.35,3.12,3.35s3.12-1.32,3.12-3.35Z" style="fill:#646464;"/><path d="M44.2,549.31v8.27h-2.45v-8.27h-1.02v-2.25h1.02v-3.85h2.45v3.85h1.87v2.25h-1.87Z" style="fill:#646464;"/><path d="M47.72,539.36h2.45v8.6c1.05-1.07,2.2-1.17,2.82-1.17,1.92,0,2.8,1,3.1,1.42,.65,.95,.68,2.17,.68,2.92v6.45h-2.45v-6.22c0-.62,0-1.3-.47-1.82-.27-.3-.75-.55-1.38-.55-.82,0-1.47,.4-1.8,.88-.35,.5-.5,1.3-.5,2.65v5.07h-2.45v-18.22Z" style="fill:#646464;"/><path d="M69.02,555.18c-.45,.8-1.1,1.5-1.77,1.92-.85,.55-1.97,.8-3.1,.8-1.4,0-2.55-.35-3.55-1.35-1-1-1.55-2.45-1.55-4.02s.57-3.2,1.67-4.32c.88-.87,2.02-1.42,3.52-1.42,1.67,0,2.75,.73,3.37,1.38,1.35,1.4,1.47,3.35,1.47,4.45v.3h-7.55c.05,.75,.38,1.6,.9,2.12,.57,.58,1.27,.67,1.87,.67,.67,0,1.17-.15,1.67-.52,.42-.33,.75-.75,.97-1.15l2.05,1.15Zm-2.42-4.27c-.1-.57-.38-1.07-.75-1.42-.32-.3-.85-.6-1.65-.6-.85,0-1.4,.35-1.72,.67-.35,.33-.62,.83-.75,1.35h4.87Z" style="fill:#646464;"/><path d="M71.65,547.06h2.45v.95c.27-.33,.67-.67,1.02-.88,.47-.28,.95-.35,1.5-.35,.6,0,1.25,.1,1.92,.5l-1,2.22c-.55-.35-1-.38-1.25-.38-.52,0-1.05,.08-1.52,.58-.67,.72-.67,1.72-.67,2.42v5.45h-2.45v-10.52Z" style="fill:#646464;"/><path d="M89.9,540.91c1.02,0,2.45,.1,3.65,.9,1.4,.92,2.07,2.52,2.07,4.05,0,.97-.25,2.47-1.62,3.65-1.32,1.12-2.85,1.3-4.07,1.3h-1.15v6.77h-2.55v-16.67h3.67Zm-1.12,7.55h1.15c2.2,0,3.25-1.07,3.25-2.62,0-.92-.38-2.57-3.27-2.57h-1.12v5.2Z" style="fill:#646464;"/><path d="M104.97,547.06h2.45v10.52h-2.45v-1.1c-1.07,1.25-2.4,1.42-3.15,1.42-3.25,0-5.1-2.7-5.1-5.6,0-3.42,2.35-5.52,5.12-5.52,.77,0,2.12,.2,3.12,1.5v-1.22Zm-5.75,5.3c0,1.82,1.15,3.35,2.92,3.35,1.55,0,2.97-1.12,2.97-3.32s-1.42-3.4-2.97-3.4c-1.77,0-2.92,1.5-2.92,3.37Z" style="fill:#646464;"/><path d="M118.67,550.28c-1.12-1.1-2.22-1.3-2.97-1.3-1.15,0-1.87,.47-2.32,.92-.45,.45-.9,1.25-.9,2.42s.48,2.05,.95,2.52c.55,.53,1.32,.85,2.22,.85,1,0,2.17-.4,3.02-1.35v2.72c-.6,.38-1.57,.83-3.2,.83-1.75,0-3-.5-4-1.55-.75-.77-1.5-2.02-1.5-3.95s.82-3.3,1.6-4.07c.82-.82,2.15-1.55,4.22-1.55,.8,0,1.75,.12,2.87,.75v2.75Z" style="fill:#646464;"/><path d="M122.25,541.13c.9,0,1.57,.67,1.57,1.58s-.67,1.57-1.57,1.57-1.57-.67-1.57-1.57,.67-1.58,1.57-1.58Zm1.22,5.92v10.52h-2.45v-10.52h2.45Z" style="fill:#646464;"/><path d="M129.07,549.31v8.27h-2.45v-8.27h-.85v-2.25h.85v-3.5c0-1,.02-1.97,.65-2.87,.55-.78,1.62-1.62,3.65-1.62,2.42,0,3.27,1.05,3.65,1.62,.62,1,.65,1.87,.65,2.87v.72h-2.45v-.45c0-.45,.02-1.07-.3-1.62-.38-.62-.95-.8-1.55-.8-.82,0-1.3,.35-1.55,.8-.12,.2-.3,.62-.3,1.62v3.22h2.65v2.25h-2.65Zm6.15-2.25v10.52h-2.45v-10.52h2.45Z" style="fill:#646464;"/><path d="M146.47,550.28c-1.12-1.1-2.22-1.3-2.97-1.3-1.15,0-1.87,.47-2.32,.92-.45,.45-.9,1.25-.9,2.42s.48,2.05,.95,2.52c.55,.53,1.32,.85,2.22,.85,1,0,2.17-.4,3.02-1.35v2.72c-.6,.38-1.57,.83-3.2,.83-1.75,0-3-.5-4-1.55-.75-.77-1.5-2.02-1.5-3.95s.83-3.3,1.6-4.07c.83-.82,2.15-1.55,4.22-1.55,.8,0,1.75,.12,2.87,.75v2.75Z" style="fill:#646464;"/><path d="M157.65,540.91v16.67h-2.55v-16.67h2.55Z" style="fill:#646464;"/><path d="M165.8,549.83c-.25-.4-.72-.9-1.5-.9-.35,0-.6,.12-.75,.27-.12,.12-.22,.33-.22,.55,0,.28,.12,.45,.35,.6,.15,.1,.3,.15,.82,.43l1.25,.62c.55,.28,1.07,.55,1.47,.98,.57,.57,.77,1.22,.77,1.95,0,.95-.35,1.77-.92,2.4-.82,.9-1.85,1.17-2.95,1.17-.68,0-1.52-.1-2.27-.67-.6-.45-1.1-1.17-1.35-1.92l2-.95c.12,.35,.35,.8,.58,1,.15,.15,.5,.4,1.07,.4,.38,0,.77-.12,1-.35,.2-.2,.35-.52,.35-.82s-.1-.55-.33-.8c-.3-.3-.65-.48-1.05-.65l-.9-.42c-.48-.22-1.05-.5-1.45-.9-.55-.53-.75-1.1-.75-1.77,0-.85,.33-1.67,.88-2.25,.47-.5,1.27-1,2.57-1,.75,0,1.35,.15,1.95,.55,.35,.22,.82,.62,1.2,1.3l-1.82,1.2Z" style="fill:#646464;"/><path d="M172.65,539.36v18.22h-2.45v-18.22h2.45Z" style="fill:#646464;"/><path d="M183.44,547.06h2.45v10.52h-2.45v-1.1c-1.07,1.25-2.4,1.42-3.15,1.42-3.25,0-5.1-2.7-5.1-5.6,0-3.42,2.35-5.52,5.12-5.52,.77,0,2.12,.2,3.12,1.5v-1.22Zm-5.75,5.3c0,1.82,1.15,3.35,2.92,3.35,1.55,0,2.97-1.12,2.97-3.32s-1.42-3.4-2.97-3.4c-1.77,0-2.92,1.5-2.92,3.37Z" style="fill:#646464;"/><path d="M188.97,547.06h2.45v.97c1.05-1.17,2.25-1.25,2.85-1.25,1.95,0,2.77,.98,3.1,1.42,.4,.58,.65,1.3,.65,2.92v6.45h-2.45v-5.85c0-2.67-1-2.75-1.92-2.75-1.1,0-2.22,.15-2.22,3.55v5.05h-2.45v-10.52Z" style="fill:#646464;"/><path d="M208.82,539.36h2.45v18.22h-2.45v-1.1c-1.07,1.25-2.4,1.42-3.15,1.42-3.25,0-5.1-2.7-5.1-5.6,0-3.42,2.35-5.52,5.12-5.52,.77,0,2.12,.2,3.12,1.5v-8.92Zm-5.75,13c0,1.82,1.15,3.35,2.92,3.35,1.55,0,2.97-1.12,2.97-3.32s-1.42-3.4-2.97-3.4c-1.77,0-2.92,1.5-2.92,3.37Z" style="fill:#646464;"/><path d="M223.79,555.18c-.45,.8-1.1,1.5-1.77,1.92-.85,.55-1.97,.8-3.1,.8-1.4,0-2.55-.35-3.55-1.35-1-1-1.55-2.45-1.55-4.02s.57-3.2,1.67-4.32c.88-.87,2.02-1.42,3.52-1.42,1.67,0,2.75,.73,3.37,1.38,1.35,1.4,1.47,3.35,1.47,4.45v.3h-7.55c.05,.75,.38,1.6,.9,2.12,.57,.58,1.27,.67,1.87,.67,.67,0,1.17-.15,1.67-.52,.42-.33,.75-.75,.97-1.15l2.05,1.15Zm-2.42-4.27c-.1-.57-.38-1.07-.75-1.42-.32-.3-.85-.6-1.65-.6-.85,0-1.4,.35-1.72,.67-.35,.33-.62,.83-.75,1.35h4.87Z" style="fill:#646464;"/><path d="M226.42,547.06h2.45v.95c.27-.33,.67-.67,1.02-.88,.47-.28,.95-.35,1.5-.35,.6,0,1.25,.1,1.92,.5l-1,2.22c-.55-.35-1-.38-1.25-.38-.52,0-1.05,.08-1.52,.58-.67,.72-.67,1.72-.67,2.42v5.45h-2.45v-10.52Z" style="fill:#646464;"/><path d="M128.25,618.58l3.5-17.92,5.8,12.95,5.85-12.95,3.15,17.92h-2.6l-1.7-10.05-4.85,10.82-4.8-10.85-1.75,10.07h-2.6Z" style="fill:#646464;"/><path d="M152.05,608.06v6.02c0,.62,.02,1.35,.45,1.9,.33,.42,.9,.72,1.6,.72s1.27-.3,1.6-.72c.43-.55,.45-1.27,.45-1.9v-6.02h2.45v6.1c0,1.35-.15,2.47-1.12,3.45-.95,.95-2.25,1.3-3.42,1.3-1.07,0-2.37-.33-3.32-1.3-.97-.97-1.12-2.1-1.12-3.45v-6.1h2.45Z" style="fill:#646464;"/><path d="M164.15,600.36v18.22h-2.45v-18.22h2.45Z" style="fill:#646464;"/><path d="M169.77,610.31v8.27h-2.45v-8.27h-1.02v-2.25h1.02v-3.85h2.45v3.85h1.87v2.25h-1.87Z" style="fill:#646464;"/><path d="M174.52,602.13c.9,0,1.57,.67,1.57,1.58s-.67,1.57-1.57,1.57-1.57-.67-1.57-1.57,.67-1.58,1.57-1.58Zm1.22,5.92v10.52h-2.45v-10.52h2.45Z" style="fill:#646464;"/><path d="M178.85,608.06h2.45v.95c.27-.33,.67-.67,1.02-.88,.47-.28,.95-.35,1.5-.35,.6,0,1.25,.1,1.92,.5l-1,2.22c-.55-.35-1-.38-1.25-.38-.52,0-1.05,.08-1.52,.58-.67,.72-.67,1.72-.67,2.42v5.45h-2.45v-10.52Z" style="fill:#646464;"/><path d="M194.32,608.06h2.45v10.52h-2.45v-1.1c-1.07,1.25-2.4,1.42-3.15,1.42-3.25,0-5.1-2.7-5.1-5.6,0-3.42,2.35-5.52,5.12-5.52,.77,0,2.12,.2,3.12,1.5v-1.22Zm-5.75,5.3c0,1.82,1.15,3.35,2.92,3.35,1.55,0,2.97-1.12,2.97-3.32s-1.42-3.4-2.97-3.4c-1.77,0-2.92,1.5-2.92,3.37Z" style="fill:#646464;"/><path d="M208.02,611.28c-1.12-1.1-2.22-1.3-2.97-1.3-1.15,0-1.87,.47-2.32,.92-.45,.45-.9,1.25-.9,2.42s.48,2.05,.95,2.52c.55,.53,1.32,.85,2.22,.85,1,0,2.17-.4,3.02-1.35v2.72c-.6,.38-1.57,.83-3.2,.83-1.75,0-3-.5-4-1.55-.75-.77-1.5-2.02-1.5-3.95s.83-3.3,1.6-4.07c.83-.82,2.15-1.55,4.22-1.55,.8,0,1.75,.12,2.87,.75v2.75Z" style="fill:#646464;"/><path d="M211.6,602.13c.9,0,1.57,.67,1.57,1.58s-.67,1.57-1.57,1.57-1.57-.67-1.57-1.57,.67-1.58,1.57-1.58Zm1.22,5.92v10.52h-2.45v-10.52h2.45Z" style="fill:#646464;"/><path d="M223.62,608.06h2.45v10.52h-2.45v-1.1c-1.07,1.25-2.4,1.42-3.15,1.42-3.25,0-5.1-2.7-5.1-5.6,0-3.42,2.35-5.52,5.12-5.52,.77,0,2.12,.2,3.12,1.5v-1.22Zm-5.75,5.3c0,1.82,1.15,3.35,2.92,3.35,1.55,0,2.97-1.12,2.97-3.32s-1.42-3.4-2.97-3.4c-1.77,0-2.92,1.5-2.92,3.37Z" style="fill:#646464;"/><path d="M231.62,600.36v18.22h-2.45v-18.22h2.45Z" style="fill:#646464;"/><path d="M29.7,653c-.8-1.7-1.3-3.27-1.7-5.05-.52-2.35-.65-4.12-.65-6.37s.15-4.17,.7-6.62c.4-1.8,.88-3.25,1.65-4.87l2.25,.87c-.65,1.47-1.2,3.15-1.5,4.52-.4,1.8-.6,4-.6,6.1,0,2.72,.3,4.65,.57,5.9,.33,1.4,.9,3.17,1.52,4.65l-2.25,.88Z" style="fill:#646464;"/><path d="M40.07,634.31v14.27h-2.55v-14.27h-3.82v-2.4h10.2v2.4h-3.82Z" style="fill:#646464;"/><path d="M46.55,638.06l2.72,6.02,2.95-6.92,2.95,6.92,2.72-6.02h2.75l-5.47,11.27-2.95-6.72-2.95,6.72-5.47-11.27h2.75Z" style="fill:#646464;"/><path d="M72.77,643.33c0,3.22-2.45,5.57-5.62,5.57s-5.62-2.35-5.62-5.57,2.45-5.55,5.62-5.55,5.62,2.3,5.62,5.55Zm-2.5,.03c0-2.4-1.57-3.37-3.12-3.37s-3.12,.97-3.12,3.37c0,2.02,1.2,3.35,3.12,3.35s3.12-1.32,3.12-3.35Z" style="fill:#646464;"/><path d="M91.84,643.33c0,3.22-2.45,5.57-5.62,5.57s-5.62-2.35-5.62-5.57,2.45-5.55,5.62-5.55,5.62,2.3,5.62,5.55Zm-2.5,.03c0-2.4-1.57-3.37-3.12-3.37s-3.12,.97-3.12,3.37c0,2.02,1.2,3.35,3.12,3.35s3.12-1.32,3.12-3.35Z" style="fill:#646464;"/><path d="M94.4,638.06h2.45v.95c.27-.33,.67-.67,1.02-.88,.47-.28,.95-.35,1.5-.35,.6,0,1.25,.1,1.92,.5l-1,2.22c-.55-.35-1-.38-1.25-.38-.52,0-1.05,.08-1.52,.58-.67,.72-.67,1.72-.67,2.42v5.45h-2.45v-10.52Z" style="fill:#646464;"/><path d="M108.47,648.58l3.5-17.92,5.8,12.95,5.85-12.95,3.15,17.92h-2.6l-1.7-10.05-4.85,10.82-4.8-10.85-1.75,10.07h-2.6Z" style="fill:#646464;"/><path d="M140.52,643.33c0,3.22-2.45,5.57-5.62,5.57s-5.62-2.35-5.62-5.57,2.45-5.55,5.62-5.55,5.62,2.3,5.62,5.55Zm-2.5,.03c0-2.4-1.57-3.37-3.12-3.37s-3.12,.97-3.12,3.37c0,2.02,1.2,3.35,3.12,3.35s3.12-1.32,3.12-3.35Z" style="fill:#646464;"/><path d="M143.07,638.06h2.45v.95c.27-.33,.67-.67,1.02-.88,.47-.28,.95-.35,1.5-.35,.6,0,1.25,.1,1.92,.5l-1,2.22c-.55-.35-1-.38-1.25-.38-.52,0-1.05,.08-1.52,.58-.67,.72-.67,1.72-.67,2.42v5.45h-2.45v-10.52Z" style="fill:#646464;"/><path d="M160.02,646.18c-.45,.8-1.1,1.5-1.77,1.92-.85,.55-1.97,.8-3.1,.8-1.4,0-2.55-.35-3.55-1.35-1-1-1.55-2.45-1.55-4.02s.57-3.2,1.67-4.32c.88-.87,2.02-1.42,3.52-1.42,1.67,0,2.75,.73,3.37,1.38,1.35,1.4,1.47,3.35,1.47,4.45v.3h-7.55c.05,.75,.38,1.6,.9,2.12,.57,.58,1.27,.67,1.87,.67,.67,0,1.17-.15,1.67-.52,.42-.33,.75-.75,.97-1.15l2.05,1.15Zm-2.42-4.27c-.1-.57-.38-1.07-.75-1.42-.32-.3-.85-.6-1.65-.6-.85,0-1.4,.35-1.72,.67-.35,.33-.62,.83-.75,1.35h4.87Z" style="fill:#646464;"/><path d="M171.9,631.91c2.02,0,3.32,.25,4.4,.97,1.82,1.22,1.97,3.2,1.97,3.92,0,2.4-1.47,4.15-3.7,4.65l5.2,7.12h-3.07l-4.77-6.82h-.45v6.82h-2.55v-16.67h2.97Zm-.42,7.65h.8c.7,0,3.55-.08,3.55-2.72,0-2.35-2.22-2.57-3.47-2.57h-.88v5.3Z" style="fill:#646464;"/><path d="M189.52,638.06h2.45v10.52h-2.45v-1.1c-1.07,1.25-2.4,1.42-3.15,1.42-3.25,0-5.1-2.7-5.1-5.6,0-3.42,2.35-5.52,5.12-5.52,.77,0,2.12,.2,3.12,1.5v-1.22Zm-5.75,5.3c0,1.82,1.15,3.35,2.92,3.35,1.55,0,2.97-1.12,2.97-3.32s-1.42-3.4-2.97-3.4c-1.77,0-2.92,1.5-2.92,3.37Z" style="fill:#646464;"/><path d="M203.22,641.28c-1.12-1.1-2.22-1.3-2.97-1.3-1.15,0-1.87,.47-2.32,.92-.45,.45-.9,1.25-.9,2.42s.48,2.05,.95,2.52c.55,.53,1.32,.85,2.22,.85,1,0,2.17-.4,3.02-1.35v2.72c-.6,.38-1.57,.83-3.2,.83-1.75,0-3-.5-4-1.55-.75-.77-1.5-2.02-1.5-3.95s.82-3.3,1.6-4.07c.82-.82,2.15-1.55,4.22-1.55,.8,0,1.75,.12,2.87,.75v2.75Z" style="fill:#646464;"/><path d="M214.99,646.18c-.45,.8-1.1,1.5-1.77,1.92-.85,.55-1.97,.8-3.1,.8-1.4,0-2.55-.35-3.55-1.35-1-1-1.55-2.45-1.55-4.02s.57-3.2,1.67-4.32c.88-.87,2.02-1.42,3.52-1.42,1.67,0,2.75,.73,3.37,1.38,1.35,1.4,1.47,3.35,1.47,4.45v.3h-7.55c.05,.75,.38,1.6,.9,2.12,.57,.58,1.27,.67,1.87,.67,.67,0,1.17-.15,1.67-.52,.42-.33,.75-.75,.97-1.15l2.05,1.15Zm-2.42-4.27c-.1-.57-.38-1.07-.75-1.42-.32-.3-.85-.6-1.65-.6-.85,0-1.4,.35-1.72,.67-.35,.33-.62,.83-.75,1.35h4.87Z" style="fill:#646464;"/><path d="M222.22,640.83c-.25-.4-.72-.9-1.5-.9-.35,0-.6,.12-.75,.27-.12,.12-.22,.33-.22,.55,0,.28,.12,.45,.35,.6,.15,.1,.3,.15,.82,.43l1.25,.62c.55,.28,1.07,.55,1.47,.98,.57,.57,.77,1.22,.77,1.95,0,.95-.35,1.77-.92,2.4-.82,.9-1.85,1.17-2.95,1.17-.68,0-1.52-.1-2.27-.67-.6-.45-1.1-1.17-1.35-1.92l2-.95c.12,.35,.35,.8,.58,1,.15,.15,.5,.4,1.07,.4,.38,0,.77-.12,1-.35,.2-.2,.35-.52,.35-.82s-.1-.55-.33-.8c-.3-.3-.65-.48-1.05-.65l-.9-.42c-.48-.22-1.05-.5-1.45-.9-.55-.53-.75-1.1-.75-1.77,0-.85,.33-1.67,.88-2.25,.47-.5,1.27-1,2.57-1,.75,0,1.35,.15,1.95,.55,.35,.22,.82,.62,1.2,1.3l-1.82,1.2Z" style="fill:#646464;"/><path d="M226.57,652.13c.62-1.47,1.2-3.25,1.52-4.65,.27-1.25,.57-3.17,.57-5.9,0-2.1-.2-4.3-.6-6.1-.3-1.38-.85-3.05-1.5-4.52l2.25-.87c.77,1.62,1.25,3.07,1.65,4.87,.55,2.45,.7,4.3,.7,6.62s-.12,4.02-.65,6.37c-.4,1.77-.9,3.35-1.7,5.05l-2.25-.88Z" style="fill:#646464;"/><path d="M177.47,703.91l4.4,11.15,4.5-11.95,4.35,11.95,4.55-11.15h2.75l-7.45,17.75-4.35-11.82-4.4,11.82-7.1-17.75h2.75Z" style="fill:#646464;"/><path d="M198.92,702.36h2.45v8.6c1.05-1.07,2.2-1.17,2.82-1.17,1.92,0,2.8,1,3.1,1.42,.65,.95,.68,2.17,.68,2.92v6.45h-2.45v-6.22c0-.62,0-1.3-.47-1.82-.27-.3-.75-.55-1.38-.55-.82,0-1.47,.4-1.8,.88-.35,.5-.5,1.3-.5,2.65v5.07h-2.45v-18.22Z" style="fill:#646464;"/><path d="M212.3,704.13c.9,0,1.57,.67,1.57,1.58s-.67,1.57-1.57,1.57-1.57-.67-1.57-1.57,.67-1.58,1.57-1.58Zm1.22,5.92v10.52h-2.45v-10.52h2.45Z" style="fill:#646464;"/><path d="M219.15,712.31v8.27h-2.45v-8.27h-1.02v-2.25h1.02v-3.85h2.45v3.85h1.87v2.25h-1.87Z" style="fill:#646464;"/><path d="M232.09,718.18c-.45,.8-1.1,1.5-1.77,1.92-.85,.55-1.97,.8-3.1,.8-1.4,0-2.55-.35-3.55-1.35-1-1-1.55-2.45-1.55-4.02s.58-3.2,1.67-4.32c.88-.87,2.02-1.42,3.52-1.42,1.67,0,2.75,.73,3.37,1.38,1.35,1.4,1.47,3.35,1.47,4.45v.3h-7.55c.05,.75,.38,1.6,.9,2.12,.57,.58,1.27,.67,1.87,.67,.67,0,1.17-.15,1.67-.52,.42-.33,.75-.75,.97-1.15l2.05,1.15Zm-2.42-4.27c-.1-.57-.38-1.07-.75-1.42-.33-.3-.85-.6-1.65-.6-.85,0-1.4,.35-1.72,.67-.35,.33-.62,.83-.75,1.35h4.87Z" style="fill:#646464;"/></g><g><path d="M234.34,784.4c-2.52-2.88-3.06-6.66-3.06-9.79s.54-6.95,3.06-9.83c1.51-1.73,3.31-2.59,5.44-2.59s3.92,.86,5.44,2.59c2.52,2.88,3.06,6.73,3.06,9.83s-.54,6.91-3.06,9.79c-1.51,1.73-3.28,2.59-5.44,2.59s-3.92-.86-5.44-2.59Zm2.2-16.99c-1.33,1.98-1.66,5.08-1.66,7.16s.32,5.18,1.66,7.2c1.04,1.58,2.3,1.98,3.24,1.98s2.2-.4,3.24-1.98c1.33-2.02,1.66-5.08,1.66-7.2s-.32-5.18-1.66-7.16c-1.04-1.58-2.3-1.98-3.24-1.98s-2.2,.4-3.24,1.98Z" style="fill:#646464;"/><path d="M262.78,768.02c0,3.06-2.59,5.65-5.8,5.65s-5.79-2.59-5.79-5.65,2.63-5.65,5.79-5.65,5.8,2.56,5.8,5.65Zm-2.81,0c0-1.4-1.01-3.06-2.99-3.06s-2.99,1.66-2.99,3.06,1.01,3.06,2.99,3.06,2.99-1.66,2.99-3.06Zm10.62-5.83l1.69,.97-13.71,23.83-1.69-1.04,13.71-23.76Zm7.38,19.01c0,3.06-2.59,5.65-5.79,5.65s-5.8-2.59-5.8-5.65,2.63-5.65,5.8-5.65,5.79,2.56,5.79,5.65Zm-2.81,0c0-1.4-1.01-3.06-2.99-3.06s-2.99,1.66-2.99,3.06,1.01,3.06,2.99,3.06,2.99-1.66,2.99-3.06Z" style="fill:#646464;"/></g><g><path d="M343.68,765.97h-4.18l2.02-3.38h5.83v24.01h-3.67v-20.62Z" style="fill:#646464;"/><path d="M357.21,784.4c-2.52-2.88-3.06-6.66-3.06-9.79s.54-6.95,3.06-9.83c1.51-1.73,3.31-2.59,5.44-2.59s3.92,.86,5.44,2.59c2.52,2.88,3.06,6.73,3.06,9.83s-.54,6.91-3.06,9.79c-1.51,1.73-3.28,2.59-5.44,2.59s-3.92-.86-5.44-2.59Zm2.2-16.99c-1.33,1.98-1.66,5.08-1.66,7.16s.32,5.18,1.66,7.2c1.04,1.58,2.3,1.98,3.24,1.98s2.2-.4,3.24-1.98c1.33-2.02,1.66-5.08,1.66-7.2s-.32-5.18-1.66-7.16c-1.04-1.58-2.3-1.98-3.24-1.98s-2.2,.4-3.24,1.98Z" style="fill:#646464;"/><path d="M385.65,768.02c0,3.06-2.59,5.65-5.8,5.65s-5.79-2.59-5.79-5.65,2.63-5.65,5.79-5.65,5.8,2.56,5.8,5.65Zm-2.81,0c0-1.4-1.01-3.06-2.99-3.06s-2.99,1.66-2.99,3.06,1.01,3.06,2.99,3.06,2.99-1.66,2.99-3.06Zm10.62-5.83l1.69,.97-13.71,23.83-1.69-1.04,13.71-23.76Zm7.38,19.01c0,3.06-2.59,5.65-5.79,5.65s-5.8-2.59-5.8-5.65,2.63-5.65,5.8-5.65,5.79,2.56,5.79,5.65Zm-2.81,0c0-1.4-1.01-3.06-2.99-3.06s-2.99,1.66-2.99,3.06,1.01,3.06,2.99,3.06,2.99-1.66,2.99-3.06Z" style="fill:#646464;"/></g><g><path d="M467.68,786.6h-16.13l8.31-10.08c.83-1.01,2.09-2.59,2.88-3.74,.68-1.01,1.26-2.05,1.26-3.46,0-2.02-1.33-3.89-4-3.89s-4.1,2.09-4.25,4.36h-3.53c.11-2.34,1.08-4.21,2.02-5.26,.86-.97,2.59-2.34,5.62-2.34,5.11,0,7.74,3.49,7.74,7.24,0,1.98-.76,3.6-1.73,5.04-.86,1.3-1.98,2.63-3.42,4.32l-3.74,4.43h8.96v3.38Z" style="fill:#646464;"/><path d="M475.56,784.4c-2.52-2.88-3.06-6.66-3.06-9.79s.54-6.95,3.06-9.83c1.51-1.73,3.31-2.59,5.44-2.59s3.92,.86,5.44,2.59c2.52,2.88,3.06,6.73,3.06,9.83s-.54,6.91-3.06,9.79c-1.51,1.73-3.28,2.59-5.44,2.59s-3.92-.86-5.44-2.59Zm2.2-16.99c-1.33,1.98-1.66,5.08-1.66,7.16s.32,5.18,1.66,7.2c1.04,1.58,2.3,1.98,3.24,1.98s2.2-.4,3.24-1.98c1.33-2.02,1.66-5.08,1.66-7.2s-.32-5.18-1.66-7.16c-1.04-1.58-2.3-1.98-3.24-1.98s-2.2,.4-3.24,1.98Z" style="fill:#646464;"/><path d="M504,768.02c0,3.06-2.59,5.65-5.79,5.65s-5.79-2.59-5.79-5.65,2.63-5.65,5.79-5.65,5.79,2.56,5.79,5.65Zm-2.81,0c0-1.4-1.01-3.06-2.99-3.06s-2.99,1.66-2.99,3.06,1.01,3.06,2.99,3.06,2.99-1.66,2.99-3.06Zm10.62-5.83l1.69,.97-13.71,23.83-1.69-1.04,13.71-23.76Zm7.38,19.01c0,3.06-2.59,5.65-5.79,5.65s-5.8-2.59-5.8-5.65,2.63-5.65,5.8-5.65,5.79,2.56,5.79,5.65Zm-2.81,0c0-1.4-1.01-3.06-2.99-3.06s-2.99,1.66-2.99,3.06,1.01,3.06,2.99,3.06,2.99-1.66,2.99-3.06Z" style="fill:#646464;"/></g><g><path d="M569.78,768.71c.11-1.94,.94-3.6,2.05-4.68,1.66-1.58,3.67-1.84,5.26-1.84,1.83,0,3.63,.36,5.18,1.98,1.26,1.3,1.73,2.84,1.73,4.57,0,1.15-.22,2.16-.83,3.17-.65,1.04-1.47,1.66-2.16,2.02,1.22,.47,1.98,1.29,2.38,1.91,.68,1.01,1.01,2.34,1.01,3.71,0,2.38-.9,4.21-2.05,5.36-1.73,1.73-4,2.09-5.87,2.09s-3.82-.36-5.36-2.02c-1.08-1.15-1.87-3.06-2.05-4.9h3.53c.18,1.08,.68,2.02,1.3,2.59,.5,.47,1.4,1.08,2.92,1.08,1.12,0,2.16-.43,2.81-1.01,.68-.65,1.26-1.76,1.26-3.38,0-.79-.14-1.94-1.08-2.84-1.04-1.01-2.34-1.08-3.1-1.08h-.72v-3.1h.5c1.55,0,2.52-.5,3.06-1.04,.58-.58,.94-1.48,.94-2.56,0-1.26-.54-2.02-.94-2.41-.83-.79-1.84-.9-2.56-.9-.86,0-1.87,.14-2.66,.97-.83,.86-1.01,2.16-1.01,2.3h-3.53Z" style="fill:#646464;"/><path d="M592.56,784.4c-2.52-2.88-3.06-6.66-3.06-9.79s.54-6.95,3.06-9.83c1.51-1.73,3.31-2.59,5.43-2.59s3.92,.86,5.44,2.59c2.52,2.88,3.06,6.73,3.06,9.83s-.54,6.91-3.06,9.79c-1.51,1.73-3.28,2.59-5.44,2.59s-3.92-.86-5.43-2.59Zm2.2-16.99c-1.33,1.98-1.66,5.08-1.66,7.16s.32,5.18,1.66,7.2c1.04,1.58,2.3,1.98,3.24,1.98s2.2-.4,3.24-1.98c1.33-2.02,1.66-5.08,1.66-7.2s-.32-5.18-1.66-7.16c-1.04-1.58-2.3-1.98-3.24-1.98s-2.2,.4-3.24,1.98Z" style="fill:#646464;"/><path d="M621,768.02c0,3.06-2.59,5.65-5.79,5.65s-5.79-2.59-5.79-5.65,2.63-5.65,5.79-5.65,5.79,2.56,5.79,5.65Zm-2.81,0c0-1.4-1.01-3.06-2.99-3.06s-2.99,1.66-2.99,3.06,1.01,3.06,2.99,3.06,2.99-1.66,2.99-3.06Zm10.62-5.83l1.69,.97-13.71,23.83-1.69-1.04,13.71-23.76Zm7.38,19.01c0,3.06-2.59,5.65-5.79,5.65s-5.8-2.59-5.8-5.65,2.63-5.65,5.8-5.65,5.79,2.56,5.79,5.65Zm-2.81,0c0-1.4-1.01-3.06-2.99-3.06s-2.99,1.66-2.99,3.06,1.01,3.06,2.99,3.06,2.99-1.66,2.99-3.06Z" style="fill:#646464;"/></g><g><path d="M698.46,778.68h2.59v3.38h-2.59v4.54h-3.53v-4.54h-11.88l15.41-21.24v17.85Zm-3.53,.07v-7.74l-5.47,7.74h5.47Z" style="fill:#646464;"/><path d="M707.56,784.4c-2.52-2.88-3.06-6.66-3.06-9.79s.54-6.95,3.06-9.83c1.51-1.73,3.31-2.59,5.43-2.59s3.92,.86,5.44,2.59c2.52,2.88,3.06,6.73,3.06,9.83s-.54,6.91-3.06,9.79c-1.51,1.73-3.28,2.59-5.44,2.59s-3.92-.86-5.43-2.59Zm2.2-16.99c-1.33,1.98-1.66,5.08-1.66,7.16s.32,5.18,1.66,7.2c1.04,1.58,2.3,1.98,3.24,1.98s2.2-.4,3.24-1.98c1.33-2.02,1.66-5.08,1.66-7.2s-.32-5.18-1.66-7.16c-1.04-1.58-2.3-1.98-3.24-1.98s-2.2,.4-3.24,1.98Z" style="fill:#646464;"/><path d="M736,768.02c0,3.06-2.59,5.65-5.79,5.65s-5.79-2.59-5.79-5.65,2.63-5.65,5.79-5.65,5.79,2.56,5.79,5.65Zm-2.81,0c0-1.4-1.01-3.06-2.99-3.06s-2.99,1.66-2.99,3.06,1.01,3.06,2.99,3.06,2.99-1.66,2.99-3.06Zm10.62-5.83l1.69,.97-13.71,23.83-1.69-1.04,13.71-23.76Zm7.38,19.01c0,3.06-2.59,5.65-5.79,5.65s-5.8-2.59-5.8-5.65,2.63-5.65,5.8-5.65,5.79,2.56,5.79,5.65Zm-2.81,0c0-1.4-1.01-3.06-2.99-3.06s-2.99,1.66-2.99,3.06,1.01,3.06,2.99,3.06,2.99-1.66,2.99-3.06Z" style="fill:#646464;"/></g><g><path d="M818.5,765.97h-7.41l-1.19,4c.36-.04,.76-.07,1.12-.07,2.02,0,4.07,.68,5.54,2.12,1.15,1.12,2.34,3.02,2.34,6.16,0,2.63-.83,4.75-2.45,6.37-1.91,1.87-4.21,2.45-6.66,2.45-1.4,0-3.06-.18-4.61-1.08-.36-.22-1.73-1.04-2.84-2.77l2.77-2.3c.07,.18,.72,1.37,1.84,2.09,.79,.54,1.91,.83,3.13,.83,1.94,0,3.06-.76,3.67-1.33,.72-.72,1.55-2.02,1.55-4.07s-.68-3.17-1.44-3.89c-1.19-1.12-2.77-1.33-3.92-1.33-1.04,0-1.84,.14-2.81,.5-.76,.29-1.44,.61-2.12,1.08l3.56-12.13h9.93v3.38Z" style="fill:#646464;"/><path d="M826.56,784.4c-2.52-2.88-3.06-6.66-3.06-9.79s.54-6.95,3.06-9.83c1.51-1.73,3.31-2.59,5.43-2.59s3.92,.86,5.44,2.59c2.52,2.88,3.06,6.73,3.06,9.83s-.54,6.91-3.06,9.79c-1.51,1.73-3.28,2.59-5.44,2.59s-3.92-.86-5.43-2.59Zm2.2-16.99c-1.33,1.98-1.66,5.08-1.66,7.16s.32,5.18,1.66,7.2c1.04,1.58,2.3,1.98,3.24,1.98s2.2-.4,3.24-1.98c1.33-2.02,1.66-5.08,1.66-7.2s-.32-5.18-1.66-7.16c-1.04-1.58-2.3-1.98-3.24-1.98s-2.2,.4-3.24,1.98Z" style="fill:#646464;"/><path d="M855,768.02c0,3.06-2.59,5.65-5.79,5.65s-5.79-2.59-5.79-5.65,2.63-5.65,5.79-5.65,5.79,2.56,5.79,5.65Zm-2.81,0c0-1.4-1.01-3.06-2.99-3.06s-2.99,1.66-2.99,3.06,1.01,3.06,2.99,3.06,2.99-1.66,2.99-3.06Zm10.62-5.83l1.69,.97-13.71,23.83-1.69-1.04,13.71-23.76Zm7.38,19.01c0,3.06-2.59,5.65-5.79,5.65s-5.8-2.59-5.8-5.65,2.63-5.65,5.8-5.65,5.79,2.56,5.79,5.65Zm-2.81,0c0-1.4-1.01-3.06-2.99-3.06s-2.99,1.66-2.99,3.06,1.01,3.06,2.99,3.06,2.99-1.66,2.99-3.06Z" style="fill:#646464;"/></g><g><path d="M928.52,763.74l-5.72,7.24c.54-.11,1.01-.14,1.51-.14,2.81,0,4.57,1.22,5.54,2.23,1.3,1.37,2.12,3.42,2.12,5.62s-.76,4.46-2.38,6.05c-2.02,1.98-4.61,2.27-6.19,2.27-2.09,0-4.36-.43-6.19-2.34-1.26-1.33-2.09-3.1-2.09-5.44,0-1.76,.4-3.13,1.15-4.61,.9-1.8,1.84-2.88,2.92-4.28l6.66-8.57,2.66,1.98Zm-8.39,11.55c-.79,.76-1.4,2.05-1.4,3.56,0,1.22,.47,2.66,1.4,3.56,.76,.72,2.2,1.33,3.46,1.33,1.12,0,2.48-.43,3.38-1.33,.9-.9,1.4-2.34,1.4-3.56s-.5-2.66-1.4-3.56c-.83-.83-2.16-1.33-3.38-1.33s-2.59,.5-3.46,1.33Z" style="fill:#646464;"/><path d="M938.56,784.4c-2.52-2.88-3.06-6.66-3.06-9.79s.54-6.95,3.06-9.83c1.51-1.73,3.31-2.59,5.43-2.59s3.92,.86,5.44,2.59c2.52,2.88,3.06,6.73,3.06,9.83s-.54,6.91-3.06,9.79c-1.51,1.73-3.28,2.59-5.44,2.59s-3.92-.86-5.43-2.59Zm2.2-16.99c-1.33,1.98-1.66,5.08-1.66,7.16s.32,5.18,1.66,7.2c1.04,1.58,2.3,1.98,3.24,1.98s2.2-.4,3.24-1.98c1.33-2.02,1.66-5.08,1.66-7.2s-.32-5.18-1.66-7.16c-1.04-1.58-2.3-1.98-3.24-1.98s-2.2,.4-3.24,1.98Z" style="fill:#646464;"/><path d="M967,768.02c0,3.06-2.59,5.65-5.79,5.65s-5.79-2.59-5.79-5.65,2.63-5.65,5.79-5.65,5.79,2.56,5.79,5.65Zm-2.81,0c0-1.4-1.01-3.06-2.99-3.06s-2.99,1.66-2.99,3.06,1.01,3.06,2.99,3.06,2.99-1.66,2.99-3.06Zm10.62-5.83l1.69,.97-13.71,23.83-1.69-1.04,13.71-23.76Zm7.38,19.01c0,3.06-2.59,5.65-5.79,5.65s-5.8-2.59-5.8-5.65,2.63-5.65,5.8-5.65,5.79,2.56,5.79,5.65Zm-2.81,0c0-1.4-1.01-3.06-2.99-3.06s-2.99,1.66-2.99,3.06,1.01,3.06,2.99,3.06,2.99-1.66,2.99-3.06Z" style="fill:#646464;"/></g><g><rect x="251" y="594.13" width="37" height="60.19" style="fill:#28509c;"/><g><path d="M329.34,626.29h2.92v4.79h-2.92v4.54h-5.76v-4.54h-11.63v-4l9.25-15.48h8.13v14.69Zm-5.76,0v-9.79l-5.65,9.79h5.65Z" style="fill:#28509c;"/><path d="M336,635.18c-.47-.47-1.12-1.33-1.12-2.63s.65-2.16,1.12-2.63c.86-.86,1.84-1.12,2.63-1.12,.9,0,1.87,.36,2.66,1.15,.61,.61,1.04,1.4,1.04,2.59s-.43,1.98-1.08,2.63c-.76,.76-1.69,1.12-2.63,1.12-.79,0-1.76-.25-2.63-1.12Z" style="fill:#28509c;"/><path d="M364.26,635.61h-19.26l6.08-6.37c2.16-2.27,3.78-4.25,4.93-6.08,.65-1.01,1.3-2.2,1.3-3.74,0-.25,0-1.51-.72-2.3-.36-.4-.97-.72-1.76-.72-1.01,0-1.69,.47-2.09,.97-.58,.76-.83,2.12-.86,2.95h-6.44c.04-3.13,1.4-5.4,2.66-6.66,1.62-1.62,3.82-2.59,6.8-2.59,3.6,0,5.69,1.4,6.77,2.48,.97,.97,2.34,2.81,2.34,5.9s-1.4,5.11-3.56,7.13l-4.03,3.74h7.85v5.29Z" style="fill:#28509c;"/><path d="M368.37,621.21c-1.04-1.12-1.51-2.41-1.51-3.89s.54-3.06,1.48-4.07c1.51-1.69,3.67-1.91,5.04-1.91,2.59,0,4.14,.9,5.11,1.91,.72,.76,1.51,2.02,1.51,3.96,0,1.84-.72,3.13-1.55,4-1.51,1.58-3.53,1.91-5.08,1.91-1.66,0-3.49-.32-5-1.91Zm3.1-5.87c-.47,.5-.72,1.19-.72,1.87,0,.83,.4,1.58,.94,2.05,.43,.39,1.04,.65,1.76,.65s1.44-.32,1.91-.76c.47-.47,.79-1.19,.79-1.94s-.29-1.47-.86-2.02c-.54-.5-1.15-.68-1.84-.68-.83,0-1.55,.36-1.98,.83Zm15.69-3.74h3.13l-13.93,24.01h-3.1l13.89-24.01Zm-2.09,22.39c-1.04-1.12-1.51-2.41-1.51-3.89s.54-3.06,1.48-4.07c1.51-1.69,3.67-1.91,5.04-1.91,2.59,0,4.14,.9,5.11,1.91,.72,.76,1.51,2.02,1.51,3.96,0,1.84-.72,3.13-1.55,3.99-1.51,1.58-3.53,1.91-5.08,1.91-1.66,0-3.49-.32-5-1.91Zm3.1-5.87c-.47,.5-.72,1.19-.72,1.87,0,.83,.4,1.58,.94,2.05,.43,.4,1.04,.65,1.76,.65s1.44-.32,1.91-.76c.47-.47,.79-1.19,.79-1.94s-.29-1.48-.86-2.02c-.54-.5-1.15-.69-1.84-.69-.83,0-1.55,.36-1.98,.83Z" style="fill:#28509c;"/></g></g><g><rect x="251" y="505.27" width="8" height="60.19" style="fill:#28509c;"/><g><path d="M295.7,544.42c-1.87,1.83-4.28,2.73-6.62,2.73s-4.75-.9-6.62-2.73c-2.16-2.12-3.56-5.58-3.56-9.79s1.4-7.7,3.56-9.83c1.87-1.84,4.28-2.73,6.62-2.73s4.75,.9,6.62,2.73c2.16,2.12,3.56,5.58,3.56,9.83s-1.4,7.67-3.56,9.79Zm-8.53-16.02c-1.3,1.12-2.09,4.03-2.09,6.26,0,1.91,.68,5.04,2.09,6.26,.47,.43,1.19,.76,1.91,.76s1.44-.32,1.91-.76c1.33-1.15,2.09-4.18,2.09-6.23s-.83-5.18-2.09-6.3c-.47-.43-1.19-.76-1.91-.76s-1.44,.32-1.91,.76Z" style="fill:#28509c;"/><path d="M302.72,546.18c-.47-.47-1.12-1.33-1.12-2.63s.65-2.16,1.12-2.63c.86-.86,1.84-1.12,2.63-1.12,.9,0,1.87,.36,2.66,1.15,.61,.61,1.04,1.4,1.04,2.59s-.43,1.98-1.08,2.63c-.76,.76-1.69,1.12-2.63,1.12-.79,0-1.76-.25-2.63-1.12Z" style="fill:#28509c;"/><path d="M314.28,546.61l6.8-8.1c-1.01,.54-1.98,.76-3.2,.76-2.05,0-3.89-.61-5.51-2.2-1.94-1.91-2.41-4.14-2.41-5.79,0-2.41,.86-4.57,2.41-6.19,1.4-1.44,3.85-3.02,7.88-3.02,4.43,0,6.77,1.91,7.7,2.84,1.55,1.58,2.38,3.74,2.38,5.94,0,3.63-2.2,6.95-3.64,8.82l-5.36,6.95h-7.06Zm3.28-18.47c-.72,.72-1.19,1.73-1.19,2.74s.5,1.98,1.15,2.59c.72,.68,1.8,1.08,2.81,1.08,.9,0,1.94-.32,2.7-1.01,.72-.65,1.26-1.8,1.26-2.74s-.5-2.02-1.15-2.66c-.65-.61-1.69-1.15-2.81-1.15-.76,0-1.84,.21-2.77,1.15Z" style="fill:#28509c;"/><path d="M333.65,532.21c-1.04-1.12-1.51-2.41-1.51-3.89s.54-3.06,1.48-4.07c1.51-1.69,3.67-1.91,5.04-1.91,2.59,0,4.14,.9,5.11,1.91,.72,.76,1.51,2.02,1.51,3.96,0,1.84-.72,3.13-1.55,4-1.51,1.58-3.53,1.91-5.08,1.91-1.66,0-3.49-.32-5-1.91Zm3.1-5.87c-.47,.5-.72,1.19-.72,1.87,0,.83,.4,1.58,.94,2.05,.43,.39,1.04,.65,1.76,.65s1.44-.32,1.91-.76c.47-.47,.79-1.19,.79-1.94s-.29-1.47-.86-2.02c-.54-.5-1.15-.68-1.84-.68-.83,0-1.55,.36-1.98,.83Zm15.69-3.74h3.13l-13.93,24.01h-3.1l13.89-24.01Zm-2.09,22.39c-1.04-1.12-1.51-2.41-1.51-3.89s.54-3.06,1.48-4.07c1.51-1.69,3.67-1.91,5.04-1.91,2.59,0,4.14,.9,5.11,1.91,.72,.76,1.51,2.02,1.51,3.96,0,1.84-.72,3.13-1.55,3.99-1.51,1.58-3.53,1.91-5.08,1.91-1.66,0-3.49-.32-5-1.91Zm3.1-5.87c-.47,.5-.72,1.19-.72,1.87,0,.83,.4,1.58,.94,2.05,.43,.4,1.04,.65,1.76,.65s1.44-.32,1.91-.76c.47-.47,.79-1.19,.79-1.94s-.29-1.48-.86-2.02c-.54-.5-1.15-.69-1.84-.69-.83,0-1.55,.36-1.98,.83Z" style="fill:#28509c;"/></g></g><g><rect x="251" y="418.4" width="99" height="60.19" style="fill:#28509c;"/><g><path d="M369.29,459.61l6.8-8.1c-1.01,.54-1.98,.76-3.2,.76-2.05,0-3.89-.61-5.51-2.2-1.94-1.91-2.41-4.14-2.41-5.79,0-2.41,.86-4.57,2.41-6.19,1.4-1.44,3.85-3.02,7.88-3.02,4.43,0,6.77,1.91,7.7,2.84,1.55,1.58,2.38,3.74,2.38,5.94,0,3.63-2.2,6.95-3.64,8.82l-5.36,6.95h-7.06Zm3.28-18.47c-.72,.72-1.19,1.73-1.19,2.74s.5,1.98,1.15,2.59c.72,.68,1.8,1.08,2.81,1.08,.9,0,1.94-.32,2.7-1.01,.72-.65,1.26-1.8,1.26-2.74s-.5-2.02-1.15-2.66c-.65-.61-1.69-1.15-2.81-1.15-.76,0-1.84,.21-2.77,1.15Z" style="fill:#28509c;"/><path d="M388.08,459.18c-.47-.47-1.12-1.33-1.12-2.63s.65-2.16,1.12-2.63c.86-.86,1.84-1.12,2.63-1.12,.9,0,1.87,.36,2.66,1.15,.61,.61,1.04,1.4,1.04,2.59s-.43,1.98-1.08,2.63c-.76,.76-1.69,1.12-2.63,1.12-.79,0-1.76-.25-2.63-1.12Z" style="fill:#28509c;"/><path d="M401.69,440.89h-3.42v-5.29h9.65v24.01h-6.23v-18.72Z" style="fill:#28509c;"/><path d="M417.57,445.21c-1.04-1.12-1.51-2.41-1.51-3.89s.54-3.06,1.48-4.07c1.51-1.69,3.67-1.91,5.04-1.91,2.59,0,4.14,.9,5.11,1.91,.72,.76,1.51,2.02,1.51,3.96,0,1.84-.72,3.13-1.55,4-1.51,1.58-3.53,1.91-5.08,1.91-1.66,0-3.49-.32-5-1.91Zm3.1-5.87c-.47,.5-.72,1.19-.72,1.87,0,.83,.4,1.58,.94,2.05,.43,.39,1.04,.65,1.76,.65s1.44-.32,1.91-.76c.47-.47,.79-1.19,.79-1.94s-.29-1.47-.86-2.02c-.54-.5-1.15-.68-1.84-.68-.83,0-1.55,.36-1.98,.83Zm15.69-3.74h3.13l-13.93,24.01h-3.1l13.89-24.01Zm-2.09,22.39c-1.04-1.12-1.51-2.41-1.51-3.89s.54-3.06,1.48-4.07c1.51-1.69,3.67-1.91,5.04-1.91,2.59,0,4.14,.9,5.11,1.91,.72,.76,1.51,2.02,1.51,3.96,0,1.84-.72,3.13-1.55,3.99-1.51,1.58-3.53,1.91-5.08,1.91-1.66,0-3.49-.32-5-1.91Zm3.1-5.87c-.47,.5-.72,1.19-.72,1.87,0,.83,.4,1.58,.94,2.05,.43,.4,1.04,.65,1.76,.65s1.44-.32,1.91-.76c.47-.47,.79-1.19,.79-1.94s-.29-1.48-.86-2.02c-.54-.5-1.15-.69-1.84-.69-.83,0-1.55,.36-1.98,.83Z" style="fill:#28509c;"/></g></g><g><rect x="251" y="158.81" width="7" height="60.19" style="fill:#28509c;"/><g><path d="M289.47,195.42c-1.87,1.84-4.28,2.74-6.62,2.74s-4.75-.9-6.62-2.74c-2.16-2.12-3.56-5.58-3.56-9.79s1.4-7.7,3.56-9.83c1.87-1.84,4.28-2.74,6.62-2.74s4.75,.9,6.62,2.74c2.16,2.12,3.56,5.58,3.56,9.83s-1.4,7.67-3.56,9.79Zm-8.53-16.02c-1.3,1.12-2.09,4.03-2.09,6.26,0,1.91,.68,5.04,2.09,6.26,.47,.43,1.19,.76,1.91,.76s1.44-.32,1.91-.76c1.33-1.15,2.09-4.17,2.09-6.23s-.83-5.18-2.09-6.3c-.47-.43-1.19-.76-1.91-.76s-1.44,.32-1.91,.76Z" style="fill:#28509c;"/><path d="M296.49,197.18c-.47-.47-1.12-1.33-1.12-2.63s.65-2.16,1.12-2.63c.86-.86,1.84-1.12,2.63-1.12,.9,0,1.87,.36,2.66,1.15,.61,.61,1.04,1.4,1.04,2.59s-.43,1.98-1.08,2.63c-.76,.76-1.69,1.12-2.63,1.12-.79,0-1.76-.25-2.63-1.12Z" style="fill:#28509c;"/><path d="M310.1,178.89h-3.42v-5.29h9.65v24.01h-6.23v-18.72Z" style="fill:#28509c;"/><path d="M325.97,183.21c-1.04-1.12-1.51-2.41-1.51-3.89,0-1.55,.54-3.06,1.48-4.07,1.51-1.69,3.67-1.91,5.04-1.91,2.59,0,4.14,.9,5.11,1.91,.72,.76,1.51,2.02,1.51,3.96,0,1.84-.72,3.13-1.55,3.99-1.51,1.58-3.53,1.91-5.08,1.91-1.66,0-3.49-.32-5-1.91Zm3.1-5.87c-.47,.5-.72,1.19-.72,1.87,0,.83,.4,1.58,.94,2.05,.43,.4,1.04,.65,1.76,.65s1.44-.32,1.91-.76c.47-.47,.79-1.19,.79-1.94s-.29-1.48-.86-2.02c-.54-.5-1.15-.69-1.84-.69-.83,0-1.55,.36-1.98,.83Zm15.69-3.74h3.13l-13.93,24.01h-3.1l13.89-24.01Zm-2.09,22.39c-1.04-1.12-1.51-2.41-1.51-3.89,0-1.55,.54-3.06,1.48-4.07,1.51-1.69,3.67-1.91,5.04-1.91,2.59,0,4.14,.9,5.11,1.91,.72,.76,1.51,2.02,1.51,3.96,0,1.84-.72,3.13-1.55,4-1.51,1.58-3.53,1.91-5.08,1.91-1.66,0-3.49-.32-5-1.91Zm3.1-5.87c-.47,.5-.72,1.19-.72,1.87,0,.83,.4,1.58,.94,2.05,.43,.39,1.04,.65,1.76,.65s1.44-.32,1.91-.76c.47-.47,.79-1.19,.79-1.94s-.29-1.47-.86-2.02c-.54-.5-1.15-.68-1.84-.68-.83,0-1.55,.36-1.98,.83Z" style="fill:#28509c;"/></g></g><g><path d="M70.98,23.22V57.91h-9V23.22h9Z" style="fill:#28509c;"/><path d="M77.48,34.66h8.32v2.91c2.29-3.02,5.36-3.43,7.38-3.43,2.39,0,4.94,.57,6.86,2.5,1.98,1.98,2.18,3.95,2.18,6.5v14.77h-8.32v-11.75c0-1.35,.05-3.38-1.04-4.52-.78-.83-1.82-.99-2.65-.99-1.3,0-2.39,.47-3.07,1.09-.83,.78-1.35,2.29-1.35,3.69v12.48h-8.32v-23.25Z" style="fill:#28509c;"/><path d="M134.22,57.91h-8.32v-2.55c-2.34,3.02-5.41,3.33-7.02,3.33-3.33,0-5.98-1.09-8.16-3.22-2.34-2.29-3.74-5.56-3.74-9.26,0-3.95,1.66-7.18,3.8-9.21,2.29-2.18,5.36-3.12,8.22-3.12,3.17,0,5.41,1.4,6.92,3.02V20h8.32V57.91Zm-9.83-7.7c1.09-.99,1.77-2.55,1.77-3.95,0-1.3-.73-2.86-1.56-3.74-.94-.99-2.24-1.56-3.8-1.56-1.77,0-2.96,.78-3.69,1.51-.94,.94-1.61,2.39-1.61,3.95,0,1.2,.52,2.55,1.61,3.64,1.14,1.14,2.5,1.56,3.69,1.56,1.35,0,2.7-.62,3.59-1.4Z" style="fill:#28509c;"/><path d="M144.09,20.31c2.6,0,4.68,2.08,4.68,4.68s-2.08,4.68-4.68,4.68-4.68-2.08-4.68-4.68,2.08-4.68,4.68-4.68Zm4.16,14.35v23.25h-8.32v-23.25h8.32Z" style="fill:#28509c;"/><path d="M160.37,34.66l5.56,11.91,5.67-11.91h9.26l-12.12,23.25h-5.67l-12.01-23.25h9.31Z" style="fill:#28509c;"/><path d="M187.88,20.31c2.6,0,4.68,2.08,4.68,4.68s-2.08,4.68-4.68,4.68-4.68-2.08-4.68-4.68,2.08-4.68,4.68-4.68Zm4.16,14.35v23.25h-8.32v-23.25h8.32Z" style="fill:#28509c;"/><path d="M224.02,57.91h-8.32v-2.55c-2.34,3.02-5.41,3.33-7.02,3.33-3.33,0-5.98-1.09-8.16-3.22-2.34-2.29-3.74-5.56-3.74-9.26,0-3.95,1.66-7.18,3.8-9.21,2.29-2.18,5.36-3.12,8.22-3.12,3.17,0,5.41,1.4,6.92,3.02V20h8.32V57.91Zm-9.83-7.7c1.09-.99,1.77-2.55,1.77-3.95,0-1.3-.73-2.86-1.56-3.74-.94-.99-2.24-1.56-3.8-1.56-1.77,0-2.96,.78-3.69,1.51-.94,.94-1.61,2.39-1.61,3.95,0,1.2,.52,2.55,1.61,3.64,1.14,1.14,2.5,1.56,3.69,1.56,1.35,0,2.7-.62,3.59-1.4Z" style="fill:#28509c;"/><path d="M238.06,34.66v13c0,.94,.16,2.39,1.25,3.38,.83,.73,1.92,.88,2.91,.88,1.04,0,2.03-.1,2.96-.99,1.04-1.04,1.2-2.24,1.2-3.28v-13h8.32v14.51c0,1.98-.16,4.11-2.24,6.24-2.86,2.96-6.86,3.28-10.04,3.28-3.48,0-7.75-.36-10.5-3.33-1.77-1.87-2.18-3.95-2.18-6.19v-14.51h8.32Z" style="fill:#28509c;"/><path d="M278.41,34.66h8.32v23.25h-8.32v-2.55c-1.92,2.65-4.94,3.33-7.23,3.33-2.5,0-5.56-.73-8.37-3.69-2.24-2.39-3.33-5.04-3.33-8.53,0-4.37,1.72-7.44,3.59-9.31,1.98-1.98,5.04-3.28,8.37-3.28,3.74,0,5.98,1.92,6.97,3.02v-2.24Zm-8.74,7.8c-1.14,1.09-1.66,2.6-1.66,3.8,0,1.35,.57,2.81,1.61,3.8,.88,.83,2.34,1.56,3.74,1.56s2.7-.57,3.74-1.61c.73-.73,1.56-1.87,1.56-3.74,0-1.09-.31-2.55-1.61-3.8-.78-.73-1.98-1.51-3.74-1.51-1.04,0-2.44,.36-3.64,1.51Z" style="fill:#28509c;"/><path d="M300.77,20V57.91h-8.32V20h8.32Z" style="fill:#28509c;"/><path d="M344.24,56.97c-3.59,1.3-5.56,1.72-7.8,1.72-6.03,0-10.56-2.39-13.42-5.2-3.38-3.38-5.25-8.11-5.25-12.64,0-4.94,2.13-9.62,5.25-12.79,3.07-3.12,7.7-5.41,13.1-5.41,1.66,0,4.37,.26,8.11,1.77v10.76c-2.91-3.59-6.34-3.8-7.85-3.8-2.6,0-4.58,.78-6.24,2.29-2.13,1.98-3.02,4.68-3.02,7.12s.99,5.04,2.81,6.76c1.51,1.4,3.9,2.39,6.45,2.39,1.35,0,4.68-.16,7.85-3.64v10.66Z" style="fill:#28509c;"/><path d="M372.58,54.84c-3.07,3.02-6.66,3.85-10.4,3.85-3.38,0-7.12-.68-10.35-3.85-2.55-2.5-3.59-5.46-3.59-8.58,0-4.16,1.87-6.86,3.59-8.53,1.92-1.87,5.3-3.85,10.35-3.85s8.48,2.03,10.4,3.85c1.72,1.66,3.59,4.37,3.59,8.53,0,3.12-1.04,6.08-3.59,8.58Zm-14.09-12.38c-1.04,.99-1.61,2.44-1.61,3.8s.68,2.76,1.61,3.69c.99,.99,2.34,1.56,3.74,1.56s2.7-.57,3.69-1.56c1.04-.99,1.61-2.34,1.61-3.69,0-1.25-.57-2.76-1.61-3.8-.94-.88-2.39-1.51-3.69-1.51s-2.81,.62-3.74,1.51Z" style="fill:#28509c;"/><path d="M380.95,34.66h8.32v2.91c2.29-3.02,5.36-3.43,7.38-3.43,2.39,0,4.94,.57,6.86,2.5,1.98,1.98,2.18,3.95,2.18,6.5v14.77h-8.32v-11.75c0-1.35,.05-3.38-1.04-4.52-.78-.83-1.82-.99-2.65-.99-1.3,0-2.39,.47-3.07,1.09-.83,.78-1.35,2.29-1.35,3.69v12.48h-8.32v-23.25Z" style="fill:#28509c;"/><path d="M420.58,41.47v16.43h-8.32v-16.43h-2.65v-6.81h2.65v-7.64h8.32v7.64h4.73v6.81h-4.73Z" style="fill:#28509c;"/><path d="M428.43,34.66h8.32v3.8c.83-1.56,2.03-2.6,3.28-3.22,1.25-.68,2.76-.94,4.32-.94,.21,0,.57,.05,1.66,.1v7.85c-.42-.21-1.56-.83-3.59-.83-1.09,0-2.6,.16-3.8,1.25-1.77,1.61-1.87,4.06-1.87,5.3v9.93h-8.32v-23.25Z" style="fill:#28509c;"/><path d="M453.85,20.31c2.6,0,4.68,2.08,4.68,4.68s-2.08,4.68-4.68,4.68-4.68-2.08-4.68-4.68,2.08-4.68,4.68-4.68Zm4.16,14.35v23.25h-8.32v-23.25h8.32Z" style="fill:#28509c;"/><path d="M472,20v16.9c1.51-1.61,3.74-3.02,6.92-3.02,2.86,0,5.93,.94,8.22,3.12,2.13,2.03,3.8,5.25,3.8,9.21,0,3.69-1.4,6.97-3.74,9.26-2.18,2.13-4.84,3.22-8.16,3.22-1.61,0-4.68-.31-7.02-3.33v2.55h-8.32V20h8.32Zm8.79,30.06c1.09-1.09,1.61-2.44,1.61-3.64,0-1.56-.68-3.02-1.61-3.95-.73-.73-1.92-1.51-3.69-1.51-1.56,0-2.86,.57-3.8,1.56-.83,.88-1.56,2.44-1.56,3.74,0,1.4,.68,2.96,1.77,3.95,.88,.78,2.24,1.4,3.59,1.4,1.2,0,2.55-.42,3.69-1.56Z" style="fill:#28509c;"/><path d="M504.03,34.66v13c0,.94,.16,2.39,1.25,3.38,.83,.73,1.92,.88,2.91,.88,1.04,0,2.03-.1,2.96-.99,1.04-1.04,1.2-2.24,1.2-3.28v-13h8.32v14.51c0,1.98-.16,4.11-2.24,6.24-2.86,2.96-6.86,3.28-10.04,3.28-3.48,0-7.75-.36-10.5-3.33-1.77-1.87-2.18-3.95-2.18-6.19v-14.51h8.32Z" style="fill:#28509c;"/><path d="M535.6,41.47v16.43h-8.32v-16.43h-2.65v-6.81h2.65v-7.64h8.32v7.64h4.73v6.81h-4.73Z" style="fill:#28509c;"/><path d="M566.85,54.84c-3.07,3.02-6.66,3.85-10.4,3.85-3.38,0-7.12-.68-10.35-3.85-2.55-2.5-3.59-5.46-3.59-8.58,0-4.16,1.87-6.86,3.59-8.53,1.92-1.87,5.3-3.85,10.35-3.85s8.48,2.03,10.4,3.85c1.72,1.66,3.59,4.37,3.59,8.53,0,3.12-1.04,6.08-3.59,8.58Zm-14.09-12.38c-1.04,.99-1.61,2.44-1.61,3.8s.68,2.76,1.61,3.69c.99,.99,2.34,1.56,3.74,1.56s2.7-.57,3.69-1.56c1.04-.99,1.61-2.34,1.61-3.69,0-1.25-.57-2.76-1.61-3.8-.94-.88-2.39-1.51-3.69-1.51s-2.81,.62-3.74,1.51Z" style="fill:#28509c;"/><path d="M575.22,34.66h8.32v3.8c.83-1.56,2.03-2.6,3.28-3.22,1.25-.68,2.76-.94,4.32-.94,.21,0,.57,.05,1.66,.1v7.85c-.42-.21-1.56-.83-3.59-.83-1.09,0-2.6,.16-3.8,1.25-1.77,1.61-1.87,4.06-1.87,5.3v9.93h-8.32v-23.25Z" style="fill:#28509c;"/><path d="M598,50.21c.99,.73,2.18,1.35,3.33,1.72,1.04,.36,2.34,.57,3.22,.57,.62,0,1.61-.16,2.13-.62,.36-.36,.42-.68,.42-1.09,0-.36-.05-.73-.42-1.04-.52-.47-1.35-.62-2.18-.83l-2.18-.52c-1.14-.26-2.81-.68-4.06-2.03-.88-.94-1.51-2.24-1.51-4,0-2.24,.88-4.32,2.18-5.67,1.77-1.82,4.89-2.81,8.32-2.81s6.08,.94,7.44,1.51l-2.81,5.3c-1.14-.52-2.86-1.14-4.37-1.14-.83,0-1.4,.16-1.92,.47-.47,.26-.73,.62-.73,1.14,0,.73,.47,1.09,.99,1.3,.78,.31,1.46,.31,2.76,.68l1.51,.42c1.09,.31,2.76,1.14,3.43,1.82,1.14,1.09,1.77,2.91,1.77,4.63,0,2.81-1.2,4.68-2.34,5.77-2.7,2.7-6.66,2.91-8.58,2.91-2.08,0-5.36-.26-9.36-2.7l2.96-5.77Z" style="fill:#28509c;"/><path d="M622.17,49.22h7.8l-8.94,16.43h-5.36l6.5-16.43Z" style="fill:#28509c;"/><path d="M650.62,47.51c1.92,1.82,4.84,3.54,7.96,3.54,1.82,0,2.91-.57,3.48-1.2,.52-.52,.88-1.3,.88-2.18,0-.68-.26-1.46-.99-2.08-.88-.78-2.24-1.14-4.47-1.82l-2.34-.73c-1.46-.47-3.59-1.25-4.99-2.81-1.77-1.92-1.98-4.37-1.98-6.14,0-4.26,1.66-6.86,3.17-8.37,1.77-1.77,4.68-3.28,8.89-3.28,3.43,0,7.44,1.09,10.71,2.81l-3.59,7.02c-2.7-2.13-4.73-2.34-5.93-2.34-.88,0-2.08,.21-2.96,1.04-.52,.52-.88,1.09-.88,1.87,0,.62,.1,1.09,.47,1.56,.26,.31,.88,.94,3.02,1.56l2.76,.83c2.18,.68,4.47,1.46,6.29,3.43,1.77,1.87,2.24,3.8,2.24,6.19,0,3.17-.78,6.24-3.28,8.74-2.96,2.96-6.55,3.54-10.24,3.54-2.18,0-4.26-.21-6.81-1.14-.57-.21-2.76-1.04-5.25-2.76l3.85-7.28Z" style="fill:#28509c;"/><path d="M685.56,34.66v13c0,.94,.16,2.39,1.25,3.38,.83,.73,1.92,.88,2.91,.88,1.04,0,2.03-.1,2.96-.99,1.04-1.04,1.2-2.24,1.2-3.28v-13h8.32v14.51c0,1.98-.16,4.11-2.24,6.24-2.86,2.96-6.86,3.28-10.04,3.28-3.48,0-7.75-.36-10.5-3.33-1.77-1.87-2.18-3.95-2.18-6.19v-14.51h8.32Z" style="fill:#28509c;"/><path d="M716.24,69.82h-8.32V34.66h8.32v2.55c1.46-1.82,3.69-3.33,7.12-3.33s6.4,1.51,8.27,3.38,3.54,4.99,3.54,9-1.51,7.02-3.74,9.2c-2.6,2.55-5.62,3.22-7.96,3.22-1.51,0-4.63-.31-7.23-3.02v14.14Zm1.35-27.3c-1.04,1.04-1.61,2.55-1.61,3.85s.73,2.81,1.61,3.69c.99,.99,2.34,1.56,3.74,1.56s2.76-.57,3.69-1.56c.88-.88,1.61-2.29,1.61-3.69,0-1.3-.57-2.81-1.61-3.85-.94-.99-2.24-1.56-3.69-1.56s-2.76,.57-3.74,1.56Z" style="fill:#28509c;"/><path d="M764.6,47.82h-17.32c0,1.25,.47,2.91,1.46,3.9,.52,.52,1.56,1.14,3.43,1.14,.21,0,1.66-.05,2.71-.62,.52-.31,1.09-.83,1.46-1.56h7.96c-.36,1.3-1.09,3.12-2.81,4.78-1.72,1.66-4.42,3.22-9.46,3.22-3.07,0-6.76-.68-9.62-3.54-1.51-1.51-3.43-4.37-3.43-8.79,0-3.9,1.46-7.02,3.48-9,1.92-1.87,4.94-3.38,9.52-3.38,2.7,0,6.19,.57,8.94,3.17,3.28,3.12,3.69,7.18,3.69,9.78v.88Zm-7.64-4.78c-.21-.88-.73-1.87-1.35-2.5-1.09-1.09-2.6-1.25-3.43-1.25-1.4,0-2.5,.36-3.38,1.25-.57,.62-1.09,1.46-1.25,2.5h9.41Z" style="fill:#28509c;"/><path d="M769.39,34.66h8.32v3.8c.83-1.56,2.03-2.6,3.28-3.22,1.25-.68,2.76-.94,4.32-.94,.21,0,.57,.05,1.66,.1v7.85c-.42-.21-1.56-.83-3.59-.83-1.09,0-2.6,.16-3.8,1.25-1.77,1.61-1.87,4.06-1.87,5.3v9.93h-8.32v-23.25Z" style="fill:#28509c;"/><path d="M797.1,34.66l5.56,11.91,5.67-11.91h9.26l-12.12,23.25h-5.67l-12.01-23.25h9.31Z" style="fill:#28509c;"/><path d="M824.61,20.31c2.6,0,4.68,2.08,4.68,4.68s-2.08,4.68-4.68,4.68-4.68-2.08-4.68-4.68,2.08-4.68,4.68-4.68Zm4.16,14.35v23.25h-8.32v-23.25h8.32Z" style="fill:#28509c;"/><path d="M835.95,50.21c.99,.73,2.18,1.35,3.33,1.72,1.04,.36,2.34,.57,3.22,.57,.62,0,1.61-.16,2.13-.62,.36-.36,.42-.68,.42-1.09,0-.36-.05-.73-.42-1.04-.52-.47-1.35-.62-2.18-.83l-2.18-.52c-1.14-.26-2.81-.68-4.06-2.03-.88-.94-1.51-2.24-1.51-4,0-2.24,.88-4.32,2.18-5.67,1.77-1.82,4.89-2.81,8.32-2.81s6.08,.94,7.44,1.51l-2.81,5.3c-1.14-.52-2.86-1.14-4.37-1.14-.83,0-1.4,.16-1.92,.47-.47,.26-.73,.62-.73,1.14,0,.73,.47,1.09,.99,1.3,.78,.31,1.46,.31,2.76,.68l1.51,.42c1.09,.31,2.76,1.14,3.43,1.82,1.14,1.09,1.77,2.91,1.77,4.63,0,2.81-1.2,4.68-2.34,5.77-2.7,2.7-6.66,2.91-8.58,2.91-2.08,0-5.36-.26-9.36-2.7l2.96-5.77Z" style="fill:#28509c;"/><path d="M880.92,54.84c-3.07,3.02-6.66,3.85-10.4,3.85-3.38,0-7.12-.68-10.35-3.85-2.55-2.5-3.59-5.46-3.59-8.58,0-4.16,1.87-6.86,3.59-8.53,1.92-1.87,5.3-3.85,10.35-3.85s8.48,2.03,10.4,3.85c1.72,1.66,3.59,4.37,3.59,8.53,0,3.12-1.04,6.08-3.59,8.58Zm-14.09-12.38c-1.04,.99-1.61,2.44-1.61,3.8s.68,2.76,1.61,3.69c.99,.99,2.34,1.56,3.74,1.56s2.71-.57,3.69-1.56c1.04-.99,1.61-2.34,1.61-3.69,0-1.25-.57-2.76-1.61-3.8-.94-.88-2.39-1.51-3.69-1.51s-2.81,.62-3.74,1.51Z" style="fill:#28509c;"/><path d="M889.3,34.66h8.32v3.8c.83-1.56,2.03-2.6,3.28-3.22,1.25-.68,2.76-.94,4.32-.94,.21,0,.57,.05,1.66,.1v7.85c-.42-.21-1.56-.83-3.59-.83-1.09,0-2.6,.16-3.8,1.25-1.77,1.61-1.87,4.06-1.87,5.3v9.93h-8.32v-23.25Z" style="fill:#28509c;"/><path d="M912.07,50.21c.99,.73,2.18,1.35,3.33,1.72,1.04,.36,2.34,.57,3.22,.57,.62,0,1.61-.16,2.13-.62,.36-.36,.42-.68,.42-1.09,0-.36-.05-.73-.42-1.04-.52-.47-1.35-.62-2.18-.83l-2.18-.52c-1.14-.26-2.81-.68-4.06-2.03-.88-.94-1.51-2.24-1.51-4,0-2.24,.88-4.32,2.18-5.67,1.77-1.82,4.89-2.81,8.32-2.81s6.08,.94,7.44,1.51l-2.81,5.3c-1.14-.52-2.86-1.14-4.37-1.14-.83,0-1.4,.16-1.92,.47-.47,.26-.73,.62-.73,1.14,0,.73,.47,1.09,.99,1.3,.78,.31,1.46,.31,2.76,.68l1.51,.42c1.09,.31,2.76,1.14,3.43,1.82,1.14,1.09,1.77,2.91,1.77,4.63,0,2.81-1.2,4.68-2.34,5.77-2.7,2.7-6.66,2.91-8.58,2.91-2.08,0-5.36-.26-9.36-2.7l2.96-5.77Z" style="fill:#28509c;"/><path d="M936.25,49.22h7.8l-8.94,16.43h-5.36l6.5-16.43Z" style="fill:#28509c;"/><path d="M158.52,117.91l5.88-34.69h8.89l7.02,18.51,7.44-18.51h9l5.2,34.69h-9l-2.55-19.97-8.37,19.97h-3.59l-8.01-19.97-2.96,19.97h-8.94Z" style="fill:#28509c;"/><path d="M224.88,94.66h8.32v23.25h-8.32v-2.55c-1.92,2.65-4.94,3.33-7.23,3.33-2.5,0-5.56-.73-8.37-3.69-2.24-2.39-3.33-5.04-3.33-8.53,0-4.37,1.72-7.44,3.59-9.31,1.98-1.98,5.04-3.28,8.37-3.28,3.74,0,5.98,1.92,6.97,3.02v-2.24Zm-8.74,7.8c-1.14,1.09-1.66,2.6-1.66,3.8,0,1.35,.57,2.81,1.61,3.8,.88,.83,2.34,1.56,3.74,1.56s2.7-.57,3.74-1.61c.73-.73,1.56-1.87,1.56-3.74,0-1.09-.31-2.55-1.61-3.8-.78-.73-1.98-1.51-3.74-1.51-1.04,0-2.44,.36-3.64,1.51Z" style="fill:#28509c;"/><path d="M238.92,94.66h8.32v2.91c2.29-3.02,5.36-3.43,7.38-3.43,2.39,0,4.94,.57,6.86,2.5,1.98,1.98,2.18,3.95,2.18,6.5v14.77h-8.32v-11.75c0-1.35,.05-3.38-1.04-4.52-.78-.83-1.82-.99-2.65-.99-1.3,0-2.39,.47-3.07,1.09-.83,.78-1.35,2.29-1.35,3.69v12.48h-8.32v-23.25Z" style="fill:#28509c;"/><path d="M287.33,94.66h8.32v23.25h-8.32v-2.55c-1.92,2.65-4.94,3.33-7.23,3.33-2.5,0-5.56-.73-8.37-3.69-2.24-2.39-3.33-5.04-3.33-8.53,0-4.37,1.72-7.44,3.59-9.31,1.98-1.98,5.04-3.28,8.37-3.28,3.74,0,5.98,1.92,6.97,3.02v-2.24Zm-8.74,7.8c-1.14,1.09-1.66,2.6-1.66,3.8,0,1.35,.57,2.81,1.61,3.8,.88,.83,2.34,1.56,3.74,1.56s2.7-.57,3.74-1.61c.73-.73,1.56-1.87,1.56-3.74,0-1.09-.31-2.55-1.61-3.8-.78-.73-1.98-1.51-3.74-1.51-1.04,0-2.44,.36-3.64,1.51Z" style="fill:#28509c;"/><path d="M327.52,94.66v21.79c0,3.48-.31,6.66-3.17,9.62-2.96,3.02-6.86,3.74-10.24,3.74-4.32,0-7.9-1.09-10.87-4.11-1.35-1.4-2.24-2.81-2.55-4.84h9.26c.31,.94,1.14,2.39,3.9,2.39,1.3,0,2.6-.26,3.69-1.3,1.4-1.3,1.66-2.96,1.66-4.32v-2.34c-2.6,2.76-5.1,3.07-6.97,3.07-4.26,0-7.02-1.66-8.58-3.28-2.08-2.13-3.22-5.3-3.22-8.48,0-3.64,1.4-6.97,3.43-9.1,2.24-2.34,5.36-3.54,8.42-3.54,1.46,0,4.47,.31,6.92,3.07v-2.39h8.32Zm-16.95,7.8c-1.2,1.25-1.61,2.65-1.61,3.74,0,1.35,.57,2.76,1.61,3.8,1.09,1.09,2.5,1.51,3.74,1.51s2.76-.57,3.74-1.56c1.04-1.04,1.56-2.55,1.56-3.74s-.68-2.81-1.66-3.8c-.94-.94-2.29-1.51-3.69-1.51s-2.6,.47-3.69,1.56Z" style="fill:#28509c;"/><path d="M357.89,107.82h-17.32c0,1.25,.47,2.91,1.46,3.9,.52,.52,1.56,1.14,3.43,1.14,.21,0,1.66-.05,2.7-.62,.52-.31,1.09-.83,1.46-1.56h7.96c-.36,1.3-1.09,3.12-2.81,4.78-1.72,1.66-4.42,3.22-9.46,3.22-3.07,0-6.76-.68-9.62-3.54-1.51-1.51-3.43-4.37-3.43-8.79,0-3.9,1.46-7.02,3.48-9,1.92-1.87,4.94-3.38,9.52-3.38,2.7,0,6.19,.57,8.94,3.17,3.28,3.12,3.69,7.18,3.69,9.78v.88Zm-7.64-4.78c-.21-.88-.73-1.87-1.35-2.5-1.09-1.09-2.6-1.25-3.43-1.25-1.4,0-2.5,.36-3.38,1.25-.57,.62-1.09,1.46-1.25,2.5h9.41Z" style="fill:#28509c;"/><path d="M362.67,94.66h8.32v3.8c.83-1.56,2.03-2.6,3.28-3.22,1.25-.68,2.76-.94,4.32-.94,.21,0,.57,.05,1.66,.1v7.85c-.42-.21-1.56-.83-3.59-.83-1.09,0-2.6,.16-3.8,1.25-1.77,1.61-1.87,4.06-1.87,5.3v9.93h-8.32v-23.25Z" style="fill:#28509c;"/><path d="M385.45,110.21c.99,.73,2.18,1.35,3.33,1.72,1.04,.36,2.34,.57,3.22,.57,.62,0,1.61-.16,2.13-.62,.36-.36,.42-.68,.42-1.09,0-.36-.05-.73-.42-1.04-.52-.47-1.35-.62-2.18-.83l-2.18-.52c-1.14-.26-2.81-.68-4.06-2.03-.88-.94-1.51-2.24-1.51-4,0-2.24,.88-4.32,2.18-5.67,1.77-1.82,4.89-2.81,8.32-2.81s6.08,.94,7.44,1.51l-2.81,5.3c-1.14-.52-2.86-1.14-4.37-1.14-.83,0-1.4,.16-1.92,.47-.47,.26-.73,.62-.73,1.14,0,.73,.47,1.09,.99,1.3,.78,.31,1.46,.31,2.76,.68l1.51,.42c1.09,.31,2.76,1.14,3.43,1.82,1.14,1.09,1.77,2.91,1.77,4.63,0,2.81-1.2,4.68-2.34,5.77-2.7,2.7-6.66,2.91-8.58,2.91-2.08,0-5.36-.26-9.36-2.7l2.96-5.77Z" style="fill:#28509c;"/><path d="M409.63,109.22h7.8l-8.94,16.43h-5.36l6.5-16.43Z" style="fill:#28509c;"/><path d="M438.07,107.51c1.92,1.82,4.84,3.54,7.96,3.54,1.82,0,2.91-.57,3.48-1.2,.52-.52,.88-1.3,.88-2.18,0-.68-.26-1.46-.99-2.08-.88-.78-2.24-1.14-4.47-1.82l-2.34-.73c-1.46-.47-3.59-1.25-4.99-2.81-1.77-1.92-1.98-4.37-1.98-6.14,0-4.26,1.66-6.86,3.17-8.37,1.77-1.77,4.68-3.28,8.89-3.28,3.43,0,7.44,1.09,10.71,2.81l-3.59,7.02c-2.7-2.13-4.73-2.34-5.93-2.34-.88,0-2.08,.21-2.96,1.04-.52,.52-.88,1.09-.88,1.87,0,.62,.1,1.09,.47,1.56,.26,.31,.88,.94,3.02,1.56l2.76,.83c2.18,.68,4.47,1.46,6.29,3.43,1.77,1.87,2.24,3.8,2.24,6.19,0,3.17-.78,6.24-3.28,8.74-2.96,2.96-6.55,3.54-10.24,3.54-2.18,0-4.26-.21-6.81-1.14-.57-.21-2.76-1.04-5.25-2.76l3.85-7.28Z" style="fill:#28509c;"/><path d="M489.35,107.82h-17.32c0,1.25,.47,2.91,1.46,3.9,.52,.52,1.56,1.14,3.43,1.14,.21,0,1.66-.05,2.7-.62,.52-.31,1.09-.83,1.46-1.56h7.96c-.36,1.3-1.09,3.12-2.81,4.78-1.72,1.66-4.42,3.22-9.46,3.22-3.07,0-6.76-.68-9.62-3.54-1.51-1.51-3.43-4.37-3.43-8.79,0-3.9,1.46-7.02,3.48-9,1.92-1.87,4.94-3.38,9.52-3.38,2.7,0,6.19,.57,8.94,3.17,3.28,3.12,3.69,7.18,3.69,9.78v.88Zm-7.64-4.78c-.21-.88-.73-1.87-1.35-2.5-1.09-1.09-2.6-1.25-3.43-1.25-1.4,0-2.5,.36-3.38,1.25-.57,.62-1.09,1.46-1.25,2.5h9.41Z" style="fill:#28509c;"/><path d="M494.13,94.66h8.32v2.91c2.29-3.02,5.36-3.43,7.38-3.43,2.39,0,4.94,.57,6.86,2.5s2.18,3.95,2.18,6.5v14.77h-8.32v-11.75c0-1.35,.05-3.38-1.04-4.52-.78-.83-1.82-.99-2.65-.99-1.3,0-2.39,.47-3.07,1.09-.83,.78-1.35,2.29-1.35,3.69v12.48h-8.32v-23.25Z" style="fill:#28509c;"/><path d="M528.71,80.31c2.6,0,4.68,2.08,4.68,4.68s-2.08,4.68-4.68,4.68-4.68-2.08-4.68-4.68,2.08-4.68,4.68-4.68Zm4.16,14.35v23.25h-8.32v-23.25h8.32Z" style="fill:#28509c;"/><path d="M561.94,114.84c-3.07,3.02-6.66,3.85-10.4,3.85-3.38,0-7.12-.68-10.35-3.85-2.55-2.5-3.59-5.46-3.59-8.58,0-4.16,1.87-6.86,3.59-8.53,1.92-1.87,5.3-3.85,10.35-3.85s8.48,2.03,10.4,3.85c1.72,1.66,3.59,4.37,3.59,8.53,0,3.12-1.04,6.08-3.59,8.58Zm-14.09-12.38c-1.04,.99-1.61,2.44-1.61,3.8s.68,2.76,1.61,3.69c.99,.99,2.34,1.56,3.74,1.56s2.71-.57,3.69-1.56c1.04-.99,1.61-2.34,1.61-3.69,0-1.25-.57-2.76-1.61-3.8-.94-.88-2.39-1.51-3.69-1.51s-2.81,.62-3.74,1.51Z" style="fill:#28509c;"/><path d="M570.31,94.66h8.32v3.8c.83-1.56,2.03-2.6,3.28-3.22,1.25-.68,2.76-.94,4.32-.94,.21,0,.57,.05,1.66,.1v7.85c-.42-.21-1.56-.83-3.59-.83-1.09,0-2.6,.16-3.8,1.25-1.77,1.61-1.87,4.06-1.87,5.3v9.93h-8.32v-23.25Z" style="fill:#28509c;"/><path d="M602.91,117.91l5.88-34.69h8.89l7.02,18.51,7.44-18.51h9l5.2,34.69h-9l-2.55-19.97-8.37,19.97h-3.59l-8.01-19.97-2.96,19.97h-8.94Z" style="fill:#28509c;"/><path d="M669.26,94.66h8.32v23.25h-8.32v-2.55c-1.92,2.65-4.94,3.33-7.23,3.33-2.5,0-5.56-.73-8.37-3.69-2.24-2.39-3.33-5.04-3.33-8.53,0-4.37,1.72-7.44,3.59-9.31,1.98-1.98,5.04-3.28,8.37-3.28,3.74,0,5.98,1.92,6.97,3.02v-2.24Zm-8.74,7.8c-1.14,1.09-1.66,2.6-1.66,3.8,0,1.35,.57,2.81,1.61,3.8,.88,.83,2.34,1.56,3.74,1.56s2.7-.57,3.74-1.61c.73-.73,1.56-1.87,1.56-3.74,0-1.09-.31-2.55-1.61-3.8-.78-.73-1.98-1.51-3.74-1.51-1.04,0-2.44,.36-3.64,1.51Z" style="fill:#28509c;"/><path d="M683.3,94.66h8.32v2.91c2.29-3.02,5.36-3.43,7.38-3.43,2.39,0,4.94,.57,6.86,2.5,1.98,1.98,2.18,3.95,2.18,6.5v14.77h-8.32v-11.75c0-1.35,.05-3.38-1.04-4.52-.78-.83-1.82-.99-2.65-.99-1.3,0-2.39,.47-3.07,1.09-.83,.78-1.35,2.29-1.35,3.69v12.48h-8.32v-23.25Z" style="fill:#28509c;"/><path d="M731.71,94.66h8.32v23.25h-8.32v-2.55c-1.92,2.65-4.94,3.33-7.23,3.33-2.5,0-5.56-.73-8.37-3.69-2.24-2.39-3.33-5.04-3.33-8.53,0-4.37,1.72-7.44,3.59-9.31,1.98-1.98,5.04-3.28,8.37-3.28,3.74,0,5.98,1.92,6.97,3.02v-2.24Zm-8.74,7.8c-1.14,1.09-1.66,2.6-1.66,3.8,0,1.35,.57,2.81,1.61,3.8,.88,.83,2.34,1.56,3.74,1.56s2.7-.57,3.74-1.61c.73-.73,1.56-1.87,1.56-3.74,0-1.09-.31-2.55-1.61-3.8-.78-.73-1.98-1.51-3.74-1.51-1.04,0-2.44,.36-3.64,1.51Z" style="fill:#28509c;"/><path d="M771.91,94.66v21.79c0,3.48-.31,6.66-3.17,9.62-2.96,3.02-6.86,3.74-10.24,3.74-4.32,0-7.9-1.09-10.87-4.11-1.35-1.4-2.24-2.81-2.55-4.84h9.26c.31,.94,1.14,2.39,3.9,2.39,1.3,0,2.6-.26,3.69-1.3,1.4-1.3,1.66-2.96,1.66-4.32v-2.34c-2.6,2.76-5.1,3.07-6.97,3.07-4.26,0-7.02-1.66-8.58-3.28-2.08-2.13-3.22-5.3-3.22-8.48,0-3.64,1.4-6.97,3.43-9.1,2.24-2.34,5.36-3.54,8.42-3.54,1.46,0,4.47,.31,6.92,3.07v-2.39h8.32Zm-16.95,7.8c-1.2,1.25-1.61,2.65-1.61,3.74,0,1.35,.57,2.76,1.61,3.8,1.09,1.09,2.5,1.51,3.74,1.51s2.76-.57,3.74-1.56c1.04-1.04,1.56-2.55,1.56-3.74s-.68-2.81-1.66-3.8c-.94-.94-2.29-1.51-3.69-1.51s-2.6,.47-3.69,1.56Z" style="fill:#28509c;"/><path d="M802.28,107.82h-17.32c0,1.25,.47,2.91,1.46,3.9,.52,.52,1.56,1.14,3.43,1.14,.21,0,1.66-.05,2.7-.62,.52-.31,1.09-.83,1.46-1.56h7.96c-.36,1.3-1.09,3.12-2.81,4.78s-4.42,3.22-9.46,3.22c-3.07,0-6.76-.68-9.62-3.54-1.51-1.51-3.43-4.37-3.43-8.79,0-3.9,1.46-7.02,3.48-9,1.92-1.87,4.94-3.38,9.52-3.38,2.71,0,6.19,.57,8.95,3.17,3.28,3.12,3.69,7.18,3.69,9.78v.88Zm-7.64-4.78c-.21-.88-.73-1.87-1.35-2.5-1.09-1.09-2.6-1.25-3.43-1.25-1.4,0-2.5,.36-3.38,1.25-.57,.62-1.09,1.46-1.25,2.5h9.41Z" style="fill:#28509c;"/><path d="M807.06,94.66h8.32v3.8c.83-1.56,2.03-2.6,3.28-3.22,1.25-.68,2.76-.94,4.32-.94,.21,0,.57,.05,1.66,.1v7.85c-.42-.21-1.56-.83-3.59-.83-1.09,0-2.6,.16-3.8,1.25-1.77,1.61-1.87,4.06-1.87,5.3v9.93h-8.32v-23.25Z" style="fill:#28509c;"/><path d="M829.84,110.21c.99,.73,2.18,1.35,3.33,1.72,1.04,.36,2.34,.57,3.22,.57,.62,0,1.61-.16,2.13-.62,.36-.36,.42-.68,.42-1.09,0-.36-.05-.73-.42-1.04-.52-.47-1.35-.62-2.18-.83l-2.18-.52c-1.14-.26-2.81-.68-4.06-2.03-.88-.94-1.51-2.24-1.51-4,0-2.24,.88-4.32,2.18-5.67,1.77-1.82,4.89-2.81,8.32-2.81s6.08,.94,7.44,1.51l-2.81,5.3c-1.14-.52-2.86-1.14-4.37-1.14-.83,0-1.4,.16-1.92,.47-.47,.26-.73,.62-.73,1.14,0,.73,.47,1.09,.99,1.3,.78,.31,1.46,.31,2.76,.68l1.51,.42c1.09,.31,2.76,1.14,3.43,1.82,1.14,1.09,1.77,2.91,1.77,4.63,0,2.81-1.2,4.68-2.34,5.77-2.7,2.7-6.66,2.91-8.58,2.91-2.08,0-5.36-.26-9.36-2.7l2.96-5.77Z" style="fill:#28509c;"/></g><g><line x1="953" y1="157" x2="953" y2="740" style="fill:none; stroke:#a0a0a0; stroke-miterlimit:10; stroke-width:.78px;"/><line x1="836" y1="157" x2="836" y2="740" style="fill:none; stroke:#a0a0a0; stroke-miterlimit:10; stroke-width:.78px;"/><line x1="719" y1="157" x2="719" y2="740" style="fill:none; stroke:#a0a0a0; stroke-miterlimit:10; stroke-width:.78px;"/><line x1="602" y1="157" x2="602" y2="740" style="fill:none; stroke:#a0a0a0; stroke-miterlimit:10; stroke-width:.78px;"/><line x1="485" y1="157" x2="485" y2="740" style="fill:none; stroke:#a0a0a0; stroke-miterlimit:10; stroke-width:.78px;"/><line x1="368" y1="157" x2="368" y2="740" style="fill:none; stroke:#a0a0a0; stroke-miterlimit:10; stroke-width:.78px;"/><line x1="251" y1="157" x2="251" y2="740" style="fill:none; stroke:#a0a0a0; stroke-miterlimit:10; stroke-width:.78px;"/></g></svg>