<?xml version="1.0" encoding="UTF-8"?><svg id="a" xmlns="http://www.w3.org/2000/svg" xmlns:xlink="http://www.w3.org/1999/xlink" viewBox="0 0 1000 827"><defs><style>.c,.d{fill:#0075bf;}.e{fill:#fff;}.f{fill:#646464;}.g{fill:#28509c;}.h{fill:none;stroke:#a0a0a0;stroke-miterlimit:10;stroke-width:.68px;}.i{clip-path:url(#b);}.d{opacity:.51;}</style><clipPath id="b"><circle cx="500" cy="-607" r="412" style="fill:#0075bf; opacity:.51;"/></clipPath></defs><g><circle cx="500" cy="-607" r="412" style="fill:#0075bf; opacity:.51;"/><g style="clip-path:url(#b);"><polygon points="553 -1094 500 -607 1062 -382 140 75 0 -1107 553 -1094" style="fill:#0075bf;"/></g></g><g><path d="M228.6,776.39c-1.68-1.92-2.04-4.44-2.04-6.53s.36-4.63,2.04-6.55c1.01-1.15,2.21-1.73,3.62-1.73s2.62,.58,3.62,1.73c1.68,1.92,2.04,4.49,2.04,6.55s-.36,4.61-2.04,6.53c-1.01,1.15-2.18,1.73-3.62,1.73s-2.62-.58-3.62-1.73Zm1.46-11.33c-.89,1.32-1.1,3.38-1.1,4.78s.22,3.46,1.1,4.8c.7,1.06,1.54,1.32,2.16,1.32s1.46-.26,2.16-1.32c.89-1.34,1.1-3.38,1.1-4.8s-.22-3.46-1.1-4.78c-.7-1.06-1.54-1.32-2.16-1.32s-1.46,.26-2.16,1.32Z" style="fill:#646464;"/><path d="M247.56,765.47c0,2.04-1.73,3.77-3.86,3.77s-3.86-1.73-3.86-3.77,1.75-3.77,3.86-3.77,3.86,1.7,3.86,3.77Zm-1.87,0c0-.94-.67-2.04-1.99-2.04s-1.99,1.1-1.99,2.04,.67,2.04,1.99,2.04,1.99-1.1,1.99-2.04Zm7.08-3.89l1.13,.65-9.15,15.89-1.13-.7,9.14-15.84Zm4.92,12.67c0,2.04-1.73,3.77-3.86,3.77s-3.86-1.73-3.86-3.77,1.75-3.77,3.86-3.77,3.86,1.7,3.86,3.77Zm-1.87,0c0-.94-.67-2.04-1.99-2.04s-1.99,1.1-1.99,2.04,.67,2.04,1.99,2.04,1.99-1.1,1.99-2.04Z" style="fill:#646464;"/></g><g><path d="M314.14,764.1h-2.78l1.34-2.26h3.89v16.01h-2.45v-13.75Z" style="fill:#646464;"/><path d="M323.16,776.39c-1.68-1.92-2.04-4.44-2.04-6.53s.36-4.63,2.04-6.55c1.01-1.15,2.21-1.73,3.62-1.73s2.62,.58,3.62,1.73c1.68,1.92,2.04,4.49,2.04,6.55s-.36,4.61-2.04,6.53c-1.01,1.15-2.18,1.73-3.62,1.73s-2.62-.58-3.62-1.73Zm1.46-11.33c-.89,1.32-1.1,3.38-1.1,4.78s.22,3.46,1.1,4.8c.7,1.06,1.54,1.32,2.16,1.32s1.46-.26,2.16-1.32c.89-1.34,1.1-3.38,1.1-4.8s-.22-3.46-1.1-4.78c-.7-1.06-1.54-1.32-2.16-1.32s-1.46,.26-2.16,1.32Z" style="fill:#646464;"/><path d="M342.12,765.47c0,2.04-1.73,3.77-3.86,3.77s-3.86-1.73-3.86-3.77,1.75-3.77,3.86-3.77,3.86,1.7,3.86,3.77Zm-1.87,0c0-.94-.67-2.04-1.99-2.04s-1.99,1.1-1.99,2.04,.67,2.04,1.99,2.04,1.99-1.1,1.99-2.04Zm7.08-3.89l1.13,.65-9.15,15.89-1.13-.7,9.14-15.84Zm4.92,12.67c0,2.04-1.73,3.77-3.86,3.77s-3.86-1.73-3.86-3.77,1.75-3.77,3.86-3.77,3.86,1.7,3.86,3.77Zm-1.87,0c0-.94-.67-2.04-1.99-2.04s-1.99,1.1-1.99,2.04,.67,2.04,1.99,2.04,1.99-1.1,1.99-2.04Z" style="fill:#646464;"/></g><g><path d="M409.79,777.85h-10.75l5.54-6.72c.55-.67,1.39-1.73,1.92-2.5,.46-.67,.84-1.37,.84-2.3,0-1.34-.89-2.59-2.66-2.59s-2.74,1.39-2.83,2.9h-2.35c.07-1.56,.72-2.81,1.34-3.5,.58-.65,1.73-1.56,3.74-1.56,3.41,0,5.16,2.33,5.16,4.82,0,1.32-.5,2.4-1.15,3.36-.58,.86-1.32,1.75-2.28,2.88l-2.5,2.95h5.98v2.26Z" style="fill:#646464;"/><path d="M415.04,776.39c-1.68-1.92-2.04-4.44-2.04-6.53s.36-4.63,2.04-6.55c1.01-1.15,2.21-1.73,3.62-1.73s2.62,.58,3.62,1.73c1.68,1.92,2.04,4.49,2.04,6.55s-.36,4.61-2.04,6.53c-1.01,1.15-2.18,1.73-3.62,1.73s-2.62-.58-3.62-1.73Zm1.46-11.33c-.89,1.32-1.1,3.38-1.1,4.78s.22,3.46,1.1,4.8c.7,1.06,1.54,1.32,2.16,1.32s1.46-.26,2.16-1.32c.89-1.34,1.1-3.38,1.1-4.8s-.22-3.46-1.1-4.78c-.7-1.06-1.54-1.32-2.16-1.32s-1.46,.26-2.16,1.32Z" style="fill:#646464;"/><path d="M434,765.47c0,2.04-1.73,3.77-3.86,3.77s-3.86-1.73-3.86-3.77,1.75-3.77,3.86-3.77,3.86,1.7,3.86,3.77Zm-1.87,0c0-.94-.67-2.04-1.99-2.04s-1.99,1.1-1.99,2.04,.67,2.04,1.99,2.04,1.99-1.1,1.99-2.04Zm7.08-3.89l1.13,.65-9.15,15.89-1.13-.7,9.14-15.84Zm4.92,12.67c0,2.04-1.73,3.77-3.86,3.77s-3.86-1.73-3.86-3.77,1.75-3.77,3.86-3.77,3.86,1.7,3.86,3.77Zm-1.87,0c0-.94-.67-2.04-1.99-2.04s-1.99,1.1-1.99,2.04,.67,2.04,1.99,2.04,1.99-1.1,1.99-2.04Z" style="fill:#646464;"/></g><g><path d="M490.83,765.92c.07-1.3,.62-2.4,1.37-3.12,1.1-1.06,2.45-1.22,3.5-1.22,1.22,0,2.42,.24,3.46,1.32,.84,.86,1.15,1.9,1.15,3.05,0,.77-.14,1.44-.55,2.11-.43,.7-.98,1.1-1.44,1.34,.82,.31,1.32,.86,1.58,1.27,.46,.67,.67,1.56,.67,2.47,0,1.58-.6,2.81-1.37,3.58-1.15,1.15-2.66,1.39-3.91,1.39s-2.54-.24-3.58-1.34c-.72-.77-1.25-2.04-1.37-3.26h2.35c.12,.72,.46,1.34,.86,1.73,.34,.31,.94,.72,1.94,.72,.74,0,1.44-.29,1.87-.67,.46-.43,.84-1.18,.84-2.26,0-.53-.1-1.3-.72-1.9-.7-.67-1.56-.72-2.06-.72h-.48v-2.06h.34c1.03,0,1.68-.34,2.04-.7,.38-.38,.62-.98,.62-1.7,0-.84-.36-1.34-.62-1.61-.55-.53-1.22-.6-1.7-.6-.58,0-1.25,.1-1.78,.65-.55,.58-.67,1.44-.67,1.54h-2.35Z" style="fill:#646464;"/><path d="M506.02,776.39c-1.68-1.92-2.04-4.44-2.04-6.53s.36-4.63,2.04-6.55c1.01-1.15,2.21-1.73,3.62-1.73s2.62,.58,3.62,1.73c1.68,1.92,2.04,4.49,2.04,6.55s-.36,4.61-2.04,6.53c-1.01,1.15-2.18,1.73-3.62,1.73s-2.62-.58-3.62-1.73Zm1.46-11.33c-.89,1.32-1.1,3.38-1.1,4.78s.22,3.46,1.1,4.8c.7,1.06,1.54,1.32,2.16,1.32s1.46-.26,2.16-1.32c.89-1.34,1.1-3.38,1.1-4.8s-.22-3.46-1.1-4.78c-.7-1.06-1.54-1.32-2.16-1.32s-1.46,.26-2.16,1.32Z" style="fill:#646464;"/><path d="M524.98,765.47c0,2.04-1.73,3.77-3.86,3.77s-3.86-1.73-3.86-3.77,1.75-3.77,3.86-3.77,3.86,1.7,3.86,3.77Zm-1.87,0c0-.94-.67-2.04-1.99-2.04s-1.99,1.1-1.99,2.04,.67,2.04,1.99,2.04,1.99-1.1,1.99-2.04Zm7.08-3.89l1.13,.65-9.14,15.89-1.13-.7,9.14-15.84Zm4.92,12.67c0,2.04-1.73,3.77-3.86,3.77s-3.86-1.73-3.86-3.77,1.75-3.77,3.86-3.77,3.86,1.7,3.86,3.77Zm-1.87,0c0-.94-.67-2.04-1.99-2.04s-1.99,1.1-1.99,2.04,.67,2.04,1.99,2.04,1.99-1.1,1.99-2.04Z" style="fill:#646464;"/></g><g><path d="M589.37,772.57h1.73v2.26h-1.73v3.02h-2.35v-3.02h-7.92l10.27-14.16v11.91Zm-2.35,.05v-5.16l-3.65,5.16h3.65Z" style="fill:#646464;"/><path d="M595.45,776.39c-1.68-1.92-2.04-4.44-2.04-6.53s.36-4.63,2.04-6.55c1.01-1.15,2.21-1.73,3.62-1.73s2.62,.58,3.62,1.73c1.68,1.92,2.04,4.49,2.04,6.55s-.36,4.61-2.04,6.53c-1.01,1.15-2.18,1.73-3.62,1.73s-2.62-.58-3.62-1.73Zm1.46-11.33c-.89,1.32-1.1,3.38-1.1,4.78s.22,3.46,1.1,4.8c.7,1.06,1.54,1.32,2.16,1.32s1.46-.26,2.16-1.32c.89-1.34,1.1-3.38,1.1-4.8s-.22-3.46-1.1-4.78c-.7-1.06-1.54-1.32-2.16-1.32s-1.46,.26-2.16,1.32Z" style="fill:#646464;"/><path d="M614.41,765.47c0,2.04-1.73,3.77-3.86,3.77s-3.86-1.73-3.86-3.77,1.75-3.77,3.86-3.77,3.86,1.7,3.86,3.77Zm-1.87,0c0-.94-.67-2.04-1.99-2.04s-1.99,1.1-1.99,2.04,.67,2.04,1.99,2.04,1.99-1.1,1.99-2.04Zm7.08-3.89l1.13,.65-9.14,15.89-1.13-.7,9.14-15.84Zm4.92,12.67c0,2.04-1.73,3.77-3.86,3.77s-3.86-1.73-3.86-3.77,1.75-3.77,3.86-3.77,3.86,1.7,3.86,3.77Zm-1.87,0c0-.94-.67-2.04-1.99-2.04s-1.99,1.1-1.99,2.04,.67,2.04,1.99,2.04,1.99-1.1,1.99-2.04Z" style="fill:#646464;"/></g><g><path d="M682.6,764.1h-4.94l-.79,2.66c.24-.02,.5-.05,.74-.05,1.34,0,2.71,.46,3.7,1.42,.77,.74,1.56,2.02,1.56,4.1,0,1.75-.55,3.17-1.63,4.25-1.27,1.25-2.81,1.63-4.44,1.63-.94,0-2.04-.12-3.07-.72-.24-.14-1.15-.7-1.9-1.85l1.85-1.54c.05,.12,.48,.91,1.22,1.39,.53,.36,1.27,.55,2.09,.55,1.29,0,2.04-.5,2.45-.89,.48-.48,1.03-1.34,1.03-2.71s-.46-2.11-.96-2.59c-.79-.74-1.85-.89-2.62-.89-.7,0-1.22,.1-1.87,.34-.5,.19-.96,.41-1.42,.72l2.38-8.09h6.62v2.26Z" style="fill:#646464;"/><path d="M687.98,776.39c-1.68-1.92-2.04-4.44-2.04-6.53s.36-4.63,2.04-6.55c1.01-1.15,2.21-1.73,3.62-1.73s2.62,.58,3.62,1.73c1.68,1.92,2.04,4.49,2.04,6.55s-.36,4.61-2.04,6.53c-1.01,1.15-2.18,1.73-3.62,1.73s-2.62-.58-3.62-1.73Zm1.46-11.33c-.89,1.32-1.1,3.38-1.1,4.78s.22,3.46,1.1,4.8c.7,1.06,1.54,1.32,2.16,1.32s1.46-.26,2.16-1.32c.89-1.34,1.1-3.38,1.1-4.8s-.22-3.46-1.1-4.78c-.7-1.06-1.54-1.32-2.16-1.32s-1.46,.26-2.16,1.32Z" style="fill:#646464;"/><path d="M706.94,765.47c0,2.04-1.73,3.77-3.86,3.77s-3.86-1.73-3.86-3.77,1.75-3.77,3.86-3.77,3.86,1.7,3.86,3.77Zm-1.87,0c0-.94-.67-2.04-1.99-2.04s-1.99,1.1-1.99,2.04,.67,2.04,1.99,2.04,1.99-1.1,1.99-2.04Zm7.08-3.89l1.13,.65-9.15,15.89-1.13-.7,9.14-15.84Zm4.92,12.67c0,2.04-1.73,3.77-3.86,3.77s-3.86-1.73-3.86-3.77,1.75-3.77,3.86-3.77,3.86,1.7,3.86,3.77Zm-1.87,0c0-.94-.67-2.04-1.99-2.04s-1.99,1.1-1.99,2.04,.67,2.04,1.99,2.04,1.99-1.1,1.99-2.04Z" style="fill:#646464;"/></g><g><path d="M768.38,762.61l-3.82,4.82c.36-.07,.67-.1,1.01-.1,1.87,0,3.05,.82,3.7,1.49,.86,.91,1.42,2.28,1.42,3.74s-.5,2.98-1.58,4.03c-1.34,1.32-3.07,1.51-4.13,1.51-1.39,0-2.9-.29-4.13-1.56-.84-.89-1.39-2.06-1.39-3.62,0-1.18,.26-2.09,.77-3.07,.6-1.2,1.22-1.92,1.94-2.86l4.44-5.71,1.78,1.32Zm-5.59,7.7c-.53,.5-.94,1.37-.94,2.38,0,.82,.31,1.78,.94,2.38,.5,.48,1.46,.89,2.3,.89,.74,0,1.66-.29,2.26-.89,.6-.6,.94-1.56,.94-2.38s-.34-1.78-.94-2.38c-.55-.55-1.44-.89-2.26-.89s-1.73,.34-2.3,.89Z" style="fill:#646464;"/><path d="M775.07,776.39c-1.68-1.92-2.04-4.44-2.04-6.53s.36-4.63,2.04-6.55c1.01-1.15,2.21-1.73,3.62-1.73s2.62,.58,3.62,1.73c1.68,1.92,2.04,4.49,2.04,6.55s-.36,4.61-2.04,6.53c-1.01,1.15-2.18,1.73-3.62,1.73s-2.62-.58-3.62-1.73Zm1.46-11.33c-.89,1.32-1.1,3.38-1.1,4.78s.22,3.46,1.1,4.8c.7,1.06,1.54,1.32,2.16,1.32s1.46-.26,2.16-1.32c.89-1.34,1.1-3.38,1.1-4.8s-.22-3.46-1.1-4.78c-.7-1.06-1.54-1.32-2.16-1.32s-1.46,.26-2.16,1.32Z" style="fill:#646464;"/><path d="M794.03,765.47c0,2.04-1.73,3.77-3.86,3.77s-3.86-1.73-3.86-3.77,1.75-3.77,3.86-3.77,3.86,1.7,3.86,3.77Zm-1.87,0c0-.94-.67-2.04-1.99-2.04s-1.99,1.1-1.99,2.04,.67,2.04,1.99,2.04,1.99-1.1,1.99-2.04Zm7.08-3.89l1.13,.65-9.15,15.89-1.13-.7,9.14-15.84Zm4.92,12.67c0,2.04-1.73,3.77-3.86,3.77s-3.86-1.73-3.86-3.77,1.75-3.77,3.86-3.77,3.86,1.7,3.86,3.77Zm-1.87,0c0-.94-.67-2.04-1.99-2.04s-1.99,1.1-1.99,2.04,.67,2.04,1.99,2.04,1.99-1.1,1.99-2.04Z" style="fill:#646464;"/></g><g><path d="M850.17,764.1h-7.87v-2.26h11.91l-10.08,16.56-1.92-1.2,7.97-13.1Z" style="fill:#646464;"/><path d="M856.32,776.39c-1.68-1.92-2.04-4.44-2.04-6.53s.36-4.63,2.04-6.55c1.01-1.15,2.21-1.73,3.62-1.73s2.62,.58,3.62,1.73c1.68,1.92,2.04,4.49,2.04,6.55s-.36,4.61-2.04,6.53c-1.01,1.15-2.18,1.73-3.62,1.73s-2.62-.58-3.62-1.73Zm1.46-11.33c-.89,1.32-1.1,3.38-1.1,4.78s.22,3.46,1.1,4.8c.7,1.06,1.54,1.32,2.16,1.32s1.46-.26,2.16-1.32c.89-1.34,1.1-3.38,1.1-4.8s-.22-3.46-1.1-4.78c-.7-1.06-1.54-1.32-2.16-1.32s-1.46,.26-2.16,1.32Z" style="fill:#646464;"/><path d="M875.28,765.47c0,2.04-1.73,3.77-3.86,3.77s-3.86-1.73-3.86-3.77,1.75-3.77,3.86-3.77,3.86,1.7,3.86,3.77Zm-1.87,0c0-.94-.67-2.04-1.99-2.04s-1.99,1.1-1.99,2.04,.67,2.04,1.99,2.04,1.99-1.1,1.99-2.04Zm7.08-3.89l1.13,.65-9.15,15.89-1.13-.7,9.14-15.84Zm4.92,12.67c0,2.04-1.73,3.77-3.86,3.77s-3.86-1.73-3.86-3.77,1.75-3.77,3.86-3.77,3.86,1.7,3.86,3.77Zm-1.87,0c0-.94-.67-2.04-1.99-2.04s-1.99,1.1-1.99,2.04,.67,2.04,1.99,2.04,1.99-1.1,1.99-2.04Z" style="fill:#646464;"/></g><g><path d="M939.38,770.82c.6,.79,.72,1.68,.72,2.4,0,1.63-.62,2.74-1.27,3.41-.74,.79-1.94,1.49-3.77,1.49s-3.02-.7-3.77-1.49c-.65-.67-1.27-1.78-1.27-3.41,0-.72,.12-1.61,.72-2.4,.36-.5,.94-.98,1.68-1.3-.67-.29-1.13-.77-1.42-1.2-.41-.65-.58-1.46-.58-2.18,0-1.27,.46-2.47,1.34-3.34,.5-.48,1.54-1.22,3.29-1.22s2.78,.74,3.29,1.22c.89,.86,1.34,2.06,1.34,3.34,0,.72-.17,1.54-.58,2.18-.29,.43-.74,.91-1.42,1.2,.74,.31,1.32,.79,1.68,1.3Zm-6.22,.5c-.48,.48-.74,1.25-.74,1.94,0,.62,.24,1.34,.72,1.87,.34,.38,.94,.82,1.92,.82s1.58-.43,1.92-.82c.48-.53,.72-1.25,.72-1.87,0-.7-.26-1.46-.74-1.94-.48-.48-1.2-.74-1.9-.74s-1.42,.26-1.9,.74Zm.14-6.94c-.41,.41-.67,1.06-.67,1.78s.29,1.32,.65,1.68c.43,.46,1.15,.72,1.78,.72s1.34-.26,1.78-.72c.36-.36,.65-.94,.65-1.68s-.26-1.37-.67-1.78c-.41-.38-1.01-.65-1.75-.65s-1.34,.26-1.75,.65Z" style="fill:#646464;"/><path d="M945.07,776.39c-1.68-1.92-2.04-4.44-2.04-6.53s.36-4.63,2.04-6.55c1.01-1.15,2.21-1.73,3.62-1.73s2.62,.58,3.62,1.73c1.68,1.92,2.04,4.49,2.04,6.55s-.36,4.61-2.04,6.53c-1.01,1.15-2.18,1.73-3.62,1.73s-2.62-.58-3.62-1.73Zm1.46-11.33c-.89,1.32-1.1,3.38-1.1,4.78s.22,3.46,1.1,4.8c.7,1.06,1.54,1.32,2.16,1.32s1.46-.26,2.16-1.32c.89-1.34,1.1-3.38,1.1-4.8s-.22-3.46-1.1-4.78c-.7-1.06-1.54-1.32-2.16-1.32s-1.46,.26-2.16,1.32Z" style="fill:#646464;"/><path d="M964.03,765.47c0,2.04-1.73,3.77-3.86,3.77s-3.86-1.73-3.86-3.77,1.75-3.77,3.86-3.77,3.86,1.7,3.86,3.77Zm-1.87,0c0-.94-.67-2.04-1.99-2.04s-1.99,1.1-1.99,2.04,.67,2.04,1.99,2.04,1.99-1.1,1.99-2.04Zm7.08-3.89l1.13,.65-9.15,15.89-1.13-.7,9.14-15.84Zm4.92,12.67c0,2.04-1.73,3.77-3.86,3.77s-3.86-1.73-3.86-3.77,1.75-3.77,3.86-3.77,3.86,1.7,3.86,3.77Zm-1.87,0c0-.94-.67-2.04-1.99-2.04s-1.99,1.1-1.99,2.04,.67,2.04,1.99,2.04,1.99-1.1,1.99-2.04Z" style="fill:#646464;"/></g><rect x="251" y="364.02" width="49" height="65.32" style="fill:#28509c;"/><g><rect x="251" y="260.51" width="29" height="65.32" style="fill:#28509c;"/><g><path d="M307.94,295.41c.04,.9,.4,1.84,.97,2.41,.54,.57,1.4,.94,2.45,.94,1.22,0,1.98-.54,2.45-1.04,.54-.61,.72-1.26,.72-1.98,0-1.04-.5-1.76-.94-2.12-.61-.5-1.55-.68-2.3-.68-.4,0-.72,.04-1.04,.14v-4.21c1.26,.18,2.05-.18,2.56-.61,.58-.5,.79-1.15,.79-1.69,0-.65-.29-1.37-.65-1.73-.4-.39-1.08-.65-1.76-.65-.76,0-1.37,.25-1.73,.61-.54,.5-.83,1.37-.83,2.12h-5.8c.14-2.52,1.26-4.43,2.34-5.51,1.76-1.84,4.03-2.34,6.33-2.34,1.8,0,4.18,.36,5.98,2.12,1.19,1.19,1.94,2.81,1.94,4.64,0,1.04-.18,1.98-.72,2.95-.43,.79-.97,1.4-1.84,1.84,1.48,.54,2.34,1.47,2.84,2.2,.68,1.01,1.01,2.16,1.01,3.53,0,2.55-1.12,4.25-2.12,5.26-1.3,1.29-3.6,2.55-7.16,2.55-2.3,0-4.79-.54-6.88-2.48-1.22-1.12-2.7-3.17-2.99-6.26h6.37Z" style="fill:#28509c;"/><path d="M325,303.18c-.47-.47-1.12-1.33-1.12-2.63s.65-2.16,1.12-2.63c.86-.86,1.83-1.12,2.63-1.12,.9,0,1.87,.36,2.66,1.15,.61,.61,1.04,1.4,1.04,2.59s-.43,1.98-1.08,2.63c-.76,.76-1.69,1.12-2.63,1.12-.79,0-1.76-.25-2.63-1.12Z" style="fill:#28509c;"/><path d="M350.85,294.29h2.92v4.79h-2.92v4.54h-5.76v-4.54h-11.63v-4l9.25-15.48h8.13v14.69Zm-5.76,0v-9.79l-5.65,9.79h5.65Z" style="fill:#28509c;"/><path d="M357.37,289.21c-1.04-1.12-1.51-2.41-1.51-3.89s.54-3.06,1.48-4.07c1.51-1.69,3.67-1.91,5.04-1.91,2.59,0,4.14,.9,5.11,1.91,.72,.76,1.51,2.02,1.51,3.96,0,1.84-.72,3.13-1.55,4-1.51,1.58-3.53,1.91-5.08,1.91-1.66,0-3.49-.32-5-1.91Zm3.1-5.87c-.47,.5-.72,1.19-.72,1.87,0,.83,.4,1.58,.94,2.05,.43,.39,1.04,.65,1.76,.65s1.44-.32,1.91-.76c.47-.47,.79-1.19,.79-1.94s-.29-1.47-.86-2.02c-.54-.5-1.15-.68-1.84-.68-.83,0-1.55,.36-1.98,.83Zm15.69-3.74h3.13l-13.93,24.01h-3.1l13.89-24.01Zm-2.09,22.39c-1.04-1.12-1.51-2.41-1.51-3.89s.54-3.06,1.48-4.07c1.51-1.69,3.67-1.91,5.04-1.91,2.59,0,4.14,.9,5.11,1.91,.72,.76,1.51,2.02,1.51,3.96,0,1.84-.72,3.13-1.55,3.99-1.51,1.58-3.53,1.91-5.08,1.91-1.66,0-3.49-.32-5-1.91Zm3.1-5.87c-.47,.5-.72,1.19-.72,1.87,0,.83,.4,1.58,.94,2.05,.43,.4,1.04,.65,1.76,.65s1.44-.32,1.91-.76c.47-.47,.79-1.19,.79-1.94s-.29-1.48-.87-2.02c-.54-.5-1.15-.69-1.83-.69-.83,0-1.55,.36-1.98,.83Z" style="fill:#28509c;"/></g></g><g><path d="M341.38,386.89h-8.31l-.43,2.66c.9-.14,1.62-.18,1.94-.18,3.2,0,5.22,1.22,6.33,2.38,1.08,1.08,2.2,2.92,2.2,5.69s-1.15,4.82-2.3,6.01c-2.23,2.3-5.18,2.7-7.49,2.7-3.64,0-6.16-.94-8.1-2.16l.94-5.83c1.26,1.15,2.48,1.76,2.88,1.95,1.08,.5,2.41,.83,3.6,.83,1.26,0,2.41-.43,3.13-1.19,.54-.58,.94-1.44,.94-2.45,0-1.26-.61-2.12-1.15-2.59-1.3-1.15-3.53-1.19-4.32-1.19-1.69,0-3.13,.36-4.43,1.01l2.09-12.92h12.49v5.29Z" style="fill:#28509c;"/><path d="M348,405.18c-.47-.47-1.12-1.33-1.12-2.63s.65-2.16,1.12-2.63c.86-.86,1.83-1.12,2.63-1.12,.9,0,1.87,.36,2.66,1.15,.61,.61,1.04,1.4,1.04,2.59s-.43,1.98-1.08,2.63c-.76,.76-1.69,1.12-2.63,1.12-.79,0-1.76-.25-2.63-1.12Z" style="fill:#28509c;"/><path d="M363.45,397.4c.04,.9,.4,1.84,.97,2.41,.54,.58,1.4,.94,2.45,.94,1.22,0,1.98-.54,2.45-1.04,.54-.61,.72-1.26,.72-1.98,0-1.04-.5-1.76-.94-2.12-.61-.5-1.55-.68-2.3-.68-.4,0-.72,.04-1.04,.14v-4.21c1.26,.18,2.05-.18,2.55-.61,.58-.5,.79-1.15,.79-1.69,0-.65-.29-1.37-.65-1.73-.4-.4-1.08-.65-1.76-.65-.76,0-1.37,.25-1.73,.61-.54,.5-.83,1.37-.83,2.12h-5.8c.14-2.52,1.26-4.43,2.34-5.51,1.76-1.84,4.03-2.34,6.34-2.34,1.8,0,4.18,.36,5.97,2.12,1.19,1.19,1.94,2.81,1.94,4.64,0,1.04-.18,1.98-.72,2.95-.43,.79-.97,1.4-1.84,1.84,1.48,.54,2.34,1.48,2.84,2.2,.68,1.01,1.01,2.16,1.01,3.53,0,2.56-1.12,4.25-2.12,5.26-1.3,1.3-3.6,2.56-7.16,2.56-2.3,0-4.79-.54-6.88-2.48-1.22-1.12-2.7-3.17-2.99-6.26h6.37Z" style="fill:#28509c;"/><path d="M380.37,391.21c-1.04-1.12-1.51-2.41-1.51-3.89,0-1.55,.54-3.06,1.48-4.07,1.51-1.69,3.67-1.91,5.04-1.91,2.59,0,4.14,.9,5.11,1.91,.72,.76,1.51,2.02,1.51,3.96,0,1.84-.72,3.13-1.55,3.99-1.51,1.58-3.53,1.91-5.08,1.91-1.66,0-3.49-.32-5-1.91Zm3.1-5.87c-.47,.5-.72,1.19-.72,1.87,0,.83,.4,1.58,.94,2.05,.43,.4,1.04,.65,1.76,.65s1.44-.32,1.91-.76c.47-.47,.79-1.19,.79-1.94s-.29-1.48-.86-2.02c-.54-.5-1.15-.69-1.84-.69-.83,0-1.55,.36-1.98,.83Zm15.69-3.74h3.13l-13.93,24.01h-3.1l13.89-24.01Zm-2.09,22.39c-1.04-1.12-1.51-2.41-1.51-3.89,0-1.55,.54-3.06,1.48-4.07,1.51-1.69,3.67-1.91,5.04-1.91,2.59,0,4.14,.9,5.11,1.91,.72,.76,1.51,2.02,1.51,3.96,0,1.84-.72,3.13-1.55,4-1.51,1.58-3.53,1.91-5.08,1.91-1.66,0-3.49-.32-5-1.91Zm3.1-5.87c-.47,.5-.72,1.19-.72,1.87,0,.83,.4,1.58,.94,2.05,.43,.39,1.04,.65,1.76,.65s1.44-.32,1.91-.76c.47-.47,.79-1.19,.79-1.94s-.29-1.47-.87-2.02c-.54-.5-1.15-.68-1.83-.68-.83,0-1.55,.36-1.98,.83Z" style="fill:#28509c;"/></g><g><rect x="251" y="465.54" width="5" height="65.32" style="fill:#28509c;"/><g><path d="M292.98,503.42c-1.87,1.83-4.28,2.73-6.62,2.73s-4.75-.9-6.62-2.73c-2.16-2.12-3.56-5.58-3.56-9.79s1.4-7.7,3.56-9.83c1.87-1.84,4.28-2.73,6.62-2.73s4.75,.9,6.62,2.73c2.16,2.12,3.56,5.58,3.56,9.83s-1.4,7.67-3.56,9.79Zm-8.53-16.02c-1.3,1.12-2.09,4.03-2.09,6.26,0,1.91,.68,5.04,2.09,6.26,.47,.43,1.19,.76,1.91,.76s1.44-.32,1.91-.76c1.33-1.15,2.09-4.18,2.09-6.23s-.83-5.18-2.09-6.3c-.47-.43-1.19-.76-1.91-.76s-1.44,.32-1.91,.76Z" style="fill:#28509c;"/><path d="M300,505.18c-.47-.47-1.12-1.33-1.12-2.63s.65-2.16,1.12-2.63c.86-.86,1.83-1.12,2.63-1.12,.9,0,1.87,.36,2.66,1.15,.61,.61,1.04,1.4,1.04,2.59s-.43,1.98-1.08,2.63c-.76,.76-1.69,1.12-2.63,1.12-.79,0-1.76-.25-2.63-1.12Z" style="fill:#28509c;"/><path d="M315.45,497.41c.04,.9,.4,1.84,.97,2.41,.54,.57,1.4,.94,2.45,.94,1.22,0,1.98-.54,2.45-1.04,.54-.61,.72-1.26,.72-1.98,0-1.04-.5-1.76-.94-2.12-.61-.5-1.55-.68-2.3-.68-.4,0-.72,.04-1.04,.14v-4.21c1.26,.18,2.05-.18,2.55-.61,.58-.5,.79-1.15,.79-1.69,0-.65-.29-1.37-.65-1.73-.4-.39-1.08-.65-1.76-.65-.76,0-1.37,.25-1.73,.61-.54,.5-.83,1.37-.83,2.12h-5.8c.14-2.52,1.26-4.43,2.34-5.51,1.76-1.84,4.03-2.34,6.34-2.34,1.8,0,4.18,.36,5.97,2.12,1.19,1.19,1.94,2.81,1.94,4.64,0,1.04-.18,1.98-.72,2.95-.43,.79-.97,1.4-1.84,1.84,1.48,.54,2.34,1.47,2.84,2.2,.68,1.01,1.01,2.16,1.01,3.53,0,2.55-1.12,4.25-2.12,5.26-1.3,1.29-3.6,2.55-7.16,2.55-2.3,0-4.79-.54-6.88-2.48-1.22-1.12-2.7-3.17-2.99-6.26h6.37Z" style="fill:#28509c;"/><path d="M332.37,491.21c-1.04-1.12-1.51-2.41-1.51-3.89s.54-3.06,1.48-4.07c1.51-1.69,3.67-1.91,5.04-1.91,2.59,0,4.14,.9,5.11,1.91,.72,.76,1.51,2.02,1.51,3.96,0,1.84-.72,3.13-1.55,4-1.51,1.58-3.53,1.91-5.08,1.91-1.66,0-3.49-.32-5-1.91Zm3.1-5.87c-.47,.5-.72,1.19-.72,1.87,0,.83,.4,1.58,.94,2.05,.43,.39,1.04,.65,1.76,.65s1.44-.32,1.91-.76c.47-.47,.79-1.19,.79-1.94s-.29-1.47-.86-2.02c-.54-.5-1.15-.68-1.84-.68-.83,0-1.55,.36-1.98,.83Zm15.69-3.74h3.13l-13.93,24.01h-3.1l13.89-24.01Zm-2.09,22.39c-1.04-1.12-1.51-2.41-1.51-3.89s.54-3.06,1.48-4.07c1.51-1.69,3.67-1.91,5.04-1.91,2.59,0,4.14,.9,5.11,1.91,.72,.76,1.51,2.02,1.51,3.96,0,1.84-.72,3.13-1.55,3.99-1.51,1.58-3.53,1.91-5.08,1.91-1.66,0-3.49-.32-5-1.91Zm3.1-5.87c-.47,.5-.72,1.19-.72,1.87,0,.83,.4,1.58,.94,2.05,.43,.4,1.04,.65,1.76,.65s1.44-.32,1.91-.76c.47-.47,.79-1.19,.79-1.94s-.29-1.48-.87-2.02c-.54-.5-1.15-.69-1.83-.69-.83,0-1.55,.36-1.98,.83Z" style="fill:#28509c;"/></g></g><g><rect x="251" y="571.05" width="13" height="65.32" style="fill:#28509c;"/><g><path d="M286.08,594.89h-3.42v-5.29h9.65v24.01h-6.23v-18.72Z" style="fill:#28509c;"/><path d="M299.87,613.18c-.47-.47-1.12-1.33-1.12-2.63s.65-2.16,1.12-2.63c.86-.86,1.84-1.12,2.63-1.12,.9,0,1.87,.36,2.66,1.15,.61,.61,1.04,1.4,1.04,2.59s-.43,1.98-1.08,2.63c-.76,.76-1.69,1.12-2.63,1.12-.79,0-1.76-.25-2.63-1.12Z" style="fill:#28509c;"/><path d="M321,594.89h-10.01v-5.29h19.69l-13.75,24.01h-6.88l10.94-18.72Z" style="fill:#28509c;"/><path d="M332.27,599.21c-1.04-1.12-1.51-2.41-1.51-3.89s.54-3.06,1.48-4.07c1.51-1.69,3.67-1.91,5.04-1.91,2.59,0,4.14,.9,5.11,1.91,.72,.76,1.51,2.02,1.51,3.96,0,1.84-.72,3.13-1.55,4-1.51,1.58-3.53,1.91-5.08,1.91-1.66,0-3.49-.32-5-1.91Zm3.1-5.87c-.47,.5-.72,1.19-.72,1.87,0,.83,.4,1.58,.94,2.05,.43,.39,1.04,.65,1.76,.65s1.44-.32,1.91-.76c.47-.47,.79-1.19,.79-1.94s-.29-1.47-.86-2.02c-.54-.5-1.15-.68-1.84-.68-.83,0-1.55,.36-1.98,.83Zm15.69-3.74h3.13l-13.93,24.01h-3.09l13.89-24.01Zm-2.09,22.39c-1.04-1.12-1.51-2.41-1.51-3.89s.54-3.06,1.48-4.07c1.51-1.69,3.67-1.91,5.04-1.91,2.59,0,4.14,.9,5.11,1.91,.72,.76,1.51,2.02,1.51,3.96,0,1.84-.72,3.13-1.55,3.99-1.51,1.58-3.53,1.91-5.08,1.91-1.66,0-3.49-.32-5-1.91Zm3.1-5.87c-.47,.5-.72,1.19-.72,1.87,0,.83,.4,1.58,.94,2.05,.43,.4,1.04,.65,1.76,.65s1.44-.32,1.91-.76c.47-.47,.79-1.19,.79-1.94s-.29-1.48-.86-2.02c-.54-.5-1.15-.69-1.84-.69-.83,0-1.55,.36-1.98,.83Z" style="fill:#28509c;"/></g></g><g><rect x="251" y="157.56" width="218" height="65.32" style="fill:#28509c;"/><g><path d="M505.39,197.61h-19.26l6.08-6.37c2.16-2.27,3.78-4.25,4.93-6.08,.65-1.01,1.29-2.2,1.29-3.74,0-.25,0-1.51-.72-2.3-.36-.4-.97-.72-1.76-.72-1.01,0-1.69,.47-2.09,.97-.58,.76-.83,2.12-.86,2.95h-6.44c.04-3.13,1.4-5.4,2.66-6.66,1.62-1.62,3.82-2.59,6.8-2.59,3.6,0,5.69,1.4,6.77,2.48,.97,.97,2.34,2.81,2.34,5.9s-1.4,5.11-3.56,7.13l-4.03,3.74h7.85v5.29Z" style="fill:#28509c;"/><path d="M524.58,188.29h2.92v4.79h-2.92v4.54h-5.76v-4.54h-11.63v-4l9.25-15.48h8.13v14.69Zm-5.76,0v-9.79l-5.65,9.79h5.65Z" style="fill:#28509c;"/><path d="M531.24,197.18c-.47-.47-1.12-1.33-1.12-2.63s.65-2.16,1.12-2.63c.86-.86,1.84-1.12,2.63-1.12,.9,0,1.87,.36,2.66,1.15,.61,.61,1.04,1.4,1.04,2.59s-.43,1.98-1.08,2.63c-.76,.76-1.69,1.12-2.63,1.12-.79,0-1.76-.25-2.63-1.12Z" style="fill:#28509c;"/><path d="M544.85,178.89h-3.42v-5.29h9.65v24.01h-6.23v-18.72Z" style="fill:#28509c;"/><path d="M560.73,183.21c-1.04-1.12-1.51-2.41-1.51-3.89s.54-3.06,1.48-4.07c1.51-1.69,3.67-1.91,5.04-1.91,2.59,0,4.14,.9,5.11,1.91,.72,.76,1.51,2.02,1.51,3.96,0,1.84-.72,3.13-1.55,4-1.51,1.58-3.53,1.91-5.07,1.91-1.66,0-3.49-.32-5-1.91Zm3.1-5.87c-.47,.5-.72,1.19-.72,1.87,0,.83,.4,1.58,.94,2.05,.43,.39,1.04,.65,1.76,.65s1.44-.32,1.91-.76c.47-.47,.79-1.19,.79-1.94s-.29-1.47-.86-2.02c-.54-.5-1.15-.68-1.84-.68-.83,0-1.55,.36-1.98,.83Zm15.69-3.74h3.13l-13.93,24.01h-3.09l13.89-24.01Zm-2.09,22.39c-1.04-1.12-1.51-2.41-1.51-3.89s.54-3.06,1.48-4.07c1.51-1.69,3.67-1.91,5.04-1.91,2.59,0,4.14,.9,5.11,1.91,.72,.76,1.51,2.02,1.51,3.96,0,1.84-.72,3.13-1.55,3.99-1.51,1.58-3.53,1.91-5.08,1.91-1.66,0-3.49-.32-5-1.91Zm3.1-5.87c-.47,.5-.72,1.19-.72,1.87,0,.83,.4,1.58,.94,2.05,.43,.4,1.04,.65,1.76,.65s1.44-.32,1.91-.76c.47-.47,.79-1.19,.79-1.94s-.29-1.48-.86-2.02c-.54-.5-1.15-.69-1.84-.69-.83,0-1.55,.36-1.98,.83Z" style="fill:#28509c;"/></g></g><g><rect x="251" y="674" width="576" height="65.32" style="fill:#28509c;"/><g><path d="M868.9,695.6l-6.84,8.17c.97-.43,2.16-.76,3.35-.76,1.8,0,3.85,.72,5.44,2.3,1.69,1.69,2.27,3.67,2.27,5.72,0,2.23-.61,4.39-2.48,6.26-2.38,2.38-5.36,2.84-7.67,2.84-4.14,0-6.55-1.55-7.88-2.92-1.15-1.19-2.2-3.02-2.2-5.62,0-3.28,1.66-6.44,3.56-8.96l5.36-7.05h7.09Zm-3.28,18.5c.68-.68,1.12-1.66,1.12-2.74,0-.76-.25-1.69-1.12-2.52-.97-.94-2.05-1.12-2.77-1.12-.94,0-1.98,.4-2.7,1.04-.76,.69-1.19,1.66-1.19,2.48,0,1.01,.36,2.02,1.04,2.74,.94,.97,2.05,1.22,2.84,1.22,1.33,0,2.23-.58,2.77-1.12Z" style="fill:#28509c;"/><path d="M891.62,700.89h-8.31l-.43,2.66c.9-.14,1.62-.18,1.94-.18,3.2,0,5.22,1.22,6.33,2.38,1.08,1.08,2.2,2.92,2.2,5.69s-1.15,4.82-2.3,6.01c-2.23,2.3-5.18,2.7-7.49,2.7-3.64,0-6.16-.94-8.1-2.16l.94-5.83c1.26,1.15,2.48,1.76,2.88,1.94,1.08,.5,2.41,.83,3.6,.83,1.26,0,2.41-.43,3.13-1.19,.54-.58,.94-1.44,.94-2.45,0-1.26-.61-2.12-1.15-2.59-1.29-1.15-3.53-1.19-4.32-1.19-1.69,0-3.13,.36-4.43,1.01l2.09-12.92h12.49v5.29Z" style="fill:#28509c;"/><path d="M898.24,719.18c-.47-.47-1.12-1.33-1.12-2.63s.65-2.16,1.12-2.63c.86-.86,1.84-1.12,2.63-1.12,.9,0,1.87,.36,2.66,1.15,.61,.61,1.04,1.4,1.04,2.59s-.43,1.98-1.08,2.63c-.76,.76-1.69,1.12-2.63,1.12-.79,0-1.76-.25-2.63-1.12Z" style="fill:#28509c;"/><path d="M911.85,700.89h-3.42v-5.29h9.65v24.01h-6.23v-18.72Z" style="fill:#28509c;"/><path d="M927.73,705.21c-1.04-1.12-1.51-2.41-1.51-3.89s.54-3.06,1.48-4.07c1.51-1.69,3.67-1.91,5.04-1.91,2.59,0,4.14,.9,5.11,1.91,.72,.76,1.51,2.02,1.51,3.96,0,1.84-.72,3.13-1.55,4-1.51,1.58-3.53,1.91-5.07,1.91-1.66,0-3.49-.32-5-1.91Zm3.1-5.87c-.47,.5-.72,1.19-.72,1.87,0,.83,.4,1.58,.94,2.05,.43,.39,1.04,.65,1.76,.65s1.44-.32,1.91-.76c.47-.47,.79-1.19,.79-1.94s-.29-1.47-.86-2.02c-.54-.5-1.15-.68-1.84-.68-.83,0-1.55,.36-1.98,.83Zm15.69-3.74h3.13l-13.93,24.01h-3.09l13.89-24.01Zm-2.09,22.39c-1.04-1.12-1.51-2.41-1.51-3.89s.54-3.06,1.48-4.07c1.51-1.69,3.67-1.91,5.04-1.91,2.59,0,4.14,.9,5.11,1.91,.72,.76,1.51,2.02,1.51,3.96,0,1.84-.72,3.13-1.55,3.99-1.51,1.58-3.53,1.91-5.08,1.91-1.66,0-3.49-.32-5-1.91Zm3.1-5.87c-.47,.5-.72,1.19-.72,1.87,0,.83,.4,1.58,.94,2.05,.43,.4,1.04,.65,1.76,.65s1.44-.32,1.91-.76c.47-.47,.79-1.19,.79-1.94s-.29-1.48-.86-2.02c-.54-.5-1.15-.69-1.84-.69-.83,0-1.55,.36-1.98,.83Z" style="fill:#28509c;"/></g></g><g><path d="M576.46,589.6l-6.84,8.17c.97-.43,2.16-.76,3.35-.76,1.8,0,3.85,.72,5.43,2.3,1.69,1.69,2.27,3.67,2.27,5.72,0,2.23-.61,4.39-2.48,6.26-2.38,2.38-5.36,2.84-7.67,2.84-4.14,0-6.55-1.55-7.88-2.92-1.15-1.19-2.2-3.02-2.2-5.62,0-3.28,1.66-6.44,3.56-8.96l5.36-7.05h7.09Zm-3.28,18.5c.68-.68,1.12-1.66,1.12-2.74,0-.76-.25-1.69-1.12-2.52-.97-.94-2.05-1.12-2.77-1.12-.94,0-1.98,.4-2.7,1.04-.76,.69-1.19,1.66-1.19,2.48,0,1.01,.36,2.02,1.04,2.74,.94,.97,2.05,1.22,2.84,1.22,1.33,0,2.23-.58,2.77-1.12Z" style="fill:#fff;"/><path d="M599.18,594.89h-8.32l-.43,2.66c.9-.14,1.62-.18,1.94-.18,3.2,0,5.22,1.22,6.33,2.38,1.08,1.08,2.2,2.92,2.2,5.69s-1.15,4.82-2.3,6.01c-2.23,2.3-5.18,2.7-7.49,2.7-3.64,0-6.16-.94-8.1-2.16l.94-5.83c1.26,1.15,2.48,1.76,2.88,1.94,1.08,.5,2.41,.83,3.6,.83,1.26,0,2.41-.43,3.13-1.19,.54-.58,.94-1.44,.94-2.45,0-1.26-.61-2.12-1.15-2.59-1.3-1.15-3.53-1.19-4.32-1.19-1.69,0-3.13,.36-4.43,1.01l2.09-12.92h12.49v5.29Z" style="fill:#fff;"/><path d="M605.8,613.18c-.47-.47-1.12-1.33-1.12-2.63s.65-2.16,1.12-2.63c.86-.86,1.84-1.12,2.63-1.12,.9,0,1.87,.36,2.66,1.15,.61,.61,1.04,1.4,1.04,2.59s-.43,1.98-1.08,2.63c-.76,.76-1.69,1.12-2.63,1.12-.79,0-1.76-.25-2.63-1.12Z" style="fill:#fff;"/><path d="M631.68,594.89h-8.32l-.43,2.66c.9-.14,1.62-.18,1.94-.18,3.2,0,5.22,1.22,6.34,2.38,1.08,1.08,2.2,2.92,2.2,5.69s-1.15,4.82-2.3,6.01c-2.23,2.3-5.18,2.7-7.49,2.7-3.63,0-6.15-.94-8.1-2.16l.94-5.83c1.26,1.15,2.48,1.76,2.88,1.94,1.08,.5,2.41,.83,3.6,.83,1.26,0,2.41-.43,3.13-1.19,.54-.58,.94-1.44,.94-2.45,0-1.26-.61-2.12-1.15-2.59-1.3-1.15-3.53-1.19-4.32-1.19-1.69,0-3.13,.36-4.43,1.01l2.09-12.92h12.49v5.29Z" style="fill:#fff;"/><path d="M638.17,599.21c-1.04-1.12-1.51-2.41-1.51-3.89s.54-3.06,1.48-4.07c1.51-1.69,3.67-1.91,5.04-1.91,2.59,0,4.14,.9,5.11,1.91,.72,.76,1.51,2.02,1.51,3.96,0,1.84-.72,3.13-1.55,4-1.51,1.58-3.53,1.91-5.07,1.91-1.66,0-3.49-.32-5-1.91Zm3.1-5.87c-.47,.5-.72,1.19-.72,1.87,0,.83,.4,1.58,.94,2.05,.43,.39,1.04,.65,1.76,.65s1.44-.32,1.91-.76c.47-.47,.79-1.19,.79-1.94s-.29-1.47-.86-2.02c-.54-.5-1.15-.68-1.84-.68-.83,0-1.55,.36-1.98,.83Zm15.69-3.74h3.13l-13.93,24.01h-3.09l13.89-24.01Zm-2.09,22.39c-1.04-1.12-1.51-2.41-1.51-3.89s.54-3.06,1.48-4.07c1.51-1.69,3.67-1.91,5.04-1.91,2.59,0,4.14,.9,5.11,1.91,.72,.76,1.51,2.02,1.51,3.96,0,1.84-.72,3.13-1.55,3.99-1.51,1.58-3.53,1.91-5.08,1.91-1.66,0-3.49-.32-5-1.91Zm3.1-5.87c-.47,.5-.72,1.19-.72,1.87,0,.83,.4,1.58,.94,2.05,.43,.4,1.04,.65,1.76,.65s1.44-.32,1.91-.76c.47-.47,.79-1.19,.79-1.94s-.29-1.48-.86-2.02c-.54-.5-1.15-.69-1.84-.69-.83,0-1.55,.36-1.98,.83Z" style="fill:#fff;"/></g><g><line x1="776.37" y1="157" x2="776.37" y2="740" style="fill:none; stroke:#a0a0a0; stroke-miterlimit:10; stroke-width:.68px;"/><line x1="688.81" y1="157" x2="688.81" y2="740" style="fill:none; stroke:#a0a0a0; stroke-miterlimit:10; stroke-width:.68px;"/><line x1="951.5" y1="157" x2="951.5" y2="740" style="fill:none; stroke:#a0a0a0; stroke-miterlimit:10; stroke-width:.68px;"/><line x1="863.94" y1="157" x2="863.94" y2="740" style="fill:none; stroke:#a0a0a0; stroke-miterlimit:10; stroke-width:.68px;"/><line x1="601.25" y1="157" x2="601.25" y2="740" style="fill:none; stroke:#a0a0a0; stroke-miterlimit:10; stroke-width:.68px;"/><line x1="513.69" y1="157" x2="513.69" y2="740" style="fill:none; stroke:#a0a0a0; stroke-miterlimit:10; stroke-width:.68px;"/><line x1="426.12" y1="157" x2="426.12" y2="740" style="fill:none; stroke:#a0a0a0; stroke-miterlimit:10; stroke-width:.68px;"/><line x1="338.56" y1="157" x2="338.56" y2="740" style="fill:none; stroke:#a0a0a0; stroke-miterlimit:10; stroke-width:.68px;"/><line x1="251" y1="157" x2="251" y2="740" style="fill:none; stroke:#a0a0a0; stroke-miterlimit:10; stroke-width:.68px;"/></g><g><path d="M267.52,60.9h-12.58l-2.34,5.82h-9.52l13.31-34.69h9.83l13.05,34.69h-9.62l-2.13-5.82Zm-2.39-6.86l-3.9-11.23-3.8,11.23h7.7Z" style="fill:#28509c;"/><path d="M284,59.03c.99,.73,2.18,1.35,3.33,1.72,1.04,.36,2.34,.57,3.22,.57,.62,0,1.61-.16,2.13-.62,.36-.36,.42-.68,.42-1.09,0-.36-.05-.73-.42-1.04-.52-.47-1.35-.62-2.18-.83l-2.18-.52c-1.14-.26-2.81-.68-4.06-2.03-.88-.94-1.51-2.24-1.51-4,0-2.24,.88-4.32,2.18-5.67,1.77-1.82,4.89-2.81,8.32-2.81s6.08,.94,7.44,1.51l-2.81,5.3c-1.14-.52-2.86-1.14-4.37-1.14-.83,0-1.4,.16-1.92,.47-.47,.26-.73,.62-.73,1.14,0,.73,.47,1.09,.99,1.3,.78,.31,1.46,.31,2.76,.68l1.51,.42c1.09,.31,2.76,1.14,3.43,1.82,1.14,1.09,1.77,2.91,1.77,4.63,0,2.81-1.2,4.68-2.34,5.77-2.7,2.7-6.66,2.91-8.58,2.91-2.08,0-5.36-.26-9.36-2.7l2.96-5.77Z" style="fill:#28509c;"/><path d="M307.09,59.03c.99,.73,2.18,1.35,3.33,1.72,1.04,.36,2.34,.57,3.22,.57,.62,0,1.61-.16,2.13-.62,.36-.36,.42-.68,.42-1.09,0-.36-.05-.73-.42-1.04-.52-.47-1.35-.62-2.18-.83l-2.18-.52c-1.14-.26-2.81-.68-4.06-2.03-.88-.94-1.51-2.24-1.51-4,0-2.24,.88-4.32,2.18-5.67,1.77-1.82,4.89-2.81,8.32-2.81s6.08,.94,7.44,1.51l-2.81,5.3c-1.14-.52-2.86-1.14-4.37-1.14-.83,0-1.4,.16-1.92,.47-.47,.26-.73,.62-.73,1.14,0,.73,.47,1.09,.99,1.3,.78,.31,1.46,.31,2.76,.68l1.51,.42c1.09,.31,2.76,1.14,3.43,1.82,1.14,1.09,1.77,2.91,1.77,4.63,0,2.81-1.2,4.68-2.34,5.77-2.7,2.7-6.66,2.91-8.58,2.91-2.08,0-5.36-.26-9.36-2.7l2.96-5.77Z" style="fill:#28509c;"/><path d="M352.07,63.66c-3.07,3.02-6.66,3.85-10.4,3.85-3.38,0-7.12-.68-10.35-3.85-2.55-2.5-3.59-5.46-3.59-8.58,0-4.16,1.87-6.86,3.59-8.53,1.92-1.87,5.3-3.85,10.35-3.85s8.48,2.03,10.4,3.85c1.72,1.66,3.59,4.37,3.59,8.53,0,3.12-1.04,6.08-3.59,8.58Zm-14.09-12.38c-1.04,.99-1.61,2.44-1.61,3.8s.68,2.76,1.61,3.69c.99,.99,2.34,1.56,3.74,1.56s2.7-.57,3.69-1.56c1.04-.99,1.61-2.34,1.61-3.69,0-1.25-.57-2.76-1.61-3.8-.94-.88-2.39-1.51-3.69-1.51s-2.81,.62-3.74,1.51Z" style="fill:#28509c;"/><path d="M378.02,66.21c-2.24,1.09-4.06,1.3-5.77,1.3-4.52,0-7.49-1.92-9.15-3.54-2.18-2.13-3.59-5.25-3.59-8.68s1.4-6.71,3.74-9c2.18-2.08,5.41-3.54,9.36-3.54,1.46,0,3.33,.26,5.41,1.3v6.97c-1.09-.78-2.55-1.51-4.32-1.51-1.98,0-3.22,.78-4.06,1.61-1.14,1.14-1.61,2.65-1.61,4s.47,2.81,1.46,3.9c.78,.83,2.13,1.77,4.26,1.77,1.2,0,2.76-.26,4.26-1.56v6.97Z" style="fill:#28509c;"/><path d="M386.91,29.13c2.6,0,4.68,2.08,4.68,4.68s-2.08,4.68-4.68,4.68-4.68-2.08-4.68-4.68,2.08-4.68,4.68-4.68Zm4.16,14.35v23.25h-8.32v-23.25h8.32Z" style="fill:#28509c;"/><path d="M414.73,43.48h8.32v23.25h-8.32v-2.55c-1.92,2.65-4.94,3.33-7.23,3.33-2.5,0-5.56-.73-8.37-3.69-2.24-2.39-3.33-5.04-3.33-8.53,0-4.37,1.72-7.44,3.59-9.31,1.98-1.98,5.04-3.28,8.37-3.28,3.74,0,5.98,1.92,6.97,3.02v-2.24Zm-8.74,7.8c-1.14,1.09-1.66,2.6-1.66,3.8,0,1.35,.57,2.81,1.61,3.8,.88,.83,2.34,1.56,3.74,1.56s2.7-.57,3.74-1.61c.73-.73,1.56-1.87,1.56-3.74,0-1.09-.31-2.55-1.61-3.8-.78-.73-1.98-1.51-3.74-1.51-1.04,0-2.44,.36-3.64,1.51Z" style="fill:#28509c;"/><path d="M437.97,50.3v16.43h-8.32v-16.43h-2.65v-6.81h2.65v-7.64h8.32v7.64h4.73v6.81h-4.73Z" style="fill:#28509c;"/><path d="M470.47,56.64h-17.32c0,1.25,.47,2.91,1.46,3.9,.52,.52,1.56,1.14,3.43,1.14,.21,0,1.66-.05,2.71-.62,.52-.31,1.09-.83,1.46-1.56h7.96c-.36,1.3-1.09,3.12-2.81,4.78-1.72,1.66-4.42,3.22-9.46,3.22-3.07,0-6.76-.68-9.62-3.54-1.51-1.51-3.43-4.37-3.43-8.79,0-3.9,1.46-7.02,3.48-9,1.92-1.87,4.94-3.38,9.52-3.38,2.7,0,6.19,.57,8.94,3.17,3.28,3.12,3.69,7.18,3.69,9.78v.88Zm-7.64-4.79c-.21-.88-.73-1.87-1.35-2.5-1.09-1.09-2.6-1.25-3.43-1.25-1.4,0-2.5,.36-3.38,1.25-.57,.62-1.09,1.46-1.25,2.5h9.41Z" style="fill:#28509c;"/><path d="M488.15,66.73V32.04h11.8c3.48,0,9.31,.47,13.78,4.78,4.06,3.9,4.84,8.89,4.84,12.64,0,4.58-1.14,8.63-4.52,12.01-2.76,2.76-7.38,5.25-13.31,5.25h-12.58Zm9-7.64h1.82c2.18,0,5.25-.21,7.59-2.5,1.14-1.09,2.65-3.28,2.65-7.12,0-3.22-.99-5.98-2.7-7.59-2.13-1.98-4.94-2.18-7.18-2.18h-2.18v19.4Z" style="fill:#28509c;"/><path d="M527.67,29.13c2.6,0,4.68,2.08,4.68,4.68s-2.08,4.68-4.68,4.68-4.68-2.08-4.68-4.68,2.08-4.68,4.68-4.68Zm4.16,14.35v23.25h-8.32v-23.25h8.32Z" style="fill:#28509c;"/><path d="M537.5,43.48h8.32v3.8c.83-1.56,2.03-2.6,3.28-3.22,1.25-.68,2.76-.94,4.32-.94,.21,0,.57,.05,1.66,.1v7.85c-.42-.21-1.56-.83-3.59-.83-1.09,0-2.6,.16-3.8,1.25-1.77,1.61-1.87,4.06-1.87,5.3v9.93h-8.32v-23.25Z" style="fill:#28509c;"/><path d="M583.41,56.64h-17.32c0,1.25,.47,2.91,1.46,3.9,.52,.52,1.56,1.14,3.43,1.14,.21,0,1.66-.05,2.7-.62,.52-.31,1.09-.83,1.46-1.56h7.96c-.36,1.3-1.09,3.12-2.81,4.78s-4.42,3.22-9.46,3.22c-3.07,0-6.76-.68-9.62-3.54-1.51-1.51-3.43-4.37-3.43-8.79,0-3.9,1.46-7.02,3.48-9,1.92-1.87,4.94-3.38,9.52-3.38,2.71,0,6.19,.57,8.95,3.17,3.28,3.12,3.69,7.18,3.69,9.78v.88Zm-7.64-4.79c-.21-.88-.73-1.87-1.35-2.5-1.09-1.09-2.6-1.25-3.43-1.25-1.4,0-2.5,.36-3.38,1.25-.57,.62-1.09,1.46-1.25,2.5h9.41Z" style="fill:#28509c;"/><path d="M605.77,66.21c-2.24,1.09-4.06,1.3-5.77,1.3-4.52,0-7.49-1.92-9.15-3.54-2.18-2.13-3.59-5.25-3.59-8.68s1.4-6.71,3.74-9c2.18-2.08,5.41-3.54,9.36-3.54,1.46,0,3.33,.26,5.41,1.3v6.97c-1.09-.78-2.55-1.51-4.32-1.51-1.98,0-3.22,.78-4.06,1.61-1.14,1.14-1.61,2.65-1.61,4s.47,2.81,1.46,3.9c.78,.83,2.13,1.77,4.26,1.77,1.2,0,2.76-.26,4.26-1.56v6.97Z" style="fill:#28509c;"/><path d="M620.23,50.3v16.43h-8.32v-16.43h-2.65v-6.81h2.65v-7.64h8.32v7.64h4.73v6.81h-4.73Z" style="fill:#28509c;"/><path d="M651.48,63.66c-3.07,3.02-6.66,3.85-10.4,3.85-3.38,0-7.12-.68-10.35-3.85-2.55-2.5-3.59-5.46-3.59-8.58,0-4.16,1.87-6.86,3.59-8.53,1.92-1.87,5.3-3.85,10.35-3.85s8.48,2.03,10.4,3.85c1.72,1.66,3.59,4.37,3.59,8.53,0,3.12-1.04,6.08-3.59,8.58Zm-14.09-12.38c-1.04,.99-1.61,2.44-1.61,3.8s.68,2.76,1.61,3.69c.99,.99,2.34,1.56,3.74,1.56s2.7-.57,3.69-1.56c1.04-.99,1.61-2.34,1.61-3.69,0-1.25-.57-2.76-1.61-3.8-.94-.88-2.39-1.51-3.69-1.51s-2.81,.62-3.74,1.51Z" style="fill:#28509c;"/><path d="M659.85,43.48h8.32v3.8c.83-1.56,2.03-2.6,3.28-3.22,1.25-.68,2.76-.94,4.32-.94,.21,0,.57,.05,1.66,.1v7.85c-.42-.21-1.56-.83-3.59-.83-1.09,0-2.6,.16-3.8,1.25-1.77,1.61-1.87,4.06-1.87,5.3v9.93h-8.32v-23.25Z" style="fill:#28509c;"/><path d="M682.62,59.03c.99,.73,2.18,1.35,3.33,1.72,1.04,.36,2.34,.57,3.22,.57,.62,0,1.61-.16,2.13-.62,.36-.36,.42-.68,.42-1.09,0-.36-.05-.73-.42-1.04-.52-.47-1.35-.62-2.18-.83l-2.18-.52c-1.14-.26-2.81-.68-4.06-2.03-.88-.94-1.51-2.24-1.51-4,0-2.24,.88-4.32,2.18-5.67,1.77-1.82,4.89-2.81,8.32-2.81s6.08,.94,7.44,1.51l-2.81,5.3c-1.14-.52-2.86-1.14-4.37-1.14-.83,0-1.4,.16-1.92,.47-.47,.26-.73,.62-.73,1.14,0,.73,.47,1.09,.99,1.3,.78,.31,1.46,.31,2.76,.68l1.51,.42c1.09,.31,2.76,1.14,3.43,1.82,1.14,1.09,1.77,2.91,1.77,4.63,0,2.81-1.2,4.68-2.34,5.77-2.7,2.7-6.66,2.91-8.58,2.91-2.08,0-5.36-.26-9.36-2.7l2.96-5.77Z" style="fill:#28509c;"/><path d="M725.52,50.3v16.43h-8.32v-16.43h-2.65v-6.81h2.65v-7.64h8.32v7.64h4.73v6.81h-4.73Z" style="fill:#28509c;"/><path d="M756.78,63.66c-3.07,3.02-6.66,3.85-10.4,3.85-3.38,0-7.12-.68-10.35-3.85-2.55-2.5-3.59-5.46-3.59-8.58,0-4.16,1.87-6.86,3.59-8.53,1.92-1.87,5.3-3.85,10.35-3.85s8.48,2.03,10.4,3.85c1.72,1.66,3.59,4.37,3.59,8.53,0,3.12-1.04,6.08-3.59,8.58Zm-14.09-12.38c-1.04,.99-1.61,2.44-1.61,3.8s.68,2.76,1.61,3.69c.99,.99,2.34,1.56,3.74,1.56s2.7-.57,3.69-1.56c1.04-.99,1.61-2.34,1.61-3.69,0-1.25-.57-2.76-1.61-3.8-.94-.88-2.39-1.51-3.69-1.51s-2.81,.62-3.74,1.51Z" style="fill:#28509c;"/><path d="M297,99.69h-10.71v5.77h10.14v7.64h-10.14v5.98h10.71v7.64h-19.71v-34.69h19.71v7.64Z" style="fill:#28509c;"/><path d="M310.68,114.09l-9.41-10.61h10.82l4,4.78,4.11-4.78h10.76l-9.62,10.61,11.65,12.64h-11.02l-5.93-6.92-5.93,6.92h-11.02l11.6-12.64Z" style="fill:#28509c;"/><path d="M358.52,116.64h-17.32c0,1.25,.47,2.91,1.46,3.9,.52,.52,1.56,1.14,3.43,1.14,.21,0,1.66-.05,2.7-.62,.52-.31,1.09-.83,1.46-1.56h7.96c-.36,1.3-1.09,3.12-2.81,4.78-1.72,1.66-4.42,3.22-9.46,3.22-3.07,0-6.76-.68-9.62-3.54-1.51-1.51-3.43-4.37-3.43-8.79,0-3.9,1.46-7.02,3.48-9,1.92-1.87,4.94-3.38,9.52-3.38,2.7,0,6.19,.57,8.94,3.17,3.28,3.12,3.69,7.18,3.69,9.78v.88Zm-7.64-4.79c-.21-.88-.73-1.87-1.35-2.5-1.09-1.09-2.6-1.25-3.43-1.25-1.4,0-2.5,.36-3.38,1.25-.57,.62-1.09,1.46-1.25,2.5h9.41Z" style="fill:#28509c;"/><path d="M380.88,126.21c-2.24,1.09-4.06,1.3-5.77,1.3-4.52,0-7.49-1.92-9.15-3.54-2.18-2.13-3.59-5.25-3.59-8.68s1.4-6.71,3.74-9c2.18-2.08,5.41-3.54,9.36-3.54,1.46,0,3.33,.26,5.41,1.3v6.97c-1.09-.78-2.55-1.51-4.32-1.51-1.98,0-3.22,.78-4.06,1.61-1.14,1.14-1.61,2.65-1.61,4s.47,2.81,1.46,3.9c.78,.83,2.13,1.77,4.26,1.77,1.2,0,2.76-.26,4.26-1.56v6.97Z" style="fill:#28509c;"/><path d="M393.93,103.48v13c0,.94,.16,2.39,1.25,3.38,.83,.73,1.92,.88,2.91,.88,1.04,0,2.03-.1,2.96-.99,1.04-1.04,1.2-2.24,1.2-3.28v-13h8.32v14.51c0,1.98-.16,4.11-2.24,6.24-2.86,2.96-6.86,3.28-10.04,3.28-3.48,0-7.75-.36-10.5-3.33-1.77-1.87-2.18-3.95-2.18-6.19v-14.51h8.32Z" style="fill:#28509c;"/><path d="M425.49,110.3v16.43h-8.32v-16.43h-2.65v-6.81h2.65v-7.64h8.32v7.64h4.73v6.81h-4.73Z" style="fill:#28509c;"/><path d="M437.5,89.13c2.6,0,4.68,2.08,4.68,4.68s-2.08,4.68-4.68,4.68-4.68-2.08-4.68-4.68,2.08-4.68,4.68-4.68Zm4.16,14.35v23.25h-8.32v-23.25h8.32Z" style="fill:#28509c;"/><path d="M453.78,103.48l5.56,11.91,5.67-11.91h9.26l-12.12,23.25h-5.67l-12.01-23.25h9.31Z" style="fill:#28509c;"/><path d="M500.47,116.64h-17.32c0,1.25,.47,2.91,1.46,3.9,.52,.52,1.56,1.14,3.43,1.14,.21,0,1.66-.05,2.71-.62,.52-.31,1.09-.83,1.46-1.56h7.96c-.36,1.3-1.09,3.12-2.81,4.78-1.72,1.66-4.42,3.22-9.46,3.22-3.07,0-6.76-.68-9.62-3.54-1.51-1.51-3.43-4.37-3.43-8.79,0-3.9,1.46-7.02,3.48-9,1.92-1.87,4.94-3.38,9.52-3.38,2.7,0,6.19,.57,8.94,3.17,3.28,3.12,3.69,7.18,3.69,9.78v.88Zm-7.64-4.79c-.21-.88-.73-1.87-1.35-2.5-1.09-1.09-2.6-1.25-3.43-1.25-1.4,0-2.5,.36-3.38,1.25-.57,.62-1.09,1.46-1.25,2.5h9.41Z" style="fill:#28509c;"/><path d="M518.15,126.73v-34.69h11.8c3.48,0,9.31,.47,13.78,4.78,4.06,3.9,4.84,8.89,4.84,12.64,0,4.58-1.14,8.63-4.52,12.01-2.76,2.76-7.38,5.25-13.31,5.25h-12.58Zm9-7.64h1.82c2.18,0,5.25-.21,7.59-2.5,1.14-1.09,2.65-3.28,2.65-7.12,0-3.22-.99-5.98-2.7-7.59-2.13-1.98-4.94-2.18-7.18-2.18h-2.18v19.4Z" style="fill:#28509c;"/><path d="M557.67,89.13c2.6,0,4.68,2.08,4.68,4.68s-2.08,4.68-4.68,4.68-4.68-2.08-4.68-4.68,2.08-4.68,4.68-4.68Zm4.16,14.35v23.25h-8.32v-23.25h8.32Z" style="fill:#28509c;"/><path d="M567.5,103.48h8.32v3.8c.83-1.56,2.03-2.6,3.28-3.22,1.25-.68,2.76-.94,4.32-.94,.21,0,.57,.05,1.66,.1v7.85c-.42-.21-1.56-.83-3.59-.83-1.09,0-2.6,.16-3.8,1.25-1.77,1.61-1.87,4.06-1.87,5.3v9.93h-8.32v-23.25Z" style="fill:#28509c;"/><path d="M613.42,116.64h-17.32c0,1.25,.47,2.91,1.46,3.9,.52,.52,1.56,1.14,3.43,1.14,.21,0,1.66-.05,2.7-.62,.52-.31,1.09-.83,1.46-1.56h7.96c-.36,1.3-1.09,3.12-2.81,4.78s-4.42,3.22-9.46,3.22c-3.07,0-6.76-.68-9.62-3.54-1.51-1.51-3.43-4.37-3.43-8.79,0-3.9,1.46-7.02,3.48-9,1.92-1.87,4.94-3.38,9.52-3.38,2.71,0,6.19,.57,8.95,3.17,3.28,3.12,3.69,7.18,3.69,9.78v.88Zm-7.64-4.79c-.21-.88-.73-1.87-1.35-2.5-1.09-1.09-2.6-1.25-3.43-1.25-1.4,0-2.5,.36-3.38,1.25-.57,.62-1.09,1.46-1.25,2.5h9.41Z" style="fill:#28509c;"/><path d="M635.78,126.21c-2.24,1.09-4.06,1.3-5.77,1.3-4.52,0-7.49-1.92-9.15-3.54-2.18-2.13-3.59-5.25-3.59-8.68s1.4-6.71,3.74-9c2.18-2.08,5.41-3.54,9.36-3.54,1.46,0,3.33,.26,5.41,1.3v6.97c-1.09-.78-2.55-1.51-4.32-1.51-1.98,0-3.22,.78-4.06,1.61-1.14,1.14-1.61,2.65-1.61,4s.47,2.81,1.46,3.9c.78,.83,2.13,1.77,4.26,1.77,1.2,0,2.76-.26,4.26-1.56v6.97Z" style="fill:#28509c;"/><path d="M650.23,110.3v16.43h-8.32v-16.43h-2.65v-6.81h2.65v-7.64h8.32v7.64h4.73v6.81h-4.73Z" style="fill:#28509c;"/><path d="M681.48,123.66c-3.07,3.02-6.66,3.85-10.4,3.85-3.38,0-7.12-.68-10.35-3.85-2.55-2.5-3.59-5.46-3.59-8.58,0-4.16,1.87-6.86,3.59-8.53,1.92-1.87,5.3-3.85,10.35-3.85s8.48,2.03,10.4,3.85c1.72,1.66,3.59,4.37,3.59,8.53,0,3.12-1.04,6.08-3.59,8.58Zm-14.09-12.38c-1.04,.99-1.61,2.44-1.61,3.8s.68,2.76,1.61,3.69c.99,.99,2.34,1.56,3.74,1.56s2.7-.57,3.69-1.56c1.04-.99,1.61-2.34,1.61-3.69,0-1.25-.57-2.76-1.61-3.8-.94-.88-2.39-1.51-3.69-1.51s-2.81,.62-3.74,1.51Z" style="fill:#28509c;"/><path d="M689.85,103.48h8.32v3.8c.83-1.56,2.03-2.6,3.28-3.22,1.25-.68,2.76-.94,4.32-.94,.21,0,.57,.05,1.66,.1v7.85c-.42-.21-1.56-.83-3.59-.83-1.09,0-2.6,.16-3.8,1.25-1.77,1.61-1.87,4.06-1.87,5.3v9.93h-8.32v-23.25Z" style="fill:#28509c;"/><path d="M712.63,119.03c.99,.73,2.18,1.35,3.33,1.72,1.04,.36,2.34,.57,3.22,.57,.62,0,1.61-.16,2.13-.62,.36-.36,.42-.68,.42-1.09,0-.36-.05-.73-.42-1.04-.52-.47-1.35-.62-2.18-.83l-2.18-.52c-1.14-.26-2.81-.68-4.06-2.03-.88-.94-1.51-2.24-1.51-4,0-2.24,.88-4.32,2.18-5.67,1.77-1.82,4.89-2.81,8.32-2.81s6.08,.94,7.44,1.51l-2.81,5.3c-1.14-.52-2.86-1.14-4.37-1.14-.83,0-1.4,.16-1.92,.47-.47,.26-.73,.62-.73,1.14,0,.73,.47,1.09,.99,1.3,.78,.31,1.46,.31,2.76,.68l1.51,.42c1.09,.31,2.76,1.14,3.43,1.82,1.14,1.09,1.77,2.91,1.77,4.63,0,2.81-1.2,4.68-2.34,5.77-2.7,2.7-6.66,2.91-8.58,2.91-2.08,0-5.36-.26-9.36-2.7l2.96-5.77Z" style="fill:#28509c;"/></g><g><path d="M188.64,195.55h-7.12l-1.83,4.02h-2.75l8.3-17.65,7.9,17.65h-2.75l-1.75-4.02Zm-1.02-2.4l-2.47-5.65-2.57,5.65h5.05Z" style="fill:#646464;"/><path d="M199.39,191.83c-.25-.4-.72-.9-1.5-.9-.35,0-.6,.12-.75,.27-.12,.12-.22,.33-.22,.55,0,.28,.12,.45,.35,.6,.15,.1,.3,.15,.83,.43l1.25,.62c.55,.28,1.07,.55,1.47,.98,.57,.57,.77,1.22,.77,1.95,0,.95-.35,1.77-.92,2.4-.83,.9-1.85,1.17-2.95,1.17-.67,0-1.53-.1-2.27-.67-.6-.45-1.1-1.17-1.35-1.92l2-.95c.12,.35,.35,.8,.58,1,.15,.15,.5,.4,1.08,.4,.38,0,.77-.12,1-.35,.2-.2,.35-.52,.35-.82s-.1-.55-.33-.8c-.3-.3-.65-.48-1.05-.65l-.9-.42c-.47-.22-1.05-.5-1.45-.9-.55-.53-.75-1.1-.75-1.77,0-.85,.33-1.67,.88-2.25,.47-.5,1.27-1,2.57-1,.75,0,1.35,.15,1.95,.55,.35,.22,.83,.62,1.2,1.3l-1.83,1.2Z" style="fill:#646464;"/><path d="M205.02,183.13c.9,0,1.58,.67,1.58,1.58s-.68,1.57-1.58,1.57-1.58-.67-1.58-1.57,.68-1.58,1.58-1.58Zm1.22,5.92v10.52h-2.45v-10.52h2.45Z" style="fill:#646464;"/><path d="M217.04,189.06h2.45v10.52h-2.45v-1.1c-1.07,1.25-2.4,1.42-3.15,1.42-3.25,0-5.1-2.7-5.1-5.6,0-3.42,2.35-5.52,5.12-5.52,.77,0,2.12,.2,3.12,1.5v-1.22Zm-5.75,5.3c0,1.82,1.15,3.35,2.92,3.35,1.55,0,2.97-1.12,2.97-3.32s-1.42-3.4-2.97-3.4c-1.77,0-2.92,1.5-2.92,3.37Z" style="fill:#646464;"/><path d="M222.57,189.06h2.45v.97c1.05-1.17,2.25-1.25,2.85-1.25,1.95,0,2.77,.98,3.1,1.42,.4,.58,.65,1.3,.65,2.92v6.45h-2.45v-5.85c0-2.67-1-2.75-1.92-2.75-1.1,0-2.22,.15-2.22,3.55v5.05h-2.45v-10.52Z" style="fill:#646464;"/><path d="M78.12,266.91c2.15,0,3.5,.28,4.6,1.3,.9,.85,1.33,1.92,1.33,3.3,0,.65-.1,1.33-.5,1.97-.38,.65-.88,.97-1.25,1.15,.3,.08,1.32,.35,2.15,1.2,.9,.95,1.1,2.1,1.1,3.12,0,1.2-.3,2.15-1.1,3-1.33,1.4-3.4,1.62-4.67,1.62h-4.17v-16.67h2.52Zm.03,7.17h.77c.62,0,1.47-.07,2.07-.65,.58-.55,.65-1.33,.65-1.9,0-.5-.07-1.1-.6-1.6-.57-.55-1.3-.62-2.02-.62h-.88v4.77Zm0,7.1h1.55c.72,0,1.88-.12,2.53-.65,.5-.4,.82-1.1,.82-1.85,0-.67-.25-1.33-.67-1.75-.7-.67-1.72-.75-2.62-.75h-1.6v5Z" style="fill:#646464;"/><path d="M90.75,265.36v18.22h-2.45v-18.22h2.45Z" style="fill:#646464;"/><path d="M101.55,273.06h2.45v10.52h-2.45v-1.1c-1.08,1.25-2.4,1.42-3.15,1.42-3.25,0-5.1-2.7-5.1-5.6,0-3.42,2.35-5.52,5.12-5.52,.78,0,2.12,.2,3.12,1.5v-1.22Zm-5.75,5.3c0,1.82,1.15,3.35,2.92,3.35,1.55,0,2.97-1.12,2.97-3.32s-1.42-3.4-2.97-3.4c-1.77,0-2.92,1.5-2.92,3.37Z" style="fill:#646464;"/><path d="M115.25,276.28c-1.12-1.1-2.22-1.3-2.97-1.3-1.15,0-1.88,.47-2.32,.92-.45,.45-.9,1.25-.9,2.42s.48,2.05,.95,2.52c.55,.53,1.33,.85,2.22,.85,1,0,2.17-.4,3.02-1.35v2.72c-.6,.38-1.57,.83-3.2,.83-1.75,0-3-.5-4-1.55-.75-.77-1.5-2.02-1.5-3.95s.83-3.3,1.6-4.07c.83-.82,2.15-1.55,4.22-1.55,.8,0,1.75,.12,2.88,.75v2.75Z" style="fill:#646464;"/><path d="M120.05,265.36v11.22l3.42-3.52h3.25l-4.52,4.37,4.85,6.15h-3.1l-3.45-4.5-.45,.45v4.05h-2.45v-18.22h2.45Z" style="fill:#646464;"/><path d="M145.17,278.33c0,3.22-2.45,5.57-5.62,5.57s-5.62-2.35-5.62-5.57,2.45-5.55,5.62-5.55,5.62,2.3,5.62,5.55Zm-2.5,.03c0-2.4-1.57-3.37-3.12-3.37s-3.12,.97-3.12,3.37c0,2.02,1.2,3.35,3.12,3.35s3.12-1.32,3.12-3.35Z" style="fill:#646464;"/><path d="M147.72,273.06h2.45v.95c.28-.33,.67-.67,1.03-.88,.47-.28,.95-.35,1.5-.35,.6,0,1.25,.1,1.92,.5l-1,2.22c-.55-.35-1-.38-1.25-.38-.52,0-1.05,.08-1.52,.58-.67,.72-.67,1.72-.67,2.42v5.45h-2.45v-10.52Z" style="fill:#646464;"/><path d="M172.09,279.55h-7.12l-1.82,4.02h-2.75l8.3-17.65,7.9,17.65h-2.75l-1.75-4.02Zm-1.02-2.4l-2.47-5.65-2.57,5.65h5.05Z" style="fill:#646464;"/><path d="M180.95,275.31v8.27h-2.45v-8.27h-1.05v-2.25h1.05v-3.65c0-1.62,.42-2.65,1.02-3.3,.45-.47,1.22-1.02,2.5-1.02,.52,0,1.05,.07,1.57,.3v2.42c-.5-.3-.82-.38-1.17-.38-.3,0-.75,.05-1.08,.4-.12,.12-.4,.5-.4,1.25v3.97h2.65v2.25h-2.65Z" style="fill:#646464;"/><path d="M185,273.06h2.45v.95c.28-.33,.68-.67,1.03-.88,.47-.28,.95-.35,1.5-.35,.6,0,1.25,.1,1.92,.5l-1,2.22c-.55-.35-1-.38-1.25-.38-.52,0-1.05,.08-1.52,.58-.68,.72-.68,1.72-.68,2.42v5.45h-2.45v-10.52Z" style="fill:#646464;"/><path d="M194.52,267.13c.9,0,1.57,.67,1.57,1.58s-.67,1.57-1.57,1.57-1.58-.67-1.58-1.57,.67-1.58,1.58-1.58Zm1.22,5.92v10.52h-2.45v-10.52h2.45Z" style="fill:#646464;"/><path d="M206.99,276.28c-1.12-1.1-2.22-1.3-2.97-1.3-1.15,0-1.88,.47-2.32,.92-.45,.45-.9,1.25-.9,2.42s.48,2.05,.95,2.52c.55,.53,1.33,.85,2.22,.85,1,0,2.17-.4,3.02-1.35v2.72c-.6,.38-1.57,.83-3.2,.83-1.75,0-3-.5-4-1.55-.75-.77-1.5-2.02-1.5-3.95s.83-3.3,1.6-4.07c.83-.82,2.15-1.55,4.22-1.55,.8,0,1.75,.12,2.88,.75v2.75Z" style="fill:#646464;"/><path d="M217.04,273.06h2.45v10.52h-2.45v-1.1c-1.08,1.25-2.4,1.42-3.15,1.42-3.25,0-5.1-2.7-5.1-5.6,0-3.42,2.35-5.52,5.12-5.52,.78,0,2.12,.2,3.12,1.5v-1.22Zm-5.75,5.3c0,1.82,1.15,3.35,2.92,3.35,1.55,0,2.97-1.12,2.97-3.32s-1.42-3.4-2.97-3.4c-1.77,0-2.92,1.5-2.92,3.37Z" style="fill:#646464;"/><path d="M222.57,273.06h2.45v.97c1.05-1.17,2.25-1.25,2.85-1.25,1.95,0,2.78,.98,3.1,1.42,.4,.58,.65,1.3,.65,2.92v6.45h-2.45v-5.85c0-2.67-1-2.75-1.92-2.75-1.1,0-2.22,.15-2.22,3.55v5.05h-2.45v-10.52Z" style="fill:#646464;"/><path d="M149.24,309.55h-7.12l-1.82,4.02h-2.75l8.3-17.65,7.9,17.65h-2.75l-1.75-4.02Zm-1.02-2.4l-2.47-5.65-2.57,5.65h5.05Z" style="fill:#646464;"/><path d="M155.4,303.06h2.45v.97c.83-1,1.8-1.25,2.6-1.25,1.1,0,2.12,.53,2.72,1.55,.88-1.25,2.2-1.55,3.12-1.55,1.27,0,2.4,.6,3,1.65,.2,.35,.55,1.12,.55,2.65v6.5h-2.45v-5.8c0-1.17-.12-1.65-.23-1.87-.15-.4-.52-.92-1.4-.92-.6,0-1.12,.32-1.45,.77-.43,.6-.48,1.5-.48,2.4v5.42h-2.45v-5.8c0-1.17-.12-1.65-.23-1.87-.15-.4-.52-.92-1.4-.92-.6,0-1.12,.32-1.45,.77-.42,.6-.48,1.5-.48,2.4v5.42h-2.45v-10.52Z" style="fill:#646464;"/><path d="M182.37,311.18c-.45,.8-1.1,1.5-1.77,1.92-.85,.55-1.97,.8-3.1,.8-1.4,0-2.55-.35-3.55-1.35-1-1-1.55-2.45-1.55-4.02s.58-3.2,1.67-4.32c.88-.87,2.02-1.42,3.52-1.42,1.67,0,2.75,.73,3.37,1.38,1.35,1.4,1.47,3.35,1.47,4.45v.3h-7.55c.05,.75,.38,1.6,.9,2.12,.58,.58,1.27,.67,1.87,.67,.68,0,1.18-.15,1.68-.52,.42-.33,.75-.75,.97-1.15l2.05,1.15Zm-2.42-4.27c-.1-.57-.38-1.07-.75-1.42-.33-.3-.85-.6-1.65-.6-.85,0-1.4,.35-1.72,.67-.35,.33-.62,.83-.75,1.35h4.87Z" style="fill:#646464;"/><path d="M185,303.06h2.45v.95c.28-.33,.68-.67,1.03-.88,.47-.28,.95-.35,1.5-.35,.6,0,1.25,.1,1.92,.5l-1,2.22c-.55-.35-1-.38-1.25-.38-.52,0-1.05,.08-1.52,.58-.68,.72-.68,1.72-.68,2.42v5.45h-2.45v-10.52Z" style="fill:#646464;"/><path d="M194.52,297.13c.9,0,1.57,.67,1.57,1.58s-.67,1.57-1.57,1.57-1.58-.67-1.58-1.57,.67-1.58,1.58-1.58Zm1.22,5.92v10.52h-2.45v-10.52h2.45Z" style="fill:#646464;"/><path d="M206.99,306.28c-1.12-1.1-2.22-1.3-2.97-1.3-1.15,0-1.88,.47-2.32,.92-.45,.45-.9,1.25-.9,2.42s.48,2.05,.95,2.52c.55,.53,1.33,.85,2.22,.85,1,0,2.17-.4,3.02-1.35v2.72c-.6,.38-1.57,.83-3.2,.83-1.75,0-3-.5-4-1.55-.75-.77-1.5-2.02-1.5-3.95s.83-3.3,1.6-4.07c.83-.82,2.15-1.55,4.22-1.55,.8,0,1.75,.12,2.88,.75v2.75Z" style="fill:#646464;"/><path d="M217.04,303.06h2.45v10.52h-2.45v-1.1c-1.08,1.25-2.4,1.42-3.15,1.42-3.25,0-5.1-2.7-5.1-5.6,0-3.42,2.35-5.52,5.12-5.52,.78,0,2.12,.2,3.12,1.5v-1.22Zm-5.75,5.3c0,1.82,1.15,3.35,2.92,3.35,1.55,0,2.97-1.12,2.97-3.32s-1.42-3.4-2.97-3.4c-1.77,0-2.92,1.5-2.92,3.37Z" style="fill:#646464;"/><path d="M222.57,303.06h2.45v.97c1.05-1.17,2.25-1.25,2.85-1.25,1.95,0,2.78,.98,3.1,1.42,.4,.58,.65,1.3,.65,2.92v6.45h-2.45v-5.85c0-2.67-1-2.75-1.92-2.75-1.1,0-2.22,.15-2.22,3.55v5.05h-2.45v-10.52Z" style="fill:#646464;"/><path d="M74.67,393.51h7.15v-6.6h2.55v16.67h-2.55v-7.67h-7.15v7.67h-2.55v-16.67h2.55v6.6Z" style="fill:#646464;"/><path d="M89.15,387.13c.9,0,1.57,.67,1.57,1.58s-.67,1.57-1.57,1.57-1.58-.67-1.58-1.57,.67-1.58,1.58-1.58Zm1.22,5.92v10.52h-2.45v-10.52h2.45Z" style="fill:#646464;"/><path d="M98.07,395.83c-.25-.4-.72-.9-1.5-.9-.35,0-.6,.12-.75,.27-.12,.12-.22,.33-.22,.55,0,.28,.12,.45,.35,.6,.15,.1,.3,.15,.82,.43l1.25,.62c.55,.28,1.08,.55,1.47,.98,.58,.57,.78,1.22,.78,1.95,0,.95-.35,1.77-.92,2.4-.83,.9-1.85,1.17-2.95,1.17-.67,0-1.52-.1-2.27-.67-.6-.45-1.1-1.17-1.35-1.92l2-.95c.12,.35,.35,.8,.58,1,.15,.15,.5,.4,1.07,.4,.38,0,.78-.12,1-.35,.2-.2,.35-.52,.35-.82s-.1-.55-.32-.8c-.3-.3-.65-.48-1.05-.65l-.9-.42c-.48-.22-1.05-.5-1.45-.9-.55-.53-.75-1.1-.75-1.77,0-.85,.33-1.67,.88-2.25,.47-.5,1.27-1,2.57-1,.75,0,1.35,.15,1.95,.55,.35,.22,.82,.62,1.2,1.3l-1.82,1.2Z" style="fill:#646464;"/><path d="M104.92,409.3h-2.45v-16.25h2.45v1.15c.9-1.07,2.07-1.42,3.12-1.42,2.77,0,5.12,2.12,5.12,5.47,0,3.55-2.6,5.65-5.1,5.65-.58,0-2.05-.2-3.15-1.55v6.95Zm-.15-10.92c0,2.2,1.43,3.32,2.97,3.32,1.77,0,2.92-1.52,2.92-3.35s-1.15-3.37-2.92-3.37c-1.55,0-2.97,1.1-2.97,3.4Z" style="fill:#646464;"/><path d="M123.42,393.06h2.45v10.52h-2.45v-1.1c-1.07,1.25-2.4,1.42-3.15,1.42-3.25,0-5.1-2.7-5.1-5.6,0-3.42,2.35-5.52,5.12-5.52,.77,0,2.12,.2,3.12,1.5v-1.22Zm-5.75,5.3c0,1.82,1.15,3.35,2.92,3.35,1.55,0,2.97-1.12,2.97-3.32s-1.42-3.4-2.97-3.4c-1.77,0-2.92,1.5-2.92,3.37Z" style="fill:#646464;"/><path d="M128.95,393.06h2.45v.97c1.05-1.17,2.25-1.25,2.85-1.25,1.95,0,2.77,.98,3.1,1.42,.4,.58,.65,1.3,.65,2.92v6.45h-2.45v-5.85c0-2.67-1-2.75-1.92-2.75-1.1,0-2.22,.15-2.22,3.55v5.05h-2.45v-10.52Z" style="fill:#646464;"/><path d="M142.32,387.13c.9,0,1.57,.67,1.57,1.58s-.67,1.57-1.57,1.57-1.58-.67-1.58-1.57,.67-1.58,1.58-1.58Zm1.22,5.92v10.52h-2.45v-10.52h2.45Z" style="fill:#646464;"/><path d="M154.79,396.28c-1.12-1.1-2.22-1.3-2.97-1.3-1.15,0-1.88,.47-2.32,.92-.45,.45-.9,1.25-.9,2.42s.48,2.05,.95,2.52c.55,.53,1.33,.85,2.22,.85,1,0,2.17-.4,3.02-1.35v2.72c-.6,.38-1.57,.83-3.2,.83-1.75,0-3-.5-4-1.55-.75-.77-1.5-2.02-1.5-3.95s.83-3.3,1.6-4.07c.83-.82,2.15-1.55,4.22-1.55,.8,0,1.75,.12,2.88,.75v2.75Z" style="fill:#646464;"/><path d="M168.74,384.46l2,.9-13.15,23.54-2-.9,13.15-23.54Z" style="fill:#646464;"/><path d="M177.25,386.91v14.27h4.9v2.4h-7.45v-16.67h2.55Z" style="fill:#646464;"/><path d="M191.79,393.06h2.45v10.52h-2.45v-1.1c-1.08,1.25-2.4,1.42-3.15,1.42-3.25,0-5.1-2.7-5.1-5.6,0-3.42,2.35-5.52,5.12-5.52,.78,0,2.12,.2,3.12,1.5v-1.22Zm-5.75,5.3c0,1.82,1.15,3.35,2.92,3.35,1.55,0,2.97-1.12,2.97-3.32s-1.42-3.4-2.97-3.4c-1.78,0-2.92,1.5-2.92,3.37Z" style="fill:#646464;"/><path d="M199.87,395.31v8.27h-2.45v-8.27h-1.03v-2.25h1.03v-3.85h2.45v3.85h1.88v2.25h-1.88Z" style="fill:#646464;"/><path d="M204.62,387.13c.9,0,1.57,.67,1.57,1.58s-.67,1.57-1.57,1.57-1.57-.67-1.57-1.57,.67-1.58,1.57-1.58Zm1.22,5.92v10.52h-2.45v-10.52h2.45Z" style="fill:#646464;"/><path d="M208.92,393.06h2.45v.97c1.05-1.17,2.25-1.25,2.85-1.25,1.95,0,2.77,.98,3.1,1.42,.4,.58,.65,1.3,.65,2.92v6.45h-2.45v-5.85c0-2.67-1-2.75-1.92-2.75-1.1,0-2.22,.15-2.22,3.55v5.05h-2.45v-10.52Z" style="fill:#646464;"/><path d="M225.02,394.88l-4.6-7.97h2.85l3.25,5.65,3.32-5.65h2.85l-4.8,7.97,5.02,8.7h-2.85l-3.65-6.37-3.8,6.37h-2.85l5.25-8.7Z" style="fill:#646464;"/><path d="M39.65,488.58v-17.8l12.1,12.67v-11.55h2.55v17.7l-12.1-12.67v11.65h-2.55Z" style="fill:#646464;"/><path d="M65.55,478.06h2.45v10.52h-2.45v-1.1c-1.08,1.25-2.4,1.42-3.15,1.42-3.25,0-5.1-2.7-5.1-5.6,0-3.42,2.35-5.52,5.12-5.52,.78,0,2.12,.2,3.12,1.5v-1.22Zm-5.75,5.3c0,1.82,1.15,3.35,2.92,3.35,1.55,0,2.97-1.12,2.97-3.32s-1.42-3.4-2.97-3.4c-1.78,0-2.92,1.5-2.92,3.37Z" style="fill:#646464;"/><path d="M73.62,480.31v8.27h-2.45v-8.27h-1.03v-2.25h1.03v-3.85h2.45v3.85h1.88v2.25h-1.88Z" style="fill:#646464;"/><path d="M78.37,472.13c.9,0,1.57,.67,1.57,1.58s-.67,1.57-1.57,1.57-1.57-.67-1.57-1.57,.67-1.58,1.57-1.58Zm1.22,5.92v10.52h-2.45v-10.52h2.45Z" style="fill:#646464;"/><path d="M84.05,478.06l2.7,6,2.7-6h2.75l-5.45,11.27-5.45-11.27h2.75Z" style="fill:#646464;"/><path d="M103.02,486.18c-.45,.8-1.1,1.5-1.78,1.92-.85,.55-1.97,.8-3.1,.8-1.4,0-2.55-.35-3.55-1.35-1-1-1.55-2.45-1.55-4.02s.57-3.2,1.67-4.32c.88-.87,2.03-1.42,3.52-1.42,1.67,0,2.75,.73,3.37,1.38,1.35,1.4,1.47,3.35,1.47,4.45v.3h-7.55c.05,.75,.38,1.6,.9,2.12,.58,.58,1.28,.67,1.88,.67,.67,0,1.17-.15,1.67-.52,.42-.33,.75-.75,.97-1.15l2.05,1.15Zm-2.42-4.27c-.1-.57-.38-1.07-.75-1.42-.33-.3-.85-.6-1.65-.6-.85,0-1.4,.35-1.72,.67-.35,.33-.62,.83-.75,1.35h4.87Z" style="fill:#646464;"/><path d="M114.47,478.51h7.15v-6.6h2.55v16.67h-2.55v-7.67h-7.15v7.67h-2.55v-16.67h2.55v6.6Z" style="fill:#646464;"/><path d="M135.42,478.06h2.45v10.52h-2.45v-1.1c-1.08,1.25-2.4,1.42-3.15,1.42-3.25,0-5.1-2.7-5.1-5.6,0-3.42,2.35-5.52,5.12-5.52,.78,0,2.12,.2,3.12,1.5v-1.22Zm-5.75,5.3c0,1.82,1.15,3.35,2.92,3.35,1.55,0,2.97-1.12,2.97-3.32s-1.42-3.4-2.97-3.4c-1.77,0-2.92,1.5-2.92,3.37Z" style="fill:#646464;"/><path d="M142.32,478.06l2.72,6.02,2.95-6.92,2.95,6.92,2.72-6.02h2.75l-5.47,11.27-2.95-6.72-2.95,6.72-5.47-11.27h2.75Z" style="fill:#646464;"/><path d="M165.32,478.06h2.45v10.52h-2.45v-1.1c-1.07,1.25-2.4,1.42-3.15,1.42-3.25,0-5.1-2.7-5.1-5.6,0-3.42,2.35-5.52,5.12-5.52,.77,0,2.12,.2,3.12,1.5v-1.22Zm-5.75,5.3c0,1.82,1.15,3.35,2.92,3.35,1.55,0,2.97-1.12,2.97-3.32s-1.42-3.4-2.97-3.4c-1.77,0-2.92,1.5-2.92,3.37Z" style="fill:#646464;"/><path d="M172.1,472.13c.9,0,1.57,.67,1.57,1.58s-.67,1.57-1.57,1.57-1.57-.67-1.57-1.57,.67-1.58,1.57-1.58Zm1.22,5.92v10.52h-2.45v-10.52h2.45Z" style="fill:#646464;"/><path d="M177.65,472.13c.9,0,1.58,.67,1.58,1.58s-.68,1.57-1.58,1.57-1.58-.67-1.58-1.57,.68-1.58,1.58-1.58Zm1.22,5.92v10.52h-2.45v-10.52h2.45Z" style="fill:#646464;"/><path d="M189.67,478.06h2.45v10.52h-2.45v-1.1c-1.07,1.25-2.4,1.42-3.15,1.42-3.25,0-5.1-2.7-5.1-5.6,0-3.42,2.35-5.52,5.12-5.52,.77,0,2.12,.2,3.12,1.5v-1.22Zm-5.75,5.3c0,1.82,1.15,3.35,2.92,3.35,1.55,0,2.97-1.12,2.97-3.32s-1.42-3.4-2.97-3.4c-1.77,0-2.92,1.5-2.92,3.37Z" style="fill:#646464;"/><path d="M195.2,478.06h2.45v.97c1.05-1.17,2.25-1.25,2.85-1.25,1.95,0,2.77,.98,3.1,1.42,.4,.58,.65,1.3,.65,2.92v6.45h-2.45v-5.85c0-2.67-1-2.75-1.92-2.75-1.1,0-2.22,.15-2.22,3.55v5.05h-2.45v-10.52Z" style="fill:#646464;"/><path d="M223.87,483.33c0,3.22-2.45,5.57-5.62,5.57s-5.62-2.35-5.62-5.57,2.45-5.55,5.62-5.55,5.62,2.3,5.62,5.55Zm-2.5,.03c0-2.4-1.57-3.37-3.12-3.37s-3.12,.97-3.12,3.37c0,2.02,1.2,3.35,3.12,3.35s3.12-1.32,3.12-3.35Z" style="fill:#646464;"/><path d="M226.42,478.06h2.45v.95c.28-.33,.67-.67,1.03-.88,.47-.28,.95-.35,1.5-.35,.6,0,1.25,.1,1.92,.5l-1,2.22c-.55-.35-1-.38-1.25-.38-.52,0-1.05,.08-1.52,.58-.67,.72-.67,1.72-.67,2.42v5.45h-2.45v-10.52Z" style="fill:#646464;"/><path d="M39.12,513.33c0,3.22-2.45,5.57-5.62,5.57s-5.62-2.35-5.62-5.57,2.45-5.55,5.62-5.55,5.62,2.3,5.62,5.55Zm-2.5,.03c0-2.4-1.57-3.37-3.12-3.37s-3.12,.97-3.12,3.37c0,2.02,1.2,3.35,3.12,3.35s3.12-1.32,3.12-3.35Z" style="fill:#646464;"/><path d="M44.2,510.31v8.27h-2.45v-8.27h-1.02v-2.25h1.02v-3.85h2.45v3.85h1.87v2.25h-1.87Z" style="fill:#646464;"/><path d="M47.72,500.36h2.45v8.6c1.05-1.07,2.2-1.17,2.82-1.17,1.92,0,2.8,1,3.1,1.42,.65,.95,.68,2.17,.68,2.92v6.45h-2.45v-6.22c0-.62,0-1.3-.47-1.82-.28-.3-.75-.55-1.38-.55-.83,0-1.47,.4-1.8,.88-.35,.5-.5,1.3-.5,2.65v5.07h-2.45v-18.22Z" style="fill:#646464;"/><path d="M69.02,516.18c-.45,.8-1.1,1.5-1.78,1.92-.85,.55-1.97,.8-3.1,.8-1.4,0-2.55-.35-3.55-1.35-1-1-1.55-2.45-1.55-4.02s.57-3.2,1.67-4.32c.88-.87,2.03-1.42,3.52-1.42,1.67,0,2.75,.73,3.37,1.38,1.35,1.4,1.47,3.35,1.47,4.45v.3h-7.55c.05,.75,.38,1.6,.9,2.12,.58,.58,1.28,.67,1.88,.67,.67,0,1.17-.15,1.67-.52,.42-.33,.75-.75,.97-1.15l2.05,1.15Zm-2.42-4.27c-.1-.57-.38-1.07-.75-1.42-.33-.3-.85-.6-1.65-.6-.85,0-1.4,.35-1.72,.67-.35,.33-.62,.83-.75,1.35h4.87Z" style="fill:#646464;"/><path d="M71.65,508.06h2.45v.95c.28-.33,.67-.67,1.03-.88,.47-.28,.95-.35,1.5-.35,.6,0,1.25,.1,1.92,.5l-1,2.22c-.55-.35-1-.38-1.25-.38-.52,0-1.05,.08-1.52,.58-.67,.72-.67,1.72-.67,2.42v5.45h-2.45v-10.52Z" style="fill:#646464;"/><path d="M89.9,501.91c1.02,0,2.45,.1,3.65,.9,1.4,.92,2.07,2.52,2.07,4.05,0,.97-.25,2.47-1.62,3.65-1.32,1.12-2.85,1.3-4.07,1.3h-1.15v6.77h-2.55v-16.67h3.67Zm-1.12,7.55h1.15c2.2,0,3.25-1.07,3.25-2.62,0-.92-.38-2.57-3.27-2.57h-1.12v5.2Z" style="fill:#646464;"/><path d="M104.97,508.06h2.45v10.52h-2.45v-1.1c-1.07,1.25-2.4,1.42-3.15,1.42-3.25,0-5.1-2.7-5.1-5.6,0-3.42,2.35-5.52,5.12-5.52,.77,0,2.12,.2,3.12,1.5v-1.22Zm-5.75,5.3c0,1.82,1.15,3.35,2.92,3.35,1.55,0,2.97-1.12,2.97-3.32s-1.42-3.4-2.97-3.4c-1.77,0-2.92,1.5-2.92,3.37Z" style="fill:#646464;"/><path d="M118.67,511.28c-1.12-1.1-2.22-1.3-2.97-1.3-1.15,0-1.88,.47-2.32,.92-.45,.45-.9,1.25-.9,2.42s.47,2.05,.95,2.52c.55,.53,1.33,.85,2.22,.85,1,0,2.17-.4,3.03-1.35v2.72c-.6,.38-1.58,.83-3.2,.83-1.75,0-3-.5-4-1.55-.75-.77-1.5-2.02-1.5-3.95s.83-3.3,1.6-4.07c.83-.82,2.15-1.55,4.22-1.55,.8,0,1.75,.12,2.88,.75v2.75Z" style="fill:#646464;"/><path d="M122.25,502.13c.9,0,1.57,.67,1.57,1.58s-.67,1.57-1.57,1.57-1.57-.67-1.57-1.57,.67-1.58,1.57-1.58Zm1.22,5.92v10.52h-2.45v-10.52h2.45Z" style="fill:#646464;"/><path d="M129.07,510.31v8.27h-2.45v-8.27h-.85v-2.25h.85v-3.5c0-1,.03-1.97,.65-2.87,.55-.78,1.62-1.62,3.65-1.62,2.42,0,3.27,1.05,3.65,1.62,.62,1,.65,1.87,.65,2.87v.72h-2.45v-.45c0-.45,.03-1.07-.3-1.62-.38-.62-.95-.8-1.55-.8-.82,0-1.3,.35-1.55,.8-.12,.2-.3,.62-.3,1.62v3.22h2.65v2.25h-2.65Zm6.15-2.25v10.52h-2.45v-10.52h2.45Z" style="fill:#646464;"/><path d="M146.47,511.28c-1.12-1.1-2.22-1.3-2.97-1.3-1.15,0-1.88,.47-2.32,.92-.45,.45-.9,1.25-.9,2.42s.48,2.05,.95,2.52c.55,.53,1.33,.85,2.22,.85,1,0,2.17-.4,3.02-1.35v2.72c-.6,.38-1.57,.83-3.2,.83-1.75,0-3-.5-4-1.55-.75-.77-1.5-2.02-1.5-3.95s.83-3.3,1.6-4.07c.83-.82,2.15-1.55,4.22-1.55,.8,0,1.75,.12,2.88,.75v2.75Z" style="fill:#646464;"/><path d="M157.65,501.91v16.67h-2.55v-16.67h2.55Z" style="fill:#646464;"/><path d="M165.8,510.83c-.25-.4-.72-.9-1.5-.9-.35,0-.6,.12-.75,.27-.12,.12-.22,.33-.22,.55,0,.28,.12,.45,.35,.6,.15,.1,.3,.15,.82,.43l1.25,.62c.55,.28,1.07,.55,1.47,.98,.57,.57,.78,1.22,.78,1.95,0,.95-.35,1.77-.93,2.4-.82,.9-1.85,1.17-2.95,1.17-.67,0-1.52-.1-2.27-.67-.6-.45-1.1-1.17-1.35-1.92l2-.95c.12,.35,.35,.8,.58,1,.15,.15,.5,.4,1.07,.4,.38,0,.78-.12,1-.35,.2-.2,.35-.52,.35-.82s-.1-.55-.33-.8c-.3-.3-.65-.48-1.05-.65l-.9-.42c-.48-.22-1.05-.5-1.45-.9-.55-.53-.75-1.1-.75-1.77,0-.85,.33-1.67,.88-2.25,.47-.5,1.28-1,2.57-1,.75,0,1.35,.15,1.95,.55,.35,.22,.83,.62,1.2,1.3l-1.83,1.2Z" style="fill:#646464;"/><path d="M172.65,500.36v18.22h-2.45v-18.22h2.45Z" style="fill:#646464;"/><path d="M183.44,508.06h2.45v10.52h-2.45v-1.1c-1.08,1.25-2.4,1.42-3.15,1.42-3.25,0-5.1-2.7-5.1-5.6,0-3.42,2.35-5.52,5.12-5.52,.78,0,2.12,.2,3.12,1.5v-1.22Zm-5.75,5.3c0,1.82,1.15,3.35,2.92,3.35,1.55,0,2.97-1.12,2.97-3.32s-1.42-3.4-2.97-3.4c-1.77,0-2.92,1.5-2.92,3.37Z" style="fill:#646464;"/><path d="M188.97,508.06h2.45v.97c1.05-1.17,2.25-1.25,2.85-1.25,1.95,0,2.78,.98,3.1,1.42,.4,.58,.65,1.3,.65,2.92v6.45h-2.45v-5.85c0-2.67-1-2.75-1.92-2.75-1.1,0-2.22,.15-2.22,3.55v5.05h-2.45v-10.52Z" style="fill:#646464;"/><path d="M208.82,500.36h2.45v18.22h-2.45v-1.1c-1.07,1.25-2.4,1.42-3.15,1.42-3.25,0-5.1-2.7-5.1-5.6,0-3.42,2.35-5.52,5.12-5.52,.77,0,2.12,.2,3.12,1.5v-8.92Zm-5.75,13c0,1.82,1.15,3.35,2.92,3.35,1.55,0,2.97-1.12,2.97-3.32s-1.42-3.4-2.97-3.4c-1.77,0-2.92,1.5-2.92,3.37Z" style="fill:#646464;"/><path d="M223.79,516.18c-.45,.8-1.1,1.5-1.77,1.92-.85,.55-1.97,.8-3.1,.8-1.4,0-2.55-.35-3.55-1.35-1-1-1.55-2.45-1.55-4.02s.58-3.2,1.67-4.32c.88-.87,2.02-1.42,3.52-1.42,1.67,0,2.75,.73,3.38,1.38,1.35,1.4,1.47,3.35,1.47,4.45v.3h-7.55c.05,.75,.38,1.6,.9,2.12,.57,.58,1.27,.67,1.87,.67,.67,0,1.17-.15,1.67-.52,.42-.33,.75-.75,.97-1.15l2.05,1.15Zm-2.42-4.27c-.1-.57-.38-1.07-.75-1.42-.32-.3-.85-.6-1.65-.6-.85,0-1.4,.35-1.72,.67-.35,.33-.62,.83-.75,1.35h4.87Z" style="fill:#646464;"/><path d="M226.42,508.06h2.45v.95c.27-.33,.67-.67,1.02-.88,.47-.28,.95-.35,1.5-.35,.6,0,1.25,.1,1.92,.5l-1,2.22c-.55-.35-1-.38-1.25-.38-.52,0-1.05,.08-1.52,.58-.67,.72-.67,1.72-.67,2.42v5.45h-2.45v-10.52Z" style="fill:#646464;"/><path d="M128.25,598.58l3.5-17.92,5.8,12.95,5.85-12.95,3.15,17.92h-2.6l-1.7-10.05-4.85,10.82-4.8-10.85-1.75,10.07h-2.6Z" style="fill:#646464;"/><path d="M152.05,588.06v6.02c0,.62,.03,1.35,.45,1.9,.33,.42,.9,.72,1.6,.72s1.28-.3,1.6-.72c.43-.55,.45-1.27,.45-1.9v-6.02h2.45v6.1c0,1.35-.15,2.47-1.12,3.45s-2.25,1.3-3.42,1.3c-1.08,0-2.38-.33-3.32-1.3-.97-.97-1.12-2.1-1.12-3.45v-6.1h2.45Z" style="fill:#646464;"/><path d="M164.15,580.36v18.22h-2.45v-18.22h2.45Z" style="fill:#646464;"/><path d="M169.77,590.31v8.27h-2.45v-8.27h-1.03v-2.25h1.03v-3.85h2.45v3.85h1.88v2.25h-1.88Z" style="fill:#646464;"/><path d="M174.52,582.13c.9,0,1.57,.67,1.57,1.58s-.67,1.57-1.57,1.57-1.57-.67-1.57-1.57,.67-1.58,1.57-1.58Zm1.22,5.92v10.52h-2.45v-10.52h2.45Z" style="fill:#646464;"/><path d="M178.85,588.06h2.45v.95c.27-.33,.67-.67,1.02-.88,.47-.28,.95-.35,1.5-.35,.6,0,1.25,.1,1.92,.5l-1,2.22c-.55-.35-1-.38-1.25-.38-.52,0-1.05,.08-1.52,.58-.67,.72-.67,1.72-.67,2.42v5.45h-2.45v-10.52Z" style="fill:#646464;"/><path d="M194.32,588.06h2.45v10.52h-2.45v-1.1c-1.08,1.25-2.4,1.42-3.15,1.42-3.25,0-5.1-2.7-5.1-5.6,0-3.42,2.35-5.52,5.12-5.52,.78,0,2.12,.2,3.12,1.5v-1.22Zm-5.75,5.3c0,1.82,1.15,3.35,2.92,3.35,1.55,0,2.97-1.12,2.97-3.32s-1.42-3.4-2.97-3.4c-1.77,0-2.92,1.5-2.92,3.37Z" style="fill:#646464;"/><path d="M208.02,591.28c-1.12-1.1-2.22-1.3-2.97-1.3-1.15,0-1.88,.47-2.32,.92-.45,.45-.9,1.25-.9,2.42s.48,2.05,.95,2.52c.55,.53,1.33,.85,2.22,.85,1,0,2.17-.4,3.02-1.35v2.72c-.6,.38-1.57,.83-3.2,.83-1.75,0-3-.5-4-1.55-.75-.77-1.5-2.02-1.5-3.95s.83-3.3,1.6-4.07c.83-.82,2.15-1.55,4.22-1.55,.8,0,1.75,.12,2.88,.75v2.75Z" style="fill:#646464;"/><path d="M211.6,582.13c.9,0,1.58,.67,1.58,1.58s-.67,1.57-1.58,1.57-1.57-.67-1.57-1.57,.67-1.58,1.57-1.58Zm1.22,5.92v10.52h-2.45v-10.52h2.45Z" style="fill:#646464;"/><path d="M223.62,588.06h2.45v10.52h-2.45v-1.1c-1.07,1.25-2.4,1.42-3.15,1.42-3.25,0-5.1-2.7-5.1-5.6,0-3.42,2.35-5.52,5.12-5.52,.77,0,2.12,.2,3.12,1.5v-1.22Zm-5.75,5.3c0,1.82,1.15,3.35,2.92,3.35,1.55,0,2.97-1.12,2.97-3.32s-1.42-3.4-2.97-3.4c-1.77,0-2.92,1.5-2.92,3.37Z" style="fill:#646464;"/><path d="M231.62,580.36v18.22h-2.45v-18.22h2.45Z" style="fill:#646464;"/><path d="M29.7,633c-.8-1.7-1.3-3.27-1.7-5.05-.53-2.35-.65-4.12-.65-6.37s.15-4.17,.7-6.62c.4-1.8,.88-3.25,1.65-4.87l2.25,.87c-.65,1.47-1.2,3.15-1.5,4.52-.4,1.8-.6,4-.6,6.1,0,2.72,.3,4.65,.57,5.9,.33,1.4,.9,3.17,1.52,4.65l-2.25,.88Z" style="fill:#646464;"/><path d="M40.07,614.31v14.27h-2.55v-14.27h-3.82v-2.4h10.2v2.4h-3.82Z" style="fill:#646464;"/><path d="M46.55,618.06l2.72,6.02,2.95-6.92,2.95,6.92,2.72-6.02h2.75l-5.47,11.27-2.95-6.72-2.95,6.72-5.47-11.27h2.75Z" style="fill:#646464;"/><path d="M72.77,623.33c0,3.22-2.45,5.57-5.62,5.57s-5.62-2.35-5.62-5.57,2.45-5.55,5.62-5.55,5.62,2.3,5.62,5.55Zm-2.5,.03c0-2.4-1.58-3.37-3.12-3.37s-3.12,.97-3.12,3.37c0,2.02,1.2,3.35,3.12,3.35s3.12-1.32,3.12-3.35Z" style="fill:#646464;"/><path d="M91.84,623.33c0,3.22-2.45,5.57-5.62,5.57s-5.62-2.35-5.62-5.57,2.45-5.55,5.62-5.55,5.62,2.3,5.62,5.55Zm-2.5,.03c0-2.4-1.58-3.37-3.12-3.37s-3.12,.97-3.12,3.37c0,2.02,1.2,3.35,3.12,3.35s3.12-1.32,3.12-3.35Z" style="fill:#646464;"/><path d="M94.4,618.06h2.45v.95c.27-.33,.67-.67,1.02-.88,.47-.28,.95-.35,1.5-.35,.6,0,1.25,.1,1.92,.5l-1,2.22c-.55-.35-1-.38-1.25-.38-.52,0-1.05,.08-1.52,.58-.67,.72-.67,1.72-.67,2.42v5.45h-2.45v-10.52Z" style="fill:#646464;"/><path d="M108.47,628.58l3.5-17.92,5.8,12.95,5.85-12.95,3.15,17.92h-2.6l-1.7-10.05-4.85,10.82-4.8-10.85-1.75,10.07h-2.6Z" style="fill:#646464;"/><path d="M140.52,623.33c0,3.22-2.45,5.57-5.62,5.57s-5.62-2.35-5.62-5.57,2.45-5.55,5.62-5.55,5.62,2.3,5.62,5.55Zm-2.5,.03c0-2.4-1.57-3.37-3.12-3.37s-3.12,.97-3.12,3.37c0,2.02,1.2,3.35,3.12,3.35s3.12-1.32,3.12-3.35Z" style="fill:#646464;"/><path d="M143.07,618.06h2.45v.95c.27-.33,.67-.67,1.02-.88,.47-.28,.95-.35,1.5-.35,.6,0,1.25,.1,1.92,.5l-1,2.22c-.55-.35-1-.38-1.25-.38-.53,0-1.05,.08-1.53,.58-.67,.72-.67,1.72-.67,2.42v5.45h-2.45v-10.52Z" style="fill:#646464;"/><path d="M160.02,626.18c-.45,.8-1.1,1.5-1.78,1.92-.85,.55-1.97,.8-3.1,.8-1.4,0-2.55-.35-3.55-1.35-1-1-1.55-2.45-1.55-4.02s.57-3.2,1.67-4.32c.88-.87,2.03-1.42,3.52-1.42,1.67,0,2.75,.73,3.37,1.38,1.35,1.4,1.47,3.35,1.47,4.45v.3h-7.55c.05,.75,.38,1.6,.9,2.12,.58,.58,1.28,.67,1.88,.67,.67,0,1.17-.15,1.67-.52,.42-.33,.75-.75,.97-1.15l2.05,1.15Zm-2.42-4.27c-.1-.57-.38-1.07-.75-1.42-.33-.3-.85-.6-1.65-.6-.85,0-1.4,.35-1.72,.67-.35,.33-.62,.83-.75,1.35h4.87Z" style="fill:#646464;"/><path d="M171.89,611.91c2.03,0,3.32,.25,4.4,.97,1.83,1.22,1.97,3.2,1.97,3.92,0,2.4-1.47,4.15-3.7,4.65l5.2,7.12h-3.07l-4.77-6.82h-.45v6.82h-2.55v-16.67h2.97Zm-.42,7.65h.8c.7,0,3.55-.08,3.55-2.72,0-2.35-2.22-2.57-3.47-2.57h-.88v5.3Z" style="fill:#646464;"/><path d="M189.52,618.06h2.45v10.52h-2.45v-1.1c-1.08,1.25-2.4,1.42-3.15,1.42-3.25,0-5.1-2.7-5.1-5.6,0-3.42,2.35-5.52,5.12-5.52,.78,0,2.12,.2,3.12,1.5v-1.22Zm-5.75,5.3c0,1.82,1.15,3.35,2.92,3.35,1.55,0,2.97-1.12,2.97-3.32s-1.42-3.4-2.97-3.4c-1.78,0-2.92,1.5-2.92,3.37Z" style="fill:#646464;"/><path d="M203.22,621.28c-1.12-1.1-2.22-1.3-2.97-1.3-1.15,0-1.87,.47-2.32,.92s-.9,1.25-.9,2.42,.48,2.05,.95,2.52c.55,.53,1.32,.85,2.22,.85,1,0,2.17-.4,3.02-1.35v2.72c-.6,.38-1.57,.83-3.2,.83-1.75,0-3-.5-4-1.55-.75-.77-1.5-2.02-1.5-3.95s.82-3.3,1.6-4.07c.82-.82,2.15-1.55,4.22-1.55,.8,0,1.75,.12,2.87,.75v2.75Z" style="fill:#646464;"/><path d="M214.99,626.18c-.45,.8-1.1,1.5-1.78,1.92-.85,.55-1.97,.8-3.1,.8-1.4,0-2.55-.35-3.55-1.35-1-1-1.55-2.45-1.55-4.02s.57-3.2,1.67-4.32c.88-.87,2.03-1.42,3.52-1.42,1.67,0,2.75,.73,3.37,1.38,1.35,1.4,1.47,3.35,1.47,4.45v.3h-7.55c.05,.75,.38,1.6,.9,2.12,.58,.58,1.28,.67,1.88,.67,.67,0,1.17-.15,1.67-.52,.42-.33,.75-.75,.97-1.15l2.05,1.15Zm-2.42-4.27c-.1-.57-.38-1.07-.75-1.42-.33-.3-.85-.6-1.65-.6-.85,0-1.4,.35-1.72,.67-.35,.33-.62,.83-.75,1.35h4.87Z" style="fill:#646464;"/><path d="M222.22,620.83c-.25-.4-.72-.9-1.5-.9-.35,0-.6,.12-.75,.27-.12,.12-.22,.33-.22,.55,0,.28,.12,.45,.35,.6,.15,.1,.3,.15,.82,.43l1.25,.62c.55,.28,1.07,.55,1.47,.98,.57,.57,.78,1.22,.78,1.95,0,.95-.35,1.77-.93,2.4-.82,.9-1.85,1.17-2.95,1.17-.67,0-1.52-.1-2.27-.67-.6-.45-1.1-1.17-1.35-1.92l2-.95c.12,.35,.35,.8,.58,1,.15,.15,.5,.4,1.07,.4,.38,0,.78-.12,1-.35,.2-.2,.35-.52,.35-.82s-.1-.55-.33-.8c-.3-.3-.65-.48-1.05-.65l-.9-.42c-.48-.22-1.05-.5-1.45-.9-.55-.53-.75-1.1-.75-1.77,0-.85,.33-1.67,.88-2.25,.47-.5,1.28-1,2.57-1,.75,0,1.35,.15,1.95,.55,.35,.22,.83,.62,1.2,1.3l-1.83,1.2Z" style="fill:#646464;"/><path d="M226.57,632.13c.62-1.47,1.2-3.25,1.53-4.65,.27-1.25,.57-3.17,.57-5.9,0-2.1-.2-4.3-.6-6.1-.3-1.38-.85-3.05-1.5-4.52l2.25-.87c.77,1.62,1.25,3.07,1.65,4.87,.55,2.45,.7,4.3,.7,6.62s-.12,4.02-.65,6.37c-.4,1.77-.9,3.35-1.7,5.05l-2.25-.88Z" style="fill:#646464;"/><path d="M177.47,697.91l4.4,11.15,4.5-11.95,4.35,11.95,4.55-11.15h2.75l-7.45,17.75-4.35-11.82-4.4,11.82-7.1-17.75h2.75Z" style="fill:#646464;"/><path d="M198.92,696.36h2.45v8.6c1.05-1.07,2.2-1.17,2.82-1.17,1.92,0,2.8,1,3.1,1.42,.65,.95,.68,2.17,.68,2.92v6.45h-2.45v-6.22c0-.62,0-1.3-.47-1.82-.28-.3-.75-.55-1.38-.55-.83,0-1.47,.4-1.8,.88-.35,.5-.5,1.3-.5,2.65v5.07h-2.45v-18.22Z" style="fill:#646464;"/><path d="M212.29,698.13c.9,0,1.58,.67,1.58,1.58s-.67,1.57-1.58,1.57-1.57-.67-1.57-1.57,.67-1.58,1.57-1.58Zm1.22,5.92v10.52h-2.45v-10.52h2.45Z" style="fill:#646464;"/><path d="M219.14,706.31v8.27h-2.45v-8.27h-1.02v-2.25h1.02v-3.85h2.45v3.85h1.88v2.25h-1.88Z" style="fill:#646464;"/><path d="M232.09,712.18c-.45,.8-1.1,1.5-1.77,1.92-.85,.55-1.97,.8-3.1,.8-1.4,0-2.55-.35-3.55-1.35-1-1-1.55-2.45-1.55-4.02s.58-3.2,1.67-4.32c.88-.87,2.02-1.42,3.52-1.42,1.67,0,2.75,.73,3.37,1.38,1.35,1.4,1.47,3.35,1.47,4.45v.3h-7.55c.05,.75,.38,1.6,.9,2.12,.57,.58,1.28,.67,1.88,.67,.67,0,1.17-.15,1.67-.52,.43-.33,.75-.75,.97-1.15l2.05,1.15Zm-2.42-4.27c-.1-.57-.38-1.07-.75-1.42-.33-.3-.85-.6-1.65-.6-.85,0-1.4,.35-1.72,.67-.35,.33-.62,.83-.75,1.35h4.87Z" style="fill:#646464;"/></g></svg>