<?xml version="1.0" encoding="utf-8"?>
<!-- Generator: Adobe Illustrator 26.2.1, SVG Export Plug-In . SVG Version: 6.00 Build 0)  -->
<svg version="1.1" id="Layer_1" xmlns="http://www.w3.org/2000/svg" xmlns:xlink="http://www.w3.org/1999/xlink" x="0px" y="0px"
	 viewBox="0 0 953.3 934" style="enable-background:new 0 0 953.3 934;" xml:space="preserve">
<style type="text/css">
	.st0{opacity:0.51;fill:#4274BA;enable-background:new    ;}
	.st1{clip-path:url(#SVGID_00000108276559359575150820000017928148255377186439_);}
	.st2{fill:#4274BA;}
	.st3{fill:#FFFFFF;}
	.st4{fill:#1C3255;}
	.st5{clip-path:url(#SVGID_00000035497181901453767480000015884680295369978009_);}
	.st6{clip-path:url(#SVGID_00000039106447830485398640000006798485836937907584_);fill:#4274BA;}
	.st7{clip-path:url(#SVGID_00000031890490057832554700000004671371620011452090_);fill:#4274BA;}
</style>
<circle class="st0" cx="696.5" cy="246.1" r="179.1"/>
<g>
	<defs>
		<circle id="SVGID_1_" cx="696.5" cy="246.1" r="179.1"/>
	</defs>
	<clipPath id="SVGID_00000098921508878980598790000007459312923043944591_">
		<use xlink:href="#SVGID_1_"  style="overflow:visible;"/>
	</clipPath>
	<g style="clip-path:url(#SVGID_00000098921508878980598790000007459312923043944591_);">
		<polygon class="st2" points="696.5,35.1 696.5,246.1 687.8,463.5 479.1,463.5 479.1,28.7 		"/>
	</g>
</g>
<circle class="st3" cx="693.5" cy="246.1" r="97.8"/>
<path d="M635.8,222.2h-6.4l-1,3.5c0.3,0,0.7-0.1,1-0.1c1.8,0,3.5,0.6,4.8,1.9c1.4,1.4,2.1,3.4,2,5.4c0.1,2.1-0.7,4.1-2.1,5.5
	c-2.7,2.3-6.6,2.8-9.8,1.2c-1-0.6-1.8-1.4-2.5-2.4l2.4-2c0.8,1.6,2.5,2.6,4.3,2.5c1.2,0.1,2.3-0.4,3.2-1.2c0.9-0.9,1.4-2.2,1.3-3.5
	c0.1-1.3-0.4-2.5-1.2-3.4c-1-0.8-2.2-1.2-3.4-1.2c-0.8,0-1.7,0.1-2.4,0.4c-0.6,0.2-1.3,0.6-1.8,0.9l3.1-10.5h8.6L635.8,222.2z"/>
<path d="M642.5,222.2h-3.6l1.8-2.9h5.1v20.9h-3.2V222.2z"/>
<path d="M663.6,223.9c0,2.8-2.2,5-4.9,5.1c-2.8,0-5-2.2-5.1-4.9s2.2-5,4.9-5.1c0,0,0.1,0,0.1,0C661.3,219,663.5,221.2,663.6,223.9z
	 M661.1,223.9c0-1.4-1.2-2.6-2.7-2.5s-2.6,1.2-2.5,2.7c0,1.4,1.2,2.5,2.6,2.5C660,226.6,661.1,225.4,661.1,223.9
	C661.1,224,661.1,224,661.1,223.9z M670.4,218.9l1.5,0.9l-11.9,20.7l-1.5-0.9L670.4,218.9z M676.8,235.4c0,2.8-2.1,5-4.9,5.1
	c-2.8,0-5-2.1-5.1-4.9c0-2.8,2.1-5,4.9-5.1c0,0,0.1,0,0.1,0C674.5,230.5,676.8,232.7,676.8,235.4L676.8,235.4z M674.3,235.4
	c0-1.4-1.2-2.6-2.7-2.5s-2.6,1.2-2.5,2.7c0,1.4,1.2,2.5,2.6,2.5C673.2,238.1,674.3,236.9,674.3,235.4
	C674.3,235.4,674.3,235.4,674.3,235.4L674.3,235.4z"/>
<path d="M698.1,222.2h-7.3v5.3h7v3h-7v9.6h-3.2v-20.9h10.5V222.2z"/>
<path d="M712.3,237.1c-0.5,1-1.3,1.8-2.2,2.4c-1.2,0.7-2.5,1-3.9,1c-1.7,0.1-3.3-0.5-4.4-1.7c-1.3-1.3-2-3.1-1.9-5
	c0-2,0.7-4,2.1-5.4c1.2-1.2,2.8-1.8,4.4-1.8c1.6,0,3.1,0.6,4.2,1.7c1.3,1.5,2,3.5,1.9,5.6v0.4H703c0.1,1,0.5,1.9,1.1,2.7
	c0.6,0.6,1.5,0.9,2.3,0.8c0.8,0,1.5-0.2,2.1-0.7c0.5-0.4,0.9-0.9,1.2-1.4L712.3,237.1z M709.3,231.8c-0.1-0.7-0.4-1.3-0.9-1.8
	c-0.6-0.5-1.3-0.8-2.1-0.8c-0.8,0-1.6,0.3-2.2,0.8c-0.5,0.5-0.8,1-0.9,1.7H709.3z"/>
<path d="M715.6,226.9h3.1v1.2c0.8-1,2-1.6,3.3-1.6c1.4,0,2.7,0.7,3.4,1.9c0.9-1.3,2.4-2,3.9-1.9c1.5,0,3,0.7,3.8,2.1
	c0.5,1,0.8,2.2,0.7,3.3v8.1h-3.1v-7.3c0.1-0.8,0-1.6-0.3-2.4c-0.3-0.7-1-1.2-1.8-1.2c-0.7,0-1.4,0.4-1.8,1c-0.5,0.9-0.7,2-0.6,3v6.8
	h-3.1v-7.3c0.1-0.8,0-1.6-0.3-2.4c-0.3-0.7-1-1.2-1.8-1.2c-0.7,0-1.4,0.4-1.8,1c-0.5,0.9-0.7,2-0.6,3v6.8h-3.1V226.9z"/>
<path d="M747.2,226.9h3.1v13.2h-3.1v-1.4c-1,1.2-2.4,1.8-4,1.8c-4.1,0-6.4-3.4-6.4-7c0-4.3,2.9-6.9,6.4-6.9c1.5,0,3,0.7,3.9,1.9
	L747.2,226.9z M740,233.6c0,2.3,1.4,4.2,3.7,4.2c1.9,0,3.7-1.4,3.7-4.2s-1.8-4.3-3.7-4.3C741.4,229.4,740,231.2,740,233.6L740,233.6
	z"/>
<path d="M757.2,217.3v22.8h-3.1v-22.8H757.2z"/>
<path d="M772.9,237.1c-0.5,1-1.3,1.8-2.2,2.4c-1.2,0.7-2.5,1-3.9,1c-1.7,0.1-3.3-0.5-4.4-1.7c-1.3-1.3-2-3.1-1.9-5
	c0-2,0.7-4,2.1-5.4c1.2-1.2,2.8-1.8,4.4-1.8c1.6,0,3.1,0.6,4.2,1.7c1.3,1.5,2,3.5,1.8,5.6v0.4h-9.5c0.1,1,0.5,1.9,1.1,2.7
	c0.6,0.6,1.5,0.9,2.3,0.8c0.8,0,1.5-0.2,2.1-0.7c0.5-0.4,0.9-0.9,1.2-1.4L772.9,237.1z M769.9,231.8c-0.1-0.7-0.4-1.3-0.9-1.8
	c-1.2-1-3-1-4.2,0.1c-0.5,0.5-0.8,1-0.9,1.7H769.9z"/>
<path d="M644.8,270.8h2.2v2.9h-2.2v3.9h-3.1v-3.9h-10.3l13.4-18.5L644.8,270.8z M641.8,270.9v-6.7l-4.8,6.7L641.8,270.9z"/>
<path d="M653.2,276.7l4.9-6.3c-0.4,0.1-0.8,0.1-1.1,0.1c-1.8,0-3.6-0.7-4.9-1.9c-1.3-1.3-2-3-1.9-4.8c0-1.9,0.7-3.8,2.1-5.2
	c3-2.8,7.7-2.8,10.8-0.1c1.2,1.3,1.9,3,1.8,4.7c0,1.4-0.3,2.8-1,4c-0.7,1.3-1.6,2.6-2.5,3.7l-5.8,7.5L653.2,276.7z M660.4,266.5
	c0.8-0.8,1.2-1.9,1.2-3.1c0-1.1-0.4-2.2-1.2-3c-0.8-0.8-1.9-1.2-3-1.2c-1.1,0-2.2,0.4-3,1.2c-1.7,1.6-1.8,4.3-0.2,6
	c0.8,0.8,1.9,1.3,3.1,1.3C658.5,267.8,659.6,267.4,660.4,266.5z"/>
<path d="M677.5,261.5c0,2.8-2.2,5-4.9,5.1s-5-2.2-5.1-4.9s2.2-5,4.9-5.1c0,0,0.1,0,0.1,0C675.2,256.6,677.4,258.8,677.5,261.5z
	 M675,261.5c0-1.4-1.2-2.6-2.7-2.5s-2.6,1.2-2.5,2.7c0,1.4,1.2,2.5,2.6,2.5C673.9,264.2,675,263,675,261.5
	C675,261.6,675,261.6,675,261.5z M684.3,256.5l1.5,0.8L673.8,278l-1.5-0.9L684.3,256.5z M690.7,273c0,2.8-2.2,5-4.9,5.1
	s-5-2.2-5.1-4.9s2.2-5,4.9-5.1c0,0,0.1,0,0.1,0C688.4,268.1,690.6,270.3,690.7,273L690.7,273z M688.2,273c0-1.4-1.2-2.6-2.7-2.5
	s-2.6,1.2-2.5,2.7c0,1.4,1.2,2.5,2.6,2.5C687.1,275.7,688.2,274.5,688.2,273C688.3,273,688.3,273,688.2,273L688.2,273z"/>
<path d="M700.9,277.7l4.4-22.4l7.3,16.2l7.3-16.2l3.9,22.4h-3.2l-2.1-12.6l-6.1,13.5l-6-13.6l-2.2,12.6H700.9z"/>
<path d="M737.3,264.5h3.1v13.2h-3.1v-1.4c-1,1.2-2.4,1.8-3.9,1.8c-4.1,0-6.4-3.4-6.4-7c0-4.3,2.9-6.9,6.4-6.9c1.5,0,3,0.7,3.9,1.9
	L737.3,264.5z M730.1,271.1c0,2.3,1.4,4.2,3.7,4.2c1.9,0,3.7-1.4,3.7-4.2s-1.8-4.2-3.7-4.2C731.5,266.9,730.1,268.8,730.1,271.1
	L730.1,271.1z"/>
<path d="M747.3,254.9v22.8h-3.1v-22.8H747.3z"/>
<path d="M763,274.7c-0.5,1-1.3,1.8-2.2,2.4c-1.2,0.7-2.5,1-3.9,1c-1.7,0.1-3.3-0.5-4.4-1.7c-1.3-1.3-2-3.1-1.9-5c0-2,0.7-4,2.1-5.4
	c1.2-1.2,2.8-1.8,4.4-1.8c1.6,0,3.1,0.6,4.2,1.7c1.3,1.6,2,3.5,1.8,5.6v0.4h-9.5c0.1,1,0.5,1.9,1.1,2.7c0.6,0.6,1.5,0.9,2.3,0.8
	c0.8,0,1.5-0.2,2.1-0.6c0.5-0.4,0.9-0.9,1.2-1.4L763,274.7z M760,269.3c-0.1-0.7-0.4-1.3-0.9-1.8c-0.6-0.5-1.3-0.8-2.1-0.8
	c-0.8,0-1.6,0.3-2.2,0.8c-0.5,0.5-0.8,1-0.9,1.7H760z"/>
<path class="st4" d="M499.1,1.5v15.9H495V1.5H499.1z"/>
<path class="st4" d="M502.1,6.8h3.8v1.3c0.8-1.1,2.1-1.6,3.4-1.6c1.2-0.1,2.3,0.4,3.2,1.1c0.8,0.8,1.1,1.9,1,3v6.8h-3.8V12
	c0.1-0.7-0.1-1.5-0.5-2.1c-0.3-0.3-0.8-0.5-1.2-0.5c-0.5,0-1,0.2-1.4,0.5c-0.4,0.5-0.6,1.1-0.6,1.7v5.7h-3.8L502.1,6.8z"/>
<path class="st4" d="M528.2,17.4h-3.8v-1.2c-0.8,1-2,1.6-3.2,1.5c-1.4,0-2.8-0.5-3.8-1.5c-1.1-1.1-1.7-2.7-1.7-4.3
	c0-1.6,0.6-3.1,1.7-4.2c1-0.9,2.4-1.5,3.8-1.4c1.2,0,2.4,0.5,3.2,1.4V0h3.8L528.2,17.4z M523.7,13.9c0.5-0.5,0.8-1.1,0.8-1.8
	c0-0.6-0.3-1.2-0.7-1.7c-0.5-0.5-1.1-0.7-1.8-0.7c-0.6,0-1.2,0.2-1.7,0.7c-0.5,0.5-0.7,1.1-0.7,1.8c0,0.6,0.3,1.2,0.7,1.7
	c0.4,0.5,1.1,0.7,1.7,0.7C522.6,14.6,523.2,14.3,523.7,13.9z"/>
<path class="st4" d="M532.8,0.2c1.2,0,2.1,1,2.1,2.2s-1,2.1-2.2,2.1c-1.2,0-2.1-1-2.1-2.1C530.6,1.1,531.5,0.2,532.8,0.2
	C532.7,0.1,532.7,0.1,532.8,0.2z M534.7,6.8v10.7h-3.8V6.8H534.7z"/>
<path class="st4" d="M540.2,6.8l2.6,5.5l2.6-5.5h4.3l-5.6,10.7h-2.6L536,6.8H540.2z"/>
<path class="st4" d="M552.9,0.2c1.2,0,2.1,1,2.1,2.2s-1,2.1-2.2,2.1c-1.2,0-2.1-1-2.1-2.1C550.7,1.1,551.7,0.2,552.9,0.2
	C552.9,0.1,552.9,0.1,552.9,0.2z M554.8,6.8v10.7H551V6.8H554.8z"/>
<path class="st4" d="M569.5,17.4h-3.8v-1.2c-0.8,1-2,1.6-3.2,1.5c-1.4,0-2.8-0.5-3.8-1.5c-2.3-2.4-2.3-6.1,0-8.5
	c1-0.9,2.4-1.5,3.8-1.4c1.2,0,2.4,0.5,3.2,1.4V0h3.8L569.5,17.4z M565,13.9c0.5-0.5,0.8-1.1,0.8-1.8c0-0.6-0.3-1.2-0.7-1.7
	c-0.5-0.5-1.1-0.7-1.7-0.7c-0.6,0-1.3,0.2-1.7,0.7c-0.5,0.5-0.7,1.1-0.7,1.8c0,0.6,0.3,1.2,0.7,1.7c0.4,0.5,1.1,0.7,1.7,0.7
	C563.9,14.6,564.5,14.3,565,13.9z"/>
<path class="st4" d="M576,6.8v6c0,0.6,0.2,1.1,0.6,1.6c0.4,0.3,0.9,0.4,1.3,0.4c0.5,0,1-0.1,1.4-0.5c0.4-0.4,0.6-1,0.5-1.5v-6h3.8
	v6.7c0.1,1.1-0.3,2.1-1,2.9c-1.3,1.1-2.9,1.7-4.6,1.5c-1.6,0-3.6-0.2-4.8-1.5c-0.7-0.8-1.1-1.8-1-2.8V6.8H576z"/>
<path class="st4" d="M594.5,6.8h3.8v10.7h-3.8v-1.2c-0.8,1-2,1.6-3.3,1.5c-1.5,0-2.9-0.6-3.8-1.7c-1-1-1.6-2.5-1.5-3.9
	c0-1.6,0.5-3.1,1.6-4.2c1-1,2.4-1.5,3.8-1.5c1.2,0,2.4,0.5,3.2,1.4L594.5,6.8z M590.5,10.3c-0.5,0.5-0.8,1.1-0.8,1.8
	c0,0.7,0.3,1.3,0.8,1.7c0.5,0.4,1.1,0.7,1.7,0.7c0.6,0,1.3-0.3,1.7-0.7c0.5-0.4,0.7-1.1,0.7-1.7c0-0.7-0.3-1.3-0.8-1.8
	C593,9.4,591.5,9.4,590.5,10.3L590.5,10.3z"/>
<path class="st4" d="M604.8,0v17.4H601V0H604.8z"/>
<path class="st4" d="M624.8,17c-1.1,0.5-2.4,0.8-3.6,0.8c-2.3,0-4.5-0.8-6.2-2.4c-1.5-1.5-2.4-3.6-2.4-5.8c0-2.2,0.9-4.3,2.4-5.9
	c1.6-1.6,3.7-2.5,6-2.5c1.3,0,2.6,0.3,3.7,0.8V7c-0.9-1.1-2.2-1.8-3.6-1.7c-1.1-0.1-2.1,0.3-2.9,1c-0.9,0.9-1.4,2-1.4,3.3
	c0,1.2,0.5,2.3,1.3,3.1c0.8,0.7,1.9,1.1,3,1.1c1.4,0,2.7-0.6,3.6-1.7L624.8,17z"/>
<path class="st4" d="M637.8,16c-2.7,2.4-6.8,2.4-9.5,0c-1.1-1-1.7-2.5-1.7-3.9c0-1.5,0.6-2.9,1.7-3.9c1.3-1.2,3-1.8,4.8-1.8
	c1.8-0.1,3.5,0.6,4.8,1.8c1.1,1,1.6,2.4,1.6,3.9C639.5,13.6,638.9,15,637.8,16z M631.3,10.3c-0.9,0.9-1,2.4-0.1,3.4
	c0,0,0.1,0.1,0.1,0.1c0.9,0.9,2.4,1,3.4,0c0,0,0,0,0,0c0.5-0.4,0.7-1,0.7-1.7c0-0.7-0.3-1.3-0.7-1.8C633.8,9.4,632.3,9.4,631.3,10.3
	z"/>
<path class="st4" d="M641.7,6.8h3.8v1.3c0.8-1,2.1-1.6,3.4-1.6c1.2-0.1,2.3,0.4,3.2,1.1c0.8,0.8,1.1,1.9,1,3v6.8h-3.8V12
	c0.1-0.7-0.1-1.5-0.5-2.1c-0.3-0.3-0.8-0.5-1.2-0.5c-0.5,0-1,0.2-1.4,0.5c-0.4,0.5-0.6,1.1-0.6,1.7v5.7h-3.8L641.7,6.8z"/>
<path class="st4" d="M659.9,9.9v7.5h-3.8V9.9h-1.2V6.8h1.2V3.2h3.8v3.5h2.2v3.2H659.9z"/>
<path class="st4" d="M663.5,6.8h3.8v1.7c0.3-0.6,0.9-1.2,1.5-1.5c0.6-0.3,1.3-0.5,2-0.4l0.8,0v3.6c-0.5-0.3-1.1-0.4-1.7-0.4
	c-0.6,0-1.3,0.2-1.7,0.6c-0.6,0.7-0.9,1.5-0.9,2.4v4.6h-3.8L663.5,6.8z"/>
<path class="st4" d="M675.2,0.2c1.2,0,2.1,1,2.1,2.2s-1,2.1-2.2,2.1c-1.2,0-2.1-1-2.1-2.1C673,1.1,674,0.2,675.2,0.2
	C675.2,0.1,675.2,0.1,675.2,0.2z M677.1,6.8v10.7h-3.8V6.8H677.1z"/>
<path class="st4" d="M683.5,0v7.8c0.8-0.9,2-1.4,3.2-1.4c1.4,0,2.7,0.5,3.8,1.4c1.1,1.1,1.8,2.6,1.8,4.2c0,1.6-0.6,3.1-1.7,4.3
	c-1,1-2.4,1.5-3.8,1.5c-1.3,0-2.5-0.5-3.2-1.5v1.2h-3.8V0H683.5z M687.5,13.8c0.5-0.4,0.7-1,0.7-1.7c0-0.7-0.3-1.3-0.7-1.8
	c-0.5-0.4-1.1-0.7-1.7-0.7c-0.7,0-1.3,0.2-1.7,0.7c-0.4,0.5-0.7,1.1-0.7,1.7c0,0.7,0.3,1.4,0.8,1.8c0.5,0.4,1,0.6,1.7,0.7
	C686.5,14.6,687.1,14.3,687.5,13.8L687.5,13.8z"/>
<path class="st4" d="M698.3,6.8v6c0,0.6,0.2,1.1,0.6,1.6c0.4,0.3,0.9,0.4,1.3,0.4c0.5,0,1-0.1,1.4-0.5c0.4-0.4,0.6-1,0.5-1.5v-6h3.8
	v6.7c0.1,1.1-0.3,2.1-1,2.9c-1.3,1.1-2.9,1.7-4.6,1.5c-1.6,0-3.6-0.2-4.8-1.5c-0.7-0.8-1.1-1.8-1-2.8V6.8H698.3z"/>
<path class="st4" d="M712.8,9.9v7.5H709V9.9h-1.2V6.8h1.2V3.2h3.8v3.5h2.2v3.2H712.8z"/>
<path class="st4" d="M727.1,16c-2.7,2.4-6.8,2.4-9.5,0c-1.1-1-1.7-2.5-1.7-3.9c0-1.5,0.6-2.9,1.7-3.9c2.7-2.4,6.8-2.4,9.5,0
	c1.1,1,1.7,2.4,1.7,3.9C728.8,13.6,728.2,15,727.1,16z M720.7,10.3c-0.9,0.9-1,2.4-0.1,3.4c0,0,0.1,0.1,0.1,0.1
	c0.5,0.5,1.1,0.7,1.7,0.7c0.6,0,1.3-0.3,1.7-0.7c0.5-0.4,0.7-1,0.7-1.7c0-0.7-0.3-1.3-0.7-1.8C723.1,9.4,721.6,9.4,720.7,10.3z"/>
<path class="st4" d="M731,6.8h3.8v1.7c0.3-0.6,0.9-1.2,1.5-1.5c0.6-0.3,1.3-0.5,2-0.4l0.8,0v3.6c-0.5-0.3-1.1-0.4-1.7-0.4
	c-0.6,0-1.3,0.2-1.7,0.6c-0.6,0.7-0.9,1.5-0.9,2.4v4.6H731L731,6.8z"/>
<path class="st4" d="M741.5,13.9c0.5,0.3,1,0.6,1.5,0.8c0.5,0.2,1,0.3,1.5,0.3c0.4,0,0.7-0.1,1-0.3c0.1-0.1,0.2-0.3,0.2-0.5
	c0-0.2-0.1-0.4-0.2-0.5c-0.3-0.2-0.6-0.3-1-0.4l-1-0.2c-0.7-0.1-1.4-0.4-1.9-0.9c-0.5-0.5-0.7-1.2-0.7-1.8c0-1,0.4-1.9,1-2.6
	c1.1-0.9,2.4-1.4,3.8-1.3c1.2,0,2.3,0.2,3.4,0.7l-1.3,2.4c-0.6-0.3-1.3-0.5-2-0.5c-0.3,0-0.6,0.1-0.9,0.2c-0.2,0.1-0.3,0.3-0.3,0.5
	c0,0.3,0.2,0.5,0.5,0.6c0.4,0.1,0.8,0.2,1.3,0.3l0.7,0.2c0.6,0.2,1.1,0.5,1.6,0.8c0.5,0.6,0.8,1.3,0.8,2.1c0,1-0.4,2-1.1,2.7
	c-1.1,0.9-2.5,1.4-4,1.3c-1.5,0-3-0.4-4.3-1.2L741.5,13.9z"/>
<path class="st4" d="M752.6,13.4h3.6l-4.1,7.5h-2.5L752.6,13.4z"/>
<path class="st4" d="M765.7,12.7c1,1,2.3,1.6,3.7,1.6c0.6,0,1.2-0.2,1.6-0.5c0.3-0.3,0.4-0.6,0.4-1c0-0.4-0.2-0.7-0.5-1
	c-0.6-0.4-1.3-0.7-2-0.9l-1.1-0.3c-0.9-0.2-1.7-0.7-2.3-1.3c-0.7-0.8-1-1.8-0.9-2.8c-0.1-1.4,0.5-2.8,1.5-3.8c1.1-1,2.6-1.6,4.1-1.5
	c1.7,0,3.4,0.5,4.9,1.3l-1.7,3.2c-0.7-0.7-1.7-1.1-2.7-1.1c-0.5,0-1,0.2-1.4,0.5c-0.2,0.2-0.4,0.5-0.4,0.9c0,0.3,0.1,0.5,0.2,0.7
	c0.4,0.4,0.9,0.6,1.4,0.7l1.3,0.4c1.1,0.3,2.1,0.8,2.9,1.6c0.7,0.8,1.1,1.8,1,2.8c0.1,1.5-0.5,2.9-1.5,4c-1.3,1.2-3,1.8-4.7,1.6
	c-1.1,0-2.1-0.2-3.1-0.5c-0.9-0.3-1.7-0.8-2.4-1.3L765.7,12.7z"/>
<path class="st4" d="M781.7,6.8v6c0,0.6,0.2,1.1,0.6,1.6c0.4,0.3,0.9,0.4,1.3,0.4c0.5,0,1-0.1,1.4-0.5c0.4-0.4,0.6-1,0.5-1.5v-6h3.9
	v6.7c0.1,1.1-0.3,2.1-1,2.9c-1.3,1.1-2.9,1.7-4.6,1.5c-1.6,0-3.6-0.2-4.8-1.5c-0.7-0.8-1.1-1.8-1-2.8V6.8H781.7z"/>
<path class="st4" d="M795.8,22.9H792V6.8h3.8v1.2c0.8-1,2-1.6,3.3-1.5c1.4,0,2.8,0.5,3.8,1.5c2.2,2.4,2.2,6.1-0.1,8.4
	c-1,1-2.3,1.5-3.7,1.5c-1.3,0-2.5-0.5-3.3-1.4L795.8,22.9z M796.4,10.4c-0.5,0.5-0.7,1.1-0.7,1.8c0,0.6,0.3,1.2,0.7,1.7
	c0.5,0.5,1.1,0.7,1.7,0.7c0.6,0,1.3-0.3,1.7-0.7c0.5-0.5,0.7-1.1,0.7-1.7c0-0.7-0.3-1.3-0.7-1.8c-0.4-0.5-1.1-0.7-1.7-0.7
	C797.5,9.6,796.9,9.9,796.4,10.4z"/>
<path class="st4" d="M818.1,12.8h-8c0,0.7,0.2,1.3,0.7,1.8c0.4,0.4,1,0.6,1.6,0.5c0.4,0,0.9-0.1,1.2-0.3c0.3-0.2,0.5-0.4,0.7-0.7
	h3.7c-0.2,0.8-0.7,1.6-1.3,2.2c-1.2,1.1-2.8,1.6-4.3,1.5c-1.6,0.1-3.2-0.5-4.4-1.6c-1.1-1.1-1.6-2.5-1.6-4c0-1.5,0.5-3,1.6-4.1
	c1.2-1.1,2.8-1.6,4.4-1.6c1.5-0.1,3,0.5,4.2,1.5c1.2,1.2,1.8,2.8,1.7,4.5L818.1,12.8z M814.6,10.6c-0.1-0.4-0.3-0.8-0.6-1.1
	c-0.4-0.4-1-0.6-1.6-0.6c-0.6,0-1.1,0.2-1.5,0.6c-0.3,0.3-0.5,0.7-0.6,1.1H814.6z"/>
<path class="st4" d="M820.3,6.8h3.8v1.7c0.3-0.6,0.9-1.2,1.5-1.5c0.6-0.3,1.3-0.5,2-0.4l0.8,0v3.6c-0.5-0.3-1.1-0.4-1.7-0.4
	c-0.6,0-1.3,0.2-1.8,0.6c-0.6,0.7-0.9,1.5-0.9,2.4v4.6h-3.8L820.3,6.8z"/>
<path class="st4" d="M833,6.8l2.6,5.5l2.6-5.5h4.2l-5.5,10.7h-2.6l-5.5-10.7H833z"/>
<path class="st4" d="M845.7,0.2c1.2,0,2.1,1,2.1,2.2s-1,2.1-2.2,2.1c-1.2,0-2.1-1-2.1-2.1C843.5,1.1,844.5,0.2,845.7,0.2
	C845.7,0.1,845.7,0.1,845.7,0.2z M847.6,6.8v10.7h-3.8V6.8H847.6z"/>
<path class="st4" d="M850.9,13.9c0.5,0.3,1,0.6,1.5,0.8c0.5,0.2,1,0.3,1.5,0.3c0.4,0,0.7-0.1,1-0.3c0.1-0.1,0.2-0.3,0.2-0.5
	c0-0.2-0.1-0.4-0.2-0.5c-0.3-0.2-0.6-0.3-1-0.4l-1-0.2c-0.7-0.1-1.4-0.4-1.9-0.9c-0.5-0.5-0.7-1.2-0.7-1.8c0-1,0.4-1.9,1-2.6
	c1.1-0.9,2.4-1.4,3.8-1.3c1.2,0,2.3,0.2,3.4,0.7l-1.3,2.4c-0.6-0.3-1.3-0.5-2-0.5c-0.3,0-0.6,0.1-0.9,0.2c-0.2,0.1-0.3,0.3-0.3,0.5
	c0,0.3,0.2,0.5,0.5,0.6c0.4,0.1,0.8,0.2,1.3,0.3l0.7,0.2c0.6,0.2,1.1,0.5,1.6,0.8c0.5,0.6,0.8,1.3,0.8,2.1c0,1-0.4,2-1.1,2.7
	c-1.1,1-2.5,1.4-4,1.3c-1.5,0-3-0.4-4.3-1.2L850.9,13.9z"/>
<path class="st4" d="M871.6,16c-2.7,2.4-6.8,2.4-9.5,0c-2.2-2.1-2.2-5.6-0.1-7.8c0,0,0,0,0.1-0.1c1.3-1.2,3-1.8,4.8-1.8
	c1.8-0.1,3.5,0.6,4.8,1.8C873.8,10.3,873.8,13.8,871.6,16C871.6,16,871.6,16,871.6,16z M865.1,10.3c-0.9,0.9-1,2.4-0.1,3.3
	c0,0,0.1,0.1,0.1,0.1c0.9,0.9,2.4,1,3.4,0c0,0,0,0,0,0c0.5-0.4,0.7-1,0.8-1.7c0-0.7-0.3-1.3-0.8-1.8C867.6,9.4,866.1,9.4,865.1,10.3
	z"/>
<path class="st4" d="M875.4,6.8h3.8v1.7c0.3-0.6,0.9-1.2,1.5-1.5c0.6-0.3,1.3-0.5,2-0.4l0.8,0v3.6c-0.5-0.3-1.1-0.4-1.7-0.4
	c-0.6,0-1.3,0.2-1.8,0.6c-0.6,0.7-0.9,1.5-0.9,2.4v4.6h-3.8V6.8z"/>
<path class="st4" d="M885.9,13.9c0.5,0.3,1,0.6,1.5,0.8c0.5,0.2,1,0.3,1.5,0.3c0.4,0,0.7-0.1,1-0.3c0.1-0.1,0.2-0.3,0.2-0.5
	c0-0.2-0.1-0.4-0.2-0.5c-0.3-0.2-0.6-0.3-1-0.4l-1-0.2c-0.7-0.1-1.4-0.4-1.9-0.9c-0.5-0.5-0.7-1.2-0.7-1.8c0-1,0.3-1.9,1-2.6
	c1.1-0.9,2.4-1.4,3.8-1.3c1.2,0,2.3,0.2,3.4,0.7l-1.3,2.4c-0.6-0.3-1.3-0.5-2-0.5c-0.3,0-0.6,0.1-0.9,0.2c-0.2,0.1-0.3,0.3-0.3,0.5
	c0,0.3,0.2,0.5,0.5,0.6c0.4,0.1,0.8,0.2,1.3,0.3l0.7,0.2c0.6,0.2,1.1,0.5,1.6,0.8c0.5,0.6,0.8,1.3,0.8,2.1c0,1-0.4,2-1.1,2.7
	c-1.1,0.9-2.5,1.4-3.9,1.3c-1.5,0-3-0.4-4.3-1.2L885.9,13.9z"/>
<path class="st4" d="M897,13.4h3.6l-4.1,7.5H894L897,13.4z"/>
<path class="st4" d="M539.4,43.5l2.7-16h4.1l3.2,8.6l3.4-8.5h4.1l2.4,16h-4.1l-1.2-9.2l-3.8,9.2h-1.7l-3.7-9.2l-1.4,9.2L539.4,43.5z
	"/>
<path class="st4" d="M569.9,32.8h3.8v10.7h-3.8v-1.2c-0.8,1-2,1.6-3.3,1.6c-1.5,0-2.9-0.6-3.8-1.7c-1-1-1.6-2.5-1.5-3.9
	c0-1.6,0.5-3.1,1.7-4.3c1-1,2.4-1.5,3.8-1.5c1.2,0,2.4,0.5,3.2,1.4L569.9,32.8z M565.9,36.4c-1,0.9-1,2.4-0.1,3.4
	c0,0,0.1,0.1,0.1,0.1c0.5,0.4,1.1,0.7,1.7,0.7c0.6,0,1.3-0.3,1.7-0.7c0.5-0.4,0.7-1.1,0.7-1.7c0-0.7-0.3-1.3-0.7-1.7
	C568.4,35.5,566.9,35.5,565.9,36.4L565.9,36.4z"/>
<path class="st4" d="M576.4,32.8h3.8v1.3c0.8-1.1,2.1-1.6,3.4-1.6c1.2-0.1,2.3,0.4,3.2,1.2c0.8,0.8,1.1,1.9,1,3v6.8h-3.8v-5.4
	c0.1-0.7-0.1-1.5-0.5-2.1c-0.3-0.3-0.8-0.5-1.2-0.4c-0.5,0-1,0.2-1.4,0.5c-0.4,0.5-0.6,1.1-0.6,1.7v5.7h-3.8L576.4,32.8z"/>
<path class="st4" d="M598.6,32.8h3.8v10.7h-3.8v-1.2c-0.8,1-2,1.6-3.3,1.6c-1.5,0-2.9-0.6-3.8-1.7c-1-1-1.6-2.5-1.5-3.9
	c0-1.6,0.5-3.1,1.7-4.3c1-1,2.4-1.6,3.9-1.6c1.2,0,2.4,0.5,3.2,1.4L598.6,32.8z M594.6,36.4c-1,0.9-1,2.4-0.1,3.4
	c0,0,0.1,0.1,0.1,0.1c0.5,0.4,1.1,0.7,1.7,0.7c0.6,0,1.3-0.3,1.7-0.7c0.5-0.4,0.7-1.1,0.7-1.7c0-0.7-0.3-1.3-0.8-1.7
	c-0.5-0.5-1.1-0.7-1.7-0.7C595.7,35.7,595.1,36,594.6,36.4L594.6,36.4z"/>
<path class="st4" d="M617.1,32.8v10c0.2,1.6-0.4,3.2-1.5,4.4c-1.3,1.2-3,1.8-4.7,1.7c-1.9,0.1-3.7-0.6-5-1.9c-0.6-0.6-1-1.3-1.2-2.2
	h4.3c0.2,0.8,1,1.2,1.8,1.1c0.6,0,1.2-0.2,1.7-0.6c0.5-0.5,0.8-1.3,0.8-2v-1.1c-0.8,0.9-2,1.5-3.2,1.4c-1.5,0.1-2.9-0.5-3.9-1.5
	c-1-1.1-1.5-2.5-1.5-3.9c0-1.5,0.5-3,1.6-4.2c1-1,2.4-1.6,3.9-1.6c1.2,0,2.4,0.5,3.2,1.4v-1.1H617.1z M609.3,36.4
	c-0.5,0.5-0.7,1.1-0.7,1.7c0,0.7,0.3,1.3,0.7,1.7c0.5,0.5,1.1,0.7,1.7,0.7c0.6,0,1.3-0.3,1.7-0.7c0.4-0.5,0.7-1.1,0.7-1.7
	c0-0.7-0.3-1.3-0.8-1.8c-0.5-0.4-1.1-0.7-1.7-0.7C610.4,35.7,609.7,36,609.3,36.4z"/>
<path class="st4" d="M631.1,38.9h-8c0,0.7,0.2,1.3,0.7,1.8c0.4,0.4,1,0.6,1.6,0.5c0.4,0,0.9-0.1,1.2-0.3c0.3-0.2,0.5-0.4,0.7-0.7
	h3.7c-0.2,0.8-0.7,1.6-1.3,2.2c-1.2,1.1-2.7,1.6-4.3,1.5c-1.6,0.1-3.2-0.5-4.4-1.6c-1-1.1-1.6-2.5-1.6-4c0-1.5,0.5-3,1.6-4.1
	c1.2-1.1,2.8-1.6,4.4-1.6c1.5-0.1,3,0.5,4.1,1.5c1.2,1.2,1.8,2.8,1.7,4.5L631.1,38.9z M627.5,36.7c-0.1-0.4-0.3-0.8-0.6-1.2
	c-0.4-0.4-1-0.6-1.6-0.6c-0.6,0-1.1,0.2-1.5,0.6c-0.3,0.3-0.5,0.7-0.6,1.2H627.5z"/>
<path class="st4" d="M633.3,32.8h3.8v1.8c0.3-0.6,0.9-1.2,1.5-1.5c0.6-0.3,1.3-0.5,2-0.4c0.1,0,0.3,0,0.8,0v3.6
	c-0.5-0.3-1.1-0.4-1.7-0.4c-0.6,0-1.3,0.2-1.8,0.6c-0.6,0.7-0.9,1.5-0.9,2.4v4.6h-3.8L633.3,32.8z"/>
<path class="st4" d="M643.7,40c0.5,0.3,1,0.6,1.5,0.8c0.5,0.2,1,0.3,1.5,0.3c0.4,0,0.7-0.1,1-0.3c0.1-0.1,0.2-0.3,0.2-0.5
	c0-0.2-0.1-0.4-0.2-0.5c-0.3-0.2-0.6-0.3-1-0.4l-1-0.2c-0.7-0.1-1.4-0.4-1.9-0.9c-0.5-0.5-0.7-1.2-0.7-1.8c0-1,0.3-1.9,1-2.6
	c1.1-0.9,2.4-1.4,3.8-1.3c1.2,0,2.3,0.2,3.4,0.7l-1.3,2.4c-0.6-0.3-1.3-0.5-2-0.5c-0.3,0-0.6,0.1-0.9,0.2c-0.2,0.1-0.3,0.3-0.3,0.5
	c0,0.3,0.2,0.5,0.5,0.6c0.4,0.1,0.7,0.1,1.3,0.3l0.7,0.2c0.6,0.2,1.1,0.5,1.6,0.8c0.5,0.6,0.8,1.3,0.8,2.1c0,1-0.4,2-1.1,2.7
	c-1.1,1-2.5,1.5-4,1.4c-1.5,0-3-0.5-4.2-1.3L643.7,40z"/>
<path class="st4" d="M654.9,39.5h3.6l-4.1,7.6h-2.5L654.9,39.5z"/>
<path class="st4" d="M667.9,38.7c1,1,2.3,1.5,3.7,1.6c0.6,0.1,1.2-0.1,1.6-0.6c0.3-0.3,0.4-0.6,0.4-1c0-0.4-0.2-0.8-0.5-1
	c-0.6-0.4-1.3-0.7-2.1-0.8l-1.1-0.3c-0.9-0.2-1.7-0.7-2.3-1.3c-0.7-0.8-1-1.8-0.9-2.8c-0.1-1.4,0.5-2.8,1.5-3.8
	c1.1-1,2.6-1.6,4.1-1.5c1.7,0,3.4,0.5,4.9,1.3l-1.7,3.3c-0.7-0.7-1.7-1.1-2.7-1.1c-0.5,0-1,0.2-1.4,0.5c-0.2,0.2-0.4,0.5-0.4,0.9
	c0,0.3,0.1,0.5,0.2,0.7c0.4,0.4,0.9,0.6,1.4,0.7l1.3,0.4c1.1,0.3,2.1,0.8,2.9,1.6c0.7,0.8,1.1,1.8,1,2.8c0.1,1.5-0.5,2.9-1.5,4
	c-1.3,1.2-3,1.8-4.7,1.7c-1.1,0-2.1-0.2-3.1-0.5c-0.9-0.3-1.7-0.8-2.4-1.3L667.9,38.7z"/>
<path class="st4" d="M691.5,38.9h-8c0,0.7,0.2,1.3,0.7,1.8c0.4,0.4,1,0.6,1.6,0.5c0.4,0,0.9-0.1,1.2-0.3c0.3-0.2,0.5-0.4,0.7-0.7
	h3.7c-0.2,0.8-0.7,1.6-1.3,2.2c-1.2,1.1-2.7,1.6-4.3,1.5c-1.6,0.1-3.2-0.5-4.4-1.6c-1-1.1-1.6-2.5-1.6-4c0-1.5,0.5-3,1.6-4.1
	c1.2-1.1,2.8-1.6,4.4-1.6c1.5-0.1,3,0.5,4.1,1.5c1.2,1.2,1.8,2.8,1.7,4.5L691.5,38.9z M688,36.7c-0.1-0.4-0.3-0.8-0.6-1.2
	c-0.4-0.4-1-0.6-1.6-0.6c-0.6,0-1.1,0.2-1.6,0.6c-0.3,0.3-0.5,0.7-0.6,1.2H688z"/>
<path class="st4" d="M693.7,32.8h3.8v1.3c0.8-1.1,2.1-1.6,3.4-1.6c1.2-0.1,2.3,0.4,3.2,1.2c0.8,0.8,1.1,1.9,1,3v6.8h-3.8v-5.4
	c0.1-0.7-0.1-1.5-0.5-2.1c-0.3-0.3-0.8-0.5-1.2-0.4c-0.5,0-1,0.2-1.4,0.5c-0.4,0.5-0.6,1.1-0.6,1.7v5.7h-3.8L693.7,32.8z"/>
<path class="st4" d="M709.6,26.2c1.2,0,2.2,1,2.1,2.2c0,1.2-1,2.2-2.2,2.1c-1.2,0-2.1-1-2.1-2.2C707.4,27.2,708.4,26.2,709.6,26.2
	C709.6,26.2,709.6,26.2,709.6,26.2z M711.5,32.8v10.7h-3.8V32.8H711.5z"/>
<path class="st4" d="M724.9,42.1c-2.7,2.4-6.8,2.4-9.5,0c-1.1-1-1.7-2.5-1.7-4c0-1.5,0.6-2.9,1.7-3.9c2.7-2.4,6.8-2.4,9.5,0
	c1.1,1,1.7,2.4,1.7,3.9C726.6,39.6,726,41.1,724.9,42.1z M718.4,36.4c-0.5,0.5-0.7,1.1-0.7,1.7c0,1.3,1.1,2.4,2.4,2.4
	c0.6,0,1.3-0.3,1.7-0.7c0.5-0.4,0.7-1.1,0.7-1.7c0-0.7-0.3-1.3-0.7-1.7C720.9,35.5,719.4,35.5,718.4,36.4z"/>
<path class="st4" d="M728.7,32.8h3.8v1.8c0.3-0.6,0.9-1.2,1.5-1.5c0.6-0.3,1.3-0.5,2-0.4c0.1,0,0.3,0,0.8,0v3.6
	c-0.5-0.3-1.1-0.4-1.7-0.4c-0.6,0-1.3,0.2-1.7,0.6c-0.6,0.7-0.9,1.5-0.9,2.4v4.6h-3.8L728.7,32.8z"/>
<path class="st4" d="M743.7,43.5l2.7-16h4.1l3.2,8.5l3.4-8.5h4.1l2.4,16h-4.1l-1.1-9.2l-3.8,9.2h-1.7l-3.7-9.2l-1.4,9.2L743.7,43.5z
	"/>
<path class="st4" d="M774.2,32.8h3.8v10.7h-3.8v-1.2c-0.8,1-2,1.6-3.3,1.6c-1.5,0-2.9-0.6-3.8-1.7c-1-1-1.6-2.5-1.5-3.9
	c0-1.6,0.5-3.1,1.7-4.3c1-1,2.4-1.5,3.8-1.5c1.2,0,2.4,0.5,3.2,1.4V32.8z M770.2,36.4c-1,0.9-1,2.4-0.1,3.4c0,0,0.1,0.1,0.1,0.1
	c0.5,0.4,1.1,0.7,1.7,0.7c0.7,0,1.3-0.3,1.7-0.7c1-0.9,1-2.5,0-3.4c0,0,0,0,0,0C772.8,35.5,771.2,35.5,770.2,36.4L770.2,36.4z"/>
<path class="st4" d="M780.7,32.8h3.8v1.3c0.8-1.1,2.1-1.6,3.4-1.6c1.2-0.1,2.3,0.4,3.2,1.2c0.8,0.8,1.1,1.9,1,3v6.8h-3.8v-5.4
	c0.1-0.7-0.1-1.5-0.5-2.1c-0.3-0.3-0.8-0.5-1.2-0.4c-0.5,0-1,0.2-1.4,0.5c-0.4,0.5-0.6,1.1-0.6,1.7v5.7h-3.8L780.7,32.8z"/>
<path class="st4" d="M803,32.8h3.8v10.7H803v-1.2c-0.8,1-2,1.6-3.3,1.6c-1.5,0-2.9-0.6-3.8-1.7c-1-1-1.6-2.5-1.5-3.9
	c0-1.6,0.5-3.1,1.7-4.3c1-1,2.4-1.5,3.8-1.5c1.2,0,2.4,0.5,3.2,1.4V32.8z M799,36.4c-1,0.9-1,2.4-0.1,3.4c0,0,0.1,0.1,0.1,0.1
	c0.5,0.4,1.1,0.7,1.7,0.7c0.6,0,1.3-0.3,1.7-0.7c0.5-0.4,0.7-1.1,0.7-1.7c0-0.7-0.3-1.3-0.7-1.7C801.4,35.5,799.9,35.5,799,36.4
	L799,36.4z"/>
<path class="st4" d="M821.4,32.8v10c0.2,1.6-0.4,3.2-1.5,4.4c-1.3,1.2-3,1.8-4.7,1.7c-1.9,0.1-3.7-0.6-5-1.9c-0.6-0.6-1-1.3-1.2-2.2
	h4.2c0.3,0.7,1,1.2,1.8,1.1c0.6,0,1.2-0.2,1.7-0.6c0.5-0.5,0.8-1.3,0.8-2v-1.1c-0.8,0.9-2,1.4-3.2,1.4c-1.5,0.1-2.9-0.5-4-1.5
	c-1-1.1-1.5-2.5-1.5-3.9c0-1.5,0.5-3,1.6-4.2c1-1.1,2.4-1.6,3.9-1.6c1.2,0,2.4,0.5,3.2,1.4v-1.1H821.4z M813.6,36.4
	c-0.5,0.5-0.7,1.1-0.7,1.7c0,0.7,0.3,1.3,0.7,1.7c0.5,0.5,1.1,0.7,1.7,0.7c1.3,0,2.4-1.1,2.4-2.4c0-0.7-0.3-1.3-0.8-1.8
	c-0.5-0.4-1.1-0.7-1.7-0.7C814.7,35.7,814.1,36,813.6,36.4L813.6,36.4z"/>
<path class="st4" d="M835.4,38.9h-8c0,0.7,0.2,1.3,0.7,1.8c0.4,0.4,1,0.6,1.6,0.5c0.4,0,0.9-0.1,1.2-0.3c0.3-0.2,0.5-0.4,0.7-0.7
	h3.7c-0.2,0.8-0.7,1.6-1.3,2.2c-1.2,1.1-2.7,1.6-4.3,1.5c-1.6,0.1-3.2-0.5-4.4-1.6c-1-1.1-1.6-2.5-1.6-4c0-1.5,0.5-3,1.6-4.1
	c1.2-1.1,2.8-1.6,4.4-1.6c1.5-0.1,3,0.5,4.1,1.5c1.2,1.2,1.8,2.8,1.7,4.5L835.4,38.9z M831.9,36.7c-0.1-0.4-0.3-0.8-0.6-1.2
	c-0.4-0.4-1-0.6-1.6-0.6c-0.6,0-1.1,0.2-1.5,0.6c-0.3,0.3-0.5,0.7-0.6,1.2H831.9z"/>
<path class="st4" d="M837.6,32.8h3.8v1.8c0.3-0.6,0.9-1.2,1.5-1.5c0.6-0.3,1.3-0.5,2-0.4c0.1,0,0.3,0,0.8,0v3.6
	c-0.5-0.3-1.1-0.4-1.7-0.4c-0.6,0-1.3,0.2-1.7,0.6c-0.6,0.7-0.9,1.6-0.9,2.5v4.6h-3.8L837.6,32.8z"/>
<path class="st4" d="M848.1,40c0.5,0.3,1,0.6,1.5,0.8c0.5,0.2,1,0.3,1.5,0.3c0.4,0,0.7-0.1,1-0.3c0.1-0.1,0.2-0.3,0.2-0.5
	c0-0.2-0.1-0.4-0.2-0.5c-0.3-0.2-0.6-0.3-1-0.4l-1-0.2c-0.7-0.1-1.4-0.4-1.9-0.9c-0.5-0.5-0.7-1.2-0.7-1.8c0-1,0.4-1.9,1-2.6
	c1.1-0.9,2.4-1.4,3.8-1.3c1.2,0,2.3,0.2,3.4,0.7l-1.4,2.4c-0.6-0.3-1.3-0.5-2-0.5c-0.3,0-0.6,0.1-0.9,0.2c-0.2,0.1-0.3,0.3-0.3,0.5
	c0,0.3,0.2,0.5,0.5,0.6c0.4,0.1,0.7,0.1,1.3,0.3l0.7,0.2c0.6,0.2,1.1,0.5,1.6,0.8c0.5,0.6,0.8,1.3,0.8,2.1c0,1-0.4,2-1.1,2.7
	c-1.1,1-2.5,1.5-3.9,1.4c-1.5,0-3-0.4-4.3-1.2L848.1,40z"/>
<circle class="st0" cx="217.4" cy="246.1" r="179.1"/>
<g>
	<defs>
		<circle id="SVGID_00000032618242156918786070000014761561459101625492_" cx="217.4" cy="246.1" r="179.1"/>
	</defs>
	<clipPath id="SVGID_00000085955767887582392270000001357324971583236510_">
		<use xlink:href="#SVGID_00000032618242156918786070000014761561459101625492_"  style="overflow:visible;"/>
	</clipPath>
	<g style="clip-path:url(#SVGID_00000085955767887582392270000001357324971583236510_);">
		<polygon class="st2" points="217.4,35.1 217.4,246.1 217.4,463.5 0,463.5 0,28.7 		"/>
	</g>
</g>
<circle class="st3" cx="217.4" cy="246.1" r="97.8"/>
<path d="M154.7,222.2h-6.5l-1,3.5c0.3,0,0.6-0.1,1-0.1c1.8,0,3.5,0.6,4.8,1.9c1.4,1.4,2.1,3.4,2,5.4c0.1,2.1-0.7,4.1-2.1,5.5
	c-2.7,2.3-6.6,2.8-9.8,1.2c-1-0.6-1.8-1.4-2.5-2.4l2.4-2c0.8,1.6,2.5,2.6,4.3,2.5c1.2,0.1,2.3-0.4,3.2-1.2c0.9-1,1.4-2.2,1.3-3.6
	c0.1-1.3-0.4-2.5-1.2-3.4c-0.9-0.8-2.2-1.2-3.4-1.2c-0.8,0-1.7,0.1-2.4,0.4c-0.6,0.2-1.3,0.6-1.8,0.9l3.1-10.5h8.6V222.2z"/>
<path d="M161.7,238.2c-2.2-2.5-2.7-5.8-2.7-8.5s0.5-6,2.7-8.5c2.1-2.6,5.9-3,8.5-0.9c0.3,0.3,0.6,0.6,0.9,0.9
	c2.2,2.5,2.7,5.8,2.7,8.5s-0.5,6-2.7,8.5c-2.1,2.6-6,3-8.6,0.9C162.3,238.8,162,238.5,161.7,238.2z M163.6,223.4
	c-1.2,1.7-1.4,4.4-1.4,6.2c-0.1,2.2,0.4,4.3,1.4,6.3c0.8,1.6,2.7,2.2,4.3,1.4c0.6-0.3,1.1-0.8,1.4-1.4c1-1.9,1.5-4.1,1.4-6.3
	c0-1.8-0.3-4.5-1.4-6.2c-0.8-1.6-2.7-2.2-4.3-1.4C164.4,222.4,163.9,222.8,163.6,223.4L163.6,223.4z"/>
<path d="M186.4,223.9c0,2.8-2.2,5-4.9,5.1c-2.8,0-5-2.2-5.1-4.9s2.2-5,4.9-5.1c0,0,0.1,0,0.1,0C184.2,219,186.4,221.2,186.4,223.9z
	 M184,223.9c-0.1-1.4-1.3-2.6-2.7-2.5s-2.6,1.3-2.5,2.7c0.1,1.4,1.2,2.5,2.6,2.5c1.4,0,2.6-1.2,2.6-2.6C184,224,184,224,184,223.9
	L184,223.9z M193.2,218.9l1.5,0.9l-11.9,20.7l-1.5-0.9L193.2,218.9z M199.6,235.4c0,2.8-2.1,5-4.9,5.1c-2.8,0-5-2.1-5.1-4.9
	s2.1-5,4.9-5.1c0,0,0.1,0,0.1,0C197.4,230.5,199.6,232.7,199.6,235.4L199.6,235.4z M197.2,235.4c0-1.4-1.2-2.6-2.7-2.5
	c-1.4,0-2.6,1.2-2.5,2.7c0,1.4,1.2,2.5,2.6,2.5c1.4,0,2.6-1.1,2.6-2.6C197.2,235.5,197.2,235.4,197.2,235.4L197.2,235.4z"/>
<path d="M221,222.2h-7.3v5.3h7v3h-7v9.6h-3.2v-20.9H221V222.2z"/>
<path d="M235.2,237.1c-0.5,1-1.3,1.8-2.2,2.4c-1.2,0.7-2.5,1-3.9,1c-1.7,0.1-3.3-0.5-4.4-1.7c-1.3-1.3-2-3.1-1.9-5
	c0-2,0.7-4,2.1-5.4c1.2-1.2,2.8-1.8,4.4-1.8c1.6,0,3.1,0.6,4.2,1.7c1.3,1.6,2,3.5,1.9,5.6v0.4h-9.5c0.1,1,0.5,1.9,1.1,2.7
	c0.6,0.6,1.5,0.9,2.4,0.8c0.8,0,1.5-0.2,2.1-0.7c0.5-0.4,0.9-0.9,1.2-1.4L235.2,237.1z M232.2,231.8c-0.1-0.7-0.4-1.3-0.9-1.8
	c-1.2-1-3-1-4.2,0.1c-0.5,0.5-0.8,1-0.9,1.7H232.2z"/>
<path d="M238.5,226.9h3.1v1.2c0.8-1,2-1.6,3.2-1.6c1.4,0,2.7,0.7,3.4,1.9c0.9-1.3,2.4-2,3.9-1.9c1.5,0,3,0.7,3.8,2.1
	c0.5,1,0.7,2.2,0.7,3.3v8.1h-3.1v-7.3c0.1-0.8,0-1.6-0.3-2.4c-0.3-0.7-1-1.2-1.8-1.2c-0.7,0-1.4,0.4-1.8,1c-0.5,0.9-0.7,2-0.6,3v6.8
	H246v-7.3c0.1-0.8,0-1.6-0.3-2.4c-0.3-0.7-1-1.2-1.8-1.2c-0.7,0-1.4,0.4-1.8,1c-0.5,0.9-0.7,2-0.6,3v6.8h-3.1V226.9z"/>
<path d="M270.1,226.9h3.1v13.2h-3.1v-1.4c-1,1.2-2.4,1.8-4,1.8c-4.1,0-6.4-3.4-6.4-7c0-4.3,2.9-6.9,6.4-6.9c1.5,0,3,0.7,3.9,1.9
	V226.9z M262.9,233.6c0,2.3,1.4,4.2,3.7,4.2c1.9,0,3.7-1.4,3.7-4.2s-1.8-4.3-3.7-4.3C264.3,229.4,262.9,231.2,262.9,233.6
	L262.9,233.6z"/>
<path d="M280.1,217.3v22.8H277v-22.8H280.1z"/>
<path d="M295.8,237.1c-0.5,1-1.3,1.8-2.2,2.4c-1.2,0.7-2.5,1-3.9,1c-1.7,0.1-3.3-0.5-4.4-1.7c-1.3-1.3-2-3.1-2-5c0-2,0.7-4,2.1-5.4
	c1.2-1.2,2.8-1.8,4.4-1.8c1.6,0,3.1,0.6,4.2,1.7c1.3,1.6,2,3.5,1.9,5.6v0.4h-9.5c0.1,1,0.5,1.9,1.1,2.7c0.6,0.6,1.5,0.9,2.4,0.8
	c0.8,0,1.5-0.2,2.1-0.7c0.5-0.4,0.9-0.9,1.2-1.4L295.8,237.1z M292.8,231.8c-0.1-0.7-0.4-1.3-0.9-1.8c-0.6-0.5-1.3-0.8-2.1-0.8
	c-0.8,0-1.6,0.3-2.2,0.8c-0.5,0.5-0.8,1.1-0.9,1.7H292.8z"/>
<path d="M166.6,259.7h-6.5l-1,3.5c0.3,0,0.7-0.1,1-0.1c1.8,0,3.5,0.6,4.8,1.8c1.4,1.4,2.1,3.4,2,5.4c0.1,2.1-0.7,4.1-2.1,5.5
	c-2.7,2.3-6.6,2.8-9.8,1.2c-1-0.6-1.8-1.4-2.5-2.4l2.4-2c0.4,0.7,0.9,1.4,1.6,1.8c0.8,0.5,1.8,0.8,2.7,0.7c1.2,0.1,2.3-0.4,3.2-1.2
	c0.9-0.9,1.4-2.2,1.4-3.5c0.1-1.3-0.4-2.5-1.3-3.4c-0.9-0.8-2.2-1.2-3.4-1.2c-0.8,0-1.7,0.1-2.4,0.4c-0.7,0.2-1.3,0.6-1.9,0.9
	l3.1-10.5h8.6L166.6,259.7z"/>
<path d="M173.6,275.8c-2.2-2.5-2.7-5.8-2.7-8.5s0.5-6,2.7-8.5c2.1-2.6,6-3,8.6-0.9c0.3,0.3,0.6,0.6,0.9,0.9c2.2,2.5,2.7,5.9,2.7,8.5
	s-0.5,6-2.7,8.5c-2.1,2.6-5.9,3-8.6,0.9C174.2,276.4,173.9,276.1,173.6,275.8z M175.6,261c-1.1,1.7-1.4,4.4-1.4,6.2
	c-0.1,2.2,0.4,4.3,1.4,6.3c0.8,1.6,2.7,2.2,4.3,1.4c0.6-0.3,1.1-0.8,1.4-1.4c1-1.9,1.5-4.1,1.4-6.3c0-1.8-0.3-4.5-1.4-6.2
	c-0.8-1.6-2.7-2.2-4.3-1.4C176.3,259.9,175.9,260.4,175.6,261z"/>
<path d="M198.4,261.5c0,2.8-2.2,5-4.9,5.1s-5-2.2-5.1-4.9c0-2.8,2.2-5,4.9-5.1c0,0,0.1,0,0.1,0C196.2,256.6,198.4,258.8,198.4,261.5
	z M196,261.5c0-1.4-1.2-2.6-2.7-2.5s-2.6,1.2-2.5,2.7c0,1.4,1.2,2.5,2.6,2.5C194.8,264.2,196,263,196,261.5
	C195.9,261.5,195.9,261.5,196,261.5L196,261.5z M205.2,256.5l1.5,0.8l-12,20.7l-1.5-0.9L205.2,256.5z M211.6,273
	c0,2.8-2.2,5-4.9,5.1c-2.8,0-5-2.2-5.1-4.9c0-2.8,2.2-5,4.9-5.1c0,0,0.1,0,0.1,0C209.4,268.1,211.5,270.3,211.6,273L211.6,273z
	 M209.2,273c0-1.4-1.2-2.6-2.7-2.5c-1.4,0-2.6,1.2-2.5,2.7c0,1.4,1.2,2.5,2.6,2.5C208,275.6,209.2,274.5,209.2,273
	C209.2,273,209.2,273,209.2,273L209.2,273z"/>
<path d="M221.8,277.7l4.4-22.4l7.2,16.2l7.3-16.2l3.9,22.4h-3.3l-2.1-12.6l-6.1,13.5l-6-13.6l-2.2,12.6H221.8z"/>
<path d="M258.2,264.5h3.1v13.2h-3.1v-1.4c-1,1.2-2.4,1.8-3.9,1.8c-4.1,0-6.4-3.4-6.4-7c0-4.3,2.9-6.9,6.4-6.9c1.5,0,3,0.7,3.9,1.9
	V264.5z M251,271.1c0,2.3,1.4,4.2,3.7,4.2c1.9,0,3.7-1.4,3.7-4.2s-1.8-4.2-3.7-4.2C252.4,266.9,251,268.8,251,271.1L251,271.1z"/>
<path d="M268.2,254.9v22.8h-3.1v-22.8H268.2z"/>
<path d="M283.9,274.7c-0.5,1-1.3,1.8-2.2,2.4c-1.2,0.7-2.5,1-3.9,1c-1.7,0.1-3.3-0.5-4.4-1.7c-1.3-1.3-2-3.1-1.9-5
	c0-2,0.7-4,2.1-5.4c1.2-1.2,2.8-1.8,4.4-1.8c1.6,0,3.1,0.6,4.2,1.7c1.3,1.6,2,3.5,1.8,5.6v0.4h-9.5c0.1,1,0.5,1.9,1.1,2.7
	c0.6,0.6,1.5,0.9,2.3,0.8c0.8,0,1.5-0.2,2.1-0.6c0.5-0.4,0.9-0.9,1.2-1.4L283.9,274.7z M280.9,269.3c-0.1-0.7-0.4-1.3-0.9-1.8
	c-0.6-0.5-1.3-0.8-2.1-0.8c-0.8,0-1.6,0.3-2.2,0.8c-0.5,0.5-0.8,1-0.9,1.7H280.9z"/>
<path class="st4" d="M152.2,27.5c-3.6,3.2-9,3.2-12.6,0c-3.3-3.2-3.4-8.5-0.1-11.8c0,0,0.1-0.1,0.1-0.1c3.6-3.2,9-3.2,12.6,0
	c3.3,3.2,3.4,8.5,0.1,11.8C152.3,27.4,152.3,27.5,152.2,27.5z M142.7,18.5c-0.8,0.8-1.3,1.9-1.3,3.1c0,1.1,0.4,2.2,1.3,3
	c0.9,0.8,2,1.3,3.2,1.3c2.4,0.1,4.4-1.8,4.5-4.1c0-0.1,0-0.1,0-0.2c0-1.2-0.5-2.3-1.3-3.1c-0.9-0.8-2-1.3-3.2-1.3
	C144.7,17.3,143.6,17.7,142.7,18.5L142.7,18.5z"/>
<path class="st4" d="M160,18.8l2.6,5.5l2.6-5.5h4.3l-5.6,10.7h-2.6l-5.5-10.7H160z"/>
<path class="st4" d="M181.4,24.9h-8c0,0.7,0.2,1.3,0.7,1.8c0.4,0.4,1,0.6,1.6,0.5c0.4,0,0.9-0.1,1.2-0.3c0.3-0.2,0.5-0.4,0.7-0.7
	h3.6c-0.2,0.8-0.7,1.6-1.3,2.2c-1.2,1.1-2.7,1.6-4.3,1.5c-1.6,0.1-3.2-0.5-4.4-1.6c-1-1.1-1.6-2.5-1.6-4c0-1.5,0.5-3,1.6-4.1
	c1.2-1.1,2.8-1.6,4.4-1.5c1.5-0.1,3,0.5,4.1,1.5c1.2,1.2,1.8,2.8,1.7,4.5L181.4,24.9z M177.9,22.7c-0.1-0.4-0.3-0.8-0.6-1.2
	c-0.4-0.4-1-0.6-1.6-0.6c-0.6,0-1.1,0.2-1.5,0.6c-0.3,0.3-0.5,0.7-0.6,1.2H177.9z"/>
<path class="st4" d="M183.7,18.8h3.8v1.8c0.3-0.6,0.9-1.2,1.5-1.5c0.6-0.3,1.3-0.5,2-0.4c0.1,0,0.3,0,0.8,0v3.7
	c-0.5-0.3-1.1-0.4-1.6-0.4c-0.6,0-1.3,0.2-1.7,0.6c-0.6,0.7-0.9,1.5-0.9,2.4v4.6h-3.8L183.7,18.8z"/>
<path class="st4" d="M201.7,18.8h3.8v10.7h-3.8v-1.2c-0.8,1-2,1.6-3.3,1.6c-1.5,0-2.9-0.6-3.9-1.7c-1-1-1.6-2.5-1.5-3.9
	c0-1.6,0.5-3.1,1.6-4.3c1-1,2.4-1.5,3.9-1.5c1.2,0,2.4,0.5,3.2,1.4L201.7,18.8z M197.7,22.4c-1,0.9-1,2.4-0.1,3.4
	c0,0,0.1,0.1,0.1,0.1c0.5,0.4,1.1,0.7,1.7,0.7c0.6,0,1.3-0.3,1.7-0.7c0.5-0.4,0.7-1.1,0.7-1.7c0-0.7-0.3-1.3-0.7-1.7
	C200.2,21.5,198.7,21.5,197.7,22.4L197.7,22.4z"/>
<path class="st4" d="M212,12.1v17.4h-3.8V12.1H212z"/>
<path class="st4" d="M218.4,12.1v17.4h-3.8V12.1H218.4z"/>
<path class="st4" d="M234.6,20.5h8.2c0,3.2-0.6,5.4-2.6,7.2c-1.5,1.4-3.6,2.1-5.6,2c-2.3,0.1-4.5-0.8-6.1-2.4
	c-1.5-1.5-2.3-3.6-2.3-5.8c0-2.2,0.8-4.4,2.4-6c2.9-2.6,7.1-3.1,10.5-1.3c1.2,0.8,2.2,1.9,2.9,3.3l-4,1.6c-0.2-0.6-0.6-1.2-1.1-1.6
	c-0.6-0.5-1.4-0.8-2.2-0.8c-1,0-2,0.4-2.7,1.1c-0.9,1-1.4,2.3-1.4,3.7c0,1.3,0.4,2.5,1.3,3.4c0.7,0.8,1.8,1.3,2.9,1.2
	c0.8,0,1.6-0.2,2.3-0.7c0.5-0.4,0.9-1.1,1-1.8h-3.4L234.6,20.5z"/>
<path class="st4" d="M248.9,12.1v17.4h-3.8V12.1H248.9z"/>
<path class="st4" d="M262.3,28.1c-2.7,2.4-6.8,2.4-9.5,0c-1.1-1-1.7-2.5-1.6-4c0-1.5,0.6-2.9,1.6-3.9c2.7-2.4,6.8-2.4,9.5,0
	c1.1,1,1.7,2.4,1.6,3.9C264,25.7,263.4,27.1,262.3,28.1z M255.8,22.4c-0.5,0.5-0.7,1.1-0.7,1.7c0,1.3,1.1,2.4,2.5,2.4
	c0.6,0,1.2-0.3,1.7-0.7c0.5-0.4,0.7-1.1,0.7-1.7c0-0.7-0.3-1.3-0.7-1.7C258.3,21.5,256.8,21.5,255.8,22.4z"/>
<path class="st4" d="M270,12.1v7.8c0.8-0.9,2-1.4,3.2-1.4c1.4,0,2.8,0.5,3.8,1.5c2.3,2.4,2.3,6.1,0,8.5c-1,1-2.3,1.5-3.7,1.5
	c-1.3,0-2.5-0.5-3.2-1.5v1.1h-3.8V12.1H270z M274,25.9c0.5-0.4,0.7-1,0.7-1.7c0-0.7-0.3-1.3-0.7-1.8c-1-0.9-2.5-0.9-3.4,0
	c-0.4,0.5-0.7,1.1-0.7,1.7c0,0.7,0.3,1.3,0.8,1.8c0.5,0.4,1,0.6,1.6,0.6C272.9,26.6,273.6,26.4,274,25.9L274,25.9z"/>
<path class="st4" d="M289.1,18.8h3.8v10.7h-3.8v-1.2c-0.8,1-2,1.6-3.3,1.6c-1.5,0-2.9-0.6-3.9-1.7c-1-1.1-1.6-2.5-1.5-4
	c0-1.6,0.5-3.1,1.6-4.3c1-1,2.4-1.5,3.9-1.5c1.2,0,2.4,0.5,3.2,1.4L289.1,18.8z M285.1,22.4c-0.5,0.5-0.8,1.1-0.8,1.7
	c0,0.7,0.3,1.3,0.7,1.8c0.5,0.4,1.1,0.7,1.7,0.7c0.6,0,1.3-0.3,1.7-0.7c1-0.9,1-2.5,0-3.4c0,0,0,0,0,0
	C287.6,21.5,286.1,21.5,285.1,22.4L285.1,22.4z"/>
<path class="st4" d="M299.4,12.1v17.4h-3.8V12.1H299.4z"/>
<g>
	<g>
		<defs>
			<circle id="SVGID_00000024712523099950759790000010659137150217811072_" cx="696" cy="717.3" r="179.5"/>
		</defs>
		
			<use xlink:href="#SVGID_00000024712523099950759790000010659137150217811072_"  style="overflow:visible;opacity:0.51;fill:#4274BA;"/>
		<clipPath id="SVGID_00000093870643082432949540000005073668757463892655_">
			<use xlink:href="#SVGID_00000024712523099950759790000010659137150217811072_"  style="overflow:visible;opacity:0.51;"/>
		</clipPath>
		<polygon style="clip-path:url(#SVGID_00000093870643082432949540000005073668757463892655_);fill:#4274BA;" points="724.3,506 
			696,717.3 1083.7,846.7 478.1,935.2 478.1,499.5 		"/>
	</g>
	<circle class="st3" cx="696" cy="717.3" r="98"/>
	<g>
		<path d="M632.3,704.5h2.3v2.9h-2.3v4h-3.1v-4h-10.4l13.4-18.5V704.5z M629.2,704.5v-6.7l-4.8,6.7H629.2z"/>
		<path d="M640.2,709.4c-2.2-2.5-2.7-5.8-2.7-8.5c0-2.7,0.5-6.1,2.7-8.6c1.3-1.5,2.9-2.3,4.7-2.3c1.9,0,3.4,0.8,4.7,2.3
			c2.2,2.5,2.7,5.9,2.7,8.6c0,2.7-0.5,6-2.7,8.5c-1.3,1.5-2.9,2.3-4.7,2.3C643,711.7,641.5,710.9,640.2,709.4z M642.1,694.6
			c-1.2,1.7-1.4,4.4-1.4,6.2c0,1.9,0.3,4.5,1.4,6.3c0.9,1.4,2,1.7,2.8,1.7s1.9-0.3,2.8-1.7c1.2-1.8,1.4-4.4,1.4-6.3
			c0-1.8-0.3-4.5-1.4-6.2c-0.9-1.4-2-1.7-2.8-1.7S643,693.3,642.1,694.6z"/>
		<path d="M665,695.2c0,2.7-2.3,4.9-5.1,4.9c-2.8,0-5.1-2.3-5.1-4.9c0-2.7,2.3-4.9,5.1-4.9C662.7,690.2,665,692.5,665,695.2z
			 M662.5,695.2c0-1.2-0.9-2.7-2.6-2.7c-1.7,0-2.6,1.4-2.6,2.7s0.9,2.7,2.6,2.7C661.6,697.8,662.5,696.4,662.5,695.2z M671.8,690.1
			l1.5,0.8l-12,20.8l-1.5-0.9L671.8,690.1z M678.2,706.6c0,2.7-2.3,4.9-5.1,4.9c-2.8,0-5.1-2.3-5.1-4.9c0-2.7,2.3-4.9,5.1-4.9
			S678.2,704,678.2,706.6z M675.8,706.6c0-1.2-0.9-2.7-2.6-2.7s-2.6,1.4-2.6,2.7c0,1.2,0.9,2.7,2.6,2.7S675.8,707.9,675.8,706.6z"/>
		<path d="M699.5,693.4h-7.3v5.3h7v3h-7v9.6h-3.2v-20.9h10.5V693.4z"/>
		<path d="M713.8,708.3c-0.6,1-1.4,1.9-2.2,2.4c-1.1,0.7-2.5,1-3.9,1c-1.8,0-3.2-0.4-4.5-1.7c-1.3-1.3-1.9-3.1-1.9-5.1
			c0-2,0.7-4,2.1-5.4c1.1-1.1,2.5-1.8,4.4-1.8c2.1,0,3.5,0.9,4.2,1.7c1.7,1.8,1.9,4.2,1.9,5.6v0.4h-9.5c0.1,0.9,0.5,2,1.1,2.7
			c0.7,0.7,1.6,0.8,2.4,0.8c0.8,0,1.5-0.2,2.1-0.7c0.5-0.4,0.9-0.9,1.2-1.4L713.8,708.3z M710.8,703c-0.1-0.7-0.5-1.3-0.9-1.8
			c-0.4-0.4-1.1-0.8-2.1-0.8c-1.1,0-1.8,0.4-2.2,0.8c-0.4,0.4-0.8,1-0.9,1.7H710.8z"/>
		<path d="M717.1,698.1h3.1v1.2c1-1.3,2.3-1.6,3.3-1.6c1.4,0,2.7,0.7,3.4,1.9c1.1-1.6,2.8-1.9,3.9-1.9c1.6,0,3,0.8,3.8,2.1
			c0.3,0.4,0.7,1.4,0.7,3.3v8.2h-3.1v-7.3c0-1.5-0.2-2.1-0.3-2.4c-0.2-0.5-0.7-1.2-1.8-1.2c-0.8,0-1.4,0.4-1.8,1
			c-0.5,0.8-0.6,1.9-0.6,3v6.8h-3.1v-7.3c0-1.5-0.2-2.1-0.3-2.4c-0.2-0.5-0.7-1.2-1.8-1.2c-0.8,0-1.4,0.4-1.8,1
			c-0.5,0.8-0.6,1.9-0.6,3v6.8h-3.1V698.1z"/>
		<path d="M748.8,698.1h3.1v13.2h-3.1V710c-1.3,1.6-3,1.8-4,1.8c-4.1,0-6.4-3.4-6.4-7c0-4.3,2.9-6.9,6.4-6.9c1,0,2.7,0.3,3.9,1.9
			V698.1z M741.6,704.8c0,2.3,1.4,4.2,3.7,4.2c1.9,0,3.7-1.4,3.7-4.2c0-2.9-1.8-4.3-3.7-4.3C743,700.6,741.6,702.4,741.6,704.8z"/>
		<path d="M758.8,688.5v22.9h-3.1v-22.9H758.8z"/>
		<path d="M774.5,708.3c-0.6,1-1.4,1.9-2.2,2.4c-1.1,0.7-2.5,1-3.9,1c-1.8,0-3.2-0.4-4.5-1.7S762,707,762,705c0-2,0.7-4,2.1-5.4
			c1.1-1.1,2.5-1.8,4.4-1.8c2.1,0,3.5,0.9,4.2,1.7c1.7,1.8,1.9,4.2,1.9,5.6v0.4h-9.5c0.1,0.9,0.5,2,1.1,2.7c0.7,0.7,1.6,0.8,2.4,0.8
			c0.8,0,1.5-0.2,2.1-0.7c0.5-0.4,0.9-0.9,1.2-1.4L774.5,708.3z M771.5,703c-0.1-0.7-0.5-1.3-0.9-1.8c-0.4-0.4-1.1-0.8-2.1-0.8
			c-1.1,0-1.8,0.4-2.2,0.8c-0.4,0.4-0.8,1-0.9,1.7H771.5z"/>
		<path d="M643.4,729.1l-5,6.3c0.5-0.1,0.9-0.1,1.3-0.1c2.4,0,4,1.1,4.8,1.9c1.1,1.2,1.9,3,1.9,4.9c0,1.9-0.7,3.9-2.1,5.3
			c-1.8,1.7-4,2-5.4,2c-1.8,0-3.8-0.4-5.4-2c-1.1-1.2-1.8-2.7-1.8-4.7c0-1.5,0.3-2.7,1-4c0.8-1.6,1.6-2.5,2.5-3.7l5.8-7.5
			L643.4,729.1z M636.1,739.1c-0.7,0.7-1.2,1.8-1.2,3.1c0,1.1,0.4,2.3,1.2,3.1c0.7,0.6,1.9,1.2,3,1.2c1,0,2.2-0.4,2.9-1.2
			c0.8-0.8,1.2-2,1.2-3.1s-0.4-2.3-1.2-3.1c-0.7-0.7-1.9-1.2-2.9-1.2S636.8,738.4,636.1,739.1z"/>
		<path d="M652.1,747.1c-2.2-2.5-2.7-5.8-2.7-8.5c0-2.7,0.5-6.1,2.7-8.6c1.3-1.5,2.9-2.3,4.7-2.3c1.9,0,3.4,0.8,4.7,2.3
			c2.2,2.5,2.7,5.9,2.7,8.6c0,2.7-0.5,6-2.7,8.5c-1.3,1.5-2.9,2.3-4.7,2.3C655,749.3,653.5,748.6,652.1,747.1z M654.1,732.3
			c-1.2,1.7-1.4,4.4-1.4,6.2c0,1.9,0.3,4.5,1.4,6.3c0.9,1.4,2,1.7,2.8,1.7c0.8,0,1.9-0.3,2.8-1.7c1.2-1.8,1.4-4.4,1.4-6.3
			c0-1.8-0.3-4.5-1.4-6.2c-0.9-1.4-2-1.7-2.8-1.7C656.1,730.6,655,730.9,654.1,732.3z"/>
		<path d="M676.9,732.8c0,2.7-2.3,4.9-5.1,4.9s-5.1-2.3-5.1-4.9c0-2.7,2.3-4.9,5.1-4.9C674.6,727.9,676.9,730.1,676.9,732.8z
			 M674.5,732.8c0-1.2-0.9-2.7-2.6-2.7s-2.6,1.4-2.6,2.7c0,1.2,0.9,2.7,2.6,2.7S674.5,734,674.5,732.8z M683.7,727.7l1.5,0.8
			l-12,20.8l-1.5-0.9L683.7,727.7z M690.2,744.3c0,2.7-2.3,4.9-5.1,4.9s-5.1-2.3-5.1-4.9c0-2.7,2.3-4.9,5.1-4.9
			C687.9,739.4,690.2,741.6,690.2,744.3z M687.7,744.3c0-1.2-0.9-2.7-2.6-2.7s-2.6,1.4-2.6,2.7c0,1.2,0.9,2.7,2.6,2.7
			S687.7,745.5,687.7,744.3z"/>
		<path d="M700.4,749l4.4-22.5l7.3,16.3l7.3-16.3l4,22.5h-3.3l-2.1-12.6l-6.1,13.6l-6-13.6l-2.2,12.6H700.4z"/>
		<path d="M736.8,735.8h3.1V749h-3.1v-1.4c-1.3,1.6-3,1.8-4,1.8c-4.1,0-6.4-3.4-6.4-7c0-4.3,2.9-6.9,6.4-6.9c1,0,2.7,0.3,3.9,1.9
			V735.8z M729.6,742.4c0,2.3,1.4,4.2,3.7,4.2c1.9,0,3.7-1.4,3.7-4.2c0-2.9-1.8-4.3-3.7-4.3C731.1,738.2,729.6,740.1,729.6,742.4z"
			/>
		<path d="M746.9,726.1V749h-3.1v-22.9H746.9z"/>
		<path d="M762.6,746c-0.6,1-1.4,1.9-2.2,2.4c-1.1,0.7-2.5,1-3.9,1c-1.8,0-3.2-0.4-4.5-1.7c-1.3-1.3-1.9-3.1-1.9-5.1
			c0-2,0.7-4,2.1-5.4c1.1-1.1,2.5-1.8,4.4-1.8c2.1,0,3.5,0.9,4.2,1.7c1.7,1.8,1.9,4.2,1.9,5.6v0.4h-9.5c0.1,0.9,0.5,2,1.1,2.7
			c0.7,0.7,1.6,0.8,2.4,0.8c0.8,0,1.5-0.2,2.1-0.7c0.5-0.4,0.9-0.9,1.2-1.4L762.6,746z M759.5,740.6c-0.1-0.7-0.5-1.3-0.9-1.8
			c-0.4-0.4-1.1-0.8-2.1-0.8c-1.1,0-1.8,0.4-2.2,0.8c-0.4,0.4-0.8,1-0.9,1.7H759.5z"/>
	</g>
	<g>
		<g>
			<path class="st4" d="M629.9,484.3l3.8,9.7l3.9-9.7h4.5l-6.8,16h-3.2l-6.7-16H629.9z"/>
			<path class="st4" d="M648,495v5.3h-4.1v-16h6.6c1.4,0,2.8,0.3,4,1.4c1.2,1.2,1.5,2.5,1.5,3.9c0,1.3-0.2,2.8-1.4,4
				c-1.2,1.2-2.7,1.4-4,1.4H648z M648,491.7h1.4c0.4,0,1.2,0,1.7-0.5c0.5-0.4,0.5-1.1,0.5-1.5c0-0.4,0-1-0.5-1.4
				c-0.5-0.5-1.2-0.6-1.8-0.6H648V491.7z"/>
			<path class="st4" d="M657.9,496.8c0.5,0.3,1,0.6,1.5,0.8c0.5,0.2,1.1,0.3,1.5,0.3c0.3,0,0.7-0.1,1-0.3c0.2-0.2,0.2-0.3,0.2-0.5
				c0-0.2,0-0.3-0.2-0.5c-0.2-0.2-0.6-0.3-1-0.4l-1-0.2c-0.5-0.1-1.3-0.3-1.9-0.9c-0.4-0.4-0.7-1-0.7-1.8c0-1,0.4-2,1-2.6
				c0.8-0.8,2.3-1.3,3.8-1.3c1.6,0,2.8,0.4,3.4,0.7l-1.3,2.4c-0.5-0.2-1.3-0.5-2-0.5c-0.4,0-0.6,0.1-0.9,0.2
				c-0.2,0.1-0.3,0.3-0.3,0.5c0,0.3,0.2,0.5,0.5,0.6c0.4,0.1,0.7,0.1,1.3,0.3l0.7,0.2c0.5,0.1,1.3,0.5,1.6,0.8
				c0.5,0.5,0.8,1.3,0.8,2.1c0,1.3-0.6,2.2-1.1,2.7c-1.2,1.2-3.1,1.3-4,1.3c-1,0-2.5-0.1-4.3-1.2L657.9,496.8z"/>
			<path class="st4" d="M688.8,494.2c-0.6,0.8-1.4,1.6-2.2,2.3l3.6,3.8h-5.2l-1.4-1.5c-2.2,1.6-4.2,1.8-5.4,1.8
				c-1.1,0-2.7-0.2-3.9-1.3c-0.8-0.7-1.3-1.8-1.3-3.2c0-1.6,0.7-2.5,1.2-3.1c0.6-0.6,1.7-1.2,2.6-1.6c-0.3-0.4-0.7-0.8-0.9-1.3
				c-0.4-0.6-0.6-1.2-0.6-2c0-1.1,0.5-2.2,1.2-2.9c1.2-1.2,2.8-1.4,3.8-1.4c1.9,0,3.1,0.7,3.7,1.3c0.9,0.8,1.3,2,1.3,3
				c0,1-0.4,1.8-1.1,2.6c-0.5,0.5-1.2,1-1.9,1.2l2,2.1c0.7-0.6,1.4-1.4,2.1-2.3L688.8,494.2z M678.9,493.6c-0.2,0.1-1.5,0.8-1.5,1.9
				c0,0.4,0.1,0.8,0.5,1.1c0.4,0.4,1,0.5,1.4,0.5c0.5,0,1.3-0.1,2.2-0.7L678.9,493.6z M679.8,489.2c0.2,0.3,0.6,0.7,0.8,1
				c0.4-0.2,0.7-0.5,1-0.7c0.4-0.4,0.5-0.8,0.5-1.2c0-0.5-0.2-0.9-0.4-1.1c-0.2-0.2-0.6-0.4-1-0.4c-0.3,0-0.6,0.1-0.9,0.3
				c-0.4,0.3-0.4,0.7-0.4,1C679.3,488.5,679.5,488.9,679.8,489.2z"/>
			<path class="st4" d="M707.2,497.6h-5.8l-1.1,2.7H696l6.1-16h4.5l6,16h-4.4L707.2,497.6z M706.1,494.5l-1.8-5.2l-1.7,5.2H706.1z"
				/>
			<path class="st4" d="M718,482.8v7.8c0.7-0.7,1.7-1.4,3.2-1.4c1.3,0,2.7,0.4,3.8,1.4c1,0.9,1.7,2.4,1.7,4.2c0,1.7-0.6,3.2-1.7,4.3
				c-1,1-2.2,1.5-3.8,1.5c-0.7,0-2.2-0.1-3.2-1.5v1.2h-3.8v-17.5H718z M722,496.7c0.5-0.5,0.7-1.1,0.7-1.7c0-0.7-0.3-1.4-0.7-1.8
				c-0.3-0.3-0.9-0.7-1.7-0.7c-0.7,0-1.3,0.3-1.7,0.7c-0.4,0.4-0.7,1.1-0.7,1.7c0,0.6,0.3,1.4,0.8,1.8c0.4,0.4,1,0.6,1.7,0.6
				C720.9,497.4,721.5,497.2,722,496.7z"/>
			<path class="st4" d="M739.7,498.9c-1.4,1.4-3.1,1.8-4.8,1.8c-1.6,0-3.3-0.3-4.8-1.8c-1.2-1.2-1.7-2.5-1.7-4
				c0-1.9,0.9-3.2,1.7-3.9c0.9-0.9,2.4-1.8,4.8-1.8c2.4,0,3.9,0.9,4.8,1.8c0.8,0.8,1.7,2,1.7,3.9
				C741.3,496.4,740.9,497.8,739.7,498.9z M733.2,493.2c-0.5,0.5-0.7,1.1-0.7,1.7c0,0.6,0.3,1.3,0.7,1.7c0.5,0.5,1.1,0.7,1.7,0.7
				c0.6,0,1.2-0.3,1.7-0.7c0.5-0.5,0.7-1.1,0.7-1.7c0-0.6-0.3-1.3-0.7-1.7c-0.4-0.4-1.1-0.7-1.7-0.7
				C734.3,492.5,733.6,492.8,733.2,493.2z"/>
			<path class="st4" d="M746.3,489.6l2.6,5.5l2.6-5.5h4.3l-5.6,10.7h-2.6l-5.5-10.7H746.3z"/>
			<path class="st4" d="M767.8,495.7h-8c0,0.6,0.2,1.3,0.7,1.8c0.2,0.2,0.7,0.5,1.6,0.5c0.1,0,0.8,0,1.2-0.3
				c0.2-0.1,0.5-0.4,0.7-0.7h3.7c-0.2,0.6-0.5,1.4-1.3,2.2c-0.8,0.8-2,1.5-4.4,1.5c-1.4,0-3.1-0.3-4.4-1.6c-0.7-0.7-1.6-2-1.6-4
				c0-1.8,0.7-3.2,1.6-4.1c0.9-0.9,2.3-1.6,4.4-1.6c1.2,0,2.9,0.3,4.1,1.5c1.5,1.4,1.7,3.3,1.7,4.5V495.7z M764.3,493.5
				c-0.1-0.4-0.3-0.9-0.6-1.2c-0.5-0.5-1.2-0.6-1.6-0.6c-0.6,0-1.2,0.2-1.6,0.6c-0.3,0.3-0.5,0.7-0.6,1.2H764.3z"/>
		</g>
	</g>
	<g>
		<defs>
			<circle id="SVGID_00000151526941386974690080000013078023588524575621_" cx="216.3" cy="719.5" r="179.5"/>
		</defs>
		
			<use xlink:href="#SVGID_00000151526941386974690080000013078023588524575621_"  style="overflow:visible;opacity:0.51;fill:#4274BA;"/>
		<clipPath id="SVGID_00000054985764572244357570000004496142439734460817_">
			<use xlink:href="#SVGID_00000151526941386974690080000013078023588524575621_"  style="overflow:visible;opacity:0.51;"/>
		</clipPath>
		<polygon style="clip-path:url(#SVGID_00000054985764572244357570000004496142439734460817_);fill:#4274BA;" points="216.3,508 
			216.3,719.5 216.3,937.3 -1.6,937.3 -1.6,501.7 		"/>
	</g>
	<circle class="st3" cx="216.3" cy="717.3" r="98"/>
	<g>
		<path d="M152.6,704.5h2.3v2.9h-2.3v4h-3.1v-4h-10.4l13.4-18.5V704.5z M149.5,704.5v-6.7l-4.8,6.7H149.5z"/>
		<path d="M160.9,710.4l4.9-6.3c-0.4,0.1-0.8,0.1-1.1,0.1c-2.5,0-4-1.1-4.9-1.9c-1.1-1.1-1.9-2.6-1.9-4.8c0-2.1,0.8-4,2.1-5.2
			c1.3-1.3,3.1-2.1,5.4-2.1c2.9,0,4.5,1.2,5.4,2.1c0.9,0.9,1.8,2.4,1.8,4.7c0,1.5-0.3,2.7-1,4c-0.8,1.6-1.6,2.5-2.5,3.7l-5.8,7.5
			L160.9,710.4z M168.2,700.2c0.8-0.8,1.2-2,1.2-3.1c0-1.1-0.4-2.2-1.2-3c-0.8-0.8-1.9-1.2-3-1.2c-1.2,0-2.3,0.5-3,1.2
			c-0.7,0.7-1.2,1.8-1.2,3.1c0,1.2,0.4,2.3,1.2,3.1c0.7,0.7,1.8,1.2,2.9,1.2C166.3,701.4,167.4,701,168.2,700.2z"/>
		<path d="M185.3,695.2c0,2.7-2.3,4.9-5.1,4.9c-2.8,0-5.1-2.3-5.1-4.9c0-2.7,2.3-4.9,5.1-4.9C183,690.2,185.3,692.5,185.3,695.2z
			 M182.8,695.2c0-1.2-0.9-2.7-2.6-2.7c-1.7,0-2.6,1.4-2.6,2.7s0.9,2.7,2.6,2.7C181.9,697.8,182.8,696.4,182.8,695.2z M192.1,690.1
			l1.5,0.8l-12,20.8l-1.5-0.9L192.1,690.1z M198.5,706.6c0,2.7-2.3,4.9-5.1,4.9c-2.8,0-5.1-2.3-5.1-4.9c0-2.7,2.3-4.9,5.1-4.9
			C196.2,701.7,198.5,704,198.5,706.6z M196.1,706.6c0-1.2-0.9-2.7-2.6-2.7c-1.7,0-2.6,1.4-2.6,2.7c0,1.2,0.9,2.7,2.6,2.7
			C195.2,709.3,196.1,707.9,196.1,706.6z"/>
		<path d="M219.8,693.4h-7.3v5.3h7v3h-7v9.6h-3.2v-20.9h10.5V693.4z"/>
		<path d="M234.1,708.3c-0.6,1-1.4,1.9-2.2,2.4c-1.1,0.7-2.5,1-3.9,1c-1.8,0-3.2-0.4-4.5-1.7s-1.9-3.1-1.9-5.1c0-2,0.7-4,2.1-5.4
			c1.1-1.1,2.5-1.8,4.4-1.8c2.1,0,3.5,0.9,4.2,1.7c1.7,1.8,1.9,4.2,1.9,5.6v0.4h-9.5c0.1,0.9,0.5,2,1.1,2.7c0.7,0.7,1.6,0.8,2.4,0.8
			c0.8,0,1.5-0.2,2.1-0.7c0.5-0.4,0.9-0.9,1.2-1.4L234.1,708.3z M231.1,703c-0.1-0.7-0.5-1.3-0.9-1.8c-0.4-0.4-1.1-0.8-2.1-0.8
			c-1.1,0-1.8,0.4-2.2,0.8c-0.4,0.4-0.8,1-0.9,1.7H231.1z"/>
		<path d="M237.4,698.1h3.1v1.2c1-1.3,2.3-1.6,3.3-1.6c1.4,0,2.7,0.7,3.4,1.9c1.1-1.6,2.8-1.9,3.9-1.9c1.6,0,3,0.8,3.8,2.1
			c0.3,0.4,0.7,1.4,0.7,3.3v8.2h-3.1v-7.3c0-1.5-0.2-2.1-0.3-2.4c-0.2-0.5-0.7-1.2-1.8-1.2c-0.8,0-1.4,0.4-1.8,1
			c-0.5,0.8-0.6,1.9-0.6,3v6.8h-3.1v-7.3c0-1.5-0.2-2.1-0.3-2.4c-0.2-0.5-0.7-1.2-1.8-1.2c-0.8,0-1.4,0.4-1.8,1
			c-0.5,0.8-0.6,1.9-0.6,3v6.8h-3.1V698.1z"/>
		<path d="M269.1,698.1h3.1v13.2h-3.1V710c-1.3,1.6-3,1.8-4,1.8c-4.1,0-6.4-3.4-6.4-7c0-4.3,2.9-6.9,6.4-6.9c1,0,2.7,0.3,3.9,1.9
			V698.1z M261.9,704.8c0,2.3,1.4,4.2,3.7,4.2c1.9,0,3.7-1.4,3.7-4.2c0-2.9-1.8-4.3-3.7-4.3C263.3,700.6,261.9,702.4,261.9,704.8z"
			/>
		<path d="M279.1,688.5v22.9h-3.1v-22.9H279.1z"/>
		<path d="M294.8,708.3c-0.6,1-1.4,1.9-2.2,2.4c-1.1,0.7-2.5,1-3.9,1c-1.8,0-3.2-0.4-4.5-1.7c-1.3-1.3-1.9-3.1-1.9-5.1
			c0-2,0.7-4,2.1-5.4c1.1-1.1,2.5-1.8,4.4-1.8c2.1,0,3.5,0.9,4.2,1.7c1.7,1.8,1.9,4.2,1.9,5.6v0.4h-9.5c0.1,0.9,0.5,2,1.1,2.7
			c0.7,0.7,1.6,0.8,2.4,0.8c0.8,0,1.5-0.2,2.1-0.7c0.5-0.4,0.9-0.9,1.2-1.4L294.8,708.3z M291.8,703c-0.1-0.7-0.5-1.3-0.9-1.8
			c-0.4-0.4-1.1-0.8-2.1-0.8c-1.1,0-1.8,0.4-2.2,0.8c-0.4,0.4-0.8,1-0.9,1.7H291.8z"/>
		<path d="M167.4,731h-6.5l-1,3.5c0.3,0,0.7-0.1,1-0.1c1.8,0,3.5,0.6,4.8,1.9c1,1,2,2.6,2,5.4c0,2.3-0.7,4.1-2.1,5.6
			c-1.7,1.6-3.7,2.1-5.8,2.1c-1.2,0-2.7-0.2-4-0.9c-0.3-0.2-1.5-0.9-2.5-2.4l2.4-2c0.1,0.2,0.6,1.2,1.6,1.8c0.7,0.5,1.7,0.7,2.7,0.7
			c1.7,0,2.7-0.7,3.2-1.2c0.6-0.6,1.3-1.8,1.3-3.5c0-1.7-0.6-2.8-1.3-3.4c-1-1-2.4-1.2-3.4-1.2c-0.9,0-1.6,0.1-2.4,0.4
			c-0.7,0.3-1.3,0.5-1.9,0.9l3.1-10.6h8.7V731z"/>
		<path d="M174.1,731h-3.6l1.8-2.9h5.1V749h-3.2V731z"/>
		<path d="M195.2,732.8c0,2.7-2.3,4.9-5.1,4.9c-2.8,0-5.1-2.3-5.1-4.9c0-2.7,2.3-4.9,5.1-4.9S195.2,730.1,195.2,732.8z M192.8,732.8
			c0-1.2-0.9-2.7-2.6-2.7s-2.6,1.4-2.6,2.7c0,1.2,0.9,2.7,2.6,2.7S192.8,734,192.8,732.8z M202,727.7l1.5,0.8l-12,20.8l-1.5-0.9
			L202,727.7z M208.5,744.3c0,2.7-2.3,4.9-5.1,4.9c-2.8,0-5.1-2.3-5.1-4.9c0-2.7,2.3-4.9,5.1-4.9
			C206.2,739.4,208.5,741.6,208.5,744.3z M206,744.3c0-1.2-0.9-2.7-2.6-2.7s-2.6,1.4-2.6,2.7c0,1.2,0.9,2.7,2.6,2.7
			S206,745.5,206,744.3z"/>
		<path d="M218.7,749l4.4-22.5l7.3,16.3l7.3-16.3l4,22.5h-3.3l-2.1-12.6l-6.1,13.6l-6-13.6L222,749H218.7z"/>
		<path d="M255.1,735.8h3.1V749h-3.1v-1.4c-1.3,1.6-3,1.8-4,1.8c-4.1,0-6.4-3.4-6.4-7c0-4.3,2.9-6.9,6.4-6.9c1,0,2.7,0.3,3.9,1.9
			V735.8z M247.9,742.4c0,2.3,1.4,4.2,3.7,4.2c1.9,0,3.7-1.4,3.7-4.2c0-2.9-1.8-4.3-3.7-4.3C249.4,738.2,247.9,740.1,247.9,742.4z"
			/>
		<path d="M265.2,726.1V749h-3.1v-22.9H265.2z"/>
		<path d="M280.9,746c-0.6,1-1.4,1.9-2.2,2.4c-1.1,0.7-2.5,1-3.9,1c-1.8,0-3.2-0.4-4.5-1.7c-1.3-1.3-1.9-3.1-1.9-5.1
			c0-2,0.7-4,2.1-5.4c1.1-1.1,2.5-1.8,4.4-1.8c2.1,0,3.5,0.9,4.2,1.7c1.7,1.8,1.9,4.2,1.9,5.6v0.4h-9.5c0.1,0.9,0.5,2,1.1,2.7
			c0.7,0.7,1.6,0.8,2.4,0.8c0.8,0,1.5-0.2,2.1-0.7c0.5-0.4,0.9-0.9,1.2-1.4L280.9,746z M277.9,740.6c-0.1-0.7-0.5-1.3-0.9-1.8
			c-0.4-0.4-1.1-0.8-2.1-0.8c-1.1,0-1.8,0.4-2.2,0.8c-0.4,0.4-0.8,1-0.9,1.7H277.9z"/>
	</g>
	<g>
		<g>
			<path class="st4" d="M109.1,480.6h-5.8l-1.1,2.7h-4.4l6.1-16h4.5l6,16H110L109.1,480.6z M108,477.5l-1.8-5.2l-1.7,5.2H108z"/>
			<path class="st4" d="M116.7,479.8c0.5,0.3,1,0.6,1.5,0.8c0.5,0.2,1.1,0.3,1.5,0.3c0.3,0,0.7-0.1,1-0.3c0.2-0.2,0.2-0.3,0.2-0.5
				c0-0.2,0-0.3-0.2-0.5c-0.2-0.2-0.6-0.3-1-0.4l-1-0.2c-0.5-0.1-1.3-0.3-1.9-0.9c-0.4-0.4-0.7-1-0.7-1.8c0-1,0.4-2,1-2.6
				c0.8-0.8,2.3-1.3,3.8-1.3c1.6,0,2.8,0.4,3.4,0.7l-1.3,2.4c-0.5-0.2-1.3-0.5-2-0.5c-0.4,0-0.6,0.1-0.9,0.2
				c-0.2,0.1-0.3,0.3-0.3,0.5c0,0.3,0.2,0.5,0.5,0.6c0.4,0.1,0.7,0.1,1.3,0.3l0.7,0.2c0.5,0.1,1.3,0.5,1.6,0.8
				c0.5,0.5,0.8,1.3,0.8,2.1c0,1.3-0.6,2.2-1.1,2.7c-1.2,1.2-3.1,1.3-4,1.3c-1,0-2.5-0.1-4.3-1.2L116.7,479.8z"/>
			<path class="st4" d="M127.3,479.8c0.5,0.3,1,0.6,1.5,0.8c0.5,0.2,1.1,0.3,1.5,0.3c0.3,0,0.7-0.1,1-0.3c0.2-0.2,0.2-0.3,0.2-0.5
				c0-0.2,0-0.3-0.2-0.5c-0.2-0.2-0.6-0.3-1-0.4l-1-0.2c-0.5-0.1-1.3-0.3-1.9-0.9c-0.4-0.4-0.7-1-0.7-1.8c0-1,0.4-2,1-2.6
				c0.8-0.8,2.3-1.3,3.8-1.3c1.6,0,2.8,0.4,3.4,0.7l-1.3,2.4c-0.5-0.2-1.3-0.5-2-0.5c-0.4,0-0.6,0.1-0.9,0.2
				c-0.2,0.1-0.3,0.3-0.3,0.5c0,0.3,0.2,0.5,0.5,0.6c0.4,0.1,0.7,0.1,1.3,0.3l0.7,0.2c0.5,0.1,1.3,0.5,1.6,0.8
				c0.5,0.5,0.8,1.3,0.8,2.1c0,1.3-0.6,2.2-1.1,2.7c-1.2,1.2-3.1,1.3-4,1.3c-1,0-2.5-0.1-4.3-1.2L127.3,479.8z"/>
			<path class="st4" d="M148,481.9c-1.4,1.4-3.1,1.8-4.8,1.8c-1.6,0-3.3-0.3-4.8-1.8c-1.2-1.2-1.7-2.5-1.7-4c0-1.9,0.9-3.2,1.7-3.9
				c0.9-0.9,2.4-1.8,4.8-1.8c2.4,0,3.9,0.9,4.8,1.8c0.8,0.8,1.7,2,1.7,3.9C149.7,479.4,149.2,480.8,148,481.9z M141.5,476.2
				c-0.5,0.5-0.7,1.1-0.7,1.7c0,0.6,0.3,1.3,0.7,1.7c0.5,0.5,1.1,0.7,1.7,0.7c0.6,0,1.2-0.3,1.7-0.7c0.5-0.5,0.7-1.1,0.7-1.7
				c0-0.6-0.3-1.3-0.7-1.7c-0.4-0.4-1.1-0.7-1.7-0.7C142.6,475.5,142,475.8,141.5,476.2z"/>
			<path class="st4" d="M160,483.1c-1,0.5-1.9,0.6-2.7,0.6c-2.1,0-3.4-0.9-4.2-1.6c-1-1-1.7-2.4-1.7-4c0-1.6,0.6-3.1,1.7-4.1
				c1-1,2.5-1.6,4.3-1.6c0.7,0,1.5,0.1,2.5,0.6v3.2c-0.5-0.4-1.2-0.7-2-0.7c-0.9,0-1.5,0.4-1.9,0.7c-0.5,0.5-0.7,1.2-0.7,1.8
				c0,0.6,0.2,1.3,0.7,1.8c0.4,0.4,1,0.8,2,0.8c0.6,0,1.3-0.1,2-0.7V483.1z"/>
			<path class="st4" d="M164.1,466c1.2,0,2.2,1,2.2,2.2c0,1.2-1,2.2-2.2,2.2c-1.2,0-2.2-1-2.2-2.2C161.9,467,162.9,466,164.1,466z
				 M166,472.6v10.7h-3.8v-10.7H166z"/>
			<path class="st4" d="M176.9,472.6h3.8v10.7h-3.8v-1.2c-0.9,1.2-2.3,1.5-3.3,1.5c-1.2,0-2.6-0.3-3.9-1.7c-1-1.1-1.5-2.3-1.5-3.9
				c0-2,0.8-3.4,1.7-4.3c0.9-0.9,2.3-1.5,3.9-1.5c1.7,0,2.8,0.9,3.2,1.4V472.6z M172.9,476.2c-0.5,0.5-0.8,1.2-0.8,1.7
				c0,0.6,0.3,1.3,0.7,1.7c0.4,0.4,1.1,0.7,1.7,0.7c0.6,0,1.2-0.3,1.7-0.7c0.3-0.3,0.7-0.9,0.7-1.7c0-0.5-0.1-1.2-0.7-1.7
				c-0.4-0.3-0.9-0.7-1.7-0.7C174.1,475.5,173.4,475.7,172.9,476.2z"/>
			<path class="st4" d="M187.6,475.8v7.6h-3.8v-7.6h-1.2v-3.1h1.2v-3.5h3.8v3.5h2.2v3.1H187.6z"/>
			<path class="st4" d="M202.6,478.7h-8c0,0.6,0.2,1.3,0.7,1.8c0.2,0.2,0.7,0.5,1.6,0.5c0.1,0,0.8,0,1.2-0.3
				c0.2-0.1,0.5-0.4,0.7-0.7h3.7c-0.2,0.6-0.5,1.4-1.3,2.2c-0.8,0.8-2,1.5-4.4,1.5c-1.4,0-3.1-0.3-4.4-1.6c-0.7-0.7-1.6-2-1.6-4
				c0-1.8,0.7-3.2,1.6-4.1c0.9-0.9,2.3-1.6,4.4-1.6c1.2,0,2.9,0.3,4.1,1.5c1.5,1.4,1.7,3.3,1.7,4.5V478.7z M199.1,476.5
				c-0.1-0.4-0.3-0.9-0.6-1.2c-0.5-0.5-1.2-0.6-1.6-0.6c-0.6,0-1.2,0.2-1.6,0.6c-0.3,0.3-0.5,0.7-0.6,1.2H199.1z"/>
			<path class="st4" d="M210.7,483.3v-16h5.4c1.6,0,4.3,0.2,6.3,2.2c1.9,1.8,2.2,4.1,2.2,5.8c0,2.1-0.5,4-2.1,5.5
				c-1.3,1.3-3.4,2.4-6.1,2.4H210.7z M214.9,479.8h0.8c1,0,2.4-0.1,3.5-1.2c0.5-0.5,1.2-1.5,1.2-3.3c0-1.5-0.5-2.8-1.2-3.5
				c-1-0.9-2.3-1-3.3-1h-1V479.8z"/>
			<path class="st4" d="M228.9,466c1.2,0,2.2,1,2.2,2.2c0,1.2-1,2.2-2.2,2.2c-1.2,0-2.2-1-2.2-2.2C226.8,467,227.7,466,228.9,466z
				 M230.9,472.6v10.7H227v-10.7H230.9z"/>
			<path class="st4" d="M233.5,472.6h3.8v1.7c0.4-0.7,0.9-1.2,1.5-1.5c0.6-0.3,1.3-0.4,2-0.4c0.1,0,0.3,0,0.8,0v3.6
				c-0.2-0.1-0.7-0.4-1.7-0.4c-0.5,0-1.2,0.1-1.7,0.6c-0.8,0.7-0.9,1.9-0.9,2.4v4.6h-3.8V472.6z"/>
			<path class="st4" d="M254.6,478.7h-8c0,0.6,0.2,1.3,0.7,1.8c0.2,0.2,0.7,0.5,1.6,0.5c0.1,0,0.8,0,1.2-0.3
				c0.2-0.1,0.5-0.4,0.7-0.7h3.7c-0.2,0.6-0.5,1.4-1.3,2.2c-0.8,0.8-2,1.5-4.4,1.5c-1.4,0-3.1-0.3-4.4-1.6c-0.7-0.7-1.6-2-1.6-4
				c0-1.8,0.7-3.2,1.6-4.1c0.9-0.9,2.3-1.6,4.4-1.6c1.2,0,2.9,0.3,4.1,1.5c1.5,1.4,1.7,3.3,1.7,4.5V478.7z M251.1,476.5
				c-0.1-0.4-0.3-0.9-0.6-1.2c-0.5-0.5-1.2-0.6-1.6-0.6c-0.6,0-1.2,0.2-1.6,0.6c-0.3,0.3-0.5,0.7-0.6,1.2H251.1z"/>
			<path class="st4" d="M264.9,483.1c-1,0.5-1.9,0.6-2.7,0.6c-2.1,0-3.5-0.9-4.2-1.6c-1-1-1.7-2.4-1.7-4c0-1.6,0.6-3.1,1.7-4.1
				c1-1,2.5-1.6,4.3-1.6c0.7,0,1.5,0.1,2.5,0.6v3.2c-0.5-0.4-1.2-0.7-2-0.7c-0.9,0-1.5,0.4-1.9,0.7c-0.5,0.5-0.7,1.2-0.7,1.8
				c0,0.6,0.2,1.3,0.7,1.8c0.4,0.4,1,0.8,2,0.8c0.6,0,1.3-0.1,2-0.7V483.1z"/>
			<path class="st4" d="M271.6,475.8v7.6h-3.8v-7.6h-1.2v-3.1h1.2v-3.5h3.8v3.5h2.2v3.1H271.6z"/>
			<path class="st4" d="M286,481.9c-1.4,1.4-3.1,1.8-4.8,1.8c-1.6,0-3.3-0.3-4.8-1.8c-1.2-1.2-1.7-2.5-1.7-4c0-1.9,0.9-3.2,1.7-3.9
				c0.9-0.9,2.4-1.8,4.8-1.8c2.4,0,3.9,0.9,4.8,1.8c0.8,0.8,1.7,2,1.7,3.9C287.7,479.4,287.2,480.8,286,481.9z M279.5,476.2
				c-0.5,0.5-0.7,1.1-0.7,1.7c0,0.6,0.3,1.3,0.7,1.7c0.5,0.5,1.1,0.7,1.7,0.7c0.6,0,1.2-0.3,1.7-0.7c0.5-0.5,0.7-1.1,0.7-1.7
				c0-0.6-0.3-1.3-0.7-1.7c-0.4-0.4-1.1-0.7-1.7-0.7C280.6,475.5,279.9,475.8,279.5,476.2z"/>
			<path class="st4" d="M289.9,472.6h3.8v1.7c0.4-0.7,0.9-1.2,1.5-1.5c0.6-0.3,1.3-0.4,2-0.4c0.1,0,0.3,0,0.8,0v3.6
				c-0.2-0.1-0.7-0.4-1.7-0.4c-0.5,0-1.2,0.1-1.7,0.6c-0.8,0.7-0.9,1.9-0.9,2.4v4.6h-3.8V472.6z"/>
			<path class="st4" d="M300.4,479.8c0.5,0.3,1,0.6,1.5,0.8c0.5,0.2,1.1,0.3,1.5,0.3c0.3,0,0.7-0.1,1-0.3c0.2-0.2,0.2-0.3,0.2-0.5
				c0-0.2,0-0.3-0.2-0.5c-0.2-0.2-0.6-0.3-1-0.4l-1-0.2c-0.5-0.1-1.3-0.3-1.9-0.9c-0.4-0.4-0.7-1-0.7-1.8c0-1,0.4-2,1-2.6
				c0.8-0.8,2.3-1.3,3.8-1.3c1.6,0,2.8,0.4,3.4,0.7l-1.3,2.4c-0.5-0.2-1.3-0.5-2-0.5c-0.4,0-0.6,0.1-0.9,0.2
				c-0.2,0.1-0.3,0.3-0.3,0.5c0,0.3,0.2,0.5,0.5,0.6c0.4,0.1,0.7,0.1,1.3,0.3l0.7,0.2c0.5,0.1,1.3,0.5,1.6,0.8
				c0.5,0.5,0.8,1.3,0.8,2.1c0,1.3-0.6,2.2-1.1,2.7c-1.2,1.2-3.1,1.3-4,1.3c-1,0-2.5-0.1-4.3-1.2L300.4,479.8z"/>
			<path class="st4" d="M320.1,475.8v7.6h-3.8v-7.6h-1.2v-3.1h1.2v-3.5h3.8v3.5h2.2v3.1H320.1z"/>
			<path class="st4" d="M334.5,481.9c-1.4,1.4-3.1,1.8-4.8,1.8c-1.6,0-3.3-0.3-4.8-1.8c-1.2-1.2-1.7-2.5-1.7-4
				c0-1.9,0.9-3.2,1.7-3.9c0.9-0.9,2.4-1.8,4.8-1.8c2.4,0,3.9,0.9,4.8,1.8c0.8,0.8,1.7,2,1.7,3.9
				C336.2,479.4,335.7,480.8,334.5,481.9z M328,476.2c-0.5,0.5-0.7,1.1-0.7,1.7c0,0.6,0.3,1.3,0.7,1.7c0.5,0.5,1.1,0.7,1.7,0.7
				c0.6,0,1.2-0.3,1.7-0.7c0.5-0.5,0.7-1.1,0.7-1.7c0-0.6-0.3-1.3-0.7-1.7c-0.4-0.4-1.1-0.7-1.7-0.7
				C329.1,475.5,328.5,475.8,328,476.2z"/>
			<path class="st4" d="M122.6,497h-4.9v2.7h4.7v3.5h-4.7v2.8h4.9v3.5h-9.1v-16h9.1V497z"/>
			<path class="st4" d="M129,503.6l-4.3-4.9h5l1.8,2.2l1.9-2.2h5l-4.4,4.9l5.4,5.8h-5.1l-2.7-3.2l-2.7,3.2h-5.1L129,503.6z"/>
			<path class="st4" d="M151,504.8h-8c0,0.6,0.2,1.3,0.7,1.8c0.2,0.2,0.7,0.5,1.6,0.5c0.1,0,0.8,0,1.2-0.3c0.2-0.1,0.5-0.4,0.7-0.7
				h3.7c-0.2,0.6-0.5,1.4-1.3,2.2c-0.8,0.8-2,1.5-4.4,1.5c-1.4,0-3.1-0.3-4.4-1.6c-0.7-0.7-1.6-2-1.6-4c0-1.8,0.7-3.2,1.6-4.1
				c0.9-0.9,2.3-1.6,4.4-1.6c1.2,0,2.9,0.3,4.1,1.5c1.5,1.4,1.7,3.3,1.7,4.5V504.8z M147.5,502.6c-0.1-0.4-0.3-0.9-0.6-1.2
				c-0.5-0.5-1.2-0.6-1.6-0.6c-0.6,0-1.1,0.2-1.6,0.6c-0.3,0.3-0.5,0.7-0.6,1.2H147.5z"/>
			<path class="st4" d="M161.3,509.2c-1,0.5-1.9,0.6-2.7,0.6c-2.1,0-3.5-0.9-4.2-1.6c-1-1-1.7-2.4-1.7-4c0-1.6,0.6-3.1,1.7-4.1
				c1-1,2.5-1.6,4.3-1.6c0.7,0,1.5,0.1,2.5,0.6v3.2c-0.5-0.4-1.2-0.7-2-0.7c-0.9,0-1.5,0.4-1.9,0.7c-0.5,0.5-0.7,1.2-0.7,1.8
				c0,0.6,0.2,1.3,0.7,1.8c0.4,0.4,1,0.8,2,0.8c0.6,0,1.3-0.1,2-0.7V509.2z"/>
			<path class="st4" d="M167.3,498.8v6c0,0.4,0.1,1.1,0.6,1.6c0.4,0.3,0.9,0.4,1.3,0.4c0.5,0,0.9,0,1.4-0.5c0.5-0.5,0.6-1,0.6-1.5
				v-6h3.8v6.7c0,0.9-0.1,1.9-1,2.9c-1.3,1.4-3.2,1.5-4.6,1.5c-1.6,0-3.6-0.2-4.8-1.5c-0.8-0.9-1-1.8-1-2.9v-6.7H167.3z"/>
			<path class="st4" d="M181.9,501.9v7.6H178v-7.6h-1.2v-3.1h1.2v-3.5h3.8v3.5h2.2v3.1H181.9z"/>
			<path class="st4" d="M187.4,492.1c1.2,0,2.2,1,2.2,2.2c0,1.2-1,2.2-2.2,2.2c-1.2,0-2.2-1-2.2-2.2
				C185.2,493.1,186.2,492.1,187.4,492.1z M189.3,498.8v10.7h-3.8v-10.7H189.3z"/>
			<path class="st4" d="M194.9,498.8l2.6,5.5l2.6-5.5h4.3l-5.6,10.7h-2.6l-5.5-10.7H194.9z"/>
			<path class="st4" d="M216.4,504.8h-8c0,0.6,0.2,1.3,0.7,1.8c0.2,0.2,0.7,0.5,1.6,0.5c0.1,0,0.8,0,1.2-0.3
				c0.2-0.1,0.5-0.4,0.7-0.7h3.7c-0.2,0.6-0.5,1.4-1.3,2.2c-0.8,0.8-2,1.5-4.4,1.5c-1.4,0-3.1-0.3-4.4-1.6c-0.7-0.7-1.6-2-1.6-4
				c0-1.8,0.7-3.2,1.6-4.1c0.9-0.9,2.3-1.6,4.4-1.6c1.2,0,2.9,0.3,4.1,1.5c1.5,1.4,1.7,3.3,1.7,4.5V504.8z M212.9,502.6
				c-0.1-0.4-0.3-0.9-0.6-1.2c-0.5-0.5-1.2-0.6-1.6-0.6c-0.6,0-1.2,0.2-1.6,0.6c-0.3,0.3-0.5,0.7-0.6,1.2H212.9z"/>
			<path class="st4" d="M224.6,509.5v-16h5.4c1.6,0,4.3,0.2,6.3,2.2c1.9,1.8,2.2,4.1,2.2,5.8c0,2.1-0.5,4-2.1,5.5
				c-1.3,1.3-3.4,2.4-6.1,2.4H224.6z M228.7,505.9h0.8c1,0,2.4-0.1,3.5-1.2c0.5-0.5,1.2-1.5,1.2-3.3c0-1.5-0.5-2.8-1.2-3.5
				c-1-0.9-2.3-1-3.3-1h-1V505.9z"/>
			<path class="st4" d="M242.8,492.1c1.2,0,2.2,1,2.2,2.2c0,1.2-1,2.2-2.2,2.2c-1.2,0-2.2-1-2.2-2.2
				C240.6,493.1,241.6,492.1,242.8,492.1z M244.7,498.8v10.7h-3.8v-10.7H244.7z"/>
			<path class="st4" d="M247.3,498.8h3.8v1.7c0.4-0.7,0.9-1.2,1.5-1.5c0.6-0.3,1.3-0.4,2-0.4c0.1,0,0.3,0,0.8,0v3.6
				c-0.2-0.1-0.7-0.4-1.7-0.4c-0.5,0-1.2,0.1-1.7,0.6c-0.8,0.7-0.9,1.9-0.9,2.4v4.6h-3.8V498.8z"/>
			<path class="st4" d="M268.5,504.8h-8c0,0.6,0.2,1.3,0.7,1.8c0.2,0.2,0.7,0.5,1.6,0.5c0.1,0,0.8,0,1.2-0.3
				c0.2-0.1,0.5-0.4,0.7-0.7h3.7c-0.2,0.6-0.5,1.4-1.3,2.2c-0.8,0.8-2,1.5-4.4,1.5c-1.4,0-3.1-0.3-4.4-1.6c-0.7-0.7-1.6-2-1.6-4
				c0-1.8,0.7-3.2,1.6-4.1c0.9-0.9,2.3-1.6,4.4-1.6c1.2,0,2.9,0.3,4.1,1.5c1.5,1.4,1.7,3.3,1.7,4.5V504.8z M264.9,502.6
				c-0.1-0.4-0.3-0.9-0.6-1.2c-0.5-0.5-1.2-0.6-1.6-0.6c-0.6,0-1.2,0.2-1.6,0.6c-0.3,0.3-0.5,0.7-0.6,1.2H264.9z"/>
			<path class="st4" d="M278.8,509.2c-1,0.5-1.9,0.6-2.7,0.6c-2.1,0-3.5-0.9-4.2-1.6c-1-1-1.7-2.4-1.7-4c0-1.6,0.6-3.1,1.7-4.1
				c1-1,2.5-1.6,4.3-1.6c0.7,0,1.5,0.1,2.5,0.6v3.2c-0.5-0.4-1.2-0.7-2-0.7c-0.9,0-1.5,0.4-1.9,0.7c-0.5,0.5-0.7,1.2-0.7,1.8
				c0,0.6,0.2,1.3,0.7,1.8c0.4,0.4,1,0.8,2,0.8c0.6,0,1.3-0.1,2-0.7V509.2z"/>
			<path class="st4" d="M285.4,501.9v7.6h-3.8v-7.6h-1.2v-3.1h1.2v-3.5h3.8v3.5h2.2v3.1H285.4z"/>
			<path class="st4" d="M299.8,508c-1.4,1.4-3.1,1.8-4.8,1.8c-1.6,0-3.3-0.3-4.8-1.8c-1.2-1.2-1.7-2.5-1.7-4c0-1.9,0.9-3.2,1.7-3.9
				c0.9-0.9,2.4-1.8,4.8-1.8c2.4,0,3.9,0.9,4.8,1.8c0.8,0.8,1.7,2,1.7,3.9C301.5,505.5,301,506.9,299.8,508z M293.3,502.3
				c-0.5,0.5-0.7,1.1-0.7,1.7c0,0.6,0.3,1.3,0.7,1.7c0.5,0.5,1.1,0.7,1.7,0.7c0.6,0,1.2-0.3,1.7-0.7c0.5-0.5,0.7-1.1,0.7-1.7
				c0-0.6-0.3-1.3-0.7-1.7c-0.4-0.4-1.1-0.7-1.7-0.7C294.4,501.7,293.8,501.9,293.3,502.3z"/>
			<path class="st4" d="M303.7,498.8h3.8v1.7c0.4-0.7,0.9-1.2,1.5-1.5c0.6-0.3,1.3-0.4,2-0.4c0.1,0,0.3,0,0.8,0v3.6
				c-0.2-0.1-0.7-0.4-1.7-0.4c-0.5,0-1.2,0.1-1.7,0.6c-0.8,0.7-0.9,1.9-0.9,2.4v4.6h-3.8V498.8z"/>
			<path class="st4" d="M314.2,505.9c0.5,0.3,1,0.6,1.5,0.8c0.5,0.2,1.1,0.3,1.5,0.3c0.3,0,0.7-0.1,1-0.3c0.2-0.2,0.2-0.3,0.2-0.5
				c0-0.2,0-0.3-0.2-0.5c-0.2-0.2-0.6-0.3-1-0.4l-1-0.2c-0.5-0.1-1.3-0.3-1.9-0.9c-0.4-0.4-0.7-1-0.7-1.8c0-1,0.4-2,1-2.6
				c0.8-0.8,2.3-1.3,3.8-1.3c1.6,0,2.8,0.4,3.4,0.7l-1.3,2.4c-0.5-0.2-1.3-0.5-2-0.5c-0.4,0-0.6,0.1-0.9,0.2
				c-0.2,0.1-0.3,0.3-0.3,0.5c0,0.3,0.2,0.5,0.5,0.6c0.4,0.1,0.7,0.1,1.3,0.3l0.7,0.2c0.5,0.1,1.3,0.5,1.6,0.8
				c0.5,0.5,0.8,1.3,0.8,2.1c0,1.3-0.6,2.2-1.1,2.7c-1.2,1.2-3.1,1.3-4,1.3c-1,0-2.5-0.1-4.3-1.2L314.2,505.9z"/>
		</g>
	</g>
</g>
</svg>
