<?xml version="1.0" encoding="utf-8"?>
<!-- Generator: Adobe Illustrator 26.2.1, SVG Export Plug-In . SVG Version: 6.00 Build 0)  -->
<svg version="1.1" id="Layer_1" xmlns="http://www.w3.org/2000/svg" xmlns:xlink="http://www.w3.org/1999/xlink" x="0px" y="0px"
	 viewBox="0 0 2980 1116" style="enable-background:new 0 0 2980 1116;" xml:space="preserve">
<style type="text/css">
	.st0{clip-path:url(#SVGID_00000076587233216089907990000001841740539141510332_);fill:#4274BA;}
	.st1{fill:#FFFFFF;}
	.st2{fill:#1C3255;}
	.st3{clip-path:url(#SVGID_00000058573062373279163180000010551743194920210092_);fill:#4274BA;}
	.st4{clip-path:url(#SVGID_00000145747117844279902190000012328247378627272610_);fill:#4274BA;}
</style>
<g>
	<g>
		<defs>
			<circle id="SVGID_1_" cx="500.9" cy="616.9" r="412"/>
		</defs>
		<use xlink:href="#SVGID_1_"  style="overflow:visible;opacity:0.51;fill:#4274BA;"/>
		<clipPath id="SVGID_00000173839124908965654420000012936187166326299552_">
			<use xlink:href="#SVGID_1_"  style="overflow:visible;opacity:0.51;"/>
		</clipPath>
		<polygon style="clip-path:url(#SVGID_00000173839124908965654420000012936187166326299552_);fill:#4274BA;" points="500.9,131.6 
			500.9,616.9 480.9,1116.9 0.9,1116.9 0.9,116.9 		"/>
	</g>
	<circle class="st1" cx="500.9" cy="616.9" r="225"/>
	<g>
		<path d="M391.2,562h-14.8l-2.4,8c0.7-0.1,1.5-0.1,2.2-0.1c4,0,8.1,1.4,11.1,4.2c2.3,2.2,4.7,6,4.7,12.3c0,5.3-1.7,9.5-4.9,12.7
			c-3.8,3.7-8.4,4.9-13.3,4.9c-2.8,0-6.1-0.4-9.2-2.2c-0.7-0.4-3.5-2.1-5.7-5.5l5.5-4.6c0.1,0.4,1.4,2.7,3.7,4.2
			c1.6,1.1,3.8,1.7,6.3,1.7c3.9,0,6.1-1.5,7.3-2.7c1.4-1.4,3.1-4,3.1-8.1c0-4-1.4-6.3-2.9-7.8c-2.4-2.2-5.5-2.7-7.8-2.7
			c-2.1,0-3.7,0.3-5.6,1c-1.5,0.6-2.9,1.2-4.2,2.2l7.1-24.3h19.9V562z"/>
		<path d="M407.3,598.8c-5-5.8-6.1-13.3-6.1-19.6c0-6.2,1.1-13.9,6.1-19.7c3-3.5,6.6-5.2,10.9-5.2c4.2,0,7.8,1.7,10.9,5.2
			c5,5.8,6.1,13.5,6.1,19.7c0,6.3-1.1,13.8-6.1,19.6c-3,3.5-6.6,5.2-10.9,5.2S410.4,602.3,407.3,598.8z M411.7,564.9
			c-2.7,4-3.3,10.2-3.3,14.3c0,4.2,0.6,10.4,3.3,14.4c2.1,3.2,4.6,4,6.5,4c1.9,0,4.4-0.8,6.5-4c2.7-4,3.3-10.2,3.3-14.4
			c0-4.2-0.6-10.4-3.3-14.3c-2.1-3.2-4.6-4-6.5-4C416.3,560.9,413.8,561.7,411.7,564.9z"/>
		<path d="M464.2,566.1c0,6.1-5.2,11.3-11.6,11.3c-6.4,0-11.6-5.2-11.6-11.3c0-6.2,5.3-11.3,11.6-11.3
			C459,554.8,464.2,559.9,464.2,566.1z M458.6,566.1c0-2.8-2-6.1-6-6.1c-4,0-6,3.3-6,6.1c0,2.8,2,6.1,6,6.1
			C456.6,572.2,458.6,568.9,458.6,566.1z M479.9,554.4l3.4,1.9L455.8,604l-3.4-2.1L479.9,554.4z M494.6,592.4
			c0,6.1-5.2,11.3-11.6,11.3s-11.6-5.2-11.6-11.3c0-6.2,5.3-11.3,11.6-11.3C489.4,581.1,494.6,586.2,494.6,592.4z M489,592.4
			c0-2.8-2-6.1-6-6.1c-4,0-6,3.3-6,6.1c0,2.8,2,6.1,6,6.1C487,598.6,489,595.2,489,592.4z"/>
		<path d="M530.1,555.2c3,0,7.1,0.3,10.5,2.6c4,2.7,6,7.3,6,11.7c0,2.8-0.7,7.1-4.7,10.5c-3.8,3.2-8.2,3.7-11.7,3.7h-3.3v19.5h-7.3
			v-48H530.1z M526.9,577h3.3c6.3,0,9.4-3.1,9.4-7.6c0-2.7-1.1-7.4-9.4-7.4h-3.2V577z"/>
		<path d="M601.7,579.3c0,14.1-10.6,24.9-25,24.9s-25-10.8-25-24.9s10.6-24.9,25-24.9S601.7,565.1,601.7,579.3z M594.4,579.3
			c0-10.7-7.3-18.1-17.6-18.1s-17.6,7.5-17.6,18.1s7.3,18.1,17.6,18.1S594.4,589.9,594.4,579.3z"/>
		<path d="M646.5,566.4c-5.3-4.8-10.3-5.3-13-5.3c-10.4,0-17.5,7.7-17.5,18.3c0,10.2,7.3,18,17.6,18c5.8,0,10.2-3,13-5.5v8.7
			c-4.8,2.9-9.9,3.6-13.2,3.6c-8.7,0-14.2-4-17-6.6c-5.6-5.3-7.7-11.4-7.7-18.1c0-8.9,3.7-15,7.7-18.8c5-4.7,10.7-6.3,17.4-6.3
			c4.4,0,8.6,0.8,12.8,3.5V566.4z"/>
		<path d="M374.9,648.4h-14.8l-2.4,8c0.7-0.1,1.5-0.1,2.2-0.1c4,0,8.1,1.4,11.1,4.2c2.3,2.2,4.7,6,4.7,12.3c0,5.3-1.7,9.5-4.9,12.7
			c-3.8,3.7-8.4,4.9-13.3,4.9c-2.8,0-6.1-0.4-9.2-2.2c-0.7-0.4-3.5-2.1-5.7-5.5l5.5-4.6c0.1,0.4,1.4,2.7,3.7,4.2
			c1.6,1.1,3.8,1.7,6.3,1.7c3.9,0,6.1-1.5,7.3-2.7c1.4-1.4,3.1-4,3.1-8.1c0-4-1.4-6.3-2.9-7.8c-2.4-2.2-5.5-2.7-7.8-2.7
			c-2.1,0-3.7,0.3-5.6,1c-1.5,0.6-2.9,1.2-4.2,2.2l7.1-24.3h19.9V648.4z"/>
		<path d="M391.1,685.2c-5-5.8-6.1-13.3-6.1-19.6c0-6.2,1.1-13.9,6.1-19.7c3-3.5,6.6-5.2,10.9-5.2c4.2,0,7.8,1.7,10.9,5.2
			c5,5.8,6.1,13.5,6.1,19.7c0,6.3-1.1,13.8-6.1,19.6c-3,3.5-6.6,5.2-10.9,5.2S394.1,688.7,391.1,685.2z M395.5,651.3
			c-2.7,4-3.3,10.2-3.3,14.3c0,4.2,0.6,10.4,3.3,14.4c2.1,3.2,4.6,4,6.5,4c1.9,0,4.4-0.8,6.5-4c2.7-4,3.3-10.2,3.3-14.4
			c0-4.2-0.6-10.4-3.3-14.3c-2.1-3.2-4.6-4-6.5-4C400.1,647.3,397.6,648.1,395.5,651.3z"/>
		<path d="M448,652.5c0,6.1-5.2,11.3-11.6,11.3c-6.4,0-11.6-5.2-11.6-11.3c0-6.2,5.3-11.3,11.6-11.3
			C442.7,641.2,448,646.3,448,652.5z M442.3,652.5c0-2.8-2-6.1-6-6.1c-4,0-6,3.3-6,6.1s2,6.1,6,6.1
			C440.3,658.6,442.3,655.3,442.3,652.5z M463.6,640.8l3.4,1.9l-27.4,47.7l-3.4-2.1L463.6,640.8z M478.3,678.8
			c0,6.1-5.2,11.3-11.6,11.3c-6.4,0-11.6-5.2-11.6-11.3c0-6.2,5.3-11.3,11.6-11.3C473.1,667.5,478.3,672.6,478.3,678.8z
			 M472.7,678.8c0-2.8-2-6.1-6-6.1c-4,0-6,3.3-6,6.1c0,2.8,2,6.1,6,6.1C470.7,685,472.7,681.6,472.7,678.8z"/>
		<path d="M505.7,641.6l12.7,32.1l13-34.4l12.5,34.4l13.1-32.1h7.9l-21.5,51.1l-12.5-34.1l-12.7,34.1l-20.5-51.1H505.7z"/>
		<path d="M567.5,637.1h7.1v24.8c3-3.1,6.3-3.4,8.1-3.4c5.5,0,8.1,2.9,8.9,4.1c1.9,2.7,1.9,6.3,1.9,8.4v18.6h-7.1v-17.9
			c0-1.8,0-3.7-1.4-5.3c-0.8-0.9-2.2-1.6-4-1.6c-2.4,0-4.2,1.2-5.2,2.5c-1,1.4-1.4,3.7-1.4,7.6v14.6h-7.1V637.1z"/>
		<path d="M606,642.3c2.6,0,4.5,1.9,4.5,4.5s-1.9,4.5-4.5,4.5c-2.6,0-4.5-1.9-4.5-4.5S603.4,642.3,606,642.3z M609.5,659.3v30.3
			h-7.1v-30.3H609.5z"/>
		<path d="M625.7,665.8v23.8h-7.1v-23.8h-3v-6.5h3v-11.1h7.1v11.1h5.4v6.5H625.7z"/>
		<path d="M663,682.7c-1.3,2.3-3.2,4.3-5.1,5.5c-2.4,1.6-5.7,2.3-8.9,2.3c-4,0-7.3-1-10.2-3.9s-4.5-7.1-4.5-11.6
			c0-4.7,1.7-9.2,4.8-12.5c2.5-2.5,5.8-4.1,10.2-4.1c4.8,0,7.9,2.1,9.7,4c3.9,4,4.2,9.6,4.2,12.8v0.9h-21.7c0.1,2.2,1.1,4.6,2.6,6.1
			c1.7,1.7,3.7,1.9,5.4,1.9c1.9,0,3.4-0.4,4.8-1.5c1.2-0.9,2.2-2.2,2.8-3.3L663,682.7z M656,670.4c-0.3-1.7-1.1-3.1-2.2-4.1
			c-0.9-0.9-2.4-1.7-4.8-1.7c-2.4,0-4,1-5,1.9c-1,0.9-1.8,2.4-2.2,3.9H656z"/>
	</g>
	<g>
		<path class="st2" d="M71.8,54.2v34.7h-9V54.2H71.8z"/>
		<path class="st2" d="M78.3,65.6h8.3v2.9c2.3-3,5.4-3.4,7.4-3.4c2.4,0,4.9,0.6,6.9,2.5c2,2,2.2,4,2.2,6.5v14.8h-8.3V77.1
			c0-1.4,0.1-3.4-1-4.5c-0.8-0.8-1.8-1-2.7-1c-1.3,0-2.4,0.5-3.1,1.1c-0.8,0.8-1.4,2.3-1.4,3.7v12.5h-8.3V65.6z"/>
		<path class="st2" d="M135.1,88.8h-8.3v-2.5c-2.3,3-5.4,3.3-7,3.3c-3.3,0-6-1.1-8.2-3.2c-2.3-2.3-3.7-5.6-3.7-9.3
			c0-4,1.7-7.2,3.8-9.2c2.3-2.2,5.4-3.1,8.2-3.1c3.2,0,5.4,1.4,6.9,3V50.9h8.3V88.8z M125.2,81.1c1.1-1,1.8-2.5,1.8-4
			c0-1.3-0.7-2.9-1.6-3.7c-0.9-1-2.2-1.6-3.8-1.6c-1.8,0-3,0.8-3.7,1.5c-0.9,0.9-1.6,2.4-1.6,4c0,1.2,0.5,2.5,1.6,3.6
			c1.1,1.1,2.5,1.6,3.7,1.6C123,82.5,124.4,81.9,125.2,81.1z"/>
		<path class="st2" d="M145,51.2c2.6,0,4.7,2.1,4.7,4.7c0,2.6-2.1,4.7-4.7,4.7c-2.6,0-4.7-2.1-4.7-4.7
			C140.3,53.3,142.4,51.2,145,51.2z M149.1,65.6v23.2h-8.3V65.6H149.1z"/>
		<path class="st2" d="M161.2,65.6l5.6,11.9l5.7-11.9h9.3l-12.1,23.2h-5.7l-12-23.2H161.2z"/>
		<path class="st2" d="M188.7,51.2c2.6,0,4.7,2.1,4.7,4.7c0,2.6-2.1,4.7-4.7,4.7c-2.6,0-4.7-2.1-4.7-4.7
			C184.1,53.3,186.1,51.2,188.7,51.2z M192.9,65.6v23.2h-8.3V65.6H192.9z"/>
		<path class="st2" d="M224.9,88.8h-8.3v-2.5c-2.3,3-5.4,3.3-7,3.3c-3.3,0-6-1.1-8.2-3.2c-2.3-2.3-3.7-5.6-3.7-9.3
			c0-4,1.7-7.2,3.8-9.2c2.3-2.2,5.4-3.1,8.2-3.1c3.2,0,5.4,1.4,6.9,3V50.9h8.3V88.8z M215,81.1c1.1-1,1.8-2.5,1.8-4
			c0-1.3-0.7-2.9-1.6-3.7c-0.9-1-2.2-1.6-3.8-1.6c-1.8,0-3,0.8-3.7,1.5c-0.9,0.9-1.6,2.4-1.6,4c0,1.2,0.5,2.5,1.6,3.6
			c1.1,1.1,2.5,1.6,3.7,1.6C212.8,82.5,214.2,81.9,215,81.1z"/>
		<path class="st2" d="M238.9,65.6v13c0,0.9,0.2,2.4,1.2,3.4c0.8,0.7,1.9,0.9,2.9,0.9c1,0,2-0.1,3-1c1-1,1.2-2.2,1.2-3.3v-13h8.3
			v14.5c0,2-0.2,4.1-2.2,6.2c-2.9,3-6.9,3.3-10,3.3c-3.5,0-7.7-0.4-10.5-3.3c-1.8-1.9-2.2-4-2.2-6.2V65.6H238.9z"/>
		<path class="st2" d="M279.3,65.6h8.3v23.2h-8.3v-2.5c-1.9,2.7-4.9,3.3-7.2,3.3c-2.5,0-5.6-0.7-8.4-3.7c-2.2-2.4-3.3-5-3.3-8.5
			c0-4.4,1.7-7.4,3.6-9.3c2-2,5-3.3,8.4-3.3c3.7,0,6,1.9,7,3V65.6z M270.5,73.4c-1.1,1.1-1.7,2.6-1.7,3.8c0,1.4,0.6,2.8,1.6,3.8
			c0.9,0.8,2.3,1.6,3.7,1.6c1.4,0,2.7-0.6,3.7-1.6c0.7-0.7,1.6-1.9,1.6-3.7c0-1.1-0.3-2.5-1.6-3.8c-0.8-0.7-2-1.5-3.7-1.5
			C273.1,71.9,271.7,72.2,270.5,73.4z"/>
		<path class="st2" d="M301.6,50.9v37.9h-8.3V50.9H301.6z"/>
		<path class="st2" d="M345.1,87.9c-3.6,1.3-5.6,1.7-7.8,1.7c-6,0-10.6-2.4-13.4-5.2c-3.4-3.4-5.3-8.1-5.3-12.6
			c0-4.9,2.1-9.6,5.3-12.8c3.1-3.1,7.7-5.4,13.1-5.4c1.7,0,4.4,0.3,8.1,1.8v10.8c-2.9-3.6-6.3-3.8-7.9-3.8c-2.6,0-4.6,0.8-6.2,2.3
			c-2.1,2-3,4.7-3,7.1c0,2.4,1,5,2.8,6.8c1.5,1.4,3.9,2.4,6.4,2.4c1.4,0,4.7-0.2,7.9-3.6V87.9z"/>
		<path class="st2" d="M373.4,85.8c-3.1,3-6.7,3.8-10.4,3.8c-3.4,0-7.1-0.7-10.3-3.8c-2.5-2.5-3.6-5.5-3.6-8.6
			c0-4.2,1.9-6.9,3.6-8.5c1.9-1.9,5.3-3.8,10.3-3.8c5.1,0,8.5,2,10.4,3.8c1.7,1.7,3.6,4.4,3.6,8.5C377,80.3,376,83.3,373.4,85.8z
			 M359.3,73.4c-1,1-1.6,2.4-1.6,3.8c0,1.4,0.7,2.8,1.6,3.7c1,1,2.3,1.6,3.7,1.6c1.4,0,2.7-0.6,3.7-1.6c1-1,1.6-2.3,1.6-3.7
			c0-1.2-0.6-2.8-1.6-3.8c-0.9-0.9-2.4-1.5-3.7-1.5C361.7,71.9,360.3,72.5,359.3,73.4z"/>
		<path class="st2" d="M381.8,65.6h8.3v2.9c2.3-3,5.4-3.4,7.4-3.4c2.4,0,4.9,0.6,6.9,2.5c2,2,2.2,4,2.2,6.5v14.8h-8.3V77.1
			c0-1.4,0.1-3.4-1-4.5c-0.8-0.8-1.8-1-2.7-1c-1.3,0-2.4,0.5-3.1,1.1c-0.8,0.8-1.4,2.3-1.4,3.7v12.5h-8.3V65.6z"/>
		<path class="st2" d="M421.4,72.4v16.4h-8.3V72.4h-2.7v-6.8h2.7v-7.6h8.3v7.6h4.7v6.8H421.4z"/>
		<path class="st2" d="M429.3,65.6h8.3v3.8c0.8-1.6,2-2.6,3.3-3.2c1.2-0.7,2.8-0.9,4.3-0.9c0.2,0,0.6,0.1,1.7,0.1v7.9
			c-0.4-0.2-1.6-0.8-3.6-0.8c-1.1,0-2.6,0.2-3.8,1.2c-1.8,1.6-1.9,4.1-1.9,5.3v9.9h-8.3V65.6z"/>
		<path class="st2" d="M454.7,51.2c2.6,0,4.7,2.1,4.7,4.7c0,2.6-2.1,4.7-4.7,4.7c-2.6,0-4.7-2.1-4.7-4.7
			C450,53.3,452.1,51.2,454.7,51.2z M458.9,65.6v23.2h-8.3V65.6H458.9z"/>
		<path class="st2" d="M472.9,50.9v16.9c1.5-1.6,3.7-3,6.9-3c2.9,0,5.9,0.9,8.2,3.1c2.1,2,3.8,5.3,3.8,9.2c0,3.7-1.4,7-3.7,9.3
			c-2.2,2.1-4.8,3.2-8.2,3.2c-1.6,0-4.7-0.3-7-3.3v2.5h-8.3V50.9H472.9z M481.6,81c1.1-1.1,1.6-2.4,1.6-3.6c0-1.6-0.7-3-1.6-4
			c-0.7-0.7-1.9-1.5-3.7-1.5c-1.6,0-2.9,0.6-3.8,1.6c-0.8,0.9-1.6,2.4-1.6,3.7c0,1.4,0.7,3,1.8,4c0.9,0.8,2.2,1.4,3.6,1.4
			C479.2,82.5,480.5,82.1,481.6,81z"/>
		<path class="st2" d="M504.9,65.6v13c0,0.9,0.2,2.4,1.2,3.4c0.8,0.7,1.9,0.9,2.9,0.9c1,0,2-0.1,3-1c1-1,1.2-2.2,1.2-3.3v-13h8.3
			v14.5c0,2-0.2,4.1-2.2,6.2c-2.9,3-6.9,3.3-10,3.3c-3.5,0-7.7-0.4-10.5-3.3c-1.8-1.9-2.2-4-2.2-6.2V65.6H504.9z"/>
		<path class="st2" d="M536.5,72.4v16.4h-8.3V72.4h-2.7v-6.8h2.7v-7.6h8.3v7.6h4.7v6.8H536.5z"/>
		<path class="st2" d="M567.7,85.8c-3.1,3-6.7,3.8-10.4,3.8c-3.4,0-7.1-0.7-10.3-3.8c-2.5-2.5-3.6-5.5-3.6-8.6
			c0-4.2,1.9-6.9,3.6-8.5c1.9-1.9,5.3-3.8,10.3-3.8c5.1,0,8.5,2,10.4,3.8c1.7,1.7,3.6,4.4,3.6,8.5C571.3,80.3,570.3,83.3,567.7,85.8
			z M553.6,73.4c-1,1-1.6,2.4-1.6,3.8c0,1.4,0.7,2.8,1.6,3.7c1,1,2.3,1.6,3.7,1.6c1.4,0,2.7-0.6,3.7-1.6c1-1,1.6-2.3,1.6-3.7
			c0-1.2-0.6-2.8-1.6-3.8c-0.9-0.9-2.4-1.5-3.7-1.5C556,71.9,554.5,72.5,553.6,73.4z"/>
		<path class="st2" d="M576.1,65.6h8.3v3.8c0.8-1.6,2-2.6,3.3-3.2c1.2-0.7,2.8-0.9,4.3-0.9c0.2,0,0.6,0.1,1.7,0.1v7.9
			c-0.4-0.2-1.6-0.8-3.6-0.8c-1.1,0-2.6,0.2-3.8,1.2c-1.8,1.6-1.9,4.1-1.9,5.3v9.9h-8.3V65.6z"/>
		<path class="st2" d="M598.9,81.1c1,0.7,2.2,1.4,3.3,1.7c1,0.4,2.3,0.6,3.2,0.6c0.6,0,1.6-0.2,2.1-0.6c0.4-0.4,0.4-0.7,0.4-1.1
			c0-0.4-0.1-0.7-0.4-1c-0.5-0.5-1.4-0.6-2.2-0.8l-2.2-0.5c-1.1-0.3-2.8-0.7-4.1-2c-0.9-0.9-1.5-2.2-1.5-4c0-2.2,0.9-4.3,2.2-5.7
			c1.8-1.8,4.9-2.8,8.3-2.8c3.4,0,6.1,0.9,7.4,1.5l-2.8,5.3c-1.1-0.5-2.9-1.1-4.4-1.1c-0.8,0-1.4,0.2-1.9,0.5
			c-0.5,0.3-0.7,0.6-0.7,1.1c0,0.7,0.5,1.1,1,1.3c0.8,0.3,1.5,0.3,2.8,0.7l1.5,0.4c1.1,0.3,2.8,1.1,3.4,1.8c1.1,1.1,1.8,2.9,1.8,4.6
			c0,2.8-1.2,4.7-2.3,5.8c-2.7,2.7-6.7,2.9-8.6,2.9c-2.1,0-5.4-0.3-9.4-2.7L598.9,81.1z"/>
		<path class="st2" d="M623,80.2h7.8l-8.9,16.4h-5.4L623,80.2z"/>
		<path class="st2" d="M651.5,78.4c1.9,1.8,4.8,3.5,8,3.5c1.8,0,2.9-0.6,3.5-1.2c0.5-0.5,0.9-1.3,0.9-2.2c0-0.7-0.3-1.5-1-2.1
			c-0.9-0.8-2.2-1.1-4.5-1.8L656,74c-1.5-0.5-3.6-1.2-5-2.8c-1.8-1.9-2-4.4-2-6.1c0-4.3,1.7-6.9,3.2-8.4c1.8-1.8,4.7-3.3,8.9-3.3
			c3.4,0,7.4,1.1,10.7,2.8l-3.6,7c-2.7-2.1-4.7-2.3-5.9-2.3c-0.9,0-2.1,0.2-3,1c-0.5,0.5-0.9,1.1-0.9,1.9c0,0.6,0.1,1.1,0.5,1.6
			c0.3,0.3,0.9,0.9,3,1.6l2.8,0.8c2.2,0.7,4.5,1.5,6.3,3.4c1.8,1.9,2.2,3.8,2.2,6.2c0,3.2-0.8,6.2-3.3,8.7c-3,3-6.6,3.5-10.2,3.5
			c-2.2,0-4.3-0.2-6.8-1.1c-0.6-0.2-2.8-1-5.3-2.8L651.5,78.4z"/>
		<path class="st2" d="M686.4,65.6v13c0,0.9,0.2,2.4,1.2,3.4c0.8,0.7,1.9,0.9,2.9,0.9c1,0,2-0.1,3-1c1-1,1.2-2.2,1.2-3.3v-13h8.3
			v14.5c0,2-0.2,4.1-2.2,6.2c-2.9,3-6.9,3.3-10,3.3c-3.5,0-7.7-0.4-10.5-3.3c-1.8-1.9-2.2-4-2.2-6.2V65.6H686.4z"/>
		<path class="st2" d="M717.1,100.7h-8.3V65.6h8.3v2.5c1.5-1.8,3.7-3.3,7.1-3.3c3.6,0,6.4,1.5,8.3,3.4c1.9,1.9,3.5,5,3.5,9
			c0,3.9-1.5,7-3.7,9.2c-2.6,2.5-5.6,3.2-8,3.2c-1.5,0-4.6-0.3-7.2-3V100.7z M718.4,73.4c-1,1-1.6,2.5-1.6,3.8
			c0,1.4,0.7,2.8,1.6,3.7c1,1,2.3,1.6,3.7,1.6c1.5,0,2.8-0.6,3.7-1.6c0.9-0.9,1.6-2.3,1.6-3.7c0-1.3-0.6-2.8-1.6-3.8
			c-0.9-1-2.2-1.6-3.7-1.6C720.8,71.9,719.4,72.5,718.4,73.4z"/>
		<path class="st2" d="M765.5,78.7h-17.3c0,1.2,0.5,2.9,1.5,3.9c0.5,0.5,1.6,1.1,3.4,1.1c0.2,0,1.7-0.1,2.7-0.6
			c0.5-0.3,1.1-0.8,1.5-1.6h8c-0.4,1.3-1.1,3.1-2.8,4.8c-1.7,1.7-4.4,3.2-9.5,3.2c-3.1,0-6.8-0.7-9.6-3.5c-1.5-1.5-3.4-4.4-3.4-8.8
			c0-3.9,1.5-7,3.5-9c1.9-1.9,4.9-3.4,9.5-3.4c2.7,0,6.2,0.6,8.9,3.2c3.3,3.1,3.7,7.2,3.7,9.8V78.7z M757.8,74
			c-0.2-0.9-0.7-1.9-1.4-2.5c-1.1-1.1-2.6-1.2-3.4-1.2c-1.4,0-2.5,0.4-3.4,1.2c-0.6,0.6-1.1,1.5-1.2,2.5H757.8z"/>
		<path class="st2" d="M770.2,65.6h8.3v3.8c0.8-1.6,2-2.6,3.3-3.2c1.2-0.7,2.8-0.9,4.3-0.9c0.2,0,0.6,0.1,1.7,0.1v7.9
			c-0.4-0.2-1.6-0.8-3.6-0.8c-1.1,0-2.6,0.2-3.8,1.2c-1.8,1.6-1.9,4.1-1.9,5.3v9.9h-8.3V65.6z"/>
		<path class="st2" d="M798,65.6l5.6,11.9l5.7-11.9h9.3l-12.1,23.2h-5.7l-12-23.2H798z"/>
		<path class="st2" d="M825.5,51.2c2.6,0,4.7,2.1,4.7,4.7c0,2.6-2.1,4.7-4.7,4.7c-2.6,0-4.7-2.1-4.7-4.7
			C820.8,53.3,822.9,51.2,825.5,51.2z M829.6,65.6v23.2h-8.3V65.6H829.6z"/>
		<path class="st2" d="M836.8,81.1c1,0.7,2.2,1.4,3.3,1.7c1,0.4,2.3,0.6,3.2,0.6c0.6,0,1.6-0.2,2.1-0.6c0.4-0.4,0.4-0.7,0.4-1.1
			c0-0.4-0.1-0.7-0.4-1c-0.5-0.5-1.4-0.6-2.2-0.8l-2.2-0.5c-1.1-0.3-2.8-0.7-4.1-2c-0.9-0.9-1.5-2.2-1.5-4c0-2.2,0.9-4.3,2.2-5.7
			c1.8-1.8,4.9-2.8,8.3-2.8c3.4,0,6.1,0.9,7.4,1.5l-2.8,5.3c-1.1-0.5-2.9-1.1-4.4-1.1c-0.8,0-1.4,0.2-1.9,0.5
			c-0.5,0.3-0.7,0.6-0.7,1.1c0,0.7,0.5,1.1,1,1.3c0.8,0.3,1.5,0.3,2.8,0.7l1.5,0.4c1.1,0.3,2.8,1.1,3.4,1.8c1.1,1.1,1.8,2.9,1.8,4.6
			c0,2.8-1.2,4.7-2.3,5.8c-2.7,2.7-6.7,2.9-8.6,2.9c-2.1,0-5.4-0.3-9.4-2.7L836.8,81.1z"/>
		<path class="st2" d="M881.8,85.8c-3.1,3-6.7,3.8-10.4,3.8c-3.4,0-7.1-0.7-10.3-3.8c-2.5-2.5-3.6-5.5-3.6-8.6
			c0-4.2,1.9-6.9,3.6-8.5c1.9-1.9,5.3-3.8,10.3-3.8c5.1,0,8.5,2,10.4,3.8c1.7,1.7,3.6,4.4,3.6,8.5C885.4,80.3,884.3,83.3,881.8,85.8
			z M867.7,73.4c-1,1-1.6,2.4-1.6,3.8c0,1.4,0.7,2.8,1.6,3.7c1,1,2.3,1.6,3.7,1.6c1.4,0,2.7-0.6,3.7-1.6c1-1,1.6-2.3,1.6-3.7
			c0-1.2-0.6-2.8-1.6-3.8c-0.9-0.9-2.4-1.5-3.7-1.5C870.1,71.9,868.6,72.5,867.7,73.4z"/>
		<path class="st2" d="M890.2,65.6h8.3v3.8c0.8-1.6,2-2.6,3.3-3.2c1.2-0.7,2.8-0.9,4.3-0.9c0.2,0,0.6,0.1,1.7,0.1v7.9
			c-0.4-0.2-1.6-0.8-3.6-0.8c-1.1,0-2.6,0.2-3.8,1.2c-1.8,1.6-1.9,4.1-1.9,5.3v9.9h-8.3V65.6z"/>
		<path class="st2" d="M912.9,81.1c1,0.7,2.2,1.4,3.3,1.7c1,0.4,2.3,0.6,3.2,0.6c0.6,0,1.6-0.2,2.1-0.6c0.4-0.4,0.4-0.7,0.4-1.1
			c0-0.4-0.1-0.7-0.4-1c-0.5-0.5-1.4-0.6-2.2-0.8l-2.2-0.5c-1.1-0.3-2.8-0.7-4.1-2c-0.9-0.9-1.5-2.2-1.5-4c0-2.2,0.9-4.3,2.2-5.7
			c1.8-1.8,4.9-2.8,8.3-2.8c3.4,0,6.1,0.9,7.4,1.5l-2.8,5.3c-1.1-0.5-2.9-1.1-4.4-1.1c-0.8,0-1.4,0.2-1.9,0.5
			c-0.5,0.3-0.7,0.6-0.7,1.1c0,0.7,0.5,1.1,1,1.3c0.8,0.3,1.5,0.3,2.8,0.7l1.5,0.4c1.1,0.3,2.8,1.1,3.4,1.8c1.1,1.1,1.8,2.9,1.8,4.6
			c0,2.8-1.2,4.7-2.3,5.8c-2.7,2.7-6.7,2.9-8.6,2.9c-2.1,0-5.4-0.3-9.4-2.7L912.9,81.1z"/>
		<path class="st2" d="M937.1,80.2h7.8L936,96.6h-5.4L937.1,80.2z"/>
		<path class="st2" d="M159.4,148.8l5.9-34.7h8.9l7,18.5l7.4-18.5h9l5.2,34.7h-9l-2.5-20l-8.4,20h-3.6l-8-20l-3,20H159.4z"/>
		<path class="st2" d="M225.7,125.6h8.3v23.2h-8.3v-2.5c-1.9,2.7-4.9,3.3-7.2,3.3c-2.5,0-5.6-0.7-8.4-3.7c-2.2-2.4-3.3-5-3.3-8.5
			c0-4.4,1.7-7.4,3.6-9.3c2-2,5-3.3,8.4-3.3c3.7,0,6,1.9,7,3V125.6z M217,133.4c-1.1,1.1-1.7,2.6-1.7,3.8c0,1.4,0.6,2.8,1.6,3.8
			c0.9,0.8,2.3,1.6,3.7,1.6c1.4,0,2.7-0.6,3.7-1.6c0.7-0.7,1.6-1.9,1.6-3.7c0-1.1-0.3-2.5-1.6-3.8c-0.8-0.7-2-1.5-3.7-1.5
			C219.6,131.9,218.2,132.2,217,133.4z"/>
		<path class="st2" d="M239.8,125.6h8.3v2.9c2.3-3,5.4-3.4,7.4-3.4c2.4,0,4.9,0.6,6.9,2.5c2,2,2.2,4,2.2,6.5v14.8h-8.3v-11.8
			c0-1.4,0.1-3.4-1-4.5c-0.8-0.8-1.8-1-2.7-1c-1.3,0-2.4,0.5-3.1,1.1c-0.8,0.8-1.4,2.3-1.4,3.7v12.5h-8.3V125.6z"/>
		<path class="st2" d="M288.2,125.6h8.3v23.2h-8.3v-2.5c-1.9,2.7-4.9,3.3-7.2,3.3c-2.5,0-5.6-0.7-8.4-3.7c-2.2-2.4-3.3-5-3.3-8.5
			c0-4.4,1.7-7.4,3.6-9.3c2-2,5-3.3,8.4-3.3c3.7,0,6,1.9,7,3V125.6z M279.4,133.4c-1.1,1.1-1.7,2.6-1.7,3.8c0,1.4,0.6,2.8,1.6,3.8
			c0.9,0.8,2.3,1.6,3.7,1.6c1.4,0,2.7-0.6,3.7-1.6c0.7-0.7,1.6-1.9,1.6-3.7c0-1.1-0.3-2.5-1.6-3.8c-0.8-0.7-2-1.5-3.7-1.5
			C282,131.9,280.6,132.2,279.4,133.4z"/>
		<path class="st2" d="M328.4,125.6v21.8c0,3.5-0.3,6.7-3.2,9.6c-3,3-6.9,3.7-10.2,3.7c-4.3,0-7.9-1.1-10.9-4.1
			c-1.4-1.4-2.2-2.8-2.5-4.8h9.3c0.3,0.9,1.1,2.4,3.9,2.4c1.3,0,2.6-0.3,3.7-1.3c1.4-1.3,1.7-3,1.7-4.3v-2.3c-2.6,2.8-5.1,3.1-7,3.1
			c-4.3,0-7-1.7-8.6-3.3c-2.1-2.1-3.2-5.3-3.2-8.5c0-3.6,1.4-7,3.4-9.1c2.2-2.3,5.4-3.5,8.4-3.5c1.5,0,4.5,0.3,6.9,3.1v-2.4H328.4z
			 M311.4,133.4c-1.2,1.2-1.6,2.7-1.6,3.7c0,1.4,0.6,2.8,1.6,3.8c1.1,1.1,2.5,1.5,3.7,1.5c1.3,0,2.8-0.6,3.7-1.6
			c1-1,1.6-2.5,1.6-3.7c0-1.2-0.7-2.8-1.7-3.8c-0.9-0.9-2.3-1.5-3.7-1.5S312.5,132.3,311.4,133.4z"/>
		<path class="st2" d="M358.7,138.7h-17.3c0,1.2,0.5,2.9,1.5,3.9c0.5,0.5,1.6,1.1,3.4,1.1c0.2,0,1.7-0.1,2.7-0.6
			c0.5-0.3,1.1-0.8,1.5-1.6h8c-0.4,1.3-1.1,3.1-2.8,4.8c-1.7,1.7-4.4,3.2-9.5,3.2c-3.1,0-6.8-0.7-9.6-3.5c-1.5-1.5-3.4-4.4-3.4-8.8
			c0-3.9,1.5-7,3.5-9c1.9-1.9,4.9-3.4,9.5-3.4c2.7,0,6.2,0.6,8.9,3.2c3.3,3.1,3.7,7.2,3.7,9.8V138.7z M351.1,134
			c-0.2-0.9-0.7-1.9-1.4-2.5c-1.1-1.1-2.6-1.2-3.4-1.2c-1.4,0-2.5,0.4-3.4,1.2c-0.6,0.6-1.1,1.5-1.2,2.5H351.1z"/>
		<path class="st2" d="M363.5,125.6h8.3v3.8c0.8-1.6,2-2.6,3.3-3.2c1.2-0.7,2.8-0.9,4.3-0.9c0.2,0,0.6,0.1,1.7,0.1v7.9
			c-0.4-0.2-1.6-0.8-3.6-0.8c-1.1,0-2.6,0.2-3.8,1.2c-1.8,1.6-1.9,4.1-1.9,5.3v9.9h-8.3V125.6z"/>
		<path class="st2" d="M386.3,141.1c1,0.7,2.2,1.4,3.3,1.7c1,0.4,2.3,0.6,3.2,0.6c0.6,0,1.6-0.2,2.1-0.6c0.4-0.4,0.4-0.7,0.4-1.1
			c0-0.4-0.1-0.7-0.4-1c-0.5-0.5-1.4-0.6-2.2-0.8l-2.2-0.5c-1.1-0.3-2.8-0.7-4.1-2c-0.9-0.9-1.5-2.2-1.5-4c0-2.2,0.9-4.3,2.2-5.7
			c1.8-1.8,4.9-2.8,8.3-2.8c3.4,0,6.1,0.9,7.4,1.5l-2.8,5.3c-1.1-0.5-2.9-1.1-4.4-1.1c-0.8,0-1.4,0.2-1.9,0.5
			c-0.5,0.3-0.7,0.6-0.7,1.1c0,0.7,0.5,1.1,1,1.3c0.8,0.3,1.5,0.3,2.8,0.7l1.5,0.4c1.1,0.3,2.8,1.1,3.4,1.8c1.1,1.1,1.8,2.9,1.8,4.6
			c0,2.8-1.2,4.7-2.3,5.8c-2.7,2.7-6.7,2.9-8.6,2.9c-2.1,0-5.4-0.3-9.4-2.7L386.3,141.1z"/>
		<path class="st2" d="M410.5,140.2h7.8l-8.9,16.4H404L410.5,140.2z"/>
		<path class="st2" d="M438.9,138.4c1.9,1.8,4.8,3.5,8,3.5c1.8,0,2.9-0.6,3.5-1.2c0.5-0.5,0.9-1.3,0.9-2.2c0-0.7-0.3-1.5-1-2.1
			c-0.9-0.8-2.2-1.1-4.5-1.8l-2.3-0.7c-1.5-0.5-3.6-1.2-5-2.8c-1.8-1.9-2-4.4-2-6.1c0-4.3,1.7-6.9,3.2-8.4c1.8-1.8,4.7-3.3,8.9-3.3
			c3.4,0,7.4,1.1,10.7,2.8l-3.6,7c-2.7-2.1-4.7-2.3-5.9-2.3c-0.9,0-2.1,0.2-3,1c-0.5,0.5-0.9,1.1-0.9,1.9c0,0.6,0.1,1.1,0.5,1.6
			c0.3,0.3,0.9,0.9,3,1.6l2.8,0.8c2.2,0.7,4.5,1.5,6.3,3.4c1.8,1.9,2.2,3.8,2.2,6.2c0,3.2-0.8,6.2-3.3,8.7c-3,3-6.6,3.5-10.2,3.5
			c-2.2,0-4.3-0.2-6.8-1.1c-0.6-0.2-2.8-1-5.3-2.8L438.9,138.4z"/>
		<path class="st2" d="M490.2,138.7h-17.3c0,1.2,0.5,2.9,1.5,3.9c0.5,0.5,1.6,1.1,3.4,1.1c0.2,0,1.7-0.1,2.7-0.6
			c0.5-0.3,1.1-0.8,1.5-1.6h8c-0.4,1.3-1.1,3.1-2.8,4.8s-4.4,3.2-9.5,3.2c-3.1,0-6.8-0.7-9.6-3.5c-1.5-1.5-3.4-4.4-3.4-8.8
			c0-3.9,1.5-7,3.5-9c1.9-1.9,4.9-3.4,9.5-3.4c2.7,0,6.2,0.6,8.9,3.2c3.3,3.1,3.7,7.2,3.7,9.8V138.7z M482.6,134
			c-0.2-0.9-0.7-1.9-1.4-2.5c-1.1-1.1-2.6-1.2-3.4-1.2c-1.4,0-2.5,0.4-3.4,1.2c-0.6,0.6-1.1,1.5-1.2,2.5H482.6z"/>
		<path class="st2" d="M495,125.6h8.3v2.9c2.3-3,5.4-3.4,7.4-3.4c2.4,0,4.9,0.6,6.9,2.5c2,2,2.2,4,2.2,6.5v14.8h-8.3v-11.8
			c0-1.4,0.1-3.4-1-4.5c-0.8-0.8-1.8-1-2.7-1c-1.3,0-2.4,0.5-3.1,1.1c-0.8,0.8-1.4,2.3-1.4,3.7v12.5H495V125.6z"/>
		<path class="st2" d="M529.6,111.2c2.6,0,4.7,2.1,4.7,4.7c0,2.6-2.1,4.7-4.7,4.7c-2.6,0-4.7-2.1-4.7-4.7
			C524.9,113.3,527,111.2,529.6,111.2z M533.7,125.6v23.2h-8.3v-23.2H533.7z"/>
		<path class="st2" d="M562.8,145.8c-3.1,3-6.7,3.8-10.4,3.8c-3.4,0-7.1-0.7-10.3-3.8c-2.5-2.5-3.6-5.5-3.6-8.6
			c0-4.2,1.9-6.9,3.6-8.5c1.9-1.9,5.3-3.8,10.3-3.8c5.1,0,8.5,2,10.4,3.8c1.7,1.7,3.6,4.4,3.6,8.5
			C566.4,140.3,565.3,143.3,562.8,145.8z M548.7,133.4c-1,1-1.6,2.4-1.6,3.8c0,1.4,0.7,2.8,1.6,3.7c1,1,2.3,1.6,3.7,1.6
			c1.4,0,2.7-0.6,3.7-1.6c1-1,1.6-2.3,1.6-3.7c0-1.2-0.6-2.8-1.6-3.8c-0.9-0.9-2.4-1.5-3.7-1.5C551.1,131.9,549.6,132.5,548.7,133.4
			z"/>
		<path class="st2" d="M571.2,125.6h8.3v3.8c0.8-1.6,2-2.6,3.3-3.2c1.2-0.7,2.8-0.9,4.3-0.9c0.2,0,0.6,0.1,1.7,0.1v7.9
			c-0.4-0.2-1.6-0.8-3.6-0.8c-1.1,0-2.6,0.2-3.8,1.2c-1.8,1.6-1.9,4.1-1.9,5.3v9.9h-8.3V125.6z"/>
		<path class="st2" d="M603.8,148.8l5.9-34.7h8.9l7,18.5l7.4-18.5h9l5.2,34.7h-9l-2.5-20l-8.4,20h-3.6l-8-20l-3,20H603.8z"/>
		<path class="st2" d="M670.1,125.6h8.3v23.2h-8.3v-2.5c-1.9,2.7-4.9,3.3-7.2,3.3c-2.5,0-5.6-0.7-8.4-3.7c-2.2-2.4-3.3-5-3.3-8.5
			c0-4.4,1.7-7.4,3.6-9.3c2-2,5-3.3,8.4-3.3c3.7,0,6,1.9,7,3V125.6z M661.4,133.4c-1.1,1.1-1.7,2.6-1.7,3.8c0,1.4,0.6,2.8,1.6,3.8
			c0.9,0.8,2.3,1.6,3.7,1.6c1.4,0,2.7-0.6,3.7-1.6c0.7-0.7,1.6-1.9,1.6-3.7c0-1.1-0.3-2.5-1.6-3.8c-0.8-0.7-2-1.5-3.7-1.5
			C664,131.9,662.6,132.2,661.4,133.4z"/>
		<path class="st2" d="M684.2,125.6h8.3v2.9c2.3-3,5.4-3.4,7.4-3.4c2.4,0,4.9,0.6,6.9,2.5c2,2,2.2,4,2.2,6.5v14.8h-8.3v-11.8
			c0-1.4,0.1-3.4-1-4.5c-0.8-0.8-1.8-1-2.7-1c-1.3,0-2.4,0.5-3.1,1.1c-0.8,0.8-1.4,2.3-1.4,3.7v12.5h-8.3V125.6z"/>
		<path class="st2" d="M732.6,125.6h8.3v23.2h-8.3v-2.5c-1.9,2.7-4.9,3.3-7.2,3.3c-2.5,0-5.6-0.7-8.4-3.7c-2.2-2.4-3.3-5-3.3-8.5
			c0-4.4,1.7-7.4,3.6-9.3c2-2,5-3.3,8.4-3.3c3.7,0,6,1.9,7,3V125.6z M723.8,133.4c-1.1,1.1-1.7,2.6-1.7,3.8c0,1.4,0.6,2.8,1.6,3.8
			c0.9,0.8,2.3,1.6,3.7,1.6c1.4,0,2.7-0.6,3.7-1.6c0.7-0.7,1.6-1.9,1.6-3.7c0-1.1-0.3-2.5-1.6-3.8c-0.8-0.7-2-1.5-3.7-1.5
			C726.4,131.9,725,132.2,723.8,133.4z"/>
		<path class="st2" d="M772.8,125.6v21.8c0,3.5-0.3,6.7-3.2,9.6c-3,3-6.9,3.7-10.2,3.7c-4.3,0-7.9-1.1-10.9-4.1
			c-1.4-1.4-2.2-2.8-2.5-4.8h9.3c0.3,0.9,1.1,2.4,3.9,2.4c1.3,0,2.6-0.3,3.7-1.3c1.4-1.3,1.7-3,1.7-4.3v-2.3c-2.6,2.8-5.1,3.1-7,3.1
			c-4.3,0-7-1.7-8.6-3.3c-2.1-2.1-3.2-5.3-3.2-8.5c0-3.6,1.4-7,3.4-9.1c2.2-2.3,5.4-3.5,8.4-3.5c1.5,0,4.5,0.3,6.9,3.1v-2.4H772.8z
			 M755.8,133.4c-1.2,1.2-1.6,2.7-1.6,3.7c0,1.4,0.6,2.8,1.6,3.8c1.1,1.1,2.5,1.5,3.7,1.5c1.3,0,2.8-0.6,3.7-1.6
			c1-1,1.6-2.5,1.6-3.7c0-1.2-0.7-2.8-1.7-3.8c-0.9-0.9-2.3-1.5-3.7-1.5C758.1,131.8,756.9,132.3,755.8,133.4z"/>
		<path class="st2" d="M803.1,138.7h-17.3c0,1.2,0.5,2.9,1.5,3.9c0.5,0.5,1.6,1.1,3.4,1.1c0.2,0,1.7-0.1,2.7-0.6
			c0.5-0.3,1.1-0.8,1.5-1.6h8c-0.4,1.3-1.1,3.1-2.8,4.8s-4.4,3.2-9.5,3.2c-3.1,0-6.8-0.7-9.6-3.5c-1.5-1.5-3.4-4.4-3.4-8.8
			c0-3.9,1.5-7,3.5-9c1.9-1.9,4.9-3.4,9.5-3.4c2.7,0,6.2,0.6,8.9,3.2c3.3,3.1,3.7,7.2,3.7,9.8V138.7z M795.5,134
			c-0.2-0.9-0.7-1.9-1.4-2.5c-1.1-1.1-2.6-1.2-3.4-1.2c-1.4,0-2.5,0.4-3.4,1.2c-0.6,0.6-1.1,1.5-1.2,2.5H795.5z"/>
		<path class="st2" d="M807.9,125.6h8.3v3.8c0.8-1.6,2-2.6,3.3-3.2c1.2-0.7,2.8-0.9,4.3-0.9c0.2,0,0.6,0.1,1.7,0.1v7.9
			c-0.4-0.2-1.6-0.8-3.6-0.8c-1.1,0-2.6,0.2-3.8,1.2c-1.8,1.6-1.9,4.1-1.9,5.3v9.9h-8.3V125.6z"/>
		<path class="st2" d="M830.7,141.1c1,0.7,2.2,1.4,3.3,1.7c1,0.4,2.3,0.6,3.2,0.6c0.6,0,1.6-0.2,2.1-0.6c0.4-0.4,0.4-0.7,0.4-1.1
			c0-0.4-0.1-0.7-0.4-1c-0.5-0.5-1.4-0.6-2.2-0.8l-2.2-0.5c-1.1-0.3-2.8-0.7-4.1-2c-0.9-0.9-1.5-2.2-1.5-4c0-2.2,0.9-4.3,2.2-5.7
			c1.8-1.8,4.9-2.8,8.3-2.8c3.4,0,6.1,0.9,7.4,1.5l-2.8,5.3c-1.1-0.5-2.9-1.1-4.4-1.1c-0.8,0-1.4,0.2-1.9,0.5
			c-0.5,0.3-0.7,0.6-0.7,1.1c0,0.7,0.5,1.1,1,1.3c0.8,0.3,1.5,0.3,2.8,0.7l1.5,0.4c1.1,0.3,2.8,1.1,3.4,1.8c1.1,1.1,1.8,2.9,1.8,4.6
			c0,2.8-1.2,4.7-2.3,5.8c-2.7,2.7-6.7,2.9-8.6,2.9c-2.1,0-5.4-0.3-9.4-2.7L830.7,141.1z"/>
	</g>
	<g>
		<defs>
			<circle id="SVGID_00000078015874309920789100000003941727494020616855_" cx="2516.9" cy="616.9" r="412"/>
		</defs>
		
			<use xlink:href="#SVGID_00000078015874309920789100000003941727494020616855_"  style="overflow:visible;opacity:0.51;fill:#4274BA;"/>
		<clipPath id="SVGID_00000156565608505314949050000011312765187252139654_">
			<use xlink:href="#SVGID_00000078015874309920789100000003941727494020616855_"  style="overflow:visible;opacity:0.51;"/>
		</clipPath>
		<polygon style="clip-path:url(#SVGID_00000156565608505314949050000011312765187252139654_);fill:#4274BA;" points="2516.9,131.6 
			2516.9,616.9 3070.9,656.9 2416.9,1472.9 1954.9,456.9 		"/>
	</g>
	<circle class="st1" cx="2516.9" cy="616.9" r="225"/>
	<g>
		<path d="M2407.6,603.2h-32.3l16.6-20.2c1.7-2,4.2-5.2,5.8-7.5c1.4-2,2.5-4.1,2.5-6.9c0-4-2.7-7.8-8-7.8c-5.4,0-8.2,4.2-8.5,8.7
			h-7.1c0.2-4.7,2.2-8.4,4-10.5c1.7-1.9,5.2-4.7,11.2-4.7c10.2,0,15.5,7,15.5,14.5c0,4-1.5,7.2-3.5,10.1c-1.7,2.6-4,5.3-6.8,8.6
			l-7.5,8.9h17.9V603.2z"/>
		<path d="M2418.7,567.5c0.2-3.9,1.9-7.2,4.1-9.4c3.3-3.2,7.3-3.7,10.5-3.7c3.7,0,7.3,0.7,10.4,4c2.5,2.6,3.5,5.7,3.5,9.1
			c0,2.3-0.4,4.3-1.7,6.3c-1.3,2.1-3,3.3-4.3,4c2.4,0.9,4,2.6,4.8,3.8c1.4,2,2,4.7,2,7.4c0,4.8-1.8,8.4-4.1,10.7
			c-3.5,3.5-8,4.2-11.7,4.2c-3.7,0-7.6-0.7-10.7-4c-2.2-2.3-3.7-6.1-4.1-9.8h7.1c0.4,2.2,1.4,4,2.6,5.2c1,0.9,2.8,2.2,5.8,2.2
			c2.2,0,4.3-0.9,5.6-2c1.4-1.3,2.5-3.5,2.5-6.8c0-1.6-0.3-3.9-2.2-5.7c-2.1-2-4.7-2.2-6.2-2.2h-1.4v-6.2h1c3.1,0,5-1,6.1-2.1
			c1.2-1.2,1.9-3,1.9-5.1c0-2.5-1.1-4-1.9-4.8c-1.7-1.6-3.7-1.8-5.1-1.8c-1.7,0-3.7,0.3-5.3,1.9c-1.7,1.7-2,4.3-2,4.6H2418.7z"/>
		<path d="M2480.2,566.1c0,6.1-5.2,11.3-11.6,11.3c-6.4,0-11.6-5.2-11.6-11.3c0-6.2,5.3-11.3,11.6-11.3
			C2475,554.8,2480.2,559.9,2480.2,566.1z M2474.6,566.1c0-2.8-2-6.1-6-6.1c-4,0-6,3.3-6,6.1c0,2.8,2,6.1,6,6.1
			C2472.6,572.2,2474.6,568.9,2474.6,566.1z M2495.9,554.4l3.4,1.9l-27.4,47.7l-3.4-2.1L2495.9,554.4z M2510.6,592.4
			c0,6.1-5.2,11.3-11.6,11.3s-11.6-5.2-11.6-11.3c0-6.2,5.3-11.3,11.6-11.3C2505.4,581.1,2510.6,586.2,2510.6,592.4z M2505,592.4
			c0-2.8-2-6.1-6-6.1c-4,0-6,3.3-6,6.1c0,2.8,2,6.1,6,6.1C2503,598.6,2505,595.2,2505,592.4z"/>
		<path d="M2546.1,555.2c3,0,7.1,0.3,10.5,2.6c4,2.7,6,7.3,6,11.7c0,2.8-0.7,7.1-4.7,10.5c-3.8,3.2-8.2,3.7-11.7,3.7h-3.3v19.5h-7.3
			v-48H2546.1z M2542.9,577h3.3c6.3,0,9.4-3.1,9.4-7.6c0-2.7-1.1-7.4-9.4-7.4h-3.2V577z"/>
		<path d="M2617.7,579.3c0,14.1-10.6,24.9-25,24.9s-25-10.8-25-24.9s10.6-24.9,25-24.9S2617.7,565.1,2617.7,579.3z M2610.4,579.3
			c0-10.7-7.3-18.1-17.6-18.1s-17.6,7.5-17.6,18.1s7.3,18.1,17.6,18.1S2610.4,589.9,2610.4,579.3z"/>
		<path d="M2662.5,566.4c-5.3-4.8-10.3-5.3-13-5.3c-10.4,0-17.5,7.7-17.5,18.3c0,10.2,7.3,18,17.6,18c5.8,0,10.2-3,13-5.5v8.7
			c-4.8,2.9-9.9,3.6-13.2,3.6c-8.7,0-14.2-4-17-6.6c-5.6-5.3-7.7-11.4-7.7-18.1c0-8.9,3.7-15,7.7-18.8c5-4.7,10.7-6.3,17.4-6.3
			c4.4,0,8.6,0.8,12.8,3.5V566.4z"/>
		<path d="M2384.1,648.4h-23.6v-6.8h35.7l-30.2,49.7l-5.8-3.6L2384.1,648.4z"/>
		<path d="M2425,648.4h-23.6v-6.8h35.7l-30.2,49.7l-5.8-3.6L2425,648.4z"/>
		<path d="M2464,652.5c0,6.1-5.2,11.3-11.6,11.3c-6.4,0-11.6-5.2-11.6-11.3c0-6.2,5.3-11.3,11.6-11.3
			C2458.7,641.2,2464,646.3,2464,652.5z M2458.3,652.5c0-2.8-2-6.1-6-6.1c-4,0-6,3.3-6,6.1s2,6.1,6,6.1
			C2456.3,658.6,2458.3,655.3,2458.3,652.5z M2479.6,640.8l3.4,1.9l-27.4,47.7l-3.4-2.1L2479.6,640.8z M2494.3,678.8
			c0,6.1-5.2,11.3-11.6,11.3c-6.4,0-11.6-5.2-11.6-11.3c0-6.2,5.3-11.3,11.6-11.3C2489.1,667.5,2494.3,672.6,2494.3,678.8z
			 M2488.7,678.8c0-2.8-2-6.1-6-6.1c-4,0-6,3.3-6,6.1c0,2.8,2,6.1,6,6.1C2486.7,685,2488.7,681.6,2488.7,678.8z"/>
		<path d="M2521.7,641.6l12.7,32.1l13-34.4l12.5,34.4l13.1-32.1h7.9l-21.5,51.1l-12.5-34.1l-12.7,34.1l-20.5-51.1H2521.7z"/>
		<path d="M2583.5,637.1h7.1v24.8c3-3.1,6.3-3.4,8.1-3.4c5.5,0,8.1,2.9,8.9,4.1c1.9,2.7,1.9,6.3,1.9,8.4v18.6h-7.1v-17.9
			c0-1.8,0-3.7-1.4-5.3c-0.8-0.9-2.2-1.6-4-1.6c-2.4,0-4.2,1.2-5.2,2.5c-1,1.4-1.4,3.7-1.4,7.6v14.6h-7.1V637.1z"/>
		<path d="M2622,642.3c2.6,0,4.5,1.9,4.5,4.5s-1.9,4.5-4.5,4.5c-2.6,0-4.5-1.9-4.5-4.5S2619.4,642.3,2622,642.3z M2625.5,659.3v30.3
			h-7.1v-30.3H2625.5z"/>
		<path d="M2641.7,665.8v23.8h-7.1v-23.8h-3v-6.5h3v-11.1h7.1v11.1h5.4v6.5H2641.7z"/>
		<path d="M2679,682.7c-1.3,2.3-3.2,4.3-5.1,5.5c-2.4,1.6-5.7,2.3-8.9,2.3c-4,0-7.3-1-10.2-3.9s-4.5-7.1-4.5-11.6
			c0-4.7,1.7-9.2,4.8-12.5c2.5-2.5,5.8-4.1,10.2-4.1c4.8,0,7.9,2.1,9.7,4c3.9,4,4.2,9.6,4.2,12.8v0.9h-21.7c0.1,2.2,1.1,4.6,2.6,6.1
			c1.7,1.7,3.7,1.9,5.4,1.9c1.9,0,3.4-0.4,4.8-1.5c1.2-0.9,2.2-2.2,2.8-3.3L2679,682.7z M2672,670.4c-0.3-1.7-1.1-3.1-2.2-4.1
			c-0.9-0.9-2.4-1.7-4.8-1.7c-2.4,0-4,1-5,1.9c-1,0.9-1.8,2.4-2.2,3.9H2672z"/>
	</g>
	<g>
		<g>
			<path class="st2" d="M2373.7,82l8.3,21.1l8.4-21.1h9.8l-14.8,34.7h-7L2363.9,82H2373.7z"/>
			<path class="st2" d="M2412.9,105.2v11.5h-9V82h14.4c3,0,6.1,0.6,8.8,3.1c2.7,2.6,3.2,5.5,3.2,8.4c0,2.8-0.4,6-3.1,8.6
				c-2.7,2.7-5.9,3-8.6,3H2412.9z M2412.9,97.9h3c0.9,0,2.7-0.1,3.8-1.1c1.1-0.9,1.1-2.3,1.1-3.2c0-0.9-0.1-2.2-1-3.1
				c-1-1.1-2.7-1.2-3.8-1.2h-3.1V97.9z"/>
			<path class="st2" d="M2434.4,109c1,0.7,2.2,1.4,3.3,1.7c1,0.4,2.3,0.6,3.2,0.6c0.6,0,1.6-0.2,2.1-0.6c0.4-0.4,0.4-0.7,0.4-1.1
				c0-0.4-0.1-0.7-0.4-1c-0.5-0.5-1.4-0.6-2.2-0.8l-2.2-0.5c-1.1-0.3-2.8-0.7-4.1-2c-0.9-0.9-1.5-2.2-1.5-4c0-2.2,0.9-4.3,2.2-5.7
				c1.8-1.8,4.9-2.8,8.3-2.8s6.1,0.9,7.4,1.5l-2.8,5.3c-1.1-0.5-2.9-1.1-4.4-1.1c-0.8,0-1.4,0.2-1.9,0.5c-0.5,0.3-0.7,0.6-0.7,1.1
				c0,0.7,0.5,1.1,1,1.3c0.8,0.3,1.5,0.3,2.8,0.7l1.5,0.4c1.1,0.3,2.8,1.1,3.4,1.8c1.1,1.1,1.8,2.9,1.8,4.6c0,2.8-1.2,4.7-2.3,5.8
				c-2.7,2.7-6.7,2.9-8.6,2.9c-2.1,0-5.4-0.3-9.4-2.7L2434.4,109z"/>
			<path class="st2" d="M2501.6,103.4c-1.4,1.8-3,3.4-4.7,5l7.7,8.2h-11.2l-3-3.2c-4.7,3.4-9.1,4-11.6,4c-2.4,0-5.9-0.4-8.5-2.9
				c-1.7-1.6-2.8-4-2.8-6.9c0-3.4,1.5-5.5,2.6-6.7c1.4-1.4,3.7-2.7,5.7-3.4c-0.7-0.8-1.5-1.8-2-2.8c-0.8-1.3-1.2-2.5-1.2-4.3
				c0-2.3,1-4.7,2.7-6.3c2.6-2.7,6-3.1,8.2-3.1c4.2,0,6.7,1.6,8.1,2.9c1.9,1.8,2.8,4.3,2.8,6.5c0,2.1-0.8,4-2.4,5.6
				c-1.1,1.1-2.5,2.1-4.1,2.7l4.4,4.6c1.5-1.4,3.1-3.1,4.5-4.9L2501.6,103.4z M2479.9,102.1c-0.4,0.2-3.3,1.7-3.3,4.1
				c0,0.8,0.3,1.7,1,2.3c0.9,0.8,2.1,1,3,1c1.1,0,2.8-0.3,4.7-1.5L2479.9,102.1z M2481.9,92.5c0.5,0.7,1.2,1.5,1.8,2.1
				c0.8-0.4,1.6-1,2.1-1.6c0.8-0.9,1.1-1.8,1.1-2.5c0-1.1-0.4-1.9-0.9-2.4c-0.5-0.5-1.2-0.8-2.1-0.8c-0.7,0-1.4,0.2-2,0.7
				c-0.8,0.7-0.9,1.5-0.9,2.1C2480.9,91.1,2481.4,91.9,2481.9,92.5z"/>
			<path class="st2" d="M2541.5,110.8h-12.6l-2.3,5.8h-9.5l13.3-34.7h9.8l13.1,34.7h-9.6L2541.5,110.8z M2539.1,104l-3.9-11.2
				l-3.8,11.2H2539.1z"/>
			<path class="st2" d="M2564.8,78.7v16.9c1.5-1.6,3.7-3,6.9-3c2.9,0,5.9,0.9,8.2,3.1c2.1,2,3.8,5.3,3.8,9.2c0,3.7-1.4,7-3.7,9.3
				c-2.2,2.1-4.8,3.2-8.2,3.2c-1.6,0-4.7-0.3-7-3.3v2.5h-8.3V78.7H2564.8z M2573.6,108.8c1.1-1.1,1.6-2.4,1.6-3.6c0-1.6-0.7-3-1.6-4
				c-0.7-0.7-1.9-1.5-3.7-1.5c-1.6,0-2.9,0.6-3.8,1.6c-0.8,0.9-1.6,2.4-1.6,3.7c0,1.4,0.7,3,1.8,4c0.9,0.8,2.2,1.4,3.6,1.4
				C2571.1,110.4,2572.4,109.9,2573.6,108.8z"/>
			<path class="st2" d="M2611.9,113.6c-3.1,3-6.7,3.8-10.4,3.8c-3.4,0-7.1-0.7-10.3-3.8c-2.5-2.5-3.6-5.5-3.6-8.6
				c0-4.2,1.9-6.9,3.6-8.5c1.9-1.9,5.3-3.8,10.3-3.8c5.1,0,8.5,2,10.4,3.8c1.7,1.7,3.6,4.4,3.6,8.5
				C2615.5,108.1,2614.5,111.1,2611.9,113.6z M2597.8,101.2c-1,1-1.6,2.4-1.6,3.8c0,1.4,0.7,2.8,1.6,3.7c1,1,2.3,1.6,3.7,1.6
				c1.4,0,2.7-0.6,3.7-1.6c1-1,1.6-2.3,1.6-3.7c0-1.2-0.6-2.8-1.6-3.8c-0.9-0.9-2.4-1.5-3.7-1.5
				C2600.2,99.7,2598.8,100.3,2597.8,101.2z"/>
			<path class="st2" d="M2626.2,93.4l5.6,11.9l5.7-11.9h9.3l-12.1,23.2h-5.7l-12-23.2H2626.2z"/>
			<path class="st2" d="M2672.9,106.6h-17.3c0,1.2,0.5,2.9,1.5,3.9c0.5,0.5,1.6,1.1,3.4,1.1c0.2,0,1.7-0.1,2.7-0.6
				c0.5-0.3,1.1-0.8,1.5-1.6h8c-0.4,1.3-1.1,3.1-2.8,4.8s-4.4,3.2-9.5,3.2c-3.1,0-6.8-0.7-9.6-3.5c-1.5-1.5-3.4-4.4-3.4-8.8
				c0-3.9,1.5-7,3.5-9c1.9-1.9,4.9-3.4,9.5-3.4c2.7,0,6.2,0.6,8.9,3.2c3.3,3.1,3.7,7.2,3.7,9.8V106.6z M2665.3,101.8
				c-0.2-0.9-0.7-1.9-1.4-2.5c-1.1-1.1-2.6-1.2-3.4-1.2c-1.4,0-2.5,0.4-3.4,1.2c-0.6,0.6-1.1,1.5-1.2,2.5H2665.3z"/>
		</g>
	</g>
	<g>
		<defs>
			<circle id="SVGID_00000090275260953030450910000004192890625323985049_" cx="1504.9" cy="616.9" r="412"/>
		</defs>
		
			<use xlink:href="#SVGID_00000090275260953030450910000004192890625323985049_"  style="overflow:visible;opacity:0.51;fill:#4274BA;"/>
		<clipPath id="SVGID_00000039120762172101556550000018026412906852939692_">
			<use xlink:href="#SVGID_00000090275260953030450910000004192890625323985049_"  style="overflow:visible;opacity:0.51;"/>
		</clipPath>
		<polygon style="clip-path:url(#SVGID_00000039120762172101556550000018026412906852939692_);fill:#4274BA;" points="1557.9,129.9 
			1504.9,616.9 2066.9,841.9 1144.9,1298.9 1004.9,116.9 		"/>
	</g>
	<circle class="st1" cx="1504.9" cy="616.9" r="225"/>
	<g>
		<path d="M1365.8,567.5c0.2-3.9,1.9-7.2,4.1-9.4c3.3-3.2,7.3-3.7,10.5-3.7c3.7,0,7.3,0.7,10.4,4c2.5,2.6,3.5,5.7,3.5,9.1
			c0,2.3-0.4,4.3-1.7,6.3c-1.3,2.1-3,3.3-4.3,4c2.4,0.9,4,2.6,4.8,3.8c1.4,2,2,4.7,2,7.4c0,4.8-1.8,8.4-4.1,10.7
			c-3.5,3.5-8,4.2-11.7,4.2c-3.7,0-7.6-0.7-10.7-4c-2.2-2.3-3.7-6.1-4.1-9.8h7.1c0.4,2.2,1.4,4,2.6,5.2c1,0.9,2.8,2.2,5.8,2.2
			c2.2,0,4.3-0.9,5.6-2c1.4-1.3,2.5-3.5,2.5-6.8c0-1.6-0.3-3.9-2.2-5.7c-2.1-2-4.7-2.2-6.2-2.2h-1.4v-6.2h1c3.1,0,5-1,6.1-2.1
			c1.2-1.2,1.9-3,1.9-5.1c0-2.5-1.1-4-1.9-4.8c-1.7-1.6-3.7-1.8-5.1-1.8c-1.7,0-3.7,0.3-5.3,1.9c-1.7,1.7-2,4.3-2,4.6H1365.8z"/>
		<path d="M1436.1,562h-14.8l-2.4,8c0.7-0.1,1.5-0.1,2.2-0.1c4,0,8.1,1.4,11.1,4.2c2.3,2.2,4.7,6,4.7,12.3c0,5.3-1.7,9.5-4.9,12.7
			c-3.8,3.7-8.4,4.9-13.3,4.9c-2.8,0-6.1-0.4-9.2-2.2c-0.7-0.4-3.5-2.1-5.7-5.5l5.5-4.6c0.1,0.4,1.4,2.7,3.7,4.2
			c1.6,1.1,3.8,1.7,6.3,1.7c3.9,0,6.1-1.5,7.3-2.7c1.4-1.4,3.1-4,3.1-8.1c0-4-1.4-6.3-2.9-7.8c-2.4-2.2-5.5-2.7-7.8-2.7
			c-2.1,0-3.7,0.3-5.6,1c-1.5,0.6-2.9,1.2-4.2,2.2l7.1-24.3h19.9V562z"/>
		<path d="M1468.2,566.1c0,6.1-5.2,11.3-11.6,11.3c-6.4,0-11.6-5.2-11.6-11.3c0-6.2,5.3-11.3,11.6-11.3
			C1463,554.8,1468.2,559.9,1468.2,566.1z M1462.6,566.1c0-2.8-2-6.1-6-6.1c-4,0-6,3.3-6,6.1c0,2.8,2,6.1,6,6.1
			C1460.6,572.2,1462.6,568.9,1462.6,566.1z M1483.9,554.4l3.4,1.9l-27.4,47.7l-3.4-2.1L1483.9,554.4z M1498.6,592.4
			c0,6.1-5.2,11.3-11.6,11.3s-11.6-5.2-11.6-11.3c0-6.2,5.3-11.3,11.6-11.3C1493.4,581.1,1498.6,586.2,1498.6,592.4z M1493,592.4
			c0-2.8-2-6.1-6-6.1c-4,0-6,3.3-6,6.1c0,2.8,2,6.1,6,6.1C1491,598.6,1493,595.2,1493,592.4z"/>
		<path d="M1534.1,555.2c3,0,7.1,0.3,10.5,2.6c4,2.7,6,7.3,6,11.7c0,2.8-0.7,7.1-4.7,10.5c-3.8,3.2-8.2,3.7-11.7,3.7h-3.3v19.5h-7.3
			v-48H1534.1z M1530.9,577h3.3c6.3,0,9.4-3.1,9.4-7.6c0-2.7-1.1-7.4-9.4-7.4h-3.2V577z"/>
		<path d="M1605.7,579.3c0,14.1-10.6,24.9-25,24.9s-25-10.8-25-24.9s10.6-24.9,25-24.9S1605.7,565.1,1605.7,579.3z M1598.4,579.3
			c0-10.7-7.3-18.1-17.6-18.1s-17.6,7.5-17.6,18.1s7.3,18.1,17.6,18.1S1598.4,589.9,1598.4,579.3z"/>
		<path d="M1650.5,566.4c-5.3-4.8-10.3-5.3-13-5.3c-10.4,0-17.5,7.7-17.5,18.3c0,10.2,7.3,18,17.6,18c5.8,0,10.2-3,13-5.5v8.7
			c-4.8,2.9-9.9,3.6-13.2,3.6c-8.7,0-14.2-4-17-6.6c-5.6-5.3-7.7-11.4-7.7-18.1c0-8.9,3.7-15,7.7-18.8c5-4.7,10.7-6.3,17.4-6.3
			c4.4,0,8.6,0.8,12.8,3.5V566.4z"/>
		<path d="M1375,643.9l-11.4,14.5c1.1-0.2,2-0.3,3-0.3c5.6,0,9.1,2.4,11.1,4.5c2.6,2.7,4.2,6.8,4.2,11.2c0,4.2-1.5,8.9-4.8,12.1
			c-4,4-9.2,4.5-12.4,4.5c-4.2,0-8.7-0.9-12.4-4.7c-2.5-2.7-4.2-6.2-4.2-10.9c0-3.5,0.8-6.3,2.3-9.2c1.8-3.6,3.7-5.8,5.8-8.6
			l13.3-17.1L1375,643.9z M1358.2,667c-1.6,1.5-2.8,4.1-2.8,7.1c0,2.4,0.9,5.3,2.8,7.1c1.5,1.4,4.4,2.7,6.9,2.7c2.2,0,5-0.9,6.8-2.7
			c1.8-1.8,2.8-4.7,2.8-7.1s-1-5.3-2.8-7.1c-1.7-1.7-4.3-2.7-6.8-2.7C1362.7,664.4,1359.9,665.4,1358.2,667z"/>
		<path d="M1419.8,648.4H1405l-2.4,8c0.7-0.1,1.5-0.1,2.2-0.1c4,0,8.1,1.4,11.1,4.2c2.3,2.2,4.7,6,4.7,12.3c0,5.3-1.7,9.5-4.9,12.7
			c-3.8,3.7-8.4,4.9-13.3,4.9c-2.8,0-6.1-0.4-9.2-2.2c-0.7-0.4-3.5-2.1-5.7-5.5l5.5-4.6c0.1,0.4,1.4,2.7,3.7,4.2
			c1.6,1.1,3.8,1.7,6.3,1.7c3.9,0,6.1-1.5,7.3-2.7c1.4-1.4,3.1-4,3.1-8.1c0-4-1.4-6.3-2.9-7.8c-2.4-2.2-5.5-2.7-7.8-2.7
			c-2.1,0-3.7,0.3-5.6,1c-1.5,0.6-2.9,1.2-4.2,2.2l7.1-24.3h19.9V648.4z"/>
		<path d="M1452,652.5c0,6.1-5.2,11.3-11.6,11.3c-6.4,0-11.6-5.2-11.6-11.3c0-6.2,5.3-11.3,11.6-11.3
			C1446.7,641.2,1452,646.3,1452,652.5z M1446.3,652.5c0-2.8-2-6.1-6-6.1c-4,0-6,3.3-6,6.1s2,6.1,6,6.1
			C1444.3,658.6,1446.3,655.3,1446.3,652.5z M1467.6,640.8l3.4,1.9l-27.4,47.7l-3.4-2.1L1467.6,640.8z M1482.3,678.8
			c0,6.1-5.2,11.3-11.6,11.3c-6.4,0-11.6-5.2-11.6-11.3c0-6.2,5.3-11.3,11.6-11.3C1477.1,667.5,1482.3,672.6,1482.3,678.8z
			 M1476.7,678.8c0-2.8-2-6.1-6-6.1c-4,0-6,3.3-6,6.1c0,2.8,2,6.1,6,6.1C1474.7,685,1476.7,681.6,1476.7,678.8z"/>
		<path d="M1509.7,641.6l12.7,32.1l13-34.4l12.5,34.4l13.1-32.1h7.9l-21.5,51.1l-12.5-34.1l-12.7,34.1l-20.5-51.1H1509.7z"/>
		<path d="M1571.5,637.1h7.1v24.8c3-3.1,6.3-3.4,8.1-3.4c5.5,0,8.1,2.9,8.9,4.1c1.9,2.7,1.9,6.3,1.9,8.4v18.6h-7.1v-17.9
			c0-1.8,0-3.7-1.4-5.3c-0.8-0.9-2.2-1.6-4-1.6c-2.4,0-4.2,1.2-5.2,2.5c-1,1.4-1.4,3.7-1.4,7.6v14.6h-7.1V637.1z"/>
		<path d="M1610,642.3c2.6,0,4.5,1.9,4.5,4.5s-1.9,4.5-4.5,4.5c-2.6,0-4.5-1.9-4.5-4.5S1607.4,642.3,1610,642.3z M1613.5,659.3v30.3
			h-7.1v-30.3H1613.5z"/>
		<path d="M1629.7,665.8v23.8h-7.1v-23.8h-3v-6.5h3v-11.1h7.1v11.1h5.4v6.5H1629.7z"/>
		<path d="M1667,682.7c-1.3,2.3-3.2,4.3-5.1,5.5c-2.4,1.6-5.7,2.3-8.9,2.3c-4,0-7.3-1-10.2-3.9s-4.5-7.1-4.5-11.6
			c0-4.7,1.7-9.2,4.8-12.5c2.5-2.5,5.8-4.1,10.2-4.1c4.8,0,7.9,2.1,9.7,4c3.9,4,4.2,9.6,4.2,12.8v0.9h-21.7c0.1,2.2,1.1,4.6,2.6,6.1
			c1.7,1.7,3.7,1.9,5.4,1.9c1.9,0,3.4-0.4,4.8-1.5c1.2-0.9,2.2-2.2,2.8-3.3L1667,682.7z M1660,670.4c-0.3-1.7-1.1-3.1-2.2-4.1
			c-0.9-0.9-2.4-1.7-4.8-1.7c-2.4,0-4,1-5,1.9c-1,0.9-1.8,2.4-2.2,3.9H1660z"/>
	</g>
	<g>
		<g>
			<path class="st2" d="M1272.4,71.8h-12.6l-2.3,5.8h-9.5l13.3-34.7h9.8l13.1,34.7h-9.6L1272.4,71.8z M1270,65l-3.9-11.2l-3.8,11.2
				H1270z"/>
			<path class="st2" d="M1288.9,70c1,0.7,2.2,1.4,3.3,1.7c1,0.4,2.3,0.6,3.2,0.6c0.6,0,1.6-0.2,2.1-0.6c0.4-0.4,0.4-0.7,0.4-1.1
				c0-0.4-0.1-0.7-0.4-1c-0.5-0.5-1.4-0.6-2.2-0.8l-2.2-0.5c-1.1-0.3-2.8-0.7-4.1-2c-0.9-0.9-1.5-2.2-1.5-4c0-2.2,0.9-4.3,2.2-5.7
				c1.8-1.8,4.9-2.8,8.3-2.8c3.4,0,6.1,0.9,7.4,1.5l-2.8,5.3c-1.1-0.5-2.9-1.1-4.4-1.1c-0.8,0-1.4,0.2-1.9,0.5
				c-0.5,0.3-0.7,0.6-0.7,1.1c0,0.7,0.5,1.1,1,1.3c0.8,0.3,1.5,0.3,2.8,0.7l1.5,0.4c1.1,0.3,2.8,1.1,3.4,1.8
				c1.1,1.1,1.8,2.9,1.8,4.6c0,2.8-1.2,4.7-2.3,5.8c-2.7,2.7-6.7,2.9-8.6,2.9c-2.1,0-5.4-0.3-9.4-2.7L1288.9,70z"/>
			<path class="st2" d="M1311.9,70c1,0.7,2.2,1.4,3.3,1.7c1,0.4,2.3,0.6,3.2,0.6c0.6,0,1.6-0.2,2.1-0.6c0.4-0.4,0.4-0.7,0.4-1.1
				c0-0.4-0.1-0.7-0.4-1c-0.5-0.5-1.4-0.6-2.2-0.8l-2.2-0.5c-1.1-0.3-2.8-0.7-4.1-2c-0.9-0.9-1.5-2.2-1.5-4c0-2.2,0.9-4.3,2.2-5.7
				c1.8-1.8,4.9-2.8,8.3-2.8s6.1,0.9,7.4,1.5l-2.8,5.3c-1.1-0.5-2.9-1.1-4.4-1.1c-0.8,0-1.4,0.2-1.9,0.5c-0.5,0.3-0.7,0.6-0.7,1.1
				c0,0.7,0.5,1.1,1,1.3c0.8,0.3,1.5,0.3,2.8,0.7l1.5,0.4c1.1,0.3,2.8,1.1,3.4,1.8c1.1,1.1,1.8,2.9,1.8,4.6c0,2.8-1.2,4.7-2.3,5.8
				c-2.7,2.7-6.7,2.9-8.6,2.9c-2.1,0-5.4-0.3-9.4-2.7L1311.9,70z"/>
			<path class="st2" d="M1356.9,74.6c-3.1,3-6.7,3.8-10.4,3.8c-3.4,0-7.1-0.7-10.3-3.8c-2.5-2.5-3.6-5.5-3.6-8.6
				c0-4.2,1.9-6.9,3.6-8.5c1.9-1.9,5.3-3.8,10.3-3.8c5.1,0,8.5,2,10.4,3.8c1.7,1.7,3.6,4.4,3.6,8.5
				C1360.5,69.1,1359.5,72.1,1356.9,74.6z M1342.8,62.2c-1,1-1.6,2.4-1.6,3.8c0,1.4,0.7,2.8,1.6,3.7c1,1,2.3,1.6,3.7,1.6
				c1.4,0,2.7-0.6,3.7-1.6c1-1,1.6-2.3,1.6-3.7c0-1.2-0.6-2.8-1.6-3.8c-0.9-0.9-2.4-1.5-3.7-1.5
				C1345.2,60.7,1343.8,61.3,1342.8,62.2z"/>
			<path class="st2" d="M1382.9,77.1c-2.2,1.1-4.1,1.3-5.8,1.3c-4.5,0-7.5-1.9-9.2-3.5c-2.2-2.1-3.6-5.3-3.6-8.7
				c0-3.4,1.4-6.7,3.7-9c2.2-2.1,5.4-3.5,9.4-3.5c1.5,0,3.3,0.3,5.4,1.3v7c-1.1-0.8-2.5-1.5-4.3-1.5c-2,0-3.2,0.8-4.1,1.6
				c-1.1,1.1-1.6,2.7-1.6,4c0,1.3,0.5,2.8,1.5,3.9c0.8,0.8,2.1,1.8,4.3,1.8c1.2,0,2.8-0.3,4.3-1.6V77.1z"/>
			<path class="st2" d="M1391.8,40.1c2.6,0,4.7,2.1,4.7,4.7c0,2.6-2.1,4.7-4.7,4.7c-2.6,0-4.7-2.1-4.7-4.7
				C1387.1,42.1,1389.2,40.1,1391.8,40.1z M1395.9,54.4v23.2h-8.3V54.4H1395.9z"/>
			<path class="st2" d="M1419.6,54.4h8.3v23.2h-8.3v-2.5c-1.9,2.7-4.9,3.3-7.2,3.3c-2.5,0-5.6-0.7-8.4-3.7c-2.2-2.4-3.3-5-3.3-8.5
				c0-4.4,1.7-7.4,3.6-9.3c2-2,5-3.3,8.4-3.3c3.7,0,6,1.9,7,3V54.4z M1410.8,62.2c-1.1,1.1-1.7,2.6-1.7,3.8c0,1.4,0.6,2.8,1.6,3.8
				c0.9,0.8,2.3,1.6,3.7,1.6c1.4,0,2.7-0.6,3.7-1.6c0.7-0.7,1.6-1.9,1.6-3.7c0-1.1-0.3-2.5-1.6-3.8c-0.8-0.7-2-1.5-3.7-1.5
				C1413.4,60.7,1412,61.1,1410.8,62.2z"/>
			<path class="st2" d="M1442.8,61.2v16.4h-8.3V61.2h-2.7v-6.8h2.7v-7.6h8.3v7.6h4.7v6.8H1442.8z"/>
			<path class="st2" d="M1475.3,67.6H1458c0,1.2,0.5,2.9,1.5,3.9c0.5,0.5,1.6,1.1,3.4,1.1c0.2,0,1.7-0.1,2.7-0.6
				c0.5-0.3,1.1-0.8,1.5-1.6h8c-0.4,1.3-1.1,3.1-2.8,4.8c-1.7,1.7-4.4,3.2-9.5,3.2c-3.1,0-6.8-0.7-9.6-3.5c-1.5-1.5-3.4-4.4-3.4-8.8
				c0-3.9,1.5-7,3.5-9c1.9-1.9,4.9-3.4,9.5-3.4c2.7,0,6.2,0.6,8.9,3.2c3.3,3.1,3.7,7.2,3.7,9.8V67.6z M1467.7,62.8
				c-0.2-0.9-0.7-1.9-1.4-2.5c-1.1-1.1-2.6-1.2-3.4-1.2c-1.4,0-2.5,0.4-3.4,1.2c-0.6,0.6-1.1,1.5-1.2,2.5H1467.7z"/>
			<path class="st2" d="M1493,77.7V43h11.8c3.5,0,9.3,0.5,13.8,4.8c4.1,3.9,4.8,8.9,4.8,12.6c0,4.6-1.1,8.6-4.5,12
				c-2.8,2.8-7.4,5.3-13.3,5.3H1493z M1502,70h1.8c2.2,0,5.3-0.2,7.6-2.5c1.1-1.1,2.7-3.3,2.7-7.1c0-3.2-1-6-2.7-7.6
				c-2.1-2-4.9-2.2-7.2-2.2h-2.2V70z"/>
			<path class="st2" d="M1532.5,40.1c2.6,0,4.7,2.1,4.7,4.7c0,2.6-2.1,4.7-4.7,4.7c-2.6,0-4.7-2.1-4.7-4.7
				C1527.8,42.1,1529.9,40.1,1532.5,40.1z M1536.7,54.4v23.2h-8.3V54.4H1536.7z"/>
			<path class="st2" d="M1542.4,54.4h8.3v3.8c0.8-1.6,2-2.6,3.3-3.2c1.2-0.7,2.8-0.9,4.3-0.9c0.2,0,0.6,0.1,1.7,0.1V62
				c-0.4-0.2-1.6-0.8-3.6-0.8c-1.1,0-2.6,0.2-3.8,1.2c-1.8,1.6-1.9,4.1-1.9,5.3v9.9h-8.3V54.4z"/>
			<path class="st2" d="M1588.3,67.6H1571c0,1.2,0.5,2.9,1.5,3.9c0.5,0.5,1.6,1.1,3.4,1.1c0.2,0,1.7-0.1,2.7-0.6
				c0.5-0.3,1.1-0.8,1.5-1.6h8c-0.4,1.3-1.1,3.1-2.8,4.8s-4.4,3.2-9.5,3.2c-3.1,0-6.8-0.7-9.6-3.5c-1.5-1.5-3.4-4.4-3.4-8.8
				c0-3.9,1.5-7,3.5-9c1.9-1.9,4.9-3.4,9.5-3.4c2.7,0,6.2,0.6,8.9,3.2c3.3,3.1,3.7,7.2,3.7,9.8V67.6z M1580.6,62.8
				c-0.2-0.9-0.7-1.9-1.4-2.5c-1.1-1.1-2.6-1.2-3.4-1.2c-1.4,0-2.5,0.4-3.4,1.2c-0.6,0.6-1.1,1.5-1.2,2.5H1580.6z"/>
			<path class="st2" d="M1610.6,77.1c-2.2,1.1-4.1,1.3-5.8,1.3c-4.5,0-7.5-1.9-9.2-3.5c-2.2-2.1-3.6-5.3-3.6-8.7
				c0-3.4,1.4-6.7,3.7-9c2.2-2.1,5.4-3.5,9.4-3.5c1.5,0,3.3,0.3,5.4,1.3v7c-1.1-0.8-2.5-1.5-4.3-1.5c-2,0-3.2,0.8-4.1,1.6
				c-1.1,1.1-1.6,2.7-1.6,4c0,1.3,0.5,2.8,1.5,3.9c0.8,0.8,2.1,1.8,4.3,1.8c1.2,0,2.8-0.3,4.3-1.6V77.1z"/>
			<path class="st2" d="M1625.1,61.2v16.4h-8.3V61.2h-2.7v-6.8h2.7v-7.6h8.3v7.6h4.7v6.8H1625.1z"/>
			<path class="st2" d="M1656.3,74.6c-3.1,3-6.7,3.8-10.4,3.8c-3.4,0-7.1-0.7-10.3-3.8c-2.5-2.5-3.6-5.5-3.6-8.6
				c0-4.2,1.9-6.9,3.6-8.5c1.9-1.9,5.3-3.8,10.3-3.8c5.1,0,8.5,2,10.4,3.8c1.7,1.7,3.6,4.4,3.6,8.5
				C1659.9,69.1,1658.9,72.1,1656.3,74.6z M1642.2,62.2c-1,1-1.6,2.4-1.6,3.8c0,1.4,0.7,2.8,1.6,3.7c1,1,2.3,1.6,3.7,1.6
				c1.4,0,2.7-0.6,3.7-1.6c1-1,1.6-2.3,1.6-3.7c0-1.2-0.6-2.8-1.6-3.8c-0.9-0.9-2.4-1.5-3.7-1.5
				C1644.6,60.7,1643.2,61.3,1642.2,62.2z"/>
			<path class="st2" d="M1664.7,54.4h8.3v3.8c0.8-1.6,2-2.6,3.3-3.2c1.2-0.7,2.8-0.9,4.3-0.9c0.2,0,0.6,0.1,1.7,0.1V62
				c-0.4-0.2-1.6-0.8-3.6-0.8c-1.1,0-2.6,0.2-3.8,1.2c-1.8,1.6-1.9,4.1-1.9,5.3v9.9h-8.3V54.4z"/>
			<path class="st2" d="M1687.5,70c1,0.7,2.2,1.4,3.3,1.7c1,0.4,2.3,0.6,3.2,0.6c0.6,0,1.6-0.2,2.1-0.6c0.4-0.4,0.4-0.7,0.4-1.1
				c0-0.4-0.1-0.7-0.4-1c-0.5-0.5-1.4-0.6-2.2-0.8l-2.2-0.5c-1.1-0.3-2.8-0.7-4.1-2c-0.9-0.9-1.5-2.2-1.5-4c0-2.2,0.9-4.3,2.2-5.7
				c1.8-1.8,4.9-2.8,8.3-2.8c3.4,0,6.1,0.9,7.4,1.5l-2.8,5.3c-1.1-0.5-2.9-1.1-4.4-1.1c-0.8,0-1.4,0.2-1.9,0.5
				c-0.5,0.3-0.7,0.6-0.7,1.1c0,0.7,0.5,1.1,1,1.3c0.8,0.3,1.5,0.3,2.8,0.7l1.5,0.4c1.1,0.3,2.8,1.1,3.4,1.8
				c1.1,1.1,1.8,2.9,1.8,4.6c0,2.8-1.2,4.7-2.3,5.8c-2.7,2.7-6.7,2.9-8.6,2.9c-2.1,0-5.4-0.3-9.4-2.7L1687.5,70z"/>
			<path class="st2" d="M1730.4,61.2v16.4h-8.3V61.2h-2.7v-6.8h2.7v-7.6h8.3v7.6h4.7v6.8H1730.4z"/>
			<path class="st2" d="M1761.6,74.6c-3.1,3-6.7,3.8-10.4,3.8c-3.4,0-7.1-0.7-10.3-3.8c-2.5-2.5-3.6-5.5-3.6-8.6
				c0-4.2,1.9-6.9,3.6-8.5c1.9-1.9,5.3-3.8,10.3-3.8c5.1,0,8.5,2,10.4,3.8c1.7,1.7,3.6,4.4,3.6,8.5
				C1765.2,69.1,1764.2,72.1,1761.6,74.6z M1747.5,62.2c-1,1-1.6,2.4-1.6,3.8c0,1.4,0.7,2.8,1.6,3.7c1,1,2.3,1.6,3.7,1.6
				c1.4,0,2.7-0.6,3.7-1.6c1-1,1.6-2.3,1.6-3.7c0-1.2-0.6-2.8-1.6-3.8c-0.9-0.9-2.4-1.5-3.7-1.5
				C1749.9,60.7,1748.5,61.3,1747.5,62.2z"/>
			<path class="st2" d="M1301.9,110.6h-10.7v5.8h10.1v7.6h-10.1v6h10.7v7.6h-19.7V103h19.7V110.6z"/>
			<path class="st2" d="M1315.5,125l-9.4-10.6h10.8l4,4.8l4.1-4.8h10.8l-9.6,10.6l11.6,12.6h-11l-5.9-6.9l-5.9,6.9h-11L1315.5,125z"
				/>
			<path class="st2" d="M1363.4,127.6h-17.3c0,1.2,0.5,2.9,1.5,3.9c0.5,0.5,1.6,1.1,3.4,1.1c0.2,0,1.7-0.1,2.7-0.6
				c0.5-0.3,1.1-0.8,1.5-1.6h8c-0.4,1.3-1.1,3.1-2.8,4.8c-1.7,1.7-4.4,3.2-9.5,3.2c-3.1,0-6.8-0.7-9.6-3.5c-1.5-1.5-3.4-4.4-3.4-8.8
				c0-3.9,1.5-7,3.5-9c1.9-1.9,4.9-3.4,9.5-3.4c2.7,0,6.2,0.6,8.9,3.2c3.3,3.1,3.7,7.2,3.7,9.8V127.6z M1355.7,122.8
				c-0.2-0.9-0.7-1.9-1.4-2.5c-1.1-1.1-2.6-1.2-3.4-1.2c-1.4,0-2.5,0.4-3.4,1.2c-0.6,0.6-1.1,1.5-1.2,2.5H1355.7z"/>
			<path class="st2" d="M1385.7,137.1c-2.2,1.1-4.1,1.3-5.8,1.3c-4.5,0-7.5-1.9-9.2-3.5c-2.2-2.1-3.6-5.3-3.6-8.7
				c0-3.4,1.4-6.7,3.7-9c2.2-2.1,5.4-3.5,9.4-3.5c1.5,0,3.3,0.3,5.4,1.3v7c-1.1-0.8-2.5-1.5-4.3-1.5c-2,0-3.2,0.8-4.1,1.6
				c-1.1,1.1-1.6,2.7-1.6,4c0,1.3,0.5,2.8,1.5,3.9c0.8,0.8,2.1,1.8,4.3,1.8c1.2,0,2.8-0.3,4.3-1.6V137.1z"/>
			<path class="st2" d="M1398.8,114.4v13c0,0.9,0.2,2.4,1.2,3.4c0.8,0.7,1.9,0.9,2.9,0.9c1,0,2-0.1,3-1c1-1,1.2-2.2,1.2-3.3v-13h8.3
				v14.5c0,2-0.2,4.1-2.2,6.2c-2.9,3-6.9,3.3-10,3.3c-3.5,0-7.7-0.4-10.5-3.3c-1.8-1.9-2.2-4-2.2-6.2v-14.5H1398.8z"/>
			<path class="st2" d="M1430.3,121.2v16.4h-8.3v-16.4h-2.7v-6.8h2.7v-7.6h8.3v7.6h4.7v6.8H1430.3z"/>
			<path class="st2" d="M1442.4,100.1c2.6,0,4.7,2.1,4.7,4.7c0,2.6-2.1,4.7-4.7,4.7c-2.6,0-4.7-2.1-4.7-4.7
				C1437.7,102.1,1439.8,100.1,1442.4,100.1z M1446.5,114.4v23.2h-8.3v-23.2H1446.5z"/>
			<path class="st2" d="M1458.6,114.4l5.6,11.9l5.7-11.9h9.3l-12.1,23.2h-5.7l-12-23.2H1458.6z"/>
			<path class="st2" d="M1505.3,127.6H1488c0,1.2,0.5,2.9,1.5,3.9c0.5,0.5,1.6,1.1,3.4,1.1c0.2,0,1.7-0.1,2.7-0.6
				c0.5-0.3,1.1-0.8,1.5-1.6h8c-0.4,1.3-1.1,3.1-2.8,4.8c-1.7,1.7-4.4,3.2-9.5,3.2c-3.1,0-6.8-0.7-9.6-3.5c-1.5-1.5-3.4-4.4-3.4-8.8
				c0-3.9,1.5-7,3.5-9c1.9-1.9,4.9-3.4,9.5-3.4c2.7,0,6.2,0.6,8.9,3.2c3.3,3.1,3.7,7.2,3.7,9.8V127.6z M1497.7,122.8
				c-0.2-0.9-0.7-1.9-1.4-2.5c-1.1-1.1-2.6-1.2-3.4-1.2c-1.4,0-2.5,0.4-3.4,1.2c-0.6,0.6-1.1,1.5-1.2,2.5H1497.7z"/>
			<path class="st2" d="M1523,137.7V103h11.8c3.5,0,9.3,0.5,13.8,4.8c4.1,3.9,4.8,8.9,4.8,12.6c0,4.6-1.1,8.6-4.5,12
				c-2.8,2.8-7.4,5.3-13.3,5.3H1523z M1532,130h1.8c2.2,0,5.3-0.2,7.6-2.5c1.1-1.1,2.7-3.3,2.7-7.1c0-3.2-1-6-2.7-7.6
				c-2.1-2-4.9-2.2-7.2-2.2h-2.2V130z"/>
			<path class="st2" d="M1562.5,100.1c2.6,0,4.7,2.1,4.7,4.7c0,2.6-2.1,4.7-4.7,4.7c-2.6,0-4.7-2.1-4.7-4.7
				C1557.8,102.1,1559.9,100.1,1562.5,100.1z M1566.7,114.4v23.2h-8.3v-23.2H1566.7z"/>
			<path class="st2" d="M1572.4,114.4h8.3v3.8c0.8-1.6,2-2.6,3.3-3.2c1.2-0.7,2.8-0.9,4.3-0.9c0.2,0,0.6,0.1,1.7,0.1v7.9
				c-0.4-0.2-1.6-0.8-3.6-0.8c-1.1,0-2.6,0.2-3.8,1.2c-1.8,1.6-1.9,4.1-1.9,5.3v9.9h-8.3V114.4z"/>
			<path class="st2" d="M1618.3,127.6H1601c0,1.2,0.5,2.9,1.5,3.9c0.5,0.5,1.6,1.1,3.4,1.1c0.2,0,1.7-0.1,2.7-0.6
				c0.5-0.3,1.1-0.8,1.5-1.6h8c-0.4,1.3-1.1,3.1-2.8,4.8s-4.4,3.2-9.5,3.2c-3.1,0-6.8-0.7-9.6-3.5c-1.5-1.5-3.4-4.4-3.4-8.8
				c0-3.9,1.5-7,3.5-9c1.9-1.9,4.9-3.4,9.5-3.4c2.7,0,6.2,0.6,8.9,3.2c3.3,3.1,3.7,7.2,3.7,9.8V127.6z M1610.6,122.8
				c-0.2-0.9-0.7-1.9-1.4-2.5c-1.1-1.1-2.6-1.2-3.4-1.2c-1.4,0-2.5,0.4-3.4,1.2c-0.6,0.6-1.1,1.5-1.2,2.5H1610.6z"/>
			<path class="st2" d="M1640.6,137.1c-2.2,1.1-4.1,1.3-5.8,1.3c-4.5,0-7.5-1.9-9.2-3.5c-2.2-2.1-3.6-5.3-3.6-8.7
				c0-3.4,1.4-6.7,3.7-9c2.2-2.1,5.4-3.5,9.4-3.5c1.5,0,3.3,0.3,5.4,1.3v7c-1.1-0.8-2.5-1.5-4.3-1.5c-2,0-3.2,0.8-4.1,1.6
				c-1.1,1.1-1.6,2.7-1.6,4c0,1.3,0.5,2.8,1.5,3.9c0.8,0.8,2.1,1.8,4.3,1.8c1.2,0,2.8-0.3,4.3-1.6V137.1z"/>
			<path class="st2" d="M1655.1,121.2v16.4h-8.3v-16.4h-2.7v-6.8h2.7v-7.6h8.3v7.6h4.7v6.8H1655.1z"/>
			<path class="st2" d="M1686.3,134.6c-3.1,3-6.7,3.8-10.4,3.8c-3.4,0-7.1-0.7-10.3-3.8c-2.5-2.5-3.6-5.5-3.6-8.6
				c0-4.2,1.9-6.9,3.6-8.5c1.9-1.9,5.3-3.8,10.3-3.8c5.1,0,8.5,2,10.4,3.8c1.7,1.7,3.6,4.4,3.6,8.5
				C1689.9,129.1,1688.9,132.1,1686.3,134.6z M1672.2,122.2c-1,1-1.6,2.4-1.6,3.8c0,1.4,0.7,2.8,1.6,3.7c1,1,2.3,1.6,3.7,1.6
				c1.4,0,2.7-0.6,3.7-1.6c1-1,1.6-2.3,1.6-3.7c0-1.2-0.6-2.8-1.6-3.8c-0.9-0.9-2.4-1.5-3.7-1.5
				C1674.6,120.7,1673.2,121.3,1672.2,122.2z"/>
			<path class="st2" d="M1694.7,114.4h8.3v3.8c0.8-1.6,2-2.6,3.3-3.2c1.2-0.7,2.8-0.9,4.3-0.9c0.2,0,0.6,0.1,1.7,0.1v7.9
				c-0.4-0.2-1.6-0.8-3.6-0.8c-1.1,0-2.6,0.2-3.8,1.2c-1.8,1.6-1.9,4.1-1.9,5.3v9.9h-8.3V114.4z"/>
			<path class="st2" d="M1717.5,130c1,0.7,2.2,1.4,3.3,1.7c1,0.4,2.3,0.6,3.2,0.6c0.6,0,1.6-0.2,2.1-0.6c0.4-0.4,0.4-0.7,0.4-1.1
				c0-0.4-0.1-0.7-0.4-1c-0.5-0.5-1.4-0.6-2.2-0.8l-2.2-0.5c-1.1-0.3-2.8-0.7-4.1-2c-0.9-0.9-1.5-2.2-1.5-4c0-2.2,0.9-4.3,2.2-5.7
				c1.8-1.8,4.9-2.8,8.3-2.8c3.4,0,6.1,0.9,7.4,1.5l-2.8,5.3c-1.1-0.5-2.9-1.1-4.4-1.1c-0.8,0-1.4,0.2-1.9,0.5
				c-0.5,0.3-0.7,0.6-0.7,1.1c0,0.7,0.5,1.1,1,1.3c0.8,0.3,1.5,0.3,2.8,0.7l1.5,0.4c1.1,0.3,2.8,1.1,3.4,1.8
				c1.1,1.1,1.8,2.9,1.8,4.6c0,2.8-1.2,4.7-2.3,5.8c-2.7,2.7-6.7,2.9-8.6,2.9c-2.1,0-5.4-0.3-9.4-2.7L1717.5,130z"/>
		</g>
	</g>
</g>
</svg>
