<?xml version="1.0" encoding="UTF-8"?><svg id="a" xmlns="http://www.w3.org/2000/svg" viewBox="0 0 1000 827"><g><rect x="251" y="631" width="667" height="109.12" style="fill:#28509c;"/><g><path d="M567.14,677.89h-10.01v-5.29h19.69l-13.75,24.01h-6.88l10.94-18.72Z" style="fill:#fff;"/><path d="M589.71,672.6l-6.84,8.17c.97-.43,2.16-.76,3.35-.76,1.8,0,3.85,.72,5.43,2.3,1.69,1.69,2.27,3.67,2.27,5.72,0,2.23-.61,4.39-2.48,6.26-2.38,2.38-5.36,2.84-7.67,2.84-4.14,0-6.55-1.55-7.88-2.92-1.15-1.19-2.2-3.02-2.2-5.62,0-3.28,1.66-6.44,3.56-8.96l5.36-7.05h7.09Zm-3.28,18.5c.68-.68,1.12-1.66,1.12-2.74,0-.76-.25-1.69-1.12-2.52-.97-.94-2.05-1.12-2.77-1.12-.94,0-1.98,.4-2.7,1.04-.76,.69-1.19,1.66-1.19,2.48,0,1.01,.36,2.02,1.04,2.74,.94,.97,2.05,1.22,2.84,1.22,1.33,0,2.23-.58,2.77-1.12Z" style="fill:#fff;"/><path d="M597.45,696.18c-.47-.47-1.12-1.33-1.12-2.63s.65-2.16,1.12-2.63c.86-.86,1.84-1.12,2.63-1.12,.9,0,1.87,.36,2.66,1.15,.61,.61,1.04,1.4,1.04,2.59s-.43,1.98-1.08,2.63c-.76,.76-1.69,1.12-2.63,1.12-.79,0-1.76-.25-2.63-1.12Z" style="fill:#fff;"/><path d="M623.66,685.81c1.48,1.44,1.84,3.06,1.84,4.25,0,1.62-.68,3.28-1.94,4.54-.83,.83-2.99,2.55-7.27,2.55s-6.23-1.58-7.16-2.52c-1.3-1.29-1.98-3.02-1.98-4.57s.76-3.31,1.76-4.32c.76-.76,1.98-1.44,3.02-1.76-.83-.32-1.62-.83-2.16-1.37-.76-.76-1.62-1.98-1.62-3.82s.79-3.42,1.98-4.54c1.47-1.37,3.78-2.2,6.41-2.2s4.79,.86,6.19,2.3c.9,.9,1.76,2.34,1.76,4.39,0,1.73-.65,2.91-1.48,3.74-.58,.58-1.51,1.15-2.45,1.48,1.3,.4,2.34,1.08,3.1,1.84Zm-9.36,1.51c-.58,.58-.86,1.29-.86,1.98,0,.65,.22,1.4,.83,2.02,.5,.5,1.22,.86,2.05,.86s1.47-.29,2.02-.83c.58-.58,.86-1.22,.86-2.05s-.29-1.44-.86-1.98c-.65-.61-1.4-.83-2.02-.83-.68,0-1.44,.29-2.02,.83Zm.11-10.26c-.47,.5-.72,1.19-.72,1.84,0,.61,.32,1.26,.76,1.73,.54,.58,1.26,.79,1.91,.79,.54,0,1.19-.14,1.76-.72,.54-.54,.83-1.22,.83-1.84,0-.65-.29-1.4-.83-1.91-.5-.47-1.04-.72-1.73-.72-.9,0-1.55,.36-1.98,.83Z" style="fill:#fff;"/><path d="M629.82,682.21c-1.04-1.12-1.51-2.41-1.51-3.89s.54-3.06,1.48-4.07c1.51-1.69,3.67-1.91,5.04-1.91,2.59,0,4.14,.9,5.11,1.91,.72,.76,1.51,2.02,1.51,3.96,0,1.84-.72,3.13-1.55,4-1.51,1.58-3.53,1.91-5.07,1.91-1.66,0-3.49-.32-5-1.91Zm3.1-5.87c-.47,.5-.72,1.19-.72,1.87,0,.83,.4,1.58,.94,2.05,.43,.39,1.04,.65,1.76,.65s1.44-.32,1.91-.76c.47-.47,.79-1.19,.79-1.94s-.29-1.47-.86-2.02c-.54-.5-1.15-.68-1.84-.68-.83,0-1.55,.36-1.98,.83Zm15.69-3.74h3.13l-13.93,24.01h-3.09l13.89-24.01Zm-2.09,22.39c-1.04-1.12-1.51-2.41-1.51-3.89s.54-3.06,1.48-4.07c1.51-1.69,3.67-1.91,5.04-1.91,2.59,0,4.14,.9,5.11,1.91,.72,.76,1.51,2.02,1.51,3.96,0,1.84-.72,3.13-1.55,3.99-1.51,1.58-3.53,1.91-5.08,1.91-1.66,0-3.49-.32-5-1.91Zm3.1-5.87c-.47,.5-.72,1.19-.72,1.87,0,.83,.4,1.58,.94,2.05,.43,.4,1.04,.65,1.76,.65s1.44-.32,1.91-.76c.47-.47,.79-1.19,.79-1.94s-.29-1.48-.86-2.02c-.54-.5-1.15-.69-1.84-.69-.83,0-1.55,.36-1.98,.83Z" style="fill:#fff;"/></g></g><g><path d="M177.96,215.96h-8.84l-2.26,4.99h-3.41l10.29-21.89,9.8,21.89h-3.41l-2.17-4.99Zm-1.27-2.98l-3.07-7.01-3.19,7.01h6.26Z" style="fill:#646464;"/><path d="M191.29,211.34c-.31-.5-.9-1.12-1.86-1.12-.43,0-.74,.16-.93,.34-.16,.15-.28,.4-.28,.68,0,.34,.16,.56,.43,.74,.19,.12,.37,.19,1.02,.53l1.55,.78c.68,.34,1.33,.68,1.83,1.21,.71,.71,.96,1.52,.96,2.42,0,1.18-.43,2.2-1.15,2.98-1.02,1.12-2.29,1.46-3.66,1.46-.84,0-1.89-.12-2.82-.84-.74-.56-1.36-1.46-1.67-2.39l2.48-1.18c.16,.43,.43,.99,.71,1.24,.19,.19,.62,.5,1.33,.5,.46,0,.96-.15,1.24-.43,.25-.25,.43-.65,.43-1.02s-.12-.68-.4-.99c-.37-.37-.81-.59-1.3-.81l-1.12-.53c-.59-.28-1.3-.62-1.8-1.12-.68-.65-.93-1.36-.93-2.2,0-1.05,.4-2.08,1.08-2.79,.59-.62,1.58-1.24,3.19-1.24,.93,0,1.67,.19,2.42,.68,.43,.28,1.02,.78,1.49,1.61l-2.26,1.49Z" style="fill:#646464;"/><path d="M198.27,200.55c1.12,0,1.95,.84,1.95,1.95s-.84,1.95-1.95,1.95-1.95-.84-1.95-1.95,.84-1.95,1.95-1.95Zm1.52,7.35v13.05h-3.04v-13.05h3.04Z" style="fill:#646464;"/><path d="M213.18,207.9h3.04v13.05h-3.04v-1.36c-1.33,1.55-2.98,1.77-3.91,1.77-4.03,0-6.33-3.35-6.33-6.95,0-4.25,2.92-6.85,6.36-6.85,.96,0,2.63,.25,3.88,1.86v-1.52Zm-7.13,6.57c0,2.26,1.43,4.16,3.63,4.16,1.92,0,3.69-1.4,3.69-4.12s-1.77-4.22-3.69-4.22c-2.2,0-3.63,1.86-3.63,4.19Z" style="fill:#646464;"/><path d="M220.03,207.9h3.04v1.21c1.3-1.46,2.79-1.55,3.53-1.55,2.42,0,3.44,1.21,3.84,1.77,.5,.71,.81,1.61,.81,3.63v8h-3.04v-7.26c0-3.32-1.24-3.41-2.39-3.41-1.37,0-2.76,.19-2.76,4.4v6.26h-3.04v-13.05Z" style="fill:#646464;"/><path d="M40.91,348.27c2.67,0,4.34,.34,5.71,1.61,1.12,1.05,1.64,2.39,1.64,4.09,0,.81-.12,1.64-.62,2.45-.46,.81-1.08,1.21-1.55,1.43,.37,.09,1.64,.43,2.67,1.49,1.12,1.18,1.36,2.6,1.36,3.88,0,1.49-.37,2.67-1.36,3.72-1.64,1.74-4.22,2.02-5.8,2.02h-5.18v-20.68h3.13Zm.03,8.9h.96c.78,0,1.83-.09,2.57-.81,.71-.68,.81-1.64,.81-2.36,0-.62-.09-1.36-.74-1.98-.71-.68-1.61-.77-2.51-.77h-1.08v5.92Zm0,8.81h1.92c.9,0,2.33-.16,3.13-.81,.62-.5,1.02-1.36,1.02-2.29,0-.84-.31-1.64-.84-2.17-.87-.84-2.14-.93-3.26-.93h-1.98v6.2Z" style="fill:#646464;"/><path d="M56.57,346.35v22.6h-3.04v-22.6h3.04Z" style="fill:#646464;"/><path d="M69.96,355.9h3.04v13.05h-3.04v-1.36c-1.33,1.55-2.98,1.77-3.91,1.77-4.03,0-6.33-3.35-6.33-6.95,0-4.25,2.92-6.85,6.36-6.85,.96,0,2.63,.25,3.88,1.86v-1.52Zm-7.13,6.57c0,2.26,1.43,4.16,3.63,4.16,1.92,0,3.69-1.4,3.69-4.12s-1.77-4.22-3.69-4.22c-2.2,0-3.63,1.86-3.63,4.19Z" style="fill:#646464;"/><path d="M86.95,359.9c-1.39-1.36-2.76-1.61-3.69-1.61-1.43,0-2.33,.59-2.88,1.15-.56,.56-1.12,1.55-1.12,3.01s.59,2.54,1.18,3.13c.68,.65,1.64,1.05,2.76,1.05,1.24,0,2.7-.5,3.75-1.67v3.38c-.74,.46-1.95,1.02-3.97,1.02-2.17,0-3.72-.62-4.96-1.92-.93-.96-1.86-2.51-1.86-4.9s1.02-4.09,1.98-5.05c1.02-1.02,2.67-1.92,5.24-1.92,.99,0,2.17,.16,3.57,.93v3.41Z" style="fill:#646464;"/><path d="M92.9,346.35v13.92l4.25-4.37h4.03l-5.61,5.43,6.02,7.63h-3.84l-4.28-5.58-.56,.56v5.02h-3.04v-22.6h3.04Z" style="fill:#646464;"/><path d="M124.06,362.44c0,4-3.04,6.92-6.98,6.92s-6.98-2.92-6.98-6.92,3.04-6.88,6.98-6.88,6.98,2.85,6.98,6.88Zm-3.1,.03c0-2.98-1.95-4.19-3.88-4.19s-3.88,1.21-3.88,4.19c0,2.51,1.49,4.16,3.88,4.16s3.88-1.64,3.88-4.16Z" style="fill:#646464;"/><path d="M127.22,355.9h3.04v1.18c.34-.4,.84-.84,1.27-1.09,.59-.34,1.18-.43,1.86-.43,.74,0,1.55,.12,2.39,.62l-1.24,2.76c-.68-.43-1.24-.47-1.55-.47-.65,0-1.3,.09-1.89,.71-.84,.9-.84,2.14-.84,3.01v6.76h-3.04v-13.05Z" style="fill:#646464;"/><path d="M157.44,363.96h-8.84l-2.26,4.99h-3.41l10.29-21.89,9.8,21.89h-3.41l-2.17-4.99Zm-1.27-2.98l-3.07-7.01-3.19,7.01h6.26Z" style="fill:#646464;"/><path d="M168.42,358.69v10.26h-3.04v-10.26h-1.3v-2.79h1.3v-4.53c0-2.02,.53-3.29,1.27-4.09,.56-.59,1.52-1.27,3.1-1.27,.65,0,1.3,.09,1.95,.37v3.01c-.62-.37-1.02-.46-1.46-.46-.37,0-.93,.06-1.33,.5-.16,.15-.5,.62-.5,1.55v4.93h3.29v2.79h-3.29Z" style="fill:#646464;"/><path d="M173.44,355.9h3.04v1.18c.34-.4,.84-.84,1.27-1.09,.59-.34,1.18-.43,1.86-.43,.74,0,1.55,.12,2.39,.62l-1.24,2.76c-.68-.43-1.24-.47-1.55-.47-.65,0-1.3,.09-1.89,.71-.84,.9-.84,2.14-.84,3.01v6.76h-3.04v-13.05Z" style="fill:#646464;"/><path d="M185.25,348.55c1.12,0,1.95,.84,1.95,1.95s-.84,1.95-1.95,1.95-1.95-.84-1.95-1.95,.84-1.95,1.95-1.95Zm1.52,7.35v13.05h-3.04v-13.05h3.04Z" style="fill:#646464;"/><path d="M200.72,359.9c-1.4-1.36-2.76-1.61-3.69-1.61-1.43,0-2.33,.59-2.88,1.15-.56,.56-1.12,1.55-1.12,3.01s.59,2.54,1.18,3.13c.68,.65,1.64,1.05,2.76,1.05,1.24,0,2.7-.5,3.75-1.67v3.38c-.74,.46-1.95,1.02-3.97,1.02-2.17,0-3.72-.62-4.96-1.92-.93-.96-1.86-2.51-1.86-4.9s1.02-4.09,1.98-5.05c1.02-1.02,2.67-1.92,5.24-1.92,.99,0,2.17,.16,3.57,.93v3.41Z" style="fill:#646464;"/><path d="M213.18,355.9h3.04v13.05h-3.04v-1.36c-1.33,1.55-2.98,1.77-3.91,1.77-4.03,0-6.32-3.35-6.32-6.95,0-4.25,2.91-6.85,6.36-6.85,.96,0,2.64,.25,3.88,1.86v-1.52Zm-7.13,6.57c0,2.26,1.43,4.16,3.63,4.16,1.92,0,3.69-1.4,3.69-4.12s-1.77-4.22-3.69-4.22c-2.2,0-3.63,1.86-3.63,4.19Z" style="fill:#646464;"/><path d="M220.03,355.9h3.04v1.21c1.3-1.46,2.79-1.55,3.54-1.55,2.42,0,3.44,1.21,3.84,1.77,.5,.71,.81,1.61,.81,3.63v8h-3.04v-7.26c0-3.32-1.24-3.41-2.39-3.41-1.36,0-2.76,.19-2.76,4.4v6.26h-3.04v-13.05Z" style="fill:#646464;"/><path d="M129.11,393.96h-8.84l-2.26,4.99h-3.41l10.29-21.89,9.8,21.89h-3.41l-2.17-4.99Zm-1.27-2.98l-3.07-7.01-3.19,7.01h6.26Z" style="fill:#646464;"/><path d="M136.73,385.9h3.04v1.21c1.02-1.24,2.23-1.55,3.22-1.55,1.36,0,2.64,.65,3.38,1.92,1.08-1.55,2.73-1.92,3.88-1.92,1.58,0,2.98,.74,3.72,2.05,.25,.43,.68,1.39,.68,3.29v8.06h-3.04v-7.19c0-1.46-.16-2.05-.28-2.33-.19-.5-.65-1.15-1.74-1.15-.74,0-1.4,.4-1.8,.96-.53,.74-.59,1.86-.59,2.98v6.73h-3.04v-7.19c0-1.46-.16-2.05-.28-2.33-.19-.5-.65-1.15-1.74-1.15-.74,0-1.4,.4-1.8,.96-.53,.74-.59,1.86-.59,2.98v6.73h-3.04v-13.05Z" style="fill:#646464;"/><path d="M170.18,395.98c-.56,.99-1.36,1.86-2.2,2.39-1.05,.68-2.45,.99-3.84,.99-1.74,0-3.16-.43-4.4-1.67s-1.92-3.04-1.92-4.99,.71-3.97,2.08-5.36c1.09-1.09,2.51-1.77,4.37-1.77,2.08,0,3.41,.9,4.19,1.71,1.67,1.74,1.83,4.16,1.83,5.52v.37h-9.36c.06,.93,.46,1.98,1.12,2.64,.71,.71,1.58,.84,2.33,.84,.84,0,1.46-.19,2.08-.65,.53-.4,.93-.93,1.21-1.43l2.54,1.43Zm-3.01-5.3c-.12-.71-.47-1.33-.93-1.77-.4-.37-1.05-.74-2.05-.74-1.05,0-1.74,.43-2.14,.84-.43,.4-.78,1.02-.93,1.67h6.05Z" style="fill:#646464;"/><path d="M173.44,385.9h3.04v1.18c.34-.4,.84-.84,1.27-1.09,.59-.34,1.18-.43,1.86-.43,.74,0,1.55,.12,2.39,.62l-1.24,2.76c-.68-.43-1.24-.47-1.55-.47-.65,0-1.3,.09-1.89,.71-.84,.9-.84,2.14-.84,3.01v6.76h-3.04v-13.05Z" style="fill:#646464;"/><path d="M185.25,378.55c1.12,0,1.95,.84,1.95,1.95s-.84,1.95-1.95,1.95-1.95-.84-1.95-1.95,.84-1.95,1.95-1.95Zm1.52,7.35v13.05h-3.04v-13.05h3.04Z" style="fill:#646464;"/><path d="M200.72,389.9c-1.4-1.36-2.76-1.61-3.69-1.61-1.43,0-2.33,.59-2.88,1.15s-1.12,1.55-1.12,3.01,.59,2.54,1.18,3.13c.68,.65,1.64,1.05,2.76,1.05,1.24,0,2.7-.5,3.75-1.67v3.38c-.74,.46-1.95,1.02-3.97,1.02-2.17,0-3.72-.62-4.96-1.92-.93-.96-1.86-2.51-1.86-4.9s1.02-4.09,1.98-5.05c1.02-1.02,2.67-1.92,5.24-1.92,.99,0,2.17,.16,3.57,.93v3.41Z" style="fill:#646464;"/><path d="M213.18,385.9h3.04v13.05h-3.04v-1.36c-1.33,1.55-2.98,1.77-3.91,1.77-4.03,0-6.33-3.35-6.33-6.95,0-4.25,2.92-6.85,6.36-6.85,.96,0,2.63,.25,3.88,1.86v-1.52Zm-7.13,6.57c0,2.26,1.43,4.16,3.63,4.16,1.92,0,3.69-1.4,3.69-4.12s-1.77-4.22-3.69-4.22c-2.2,0-3.63,1.86-3.63,4.19Z" style="fill:#646464;"/><path d="M220.03,385.9h3.04v1.21c1.3-1.46,2.79-1.55,3.53-1.55,2.42,0,3.44,1.21,3.84,1.77,.5,.71,.81,1.61,.81,3.63v8h-3.04v-7.26c0-3.32-1.24-3.41-2.39-3.41-1.37,0-2.76,.19-2.76,4.4v6.26h-3.04v-13.05Z" style="fill:#646464;"/><path d="M36.64,526.46h8.87v-8.19h3.16v20.68h-3.16v-9.52h-8.87v9.52h-3.16v-20.68h3.16v8.19Z" style="fill:#646464;"/><path d="M54.58,518.55c1.12,0,1.95,.84,1.95,1.95s-.84,1.95-1.95,1.95-1.95-.84-1.95-1.95,.84-1.95,1.95-1.95Zm1.52,7.35v13.05h-3.04v-13.05h3.04Z" style="fill:#646464;"/><path d="M65.65,529.34c-.31-.5-.9-1.12-1.86-1.12-.43,0-.74,.16-.93,.34-.16,.15-.28,.4-.28,.68,0,.34,.15,.56,.43,.74,.19,.12,.37,.19,1.02,.53l1.55,.78c.68,.34,1.33,.68,1.83,1.21,.71,.71,.96,1.52,.96,2.42,0,1.18-.43,2.2-1.15,2.98-1.02,1.12-2.29,1.46-3.66,1.46-.84,0-1.89-.12-2.82-.84-.74-.56-1.36-1.46-1.67-2.39l2.48-1.18c.16,.43,.43,.99,.71,1.24,.19,.19,.62,.5,1.33,.5,.46,0,.96-.15,1.24-.43,.25-.25,.43-.65,.43-1.02s-.12-.68-.4-.99c-.37-.37-.81-.59-1.3-.81l-1.12-.53c-.59-.28-1.3-.62-1.8-1.12-.68-.65-.93-1.36-.93-2.2,0-1.05,.4-2.08,1.08-2.79,.59-.62,1.58-1.24,3.19-1.24,.93,0,1.67,.19,2.42,.68,.43,.28,1.02,.78,1.49,1.61l-2.26,1.49Z" style="fill:#646464;"/><path d="M74.14,546.05h-3.04v-20.15h3.04v1.43c1.12-1.33,2.57-1.77,3.88-1.77,3.44,0,6.36,2.64,6.36,6.79,0,4.4-3.22,7.01-6.33,7.01-.71,0-2.54-.25-3.91-1.92v8.62Zm-.19-13.55c0,2.73,1.77,4.12,3.69,4.12,2.2,0,3.63-1.89,3.63-4.16s-1.43-4.19-3.63-4.19c-1.92,0-3.69,1.36-3.69,4.22Z" style="fill:#646464;"/><path d="M97.09,525.9h3.04v13.05h-3.04v-1.36c-1.33,1.55-2.98,1.77-3.91,1.77-4.03,0-6.33-3.35-6.33-6.95,0-4.25,2.92-6.85,6.36-6.85,.96,0,2.64,.25,3.88,1.86v-1.52Zm-7.13,6.57c0,2.26,1.43,4.16,3.63,4.16,1.92,0,3.69-1.4,3.69-4.12s-1.77-4.22-3.69-4.22c-2.2,0-3.63,1.86-3.63,4.19Z" style="fill:#646464;"/><path d="M103.94,525.9h3.04v1.21c1.3-1.46,2.79-1.55,3.54-1.55,2.42,0,3.44,1.21,3.84,1.77,.5,.71,.81,1.61,.81,3.63v8h-3.04v-7.26c0-3.32-1.24-3.41-2.39-3.41-1.36,0-2.76,.19-2.76,4.4v6.26h-3.04v-13.05Z" style="fill:#646464;"/><path d="M120.52,518.55c1.12,0,1.95,.84,1.95,1.95s-.84,1.95-1.95,1.95-1.95-.84-1.95-1.95,.84-1.95,1.95-1.95Zm1.52,7.35v13.05h-3.04v-13.05h3.04Z" style="fill:#646464;"/><path d="M135.99,529.9c-1.4-1.36-2.76-1.61-3.69-1.61-1.43,0-2.33,.59-2.88,1.15-.56,.56-1.12,1.55-1.12,3.01s.59,2.54,1.18,3.13c.68,.65,1.64,1.05,2.76,1.05,1.24,0,2.7-.5,3.75-1.67v3.38c-.74,.46-1.95,1.02-3.97,1.02-2.17,0-3.72-.62-4.96-1.92-.93-.96-1.86-2.51-1.86-4.9s1.02-4.09,1.98-5.05c1.02-1.02,2.67-1.92,5.24-1.92,.99,0,2.17,.16,3.57,.93v3.41Z" style="fill:#646464;"/><path d="M153.29,515.23l2.48,1.12-16.31,29.21-2.48-1.12,16.31-29.21Z" style="fill:#646464;"/><path d="M163.83,518.27v17.7h6.08v2.98h-9.24v-20.68h3.16Z" style="fill:#646464;"/><path d="M181.87,525.9h3.04v13.05h-3.04v-1.36c-1.33,1.55-2.98,1.77-3.91,1.77-4.03,0-6.33-3.35-6.33-6.95,0-4.25,2.92-6.85,6.36-6.85,.96,0,2.63,.25,3.88,1.86v-1.52Zm-7.13,6.57c0,2.26,1.43,4.16,3.63,4.16,1.92,0,3.69-1.4,3.69-4.12s-1.77-4.22-3.69-4.22c-2.2,0-3.63,1.86-3.63,4.19Z" style="fill:#646464;"/><path d="M191.88,528.69v10.26h-3.04v-10.26h-1.27v-2.79h1.27v-4.77h3.04v4.77h2.33v2.79h-2.33Z" style="fill:#646464;"/><path d="M197.77,518.55c1.12,0,1.95,.84,1.95,1.95s-.84,1.95-1.95,1.95-1.95-.84-1.95-1.95,.84-1.95,1.95-1.95Zm1.52,7.35v13.05h-3.04v-13.05h3.04Z" style="fill:#646464;"/><path d="M203.1,525.9h3.04v1.21c1.3-1.46,2.79-1.55,3.53-1.55,2.42,0,3.44,1.21,3.84,1.77,.5,.71,.81,1.61,.81,3.63v8h-3.04v-7.26c0-3.32-1.24-3.41-2.39-3.41-1.37,0-2.76,.19-2.76,4.4v6.26h-3.04v-13.05Z" style="fill:#646464;"/><path d="M223.07,528.16l-5.71-9.89h3.54l4.03,7.01,4.12-7.01h3.53l-5.95,9.89,6.23,10.79h-3.53l-4.53-7.91-4.71,7.91h-3.54l6.51-10.79Z" style="fill:#646464;"/><path d="M164.1,674.27l5.46,13.83,5.58-14.82,5.39,14.82,5.64-13.83h3.41l-9.24,22.01-5.39-14.67-5.46,14.67-8.81-22.01h3.41Z" style="fill:#646464;"/><path d="M190.7,672.35h3.04v10.67c1.3-1.33,2.73-1.46,3.5-1.46,2.39,0,3.47,1.24,3.84,1.77,.81,1.18,.84,2.7,.84,3.63v8h-3.04v-7.72c0-.78,0-1.61-.59-2.26-.34-.37-.93-.68-1.71-.68-1.02,0-1.83,.5-2.23,1.08-.43,.62-.62,1.61-.62,3.29v6.29h-3.04v-22.6Z" style="fill:#646464;"/><path d="M207.29,674.55c1.12,0,1.95,.84,1.95,1.95s-.84,1.95-1.95,1.95-1.95-.84-1.95-1.95,.84-1.95,1.95-1.95Zm1.52,7.35v13.05h-3.04v-13.05h3.04Z" style="fill:#646464;"/><path d="M215.78,684.69v10.26h-3.04v-10.26h-1.27v-2.79h1.27v-4.77h3.04v4.77h2.33v2.79h-2.33Z" style="fill:#646464;"/><path d="M231.84,691.98c-.56,.99-1.36,1.86-2.2,2.39-1.05,.68-2.45,.99-3.85,.99-1.74,0-3.16-.43-4.4-1.67s-1.92-3.04-1.92-4.99,.71-3.97,2.08-5.36c1.08-1.09,2.51-1.77,4.37-1.77,2.08,0,3.41,.9,4.19,1.71,1.67,1.74,1.83,4.16,1.83,5.52v.37h-9.36c.06,.93,.47,1.98,1.12,2.64,.71,.71,1.58,.84,2.33,.84,.84,0,1.46-.19,2.08-.65,.53-.4,.93-.93,1.21-1.43l2.54,1.43Zm-3.01-5.3c-.12-.71-.46-1.33-.93-1.77-.4-.37-1.05-.74-2.05-.74-1.05,0-1.74,.43-2.14,.84-.43,.4-.77,1.02-.93,1.67h6.05Z" style="fill:#646464;"/></g><g><path d="M228.6,776.39c-1.68-1.92-2.04-4.44-2.04-6.53s.36-4.63,2.04-6.55c1.01-1.15,2.21-1.73,3.62-1.73s2.62,.58,3.62,1.73c1.68,1.92,2.04,4.49,2.04,6.55s-.36,4.61-2.04,6.53c-1.01,1.15-2.18,1.73-3.62,1.73s-2.62-.58-3.62-1.73Zm1.46-11.33c-.89,1.32-1.1,3.38-1.1,4.78s.22,3.46,1.1,4.8c.7,1.06,1.54,1.32,2.16,1.32s1.46-.26,2.16-1.32c.89-1.34,1.1-3.38,1.1-4.8s-.22-3.46-1.1-4.78c-.7-1.06-1.54-1.32-2.16-1.32s-1.46,.26-2.16,1.32Z" style="fill:#646464;"/><path d="M247.56,765.47c0,2.04-1.73,3.77-3.86,3.77s-3.86-1.73-3.86-3.77,1.75-3.77,3.86-3.77,3.86,1.7,3.86,3.77Zm-1.87,0c0-.94-.67-2.04-1.99-2.04s-1.99,1.1-1.99,2.04,.67,2.04,1.99,2.04,1.99-1.1,1.99-2.04Zm7.08-3.89l1.13,.65-9.15,15.89-1.13-.7,9.14-15.84Zm4.92,12.67c0,2.04-1.73,3.77-3.86,3.77s-3.86-1.73-3.86-3.77,1.75-3.77,3.86-3.77,3.86,1.7,3.86,3.77Zm-1.87,0c0-.94-.67-2.04-1.99-2.04s-1.99,1.1-1.99,2.04,.67,2.04,1.99,2.04,1.99-1.1,1.99-2.04Z" style="fill:#646464;"/></g><g><path d="M314.14,764.1h-2.78l1.34-2.26h3.89v16.01h-2.45v-13.75Z" style="fill:#646464;"/><path d="M323.16,776.39c-1.68-1.92-2.04-4.44-2.04-6.53s.36-4.63,2.04-6.55c1.01-1.15,2.21-1.73,3.62-1.73s2.62,.58,3.62,1.73c1.68,1.92,2.04,4.49,2.04,6.55s-.36,4.61-2.04,6.53c-1.01,1.15-2.18,1.73-3.62,1.73s-2.62-.58-3.62-1.73Zm1.46-11.33c-.89,1.32-1.1,3.38-1.1,4.78s.22,3.46,1.1,4.8c.7,1.06,1.54,1.32,2.16,1.32s1.46-.26,2.16-1.32c.89-1.34,1.1-3.38,1.1-4.8s-.22-3.46-1.1-4.78c-.7-1.06-1.54-1.32-2.16-1.32s-1.46,.26-2.16,1.32Z" style="fill:#646464;"/><path d="M342.12,765.47c0,2.04-1.73,3.77-3.86,3.77s-3.86-1.73-3.86-3.77,1.75-3.77,3.86-3.77,3.86,1.7,3.86,3.77Zm-1.87,0c0-.94-.67-2.04-1.99-2.04s-1.99,1.1-1.99,2.04,.67,2.04,1.99,2.04,1.99-1.1,1.99-2.04Zm7.08-3.89l1.13,.65-9.15,15.89-1.13-.7,9.14-15.84Zm4.92,12.67c0,2.04-1.73,3.77-3.86,3.77s-3.86-1.73-3.86-3.77,1.75-3.77,3.86-3.77,3.86,1.7,3.86,3.77Zm-1.87,0c0-.94-.67-2.04-1.99-2.04s-1.99,1.1-1.99,2.04,.67,2.04,1.99,2.04,1.99-1.1,1.99-2.04Z" style="fill:#646464;"/></g><g><path d="M409.79,777.85h-10.75l5.54-6.72c.55-.67,1.39-1.73,1.92-2.5,.46-.67,.84-1.37,.84-2.3,0-1.34-.89-2.59-2.66-2.59s-2.74,1.39-2.83,2.9h-2.35c.07-1.56,.72-2.81,1.34-3.5,.58-.65,1.73-1.56,3.74-1.56,3.41,0,5.16,2.33,5.16,4.82,0,1.32-.5,2.4-1.15,3.36-.58,.86-1.32,1.75-2.28,2.88l-2.5,2.95h5.98v2.26Z" style="fill:#646464;"/><path d="M415.04,776.39c-1.68-1.92-2.04-4.44-2.04-6.53s.36-4.63,2.04-6.55c1.01-1.15,2.21-1.73,3.62-1.73s2.62,.58,3.62,1.73c1.68,1.92,2.04,4.49,2.04,6.55s-.36,4.61-2.04,6.53c-1.01,1.15-2.18,1.73-3.62,1.73s-2.62-.58-3.62-1.73Zm1.46-11.33c-.89,1.32-1.1,3.38-1.1,4.78s.22,3.46,1.1,4.8c.7,1.06,1.54,1.32,2.16,1.32s1.46-.26,2.16-1.32c.89-1.34,1.1-3.38,1.1-4.8s-.22-3.46-1.1-4.78c-.7-1.06-1.54-1.32-2.16-1.32s-1.46,.26-2.16,1.32Z" style="fill:#646464;"/><path d="M434,765.47c0,2.04-1.73,3.77-3.86,3.77s-3.86-1.73-3.86-3.77,1.75-3.77,3.86-3.77,3.86,1.7,3.86,3.77Zm-1.87,0c0-.94-.67-2.04-1.99-2.04s-1.99,1.1-1.99,2.04,.67,2.04,1.99,2.04,1.99-1.1,1.99-2.04Zm7.08-3.89l1.13,.65-9.15,15.89-1.13-.7,9.14-15.84Zm4.92,12.67c0,2.04-1.73,3.77-3.86,3.77s-3.86-1.73-3.86-3.77,1.75-3.77,3.86-3.77,3.86,1.7,3.86,3.77Zm-1.87,0c0-.94-.67-2.04-1.99-2.04s-1.99,1.1-1.99,2.04,.67,2.04,1.99,2.04,1.99-1.1,1.99-2.04Z" style="fill:#646464;"/></g><g><path d="M490.83,765.92c.07-1.3,.62-2.4,1.37-3.12,1.1-1.06,2.45-1.22,3.5-1.22,1.22,0,2.42,.24,3.46,1.32,.84,.86,1.15,1.9,1.15,3.05,0,.77-.14,1.44-.55,2.11-.43,.7-.98,1.1-1.44,1.34,.82,.31,1.32,.86,1.58,1.27,.46,.67,.67,1.56,.67,2.47,0,1.58-.6,2.81-1.37,3.58-1.15,1.15-2.66,1.39-3.91,1.39s-2.54-.24-3.58-1.34c-.72-.77-1.25-2.04-1.37-3.26h2.35c.12,.72,.46,1.34,.86,1.73,.34,.31,.94,.72,1.94,.72,.74,0,1.44-.29,1.87-.67,.46-.43,.84-1.18,.84-2.26,0-.53-.1-1.3-.72-1.9-.7-.67-1.56-.72-2.06-.72h-.48v-2.06h.34c1.03,0,1.68-.34,2.04-.7,.38-.38,.62-.98,.62-1.7,0-.84-.36-1.34-.62-1.61-.55-.53-1.22-.6-1.7-.6-.58,0-1.25,.1-1.78,.65-.55,.58-.67,1.44-.67,1.54h-2.35Z" style="fill:#646464;"/><path d="M506.02,776.39c-1.68-1.92-2.04-4.44-2.04-6.53s.36-4.63,2.04-6.55c1.01-1.15,2.21-1.73,3.62-1.73s2.62,.58,3.62,1.73c1.68,1.92,2.04,4.49,2.04,6.55s-.36,4.61-2.04,6.53c-1.01,1.15-2.18,1.73-3.62,1.73s-2.62-.58-3.62-1.73Zm1.46-11.33c-.89,1.32-1.1,3.38-1.1,4.78s.22,3.46,1.1,4.8c.7,1.06,1.54,1.32,2.16,1.32s1.46-.26,2.16-1.32c.89-1.34,1.1-3.38,1.1-4.8s-.22-3.46-1.1-4.78c-.7-1.06-1.54-1.32-2.16-1.32s-1.46,.26-2.16,1.32Z" style="fill:#646464;"/><path d="M524.98,765.47c0,2.04-1.73,3.77-3.86,3.77s-3.86-1.73-3.86-3.77,1.75-3.77,3.86-3.77,3.86,1.7,3.86,3.77Zm-1.87,0c0-.94-.67-2.04-1.99-2.04s-1.99,1.1-1.99,2.04,.67,2.04,1.99,2.04,1.99-1.1,1.99-2.04Zm7.08-3.89l1.13,.65-9.14,15.89-1.13-.7,9.14-15.84Zm4.92,12.67c0,2.04-1.73,3.77-3.86,3.77s-3.86-1.73-3.86-3.77,1.75-3.77,3.86-3.77,3.86,1.7,3.86,3.77Zm-1.87,0c0-.94-.67-2.04-1.99-2.04s-1.99,1.1-1.99,2.04,.67,2.04,1.99,2.04,1.99-1.1,1.99-2.04Z" style="fill:#646464;"/></g><g><path d="M589.37,772.57h1.73v2.26h-1.73v3.02h-2.35v-3.02h-7.92l10.27-14.16v11.91Zm-2.35,.05v-5.16l-3.65,5.16h3.65Z" style="fill:#646464;"/><path d="M595.45,776.39c-1.68-1.92-2.04-4.44-2.04-6.53s.36-4.63,2.04-6.55c1.01-1.15,2.21-1.73,3.62-1.73s2.62,.58,3.62,1.73c1.68,1.92,2.04,4.49,2.04,6.55s-.36,4.61-2.04,6.53c-1.01,1.15-2.18,1.73-3.62,1.73s-2.62-.58-3.62-1.73Zm1.46-11.33c-.89,1.32-1.1,3.38-1.1,4.78s.22,3.46,1.1,4.8c.7,1.06,1.54,1.32,2.16,1.32s1.46-.26,2.16-1.32c.89-1.34,1.1-3.38,1.1-4.8s-.22-3.46-1.1-4.78c-.7-1.06-1.54-1.32-2.16-1.32s-1.46,.26-2.16,1.32Z" style="fill:#646464;"/><path d="M614.41,765.47c0,2.04-1.73,3.77-3.86,3.77s-3.86-1.73-3.86-3.77,1.75-3.77,3.86-3.77,3.86,1.7,3.86,3.77Zm-1.87,0c0-.94-.67-2.04-1.99-2.04s-1.99,1.1-1.99,2.04,.67,2.04,1.99,2.04,1.99-1.1,1.99-2.04Zm7.08-3.89l1.13,.65-9.14,15.89-1.13-.7,9.14-15.84Zm4.92,12.67c0,2.04-1.73,3.77-3.86,3.77s-3.86-1.73-3.86-3.77,1.75-3.77,3.86-3.77,3.86,1.7,3.86,3.77Zm-1.87,0c0-.94-.67-2.04-1.99-2.04s-1.99,1.1-1.99,2.04,.67,2.04,1.99,2.04,1.99-1.1,1.99-2.04Z" style="fill:#646464;"/></g><g><path d="M682.6,764.1h-4.94l-.79,2.66c.24-.02,.5-.05,.74-.05,1.34,0,2.71,.46,3.7,1.42,.77,.74,1.56,2.02,1.56,4.1,0,1.75-.55,3.17-1.63,4.25-1.27,1.25-2.81,1.63-4.44,1.63-.94,0-2.04-.12-3.07-.72-.24-.14-1.15-.7-1.9-1.85l1.85-1.54c.05,.12,.48,.91,1.22,1.39,.53,.36,1.27,.55,2.09,.55,1.29,0,2.04-.5,2.45-.89,.48-.48,1.03-1.34,1.03-2.71s-.46-2.11-.96-2.59c-.79-.74-1.85-.89-2.62-.89-.7,0-1.22,.1-1.87,.34-.5,.19-.96,.41-1.42,.72l2.38-8.09h6.62v2.26Z" style="fill:#646464;"/><path d="M687.98,776.39c-1.68-1.92-2.04-4.44-2.04-6.53s.36-4.63,2.04-6.55c1.01-1.15,2.21-1.73,3.62-1.73s2.62,.58,3.62,1.73c1.68,1.92,2.04,4.49,2.04,6.55s-.36,4.61-2.04,6.53c-1.01,1.15-2.18,1.73-3.62,1.73s-2.62-.58-3.62-1.73Zm1.46-11.33c-.89,1.32-1.1,3.38-1.1,4.78s.22,3.46,1.1,4.8c.7,1.06,1.54,1.32,2.16,1.32s1.46-.26,2.16-1.32c.89-1.34,1.1-3.38,1.1-4.8s-.22-3.46-1.1-4.78c-.7-1.06-1.54-1.32-2.16-1.32s-1.46,.26-2.16,1.32Z" style="fill:#646464;"/><path d="M706.94,765.47c0,2.04-1.73,3.77-3.86,3.77s-3.86-1.73-3.86-3.77,1.75-3.77,3.86-3.77,3.86,1.7,3.86,3.77Zm-1.87,0c0-.94-.67-2.04-1.99-2.04s-1.99,1.1-1.99,2.04,.67,2.04,1.99,2.04,1.99-1.1,1.99-2.04Zm7.08-3.89l1.13,.65-9.15,15.89-1.13-.7,9.14-15.84Zm4.92,12.67c0,2.04-1.73,3.77-3.86,3.77s-3.86-1.73-3.86-3.77,1.75-3.77,3.86-3.77,3.86,1.7,3.86,3.77Zm-1.87,0c0-.94-.67-2.04-1.99-2.04s-1.99,1.1-1.99,2.04,.67,2.04,1.99,2.04,1.99-1.1,1.99-2.04Z" style="fill:#646464;"/></g><g><path d="M768.38,762.61l-3.82,4.82c.36-.07,.67-.1,1.01-.1,1.87,0,3.05,.82,3.7,1.49,.86,.91,1.42,2.28,1.42,3.74s-.5,2.98-1.58,4.03c-1.34,1.32-3.07,1.51-4.13,1.51-1.39,0-2.9-.29-4.13-1.56-.84-.89-1.39-2.06-1.39-3.62,0-1.18,.26-2.09,.77-3.07,.6-1.2,1.22-1.92,1.94-2.86l4.44-5.71,1.78,1.32Zm-5.59,7.7c-.53,.5-.94,1.37-.94,2.38,0,.82,.31,1.78,.94,2.38,.5,.48,1.46,.89,2.3,.89,.74,0,1.66-.29,2.26-.89,.6-.6,.94-1.56,.94-2.38s-.34-1.78-.94-2.38c-.55-.55-1.44-.89-2.26-.89s-1.73,.34-2.3,.89Z" style="fill:#646464;"/><path d="M775.07,776.39c-1.68-1.92-2.04-4.44-2.04-6.53s.36-4.63,2.04-6.55c1.01-1.15,2.21-1.73,3.62-1.73s2.62,.58,3.62,1.73c1.68,1.92,2.04,4.49,2.04,6.55s-.36,4.61-2.04,6.53c-1.01,1.15-2.18,1.73-3.62,1.73s-2.62-.58-3.62-1.73Zm1.46-11.33c-.89,1.32-1.1,3.38-1.1,4.78s.22,3.46,1.1,4.8c.7,1.06,1.54,1.32,2.16,1.32s1.46-.26,2.16-1.32c.89-1.34,1.1-3.38,1.1-4.8s-.22-3.46-1.1-4.78c-.7-1.06-1.54-1.32-2.16-1.32s-1.46,.26-2.16,1.32Z" style="fill:#646464;"/><path d="M794.03,765.47c0,2.04-1.73,3.77-3.86,3.77s-3.86-1.73-3.86-3.77,1.75-3.77,3.86-3.77,3.86,1.7,3.86,3.77Zm-1.87,0c0-.94-.67-2.04-1.99-2.04s-1.99,1.1-1.99,2.04,.67,2.04,1.99,2.04,1.99-1.1,1.99-2.04Zm7.08-3.89l1.13,.65-9.15,15.89-1.13-.7,9.14-15.84Zm4.92,12.67c0,2.04-1.73,3.77-3.86,3.77s-3.86-1.73-3.86-3.77,1.75-3.77,3.86-3.77,3.86,1.7,3.86,3.77Zm-1.87,0c0-.94-.67-2.04-1.99-2.04s-1.99,1.1-1.99,2.04,.67,2.04,1.99,2.04,1.99-1.1,1.99-2.04Z" style="fill:#646464;"/></g><g><path d="M850.17,764.1h-7.87v-2.26h11.91l-10.08,16.56-1.92-1.2,7.97-13.1Z" style="fill:#646464;"/><path d="M856.32,776.39c-1.68-1.92-2.04-4.44-2.04-6.53s.36-4.63,2.04-6.55c1.01-1.15,2.21-1.73,3.62-1.73s2.62,.58,3.62,1.73c1.68,1.92,2.04,4.49,2.04,6.55s-.36,4.61-2.04,6.53c-1.01,1.15-2.18,1.73-3.62,1.73s-2.62-.58-3.62-1.73Zm1.46-11.33c-.89,1.32-1.1,3.38-1.1,4.78s.22,3.46,1.1,4.8c.7,1.06,1.54,1.32,2.16,1.32s1.46-.26,2.16-1.32c.89-1.34,1.1-3.38,1.1-4.8s-.22-3.46-1.1-4.78c-.7-1.06-1.54-1.32-2.16-1.32s-1.46,.26-2.16,1.32Z" style="fill:#646464;"/><path d="M875.28,765.47c0,2.04-1.73,3.77-3.86,3.77s-3.86-1.73-3.86-3.77,1.75-3.77,3.86-3.77,3.86,1.7,3.86,3.77Zm-1.87,0c0-.94-.67-2.04-1.99-2.04s-1.99,1.1-1.99,2.04,.67,2.04,1.99,2.04,1.99-1.1,1.99-2.04Zm7.08-3.89l1.13,.65-9.15,15.89-1.13-.7,9.14-15.84Zm4.92,12.67c0,2.04-1.73,3.77-3.86,3.77s-3.86-1.73-3.86-3.77,1.75-3.77,3.86-3.77,3.86,1.7,3.86,3.77Zm-1.87,0c0-.94-.67-2.04-1.99-2.04s-1.99,1.1-1.99,2.04,.67,2.04,1.99,2.04,1.99-1.1,1.99-2.04Z" style="fill:#646464;"/></g><g><path d="M939.38,770.82c.6,.79,.72,1.68,.72,2.4,0,1.63-.62,2.74-1.27,3.41-.74,.79-1.94,1.49-3.77,1.49s-3.02-.7-3.77-1.49c-.65-.67-1.27-1.78-1.27-3.41,0-.72,.12-1.61,.72-2.4,.36-.5,.94-.98,1.68-1.3-.67-.29-1.13-.77-1.42-1.2-.41-.65-.58-1.46-.58-2.18,0-1.27,.46-2.47,1.34-3.34,.5-.48,1.54-1.22,3.29-1.22s2.78,.74,3.29,1.22c.89,.86,1.34,2.06,1.34,3.34,0,.72-.17,1.54-.58,2.18-.29,.43-.74,.91-1.42,1.2,.74,.31,1.32,.79,1.68,1.3Zm-6.22,.5c-.48,.48-.74,1.25-.74,1.94,0,.62,.24,1.34,.72,1.87,.34,.38,.94,.82,1.92,.82s1.58-.43,1.92-.82c.48-.53,.72-1.25,.72-1.87,0-.7-.26-1.46-.74-1.94-.48-.48-1.2-.74-1.9-.74s-1.42,.26-1.9,.74Zm.14-6.94c-.41,.41-.67,1.06-.67,1.78s.29,1.32,.65,1.68c.43,.46,1.15,.72,1.78,.72s1.34-.26,1.78-.72c.36-.36,.65-.94,.65-1.68s-.26-1.37-.67-1.78c-.41-.38-1.01-.65-1.75-.65s-1.34,.26-1.75,.65Z" style="fill:#646464;"/><path d="M945.07,776.39c-1.68-1.92-2.04-4.44-2.04-6.53s.36-4.63,2.04-6.55c1.01-1.15,2.21-1.73,3.62-1.73s2.62,.58,3.62,1.73c1.68,1.92,2.04,4.49,2.04,6.55s-.36,4.61-2.04,6.53c-1.01,1.15-2.18,1.73-3.62,1.73s-2.62-.58-3.62-1.73Zm1.46-11.33c-.89,1.32-1.1,3.38-1.1,4.78s.22,3.46,1.1,4.8c.7,1.06,1.54,1.32,2.16,1.32s1.46-.26,2.16-1.32c.89-1.34,1.1-3.38,1.1-4.8s-.22-3.46-1.1-4.78c-.7-1.06-1.54-1.32-2.16-1.32s-1.46,.26-2.16,1.32Z" style="fill:#646464;"/><path d="M964.03,765.47c0,2.04-1.73,3.77-3.86,3.77s-3.86-1.73-3.86-3.77,1.75-3.77,3.86-3.77,3.86,1.7,3.86,3.77Zm-1.87,0c0-.94-.67-2.04-1.99-2.04s-1.99,1.1-1.99,2.04,.67,2.04,1.99,2.04,1.99-1.1,1.99-2.04Zm7.08-3.89l1.13,.65-9.15,15.89-1.13-.7,9.14-15.84Zm4.92,12.67c0,2.04-1.73,3.77-3.86,3.77s-3.86-1.73-3.86-3.77,1.75-3.77,3.86-3.77,3.86,1.7,3.86,3.77Zm-1.87,0c0-.94-.67-2.04-1.99-2.04s-1.99,1.1-1.99,2.04,.67,2.04,1.99,2.04,1.99-1.1,1.99-2.04Z" style="fill:#646464;"/></g><rect x="251" y="473.96" width="47" height="109.12" style="fill:#28509c;"/><rect x="251" y="315.92" width="22" height="109.12" style="fill:#28509c;"/><rect x="251" y="156.88" width="154" height="109.12" style="fill:#28509c;"/><g><path d="M292.1,363.89h-3.42v-5.29h9.65v24.01h-6.23v-18.72Z" style="fill:#28509c;"/><path d="M305.89,382.18c-.47-.47-1.12-1.33-1.12-2.63s.65-2.16,1.12-2.63c.86-.86,1.84-1.12,2.63-1.12,.9,0,1.87,.36,2.66,1.15,.61,.61,1.04,1.4,1.04,2.59s-.43,1.98-1.08,2.63c-.76,.76-1.69,1.12-2.63,1.12-.79,0-1.76-.25-2.63-1.12Z" style="fill:#28509c;"/><path d="M331.73,373.29h2.92v4.79h-2.92v4.54h-5.76v-4.54h-11.63v-4l9.25-15.48h8.13v14.69Zm-5.76,0v-9.79l-5.65,9.79h5.65Z" style="fill:#28509c;"/><path d="M338.25,368.21c-1.04-1.12-1.51-2.41-1.51-3.89s.54-3.06,1.48-4.07c1.51-1.69,3.67-1.91,5.04-1.91,2.59,0,4.14,.9,5.11,1.91,.72,.76,1.51,2.02,1.51,3.96,0,1.84-.72,3.13-1.55,4-1.51,1.58-3.53,1.91-5.08,1.91-1.66,0-3.49-.32-5-1.91Zm3.1-5.87c-.47,.5-.72,1.19-.72,1.87,0,.83,.4,1.58,.94,2.05,.43,.39,1.04,.65,1.76,.65s1.44-.32,1.91-.76c.47-.47,.79-1.19,.79-1.94s-.29-1.47-.86-2.02c-.54-.5-1.15-.68-1.84-.68-.83,0-1.55,.36-1.98,.83Zm15.69-3.74h3.13l-13.93,24.01h-3.09l13.89-24.01Zm-2.09,22.39c-1.04-1.12-1.51-2.41-1.51-3.89s.54-3.06,1.48-4.07c1.51-1.69,3.67-1.91,5.04-1.91,2.59,0,4.14,.9,5.11,1.91,.72,.76,1.51,2.02,1.51,3.96,0,1.84-.72,3.13-1.55,3.99-1.51,1.58-3.53,1.91-5.08,1.91-1.66,0-3.49-.32-5-1.91Zm3.1-5.87c-.47,.5-.72,1.19-.72,1.87,0,.83,.4,1.58,.94,2.05,.43,.4,1.04,.65,1.76,.65s1.44-.32,1.91-.76c.47-.47,.79-1.19,.79-1.94s-.29-1.48-.86-2.02c-.54-.5-1.15-.69-1.84-.69-.83,0-1.55,.36-1.98,.83Z" style="fill:#28509c;"/></g><g><path d="M333.34,534.29h2.92v4.79h-2.92v4.54h-5.76v-4.54h-11.63v-4l9.25-15.48h8.13v14.69Zm-5.76,0v-9.79l-5.65,9.79h5.65Z" style="fill:#28509c;"/><path d="M340,543.18c-.47-.47-1.12-1.33-1.12-2.63s.65-2.16,1.12-2.63c.86-.86,1.83-1.12,2.63-1.12,.9,0,1.87,.36,2.66,1.15,.61,.61,1.04,1.4,1.04,2.59s-.43,1.98-1.08,2.63c-.76,.76-1.69,1.12-2.63,1.12-.79,0-1.76-.25-2.63-1.12Z" style="fill:#28509c;"/><path d="M355.45,535.41c.04,.9,.4,1.84,.97,2.41,.54,.57,1.4,.94,2.45,.94,1.22,0,1.98-.54,2.45-1.04,.54-.61,.72-1.26,.72-1.98,0-1.04-.5-1.76-.94-2.12-.61-.5-1.55-.68-2.3-.68-.4,0-.72,.04-1.04,.14v-4.21c1.26,.18,2.05-.18,2.55-.61,.58-.5,.79-1.15,.79-1.69,0-.65-.29-1.37-.65-1.73-.4-.39-1.08-.65-1.76-.65-.76,0-1.37,.25-1.73,.61-.54,.5-.83,1.37-.83,2.12h-5.8c.14-2.52,1.26-4.43,2.34-5.51,1.76-1.84,4.03-2.34,6.34-2.34,1.8,0,4.18,.36,5.97,2.12,1.19,1.19,1.94,2.81,1.94,4.64,0,1.04-.18,1.98-.72,2.95-.43,.79-.97,1.4-1.84,1.84,1.48,.54,2.34,1.47,2.84,2.2,.68,1.01,1.01,2.16,1.01,3.53,0,2.55-1.12,4.25-2.12,5.26-1.3,1.29-3.6,2.55-7.16,2.55-2.3,0-4.79-.54-6.88-2.48-1.22-1.12-2.7-3.17-2.99-6.26h6.37Z" style="fill:#28509c;"/><path d="M372.37,529.21c-1.04-1.12-1.51-2.41-1.51-3.89s.54-3.06,1.48-4.07c1.51-1.69,3.67-1.91,5.04-1.91,2.59,0,4.14,.9,5.11,1.91,.72,.76,1.51,2.02,1.51,3.96,0,1.84-.72,3.13-1.55,4-1.51,1.58-3.53,1.91-5.08,1.91-1.66,0-3.49-.32-5-1.91Zm3.1-5.87c-.47,.5-.72,1.19-.72,1.87,0,.83,.4,1.58,.94,2.05,.43,.39,1.04,.65,1.76,.65s1.44-.32,1.91-.76c.47-.47,.79-1.19,.79-1.94s-.29-1.47-.86-2.02c-.54-.5-1.15-.68-1.84-.68-.83,0-1.55,.36-1.98,.83Zm15.69-3.74h3.13l-13.93,24.01h-3.1l13.89-24.01Zm-2.09,22.39c-1.04-1.12-1.51-2.41-1.51-3.89s.54-3.06,1.48-4.07c1.51-1.69,3.67-1.91,5.04-1.91,2.59,0,4.14,.9,5.11,1.91,.72,.76,1.51,2.02,1.51,3.96,0,1.84-.72,3.13-1.55,3.99-1.51,1.58-3.53,1.91-5.08,1.91-1.66,0-3.49-.32-5-1.91Zm3.1-5.87c-.47,.5-.72,1.19-.72,1.87,0,.83,.4,1.58,.94,2.05,.43,.4,1.04,.65,1.76,.65s1.44-.32,1.91-.76c.47-.47,.79-1.19,.79-1.94s-.29-1.48-.87-2.02c-.54-.5-1.15-.69-1.83-.69-.83,0-1.55,.36-1.98,.83Z" style="fill:#28509c;"/></g><g><path d="M432.45,201.89h-3.42v-5.29h9.65v24.01h-6.23v-18.72Z" style="fill:#28509c;"/><path d="M454.62,201.89h-10.01v-5.29h19.69l-13.75,24.01h-6.88l10.94-18.72Z" style="fill:#28509c;"/><path d="M461.54,220.18c-.47-.47-1.12-1.33-1.12-2.63s.65-2.16,1.12-2.63c.86-.86,1.83-1.12,2.63-1.12,.9,0,1.87,.36,2.66,1.15,.61,.61,1.04,1.4,1.04,2.59s-.43,1.98-1.08,2.63c-.76,.76-1.69,1.12-2.63,1.12-.79,0-1.76-.25-2.63-1.12Z" style="fill:#28509c;"/><path d="M487.38,211.29h2.92v4.79h-2.92v4.54h-5.76v-4.54h-11.63v-4l9.25-15.48h8.13v14.69Zm-5.76,0v-9.79l-5.65,9.79h5.65Z" style="fill:#28509c;"/><path d="M493.9,206.21c-1.04-1.12-1.51-2.41-1.51-3.89,0-1.55,.54-3.06,1.48-4.07,1.51-1.69,3.67-1.91,5.04-1.91,2.59,0,4.14,.9,5.11,1.91,.72,.76,1.51,2.02,1.51,3.96,0,1.84-.72,3.13-1.55,3.99-1.51,1.58-3.53,1.91-5.07,1.91-1.66,0-3.49-.32-5-1.91Zm3.1-5.87c-.47,.5-.72,1.19-.72,1.87,0,.83,.4,1.58,.94,2.05,.43,.4,1.04,.65,1.76,.65s1.44-.32,1.91-.76c.47-.47,.79-1.19,.79-1.94s-.29-1.48-.86-2.02c-.54-.5-1.15-.69-1.84-.69-.83,0-1.55,.36-1.98,.83Zm15.69-3.74h3.13l-13.93,24.01h-3.09l13.89-24.01Zm-2.09,22.39c-1.04-1.12-1.51-2.41-1.51-3.89,0-1.55,.54-3.06,1.48-4.07,1.51-1.69,3.67-1.91,5.04-1.91,2.59,0,4.14,.9,5.11,1.91,.72,.76,1.51,2.02,1.51,3.96,0,1.84-.72,3.13-1.55,4-1.51,1.58-3.53,1.91-5.08,1.91-1.66,0-3.49-.32-5-1.91Zm3.1-5.87c-.47,.5-.72,1.19-.72,1.87,0,.83,.4,1.58,.94,2.05,.43,.39,1.04,.65,1.76,.65s1.44-.32,1.91-.76c.47-.47,.79-1.19,.79-1.94s-.29-1.47-.86-2.02c-.54-.5-1.15-.68-1.84-.68-.83,0-1.55,.36-1.98,.83Z" style="fill:#28509c;"/></g><g><path d="M356.85,61.04l8.32,21.11,8.42-21.11h9.78l-14.77,34.69h-7.02l-14.56-34.69h9.83Z" style="fill:#28509c;"/><path d="M396.01,84.24v11.49h-9V61.04h14.35c3.02,0,6.14,.57,8.79,3.12,2.7,2.6,3.22,5.51,3.22,8.42,0,2.76-.36,5.98-3.07,8.63-2.71,2.65-5.93,3.02-8.63,3.02h-5.67Zm0-7.28h3.02c.94,0,2.7-.1,3.8-1.09,1.09-.94,1.14-2.34,1.14-3.17,0-.94-.1-2.18-1.04-3.12-1.04-1.09-2.7-1.25-3.85-1.25h-3.07v8.63Z" style="fill:#28509c;"/><path d="M417.59,88.03c.99,.73,2.18,1.35,3.33,1.72,1.04,.36,2.34,.57,3.22,.57,.62,0,1.61-.16,2.13-.62,.36-.36,.42-.68,.42-1.09,0-.36-.05-.73-.42-1.04-.52-.47-1.35-.62-2.18-.83l-2.18-.52c-1.14-.26-2.81-.68-4.06-2.03-.88-.94-1.51-2.24-1.51-4,0-2.24,.88-4.32,2.18-5.67,1.77-1.82,4.89-2.81,8.32-2.81s6.08,.94,7.44,1.51l-2.81,5.3c-1.14-.52-2.86-1.14-4.37-1.14-.83,0-1.4,.16-1.92,.47-.47,.26-.73,.62-.73,1.14,0,.73,.47,1.09,.99,1.3,.78,.31,1.46,.31,2.76,.68l1.51,.42c1.09,.31,2.76,1.14,3.43,1.82,1.14,1.09,1.77,2.91,1.77,4.63,0,2.81-1.2,4.68-2.34,5.77-2.71,2.7-6.66,2.91-8.58,2.91-2.08,0-5.36-.26-9.36-2.7l2.96-5.77Z" style="fill:#28509c;"/><path d="M484.72,82.47c-1.4,1.77-2.96,3.43-4.73,5.04l7.75,8.22h-11.23l-3.02-3.17c-4.68,3.43-9.1,3.95-11.65,3.95s-5.93-.36-8.53-2.91c-1.66-1.61-2.81-3.95-2.81-6.86,0-3.38,1.46-5.51,2.6-6.66,1.35-1.4,3.69-2.7,5.67-3.38-.68-.78-1.46-1.82-2.03-2.76-.78-1.3-1.2-2.55-1.2-4.26,0-2.34,1.04-4.68,2.65-6.34,2.6-2.65,6.03-3.07,8.16-3.07,4.21,0,6.71,1.56,8.06,2.86,1.87,1.82,2.76,4.32,2.76,6.5s-.78,3.95-2.39,5.56c-1.09,1.09-2.55,2.08-4.06,2.7l4.37,4.58c1.51-1.4,3.07-3.07,4.52-4.94l5.1,4.94Zm-21.63-1.25c-.36,.21-3.28,1.66-3.28,4.06,0,.78,.31,1.72,1.04,2.34,.94,.83,2.13,.99,2.96,.99,1.14,0,2.76-.26,4.73-1.51l-5.46-5.88Zm1.92-9.62c.52,.73,1.25,1.51,1.82,2.08,.78-.42,1.56-1.04,2.08-1.56,.78-.88,1.09-1.77,1.09-2.55,0-1.14-.42-1.92-.94-2.39-.52-.47-1.25-.78-2.08-.78-.73,0-1.4,.21-1.98,.73-.78,.68-.94,1.51-.94,2.13,0,.88,.47,1.66,.94,2.34Z" style="fill:#28509c;"/><path d="M524.65,89.9h-12.58l-2.34,5.82h-9.52l13.31-34.69h9.83l13.05,34.69h-9.62l-2.13-5.82Zm-2.39-6.87l-3.9-11.23-3.8,11.23h7.7Z" style="fill:#28509c;"/><path d="M547.95,57.82v16.9c1.51-1.61,3.74-3.02,6.92-3.02,2.86,0,5.93,.94,8.22,3.12,2.13,2.03,3.8,5.25,3.8,9.2,0,3.69-1.4,6.97-3.74,9.26-2.18,2.13-4.84,3.22-8.16,3.22-1.61,0-4.68-.31-7.02-3.33v2.55h-8.32V57.82h8.32Zm8.79,30.06c1.09-1.09,1.61-2.44,1.61-3.64,0-1.56-.68-3.02-1.61-3.95-.73-.73-1.92-1.51-3.69-1.51-1.56,0-2.86,.57-3.8,1.56-.83,.88-1.56,2.44-1.56,3.74,0,1.4,.68,2.96,1.77,3.95,.88,.78,2.24,1.4,3.59,1.4,1.2,0,2.55-.42,3.69-1.56Z" style="fill:#28509c;"/><path d="M595.06,92.66c-3.07,3.02-6.66,3.85-10.4,3.85-3.38,0-7.12-.68-10.35-3.85-2.55-2.5-3.59-5.46-3.59-8.58,0-4.16,1.87-6.87,3.59-8.53,1.92-1.87,5.3-3.85,10.35-3.85s8.48,2.03,10.4,3.85c1.72,1.66,3.59,4.37,3.59,8.53,0,3.12-1.04,6.08-3.59,8.58Zm-14.09-12.38c-1.04,.99-1.61,2.44-1.61,3.8s.68,2.76,1.61,3.69c.99,.99,2.34,1.56,3.74,1.56s2.7-.57,3.69-1.56c1.04-.99,1.61-2.34,1.61-3.69,0-1.25-.57-2.76-1.61-3.8-.94-.88-2.39-1.51-3.69-1.51s-2.81,.62-3.74,1.51Z" style="fill:#28509c;"/><path d="M609.36,72.48l5.56,11.91,5.67-11.91h9.26l-12.12,23.25h-5.67l-12.01-23.25h9.31Z" style="fill:#28509c;"/><path d="M656.06,85.64h-17.32c0,1.25,.47,2.91,1.46,3.9,.52,.52,1.56,1.14,3.43,1.14,.21,0,1.66-.05,2.7-.62,.52-.31,1.09-.83,1.46-1.56h7.96c-.36,1.3-1.09,3.12-2.81,4.78s-4.42,3.22-9.46,3.22c-3.07,0-6.76-.68-9.62-3.54-1.51-1.51-3.43-4.37-3.43-8.79,0-3.9,1.46-7.02,3.48-9,1.92-1.87,4.94-3.38,9.52-3.38,2.71,0,6.19,.57,8.95,3.17,3.28,3.12,3.69,7.18,3.69,9.78v.88Zm-7.64-4.78c-.21-.88-.73-1.87-1.35-2.5-1.09-1.09-2.6-1.25-3.43-1.25-1.4,0-2.5,.36-3.38,1.25-.57,.62-1.09,1.46-1.25,2.5h9.41Z" style="fill:#28509c;"/></g><g><line x1="776.37" y1="157" x2="776.37" y2="740" style="fill:none; stroke:#a0a0a0; stroke-miterlimit:10; stroke-width:.68px;"/><line x1="688.81" y1="157" x2="688.81" y2="740" style="fill:none; stroke:#a0a0a0; stroke-miterlimit:10; stroke-width:.68px;"/><line x1="951.5" y1="157" x2="951.5" y2="740" style="fill:none; stroke:#a0a0a0; stroke-miterlimit:10; stroke-width:.68px;"/><line x1="863.94" y1="157" x2="863.94" y2="740" style="fill:none; stroke:#a0a0a0; stroke-miterlimit:10; stroke-width:.68px;"/><line x1="601.25" y1="157" x2="601.25" y2="740" style="fill:none; stroke:#a0a0a0; stroke-miterlimit:10; stroke-width:.68px;"/><line x1="513.69" y1="157" x2="513.69" y2="740" style="fill:none; stroke:#a0a0a0; stroke-miterlimit:10; stroke-width:.68px;"/><line x1="426.12" y1="157" x2="426.12" y2="740" style="fill:none; stroke:#a0a0a0; stroke-miterlimit:10; stroke-width:.68px;"/><line x1="338.56" y1="157" x2="338.56" y2="740" style="fill:none; stroke:#a0a0a0; stroke-miterlimit:10; stroke-width:.68px;"/><line x1="251" y1="157" x2="251" y2="740" style="fill:none; stroke:#a0a0a0; stroke-miterlimit:10; stroke-width:.68px;"/></g></svg>